<?xml version="1.0" encoding="UTF-8"?>
<svg version="1.1" xmlns="http://www.w3.org/2000/svg" width="512" height="512">
<path d="M0 0 C0.92035829 -0.00367669 1.84071658 -0.00735338 2.78896451 -0.01114148 C5.89196903 -0.02220879 8.9949401 -0.02602731 12.09796143 -0.02983093 C14.31509509 -0.03609327 16.53222769 -0.04273986 18.74935913 -0.04974365 C24.78663745 -0.06717443 30.82390784 -0.077711 36.8612051 -0.08594918 C40.63056769 -0.09109475 44.3999278 -0.09717067 48.16928864 -0.10346031 C58.60407044 -0.12033284 69.0388511 -0.13496783 79.47364426 -0.14220905 C82.18207551 -0.14411897 84.89050676 -0.1460393 87.59893799 -0.147995 C88.27211206 -0.14847874 88.94528613 -0.14896248 89.63885942 -0.14946087 C100.54376154 -0.15776111 111.44855397 -0.18309736 122.35340819 -0.21557567 C133.54739899 -0.24864348 144.74135009 -0.26632477 155.93539357 -0.26985329 C162.22117 -0.27220738 168.5067731 -0.28121448 174.79250336 -0.30631447 C180.70550241 -0.32954405 186.61821338 -0.33384891 192.53124619 -0.32355309 C194.70246461 -0.32305638 196.87369698 -0.3294164 199.04487228 -0.34310913 C202.00763871 -0.36074973 204.96936251 -0.35376017 207.93212891 -0.34057617 C209.22289845 -0.35703004 209.22289845 -0.35703004 210.53974414 -0.37381631 C217.59810123 -0.29791403 221.68868464 2.37465327 226.66149902 7.32794189 C227.27267578 7.93203384 227.88385254 8.53612579 228.5135498 9.15852356 C229.16208923 9.80954041 229.81062866 10.46055725 230.4788208 11.13130188 C231.17874146 11.8261116 231.87866211 12.52092133 232.59979248 13.23678589 C234.900252 15.52340165 237.19326409 17.8173138 239.48565674 20.11201477 C241.08632822 21.70879767 242.68722266 23.3053571 244.28833008 24.90170288 C247.63714372 28.24306642 250.98207025 31.58826428 254.32452393 34.93598938 C258.60901046 39.22628172 262.90477994 43.5050759 267.20373917 47.78085995 C270.51004709 51.07244461 273.80941129 54.37092091 277.10680389 57.6714344 C278.68811178 59.2522288 280.27178584 60.83065991 281.85785675 62.40667534 C284.07207987 64.60857352 286.27656497 66.81978702 288.4788208 69.03364563 C289.13545715 69.68263824 289.79209351 70.33163086 290.46862793 71.00028992 C295.17275442 75.75941949 297.48259886 79.34043323 297.44708252 86.21284485 C297.44693146 87.19348404 297.4467804 88.17412323 297.44662476 89.18447876 C297.43630219 90.23048752 297.42597961 91.27649628 297.41534424 92.35420227 C297.4110994 93.97499947 297.4110994 93.97499947 297.4067688 95.62854004 C297.39559306 99.07236403 297.37049292 102.51592592 297.34503174 105.95967102 C297.33499858 108.29755788 297.32587332 110.63544883 297.31768799 112.9733429 C297.29566224 118.69804137 297.26221041 124.42258747 297.22003174 130.14717102 C299.07036011 130.35974548 299.07036011 130.35974548 300.95806885 130.57661438 C326.36172829 133.76469033 350.11726833 150.56139456 365.68878174 170.27217102 C383.81971682 195.60580634 391.96776896 224.91944876 387.39581299 255.97529602 C382.48828465 284.47062184 366.74260286 311.10106922 343.09503174 328.08467102 C341.48204533 329.12438278 339.85680822 330.1453285 338.22003174 331.14717102 C337.35764893 331.71564758 336.49526611 332.28412415 335.60675049 332.86982727 C324.17700998 340.06281749 311.3584603 344.34392896 298.22003174 347.14717102 C298.21123238 348.029207 298.21123238 348.029207 298.20225525 348.92906189 C298.13821165 355.06148619 298.05376368 361.19339103 297.95758057 367.32539368 C297.92437168 369.61243329 297.89632723 371.89955406 297.87359619 374.1867218 C297.83997664 377.4785768 297.7876555 380.76969074 297.73175049 384.06123352 C297.72536057 385.08020721 297.71897064 386.09918091 297.71238708 387.14903259 C297.60175434 392.51766194 297.33979377 396.56391348 294.22003174 401.14717102 C290.49462512 403.63077543 288.58940201 403.37875772 284.14581299 403.34248352 C283.46198044 403.33965363 282.77814789 403.33682373 282.07359314 403.33390808 C279.89306009 403.32272786 277.71294029 403.29762793 275.53253174 403.27217102 C274.05271997 403.2621384 272.57290175 403.25301304 271.09307861 403.24482727 C267.46859574 403.22279583 263.84435408 403.18828104 260.22003174 403.14717102 C260.22891418 403.7499437 260.23779663 404.35271637 260.24694824 404.97375488 C260.33549295 411.25159719 260.39579563 417.5292619 260.4397583 423.80757141 C260.45986439 426.15009263 260.4871534 428.49256372 260.52178955 430.83491516 C260.57035014 434.20344925 260.59301096 437.57131933 260.61065674 440.94013977 C260.63130188 441.98614853 260.65194702 443.03215729 260.67321777 444.10986328 C260.67546217 451.39477418 260.67546217 451.39477418 258.32061768 455.28511047 C255.07850345 458.15907668 253.27248533 458.27349315 249.02157879 458.2813921 C247.91296039 458.28584994 246.804342 458.29030779 245.6621291 458.29490072 C244.43404383 458.29471635 243.20595855 458.29453199 241.94065857 458.29434204 C239.99553256 458.29985707 239.99553256 458.29985707 238.01111108 458.30548352 C234.39958084 458.31552033 230.78806721 458.319223 227.176525 458.32187283 C223.28616875 458.32577088 219.39582573 458.33534951 215.50547791 458.34408569 C206.10465264 458.36386362 196.70382627 458.37391771 187.3029854 458.38281348 C182.87902011 458.38719396 178.45505603 458.39256137 174.03109169 458.39780235 C159.33028887 458.41481549 144.62948681 458.42931072 129.92867565 458.43655109 C126.1123015 458.43846107 122.29592735 458.44038139 118.47955322 458.44233704 C117.05669381 458.44306265 117.05669381 458.44306265 115.60508976 458.44380292 C100.23115761 458.45210718 84.85730316 458.47745039 69.48340496 458.50991771 C53.70947282 458.54295906 37.93558022 458.56099718 22.16161329 458.56419533 C13.30097818 458.56636308 4.44045641 458.57515036 -4.42014503 458.60065651 C-11.96462824 458.62232357 -19.50897059 458.63043368 -27.05348138 458.62068973 C-30.90425652 458.61613344 -34.7547408 458.61810779 -38.60547638 458.63745117 C-42.77707212 458.65822578 -46.94801791 458.64813499 -51.11964417 458.63491821 C-52.95173383 458.65137208 -52.95173383 458.65137208 -54.82083541 458.66815835 C-63.00374537 458.60526508 -63.00374537 458.60526508 -67.00873852 456.24168682 C-70.03270952 452.66577858 -69.90718899 450.44390781 -69.91418934 445.80865002 C-69.91654157 445.1476862 -69.9188938 444.48672238 -69.92131731 443.80572936 C-69.92802597 441.56928189 -69.92754853 439.33289226 -69.92713928 437.09643555 C-69.93043674 435.48547505 -69.93416206 433.87451538 -69.93828076 432.26355678 C-69.94832219 427.81971194 -69.95202099 423.37588061 -69.95467007 418.93202603 C-69.95856675 414.14595724 -69.96814546 409.35989922 -69.97688293 404.57383728 C-69.99666464 393.00762311 -70.00671538 381.44140803 -70.01561072 369.87518117 C-70.01999054 364.43310169 -70.02535811 358.99102318 -70.03059959 353.54894447 C-70.04761302 335.46655193 -70.06210849 317.38416 -70.06934834 299.30176067 C-70.07125834 294.60708299 -70.07317865 289.91240532 -70.07513428 285.21772766 C-70.07585989 283.46739593 -70.07585989 283.46739593 -70.07660016 281.68170396 C-70.0849053 262.76735555 -70.11024987 243.85307028 -70.14271495 224.93874945 C-70.1757492 205.53521778 -70.19379377 186.13171825 -70.19699258 166.7281583 C-70.19916097 155.82749792 -70.20795771 144.92692965 -70.23345375 134.02629662 C-70.25511109 124.74525477 -70.2632357 115.46432739 -70.25348697 106.18326315 C-70.24892791 101.44544192 -70.25092134 96.70785711 -70.27024841 91.97006798 C-70.28777864 87.63544327 -70.28696554 83.30122921 -70.27135112 78.96660075 C-70.26895954 77.39591753 -70.27337825 75.82520662 -70.28517977 74.25456592 C-70.30020354 72.12361222 -70.29069468 69.99413158 -70.27495289 67.86321545 C-70.2759297 66.678433 -70.27690651 65.49365055 -70.27791291 64.27296561 C-69.67753254 60.50414166 -68.42125015 58.84985866 -65.77996826 56.14717102 C-63.34029329 54.92733354 -61.78092302 55.02665575 -59.05487061 55.03364563 C-58.07400482 55.03372116 -57.09313904 55.03379669 -56.08255005 55.03387451 C-55.02105743 55.0390358 -53.95956482 55.04419708 -52.86590576 55.04951477 C-51.78112946 55.05092972 -50.69635315 55.05234467 -49.57870483 55.05380249 C-46.10409826 55.059413 -42.62955545 55.0719673 -39.15496826 55.08467102 C-36.80340669 55.08968467 -34.45184411 55.09424781 -32.10028076 55.0983429 C-26.3268214 55.10938584 -20.55339939 55.12613423 -14.77996826 55.14717102 C-14.78885071 54.54439835 -14.79773315 53.94162567 -14.80688477 53.32058716 C-14.89542948 47.04274485 -14.95573215 40.76508014 -14.99969482 34.48677063 C-15.01980091 32.14424941 -15.04708992 29.80177832 -15.08172607 27.45942688 C-15.13028667 24.09089279 -15.15294749 20.72302271 -15.17059326 17.35420227 C-15.1912384 16.30819351 -15.21188354 15.26218475 -15.2331543 14.18447876 C-15.2353987 6.89956786 -15.2353987 6.89956786 -12.8805542 3.00923157 C-8.87366541 -0.54266764 -5.11643328 -0.00108493 0 0 Z " fill="#262223" transform="translate(96.77996826171875,26.852828979492188)"/>
<path d="M0 0 C66.33 0 132.66 0 201 0 C201.33 22.11 201.66 44.22 202 67 C207.16536854 72.38398752 207.16536854 72.38398752 213.71801758 72.65942383 C214.37223694 72.66990753 215.0264563 72.68039124 215.70050049 72.69119263 C217.84899899 72.71984599 219.99587668 72.71366378 222.14453125 72.70703125 C223.63956207 72.72015242 225.13457518 72.73545795 226.62956238 72.75285339 C230.55379608 72.79266839 234.47756569 72.80289147 238.40197754 72.80688477 C243.11619126 72.81786637 247.83015847 72.86572127 252.54418182 72.90737152 C259.6963292 72.96644708 266.84718916 72.97877504 274 73 C274 85.21 274 97.42 274 110 C270.535 110.226875 267.07 110.45375 263.5 110.6875 C253.39221421 111.50287373 244.38383522 113.16866024 235 117 C234.30712891 117.28117676 233.61425781 117.56235352 232.90039062 117.85205078 C206.27251648 128.93899477 184.43677432 149.19187424 173.27734375 176.01953125 C161.91197266 204.71120403 161.99389604 234.52687689 173.76953125 263.01171875 C185.21684682 289.31800061 206.58336609 309.8749766 233.1953125 320.5390625 C234.46268832 321.02825823 235.7308616 321.51539537 237 322 C238.00804687 322.39960938 239.01609375 322.79921875 240.0546875 323.2109375 C250.95535446 327.05653088 262.58476606 327.72455487 274 329 C274 340.88 274 352.76 274 365 C183.58 365 93.16 365 0 365 C0 244.55 0 124.1 0 0 Z " fill="#F7F5F8" transform="translate(101,46)"/>
<path d="M0 0 C18.07454378 15.7602424 31.01271454 36.68080801 33 61 C34.52490083 89.09415941 27.73277828 112.93130639 8.6875 134.25 C-5.67409746 149.68210387 -27.02528847 160.73096815 -48.16064453 162.22314453 C-77.76444625 163.24824994 -100.77881011 156.59134179 -122.73046875 136.1953125 C-138.46582579 120.97453685 -148.54811056 99.69094452 -149.3359375 77.6796875 C-149.50509303 64.8659227 -149.3150198 53.15538258 -145 41 C-144.43925781 39.39511719 -144.43925781 39.39511719 -143.8671875 37.7578125 C-135.00584768 14.69485521 -117.02712286 -2.80957549 -94.77807617 -12.9465332 C-63.9720484 -26.62810784 -25.92455537 -21.84238176 0 0 Z " fill="#94D5A3" transform="translate(433,194)"/>
<path d="M0 0 C11.88 0 23.76 0 36 0 C36.00546844 6.0344062 36.00546844 6.0344062 36.01104736 12.1907196 C36.04630751 49.06297916 36.10131492 85.93516677 36.17792095 122.80736439 C36.18793868 127.63777061 36.19778276 132.46817718 36.20751953 137.29858398 C36.2094609 138.26025039 36.21140228 139.22191679 36.21340248 140.2127246 C36.24444236 155.79367208 36.26140868 171.37460482 36.27319422 186.9555774 C36.28559549 202.93740904 36.31307368 218.91916321 36.35461307 234.90094596 C36.37977785 244.76637915 36.39311511 254.63168389 36.39142957 264.49714962 C36.39139987 271.25788242 36.40598553 278.01848415 36.43216428 284.77916589 C36.44684428 288.68255584 36.45498426 292.58567702 36.44580269 296.48908997 C36.43602408 300.71777129 36.45697277 304.9457382 36.48101807 309.17436218 C36.47325765 310.41268333 36.46549723 311.65100447 36.45750165 312.9268505 C36.46894924 314.05845912 36.48039683 315.19006773 36.49219131 316.35596752 C36.4937102 317.33222849 36.49522908 318.30848946 36.49679399 319.31433409 C37.14500841 322.77392584 38.60419582 324.47087391 41 327 C43.29488444 328.14744222 44.58296148 328.12968881 47.13482094 328.1386652 C48.00616853 328.14413964 48.87751613 328.14961409 49.7752682 328.15525442 C50.73828864 328.15623253 51.70130908 328.15721064 52.69351196 328.15821838 C53.71202535 328.16315636 54.73053874 328.16809434 55.77991617 328.17318195 C59.21476661 328.18861879 62.64959828 328.19693427 66.08447266 328.20532227 C68.53794013 328.21489593 70.99140595 328.2249057 73.44487 328.23532104 C78.73832272 328.25680625 84.03177278 328.27523975 89.3252449 328.29092598 C96.9787734 328.31361103 104.6322741 328.34175573 112.28577904 328.37124526 C124.70222585 328.41893793 137.11868401 328.46219756 149.53515625 328.50268555 C161.5986418 328.54203196 173.66211726 328.58345612 185.72558594 328.62768555 C186.46882239 328.63040982 187.21205884 328.63313409 187.97781761 328.63594092 C191.70631021 328.64962025 195.43480266 328.66334056 199.16329503 328.67708123 C230.10884269 328.79107231 261.05441171 328.89760338 292 329 C292 340.88 292 352.76 292 365 C195.64 365 99.28 365 0 365 C0 244.55 0 124.1 0 0 Z " fill="#F7F5F8" transform="translate(46,101)"/>
<path d="M0 0 C2.97 0 5.94 0 9 0 C9.00059709 0.67944363 9.00119418 1.35888726 9.00180936 2.05892009 C9.037686 42.30845043 9.09429828 82.55790367 9.17792095 122.80736439 C9.18793868 127.63777061 9.19778276 132.46817718 9.20751953 137.29858398 C9.2094609 138.26025039 9.21140228 139.22191679 9.21340248 140.2127246 C9.24444236 155.79367208 9.26140868 171.37460482 9.27319422 186.9555774 C9.28559549 202.93740904 9.31307368 218.91916321 9.35461307 234.90094596 C9.37977785 244.76637915 9.39311511 254.63168389 9.39142957 264.49714962 C9.39139987 271.25788242 9.40598553 278.01848415 9.43216428 284.77916589 C9.44684428 288.68255584 9.45498426 292.58567702 9.44580269 296.48908997 C9.43602408 300.71777129 9.45697277 304.9457382 9.48101807 309.17436218 C9.47325765 310.41268333 9.46549723 311.65100447 9.45750165 312.9268505 C9.46894924 314.05845912 9.48039683 315.19006773 9.49219131 316.35596752 C9.49446964 317.82035898 9.49446964 317.82035898 9.49679399 319.31433409 C10.14500841 322.77392584 11.60419582 324.47087391 14 327 C16.29488444 328.14744222 17.58296148 328.12968881 20.13482094 328.1386652 C21.00616853 328.14413964 21.87751613 328.14961409 22.7752682 328.15525442 C23.73828864 328.15623253 24.70130908 328.15721064 25.69351196 328.15821838 C26.71202535 328.16315636 27.73053874 328.16809434 28.77991617 328.17318195 C32.21476661 328.18861879 35.64959828 328.19693427 39.08447266 328.20532227 C41.53794013 328.21489593 43.99140595 328.2249057 46.44487 328.23532104 C51.73832272 328.25680625 57.03177278 328.27523975 62.3252449 328.29092598 C69.9787734 328.31361103 77.6322741 328.34175573 85.28577904 328.37124526 C97.70222585 328.41893793 110.11868401 328.46219756 122.53515625 328.50268555 C134.5986418 328.54203196 146.66211726 328.58345612 158.72558594 328.62768555 C159.46882239 328.63040982 160.21205884 328.63313409 160.97781761 328.63594092 C164.70631021 328.64962025 168.43480266 328.66334056 172.16329503 328.67708123 C203.10884254 328.79107231 234.05441119 328.89780225 265 329 C265 331.97 265 334.94 265 338 C232.76107429 338.09125662 200.52218534 338.16204189 168.28316065 338.20426132 C164.47677811 338.20926413 160.67039583 338.21444142 156.86401367 338.21972656 C156.10623369 338.2207758 155.34845371 338.22182505 154.56771071 338.22290608 C142.29893262 338.24030982 130.03022954 338.27184732 117.76149594 338.30861118 C105.17199866 338.34602151 92.58254066 338.36823604 79.99299008 338.37635398 C72.22495874 338.38184158 64.45713938 338.39917159 56.68917329 338.43166587 C50.7320022 338.45531552 44.77493982 338.45781959 38.81772041 338.45243073 C36.37439799 338.4535321 33.93106761 338.46150101 31.48779297 338.4768219 C28.15310066 338.49670867 24.819317 338.49194312 21.48460388 338.48101807 C20.5166929 338.49266943 19.54878193 338.5043208 18.55154032 338.51632524 C12.5095195 338.4627826 8.82547514 337.75383021 4 334 C-1.08830358 327.82517858 -0.55301793 321.48048654 -0.48101807 313.74403381 C-0.48276371 312.38917943 -0.4862685 311.03432638 -0.49137473 309.67948049 C-0.50030008 305.96680721 -0.48434513 302.25459728 -0.46426249 298.54198301 C-0.44696645 294.53457074 -0.45283571 290.52718397 -0.45587158 286.51974487 C-0.45796759 279.58004137 -0.44543227 272.64048846 -0.42292023 265.70082283 C-0.390393 255.66729386 -0.37999247 245.6338376 -0.37496826 235.60026162 C-0.36621674 219.32095021 -0.33960504 203.04171903 -0.30175781 186.76245117 C-0.26503402 170.94995525 -0.23672406 155.13748114 -0.21972656 139.32495117 C-0.21867567 138.35004268 -0.21762477 137.37513419 -0.21654204 136.37068302 C-0.21132183 131.4797863 -0.20626701 126.58888942 -0.20129442 121.69799244 C-0.15983685 81.13193915 -0.0893923 40.56597417 0 0 Z " fill="#DDDAEC" transform="translate(73,101)"/>
<path d="M0 0 C22.85763163 5.25142036 43.17923435 19.25291417 56 39 C69.57941855 60.92580788 73.64364524 86.56718917 68.16796875 111.76953125 C62.6122229 133.62895894 48.15314843 154.09130667 29 166 C8.73880597 178 8.73880597 178 1 178 C1 177.34 1 176.68 1 176 C2.54287884 174.95825306 4.13800326 173.9937241 5.75 173.0625 C12.6419211 168.79607265 18.25361611 163.66567625 24 158 C25.09828125 156.92105469 25.09828125 156.92105469 26.21875 155.8203125 C44.69630298 136.38955242 51.50121589 109.9980892 51.21484375 83.88671875 C50.89568363 71.53859219 48.03476736 60.29961992 43 49 C42.54625 47.98164063 42.0925 46.96328125 41.625 45.9140625 C32.89420785 27.45602909 18.75172363 12.91877497 1.58203125 2.09375 C1.05996094 1.7328125 0.53789062 1.371875 0 1 C0 0.67 0 0.34 0 0 Z " fill="#77C0A2" transform="translate(396,176)"/>
<path d="M0 0 C3.375 2 3.375 2 6 5 C6.73858094 8.46564904 6.98389025 9.76995902 6 13 C4.81759644 14.71742249 4.81759644 14.71742249 3.21044922 16.47680664 C2.5738739 17.17419952 1.93729858 17.87159241 1.28143311 18.59011841 C-6.44161059 26.74798233 -14.32621952 34.74585897 -22.23078728 42.72741604 C-25.37717026 45.90446019 -28.51505349 49.08899176 -31.63427734 52.29272461 C-34.6720986 55.41257629 -37.72918876 58.51227038 -40.8008461 61.59880257 C-41.96152675 62.77169316 -43.1153263 63.95143711 -44.26180649 65.1382122 C-54.31153525 75.52365034 -54.31153525 75.52365034 -59.97729492 76.45751953 C-63.94754468 76.37111086 -66.02215637 75.18986987 -68.80859375 72.30859375 C-70.05745361 71.06118408 -70.05745361 71.06118408 -71.33154297 69.78857422 C-72.21213379 68.86834473 -73.09272461 67.94811523 -74 67 C-74.97280105 66.03914223 -75.94963512 65.08235284 -76.93017578 64.12939453 C-79.48444301 61.64274434 -82.01071585 59.13015798 -84.52612305 56.60424805 C-86.08851972 55.03638932 -87.65632806 53.4740797 -89.22460938 51.91210938 C-90.22427993 50.91177961 -91.2236411 49.91114056 -92.22265625 48.91015625 C-93.11734619 48.01433838 -94.01203613 47.11852051 -94.93383789 46.19555664 C-98.0226449 42.9133114 -98.42313114 40.58530582 -98.33203125 36.046875 C-98 34 -98 34 -96.0625 30.9375 C-92.67642422 28.79528879 -90.61170395 28.44404534 -86.65454102 28.98608398 C-80.61715475 31.29209568 -76.27685939 36.93462118 -71.9375 41.5625 C-70.87233465 42.66784193 -69.80529197 43.771378 -68.73632812 44.87304688 C-66.13553075 47.56150781 -63.56114857 50.27367752 -61 53 C-55.2691251 48.27275673 -50.03065324 43.15105149 -44.80200768 37.87717247 C-43.29530542 36.35755763 -41.78537054 34.84121987 -40.27461243 33.32563782 C-37.07606385 30.11574938 -33.88150697 26.90190675 -30.6875 23.6875 C-26.96667525 19.94305273 -23.2442208 16.20025531 -19.51755714 12.46161842 C-18.02980412 10.96738292 -16.54509099 9.47017115 -15.06047058 7.9728241 C-14.16226089 7.07131119 -13.26405121 6.16979828 -12.33862305 5.2409668 C-11.15117744 4.04566597 -11.15117744 4.04566597 -9.93974304 2.82621765 C-6.68275832 -0.2401488 -4.42713721 -0.51082352 0 0 Z " fill="#242121" transform="translate(421,227)"/>
<path d="M0 0 C1.4299379 -0.01073296 1.4299379 -0.01073296 2.88876343 -0.02168274 C3.9381308 -0.02437164 4.98749817 -0.02706055 6.06866455 -0.02983093 C7.17122589 -0.03640213 8.27378723 -0.04297333 9.40975952 -0.04974365 C13.07112693 -0.06951026 16.73245326 -0.0811468 20.39385986 -0.09111023 C21.64224892 -0.09518576 22.89063797 -0.09926128 24.17685699 -0.10346031 C30.10248089 -0.12218123 36.02809168 -0.13674354 41.95373797 -0.14507228 C48.78978539 -0.15483954 55.62550856 -0.18114438 62.46144176 -0.22157317 C68.38490442 -0.25540069 74.30828786 -0.26721974 80.23184967 -0.27127647 C82.75005542 -0.27615312 85.26825745 -0.28779755 87.78639984 -0.30631447 C91.31043906 -0.33061706 94.83362998 -0.32975659 98.35772705 -0.32279968 C99.3989975 -0.33560974 100.44026794 -0.3484198 101.51309204 -0.36161804 C107.4665362 -0.31876001 110.95123972 0.14617465 115.47198486 4.14717102 C116.66996616 6.54313362 116.58167783 7.86421802 116.40948486 10.52217102 C116.3772583 11.2930304 116.34503174 12.06388977 116.31182861 12.85810852 C115.30001004 15.61590239 113.91240503 16.75001567 111.45652771 18.30172539 C107.31851863 20.0645806 102.84857522 19.70853411 98.42120361 19.68061829 C97.31805817 19.68923386 96.21491272 19.69784943 95.07833862 19.70672607 C91.43848081 19.72939516 87.79939225 19.72264534 84.15948486 19.71357727 C81.62652355 19.71881213 79.09356419 19.72508811 76.56060791 19.73236084 C71.25459601 19.74276667 65.94886258 19.73853025 60.6428833 19.72358704 C54.51803666 19.70666024 48.39390244 19.72251226 42.26913357 19.75480992 C36.36482991 19.78475988 30.46074724 19.78668384 24.55636597 19.77731133 C22.0493375 19.7764911 19.54229426 19.78336807 17.03530884 19.79808235 C13.53059934 19.81550008 10.02741425 19.80100665 6.52276611 19.77827454 C5.48777985 19.78996674 4.45279358 19.80165894 3.38644409 19.81370544 C-1.20153888 19.753154 -4.49549158 19.68380997 -8.15618896 16.73272705 C-10.71898334 13.9389943 -11.41049776 13.02855137 -11.90301514 9.33467102 C-11.40562759 5.10687688 -9.73420437 3.81899538 -6.52801514 1.14717102 C-4.14131887 -0.04617711 -2.66460038 0.01370227 0 0 Z " fill="#2A2627" transform="translate(148.52801513671875,81.85282897949219)"/>
<path d="M0 0 C0.96315125 -0.00571014 1.92630249 -0.01142029 2.91864014 -0.01730347 C3.97892929 -0.01842133 5.03921844 -0.01953918 6.13163757 -0.02069092 C7.24555878 -0.02565582 8.35947998 -0.03062073 9.50715637 -0.03573608 C13.20580149 -0.05038532 16.90440371 -0.05716441 20.60307312 -0.06268311 C23.16656496 -0.0684324 25.73005678 -0.07419016 28.29354858 -0.07995605 C32.98621991 -0.0891284 37.67887401 -0.09542543 42.37155277 -0.09845281 C49.27660079 -0.10293191 56.18145069 -0.12047185 63.08643848 -0.1494534 C69.06758954 -0.17368533 75.04864698 -0.18139767 81.02985191 -0.18312836 C83.57399257 -0.18615929 86.1181323 -0.19420255 88.66224098 -0.20731354 C92.21990142 -0.2243385 95.7770781 -0.22250214 99.33476257 -0.21600342 C100.91608727 -0.22982559 100.91608727 -0.22982559 102.52935791 -0.243927 C111.56135903 -0.19215669 111.56135903 -0.19215669 115.42729187 3.14044189 C117.76638494 6.6490815 117.84020244 8.01133622 117.42729187 12.14044189 C115.16258599 16.77279484 115.16258599 16.77279484 112.42729187 18.14044189 C110.86771073 18.24552319 109.30375968 18.28860936 107.74069214 18.30107117 C106.75229843 18.31111679 105.76390472 18.32116241 104.74555969 18.33151245 C103.11304764 18.34025894 103.11304764 18.34025894 101.44755554 18.34918213 C100.30437363 18.35896591 99.16119171 18.36874969 97.98336792 18.37882996 C94.1873441 18.40882901 90.39135557 18.43018035 86.59526062 18.44903564 C85.30149317 18.45560747 84.00772572 18.4621793 82.67475319 18.46895027 C77.23858537 18.49484485 71.80243066 18.51833464 66.36622143 18.53344631 C58.57570044 18.55535653 50.78586836 18.59733455 42.99562281 18.66688389 C36.85748804 18.71982286 30.71962594 18.73992789 24.58127785 18.74864388 C21.97010766 18.75722358 19.35895059 18.77610283 16.74793053 18.8053875 C13.09647424 18.84414069 9.44682358 18.84535666 5.79521179 18.83746338 C4.71294312 18.85746399 3.63067444 18.8774646 2.51560974 18.89807129 C-4.60597617 18.82882281 -4.60597617 18.82882281 -7.36305809 16.86558723 C-9.55043807 14.37447619 -10.53743676 12.33247493 -11.13520813 9.07794189 C-10.44291452 5.46263082 -9.1167978 3.75935773 -6.57270813 1.14044189 C-4.17363838 -0.05909298 -2.67927599 0.00949128 0 0 Z " fill="#252122" transform="translate(147.5727081298828,136.85955810546875)"/>
<path d="M0 0 C2.97 0 5.94 0 9 0 C9.00142502 0.82827805 9.00285004 1.65655609 9.00431824 2.50993347 C9.02216171 10.32292962 9.06381464 18.13536018 9.13209057 25.94808483 C9.16635437 29.96457038 9.1914695 33.98067584 9.19555664 37.99731445 C9.19984107 41.87505773 9.22831405 45.75194369 9.27343178 49.62941933 C9.28640246 51.10730301 9.29071592 52.58528932 9.28615379 54.06322289 C9.28124394 56.13707947 9.30734807 58.20843389 9.34057617 60.28198242 C9.34723801 61.46112717 9.35389984 62.64027191 9.36076355 63.85514832 C10.20895737 68.02800763 11.59380784 69.48991573 15 72 C18.19360301 72.75484041 18.19360301 72.75484041 21.71801758 72.65942383 C22.37223694 72.66990753 23.0264563 72.68039124 23.70050049 72.69119263 C25.84899899 72.71984599 27.99587668 72.71366378 30.14453125 72.70703125 C31.63956207 72.72015242 33.13457518 72.73545795 34.62956238 72.75285339 C38.55379608 72.79266839 42.47756569 72.80289147 46.40197754 72.80688477 C51.11619126 72.81786637 55.83015847 72.86572127 60.54418182 72.90737152 C67.6963292 72.96644708 74.84718916 72.97877504 82 73 C82 85.21 82 97.42 82 110 C78.7 110 75.4 110 72 110 C72.00785522 108.82642944 72.00785522 108.82642944 72.01586914 107.62915039 C72.03657106 104.10694167 72.04963838 100.5847457 72.0625 97.0625 C72.07506836 95.21495117 72.07506836 95.21495117 72.08789062 93.33007812 C72.09272461 91.5753418 72.09272461 91.5753418 72.09765625 89.78515625 C72.10551147 88.15912476 72.10551147 88.15912476 72.11352539 86.50024414 C72.28426897 84.05950052 72.28426897 84.05950052 71 83 C69.1295704 82.89748574 67.25530683 82.86428387 65.38208008 82.8581543 C64.18025589 82.85111984 62.9784317 82.84408539 61.7401886 82.83683777 C59.77471321 82.83059135 59.77471321 82.83059135 57.76953125 82.82421875 C56.4176912 82.81379815 55.06585853 82.80237622 53.71403503 82.78999329 C47.96263082 82.73749835 42.21135512 82.68959364 36.4597168 82.67407227 C32.94400493 82.66396171 29.42889921 82.63455439 25.91342735 82.59275246 C23.92721207 82.57451876 21.9408409 82.57708636 19.95454407 82.58000183 C8.82259074 82.42923097 8.82259074 82.42923097 4 78 C3.401875 77.484375 2.80375 76.96875 2.1875 76.4375 C-0.60981238 73.05127975 -0.12079948 69.21810427 -0.11352539 65.05004883 C-0.11367142 64.34735367 -0.11381744 63.64465851 -0.1139679 62.92066956 C-0.11327157 60.59942532 -0.10549226 58.27826146 -0.09765625 55.95703125 C-0.09579108 54.3470616 -0.09436764 52.73709139 -0.09336853 51.12712097 C-0.08955118 46.89057853 -0.07972755 42.6540704 -0.06866455 38.4175415 C-0.05843364 34.09412093 -0.05386731 29.77069481 -0.04882812 25.44726562 C-0.03810459 16.96482801 -0.02103753 8.48241827 0 0 Z " fill="#D9D6E8" transform="translate(293,46)"/>
<path d="M0 0 C2.90548622 2.97466447 3.91705638 4.72819779 4.1875 8.875 C0.56916471 18.39693497 -10.21589599 26.60745274 -17.27832031 33.79321289 C-18.68064363 35.22737751 -20.07484074 36.66953145 -21.4609375 38.11938477 C-23.48350449 40.23330119 -25.53122246 42.31971881 -27.5859375 44.40234375 C-28.19561371 45.05017319 -28.80528992 45.69800262 -29.43344116 46.36546326 C-33.42626774 50.34075471 -36.38706604 51.77165262 -42.0302124 52.15815735 C-45.23564512 51.90078811 -46.68041568 50.5148735 -48.875 48.25 C-49.69742188 47.42628906 -50.51984375 46.60257812 -51.3671875 45.75390625 C-52.23601562 44.84511719 -53.10484375 43.93632812 -54 43 C-54.99840036 42.0256218 -56.00111248 41.05564457 -57.0078125 40.08984375 C-66.57936571 30.82425882 -66.57936571 30.82425882 -67.4375 25.0625 C-67 22 -67 22 -64.9375 19.1875 C-61.29064168 16.47175444 -59.56356078 15.69060605 -55 16 C-52.82131655 17.43096961 -51.04311945 19.02003106 -49.1875 20.84765625 C-47.30116532 22.70367484 -45.37600755 24.41970088 -43.36328125 26.13452148 C-42.73333252 26.67197495 -42.10338379 27.20942841 -41.4543457 27.76316833 C-40.73444458 28.37540001 -40.73444458 28.37540001 -40 29 C-38.69796631 27.69011108 -38.69796631 27.69011108 -37.36962891 26.35375977 C-34.15552139 23.12158343 -30.93813108 19.89269213 -27.71972656 16.66479492 C-26.32592098 15.26595345 -24.93301328 13.86621674 -23.54101562 12.46557617 C-21.54270748 10.45517001 -19.54121682 8.44798114 -17.5390625 6.44140625 C-16.60303696 5.49763878 -16.60303696 5.49763878 -15.64810181 4.5348053 C-15.06765106 3.95427902 -14.48720032 3.37375275 -13.88916016 2.77563477 C-13.37841949 2.26267349 -12.86767883 1.74971222 -12.34146118 1.22120667 C-8.74423153 -2.0535514 -4.40413388 -1.26501718 0 0 Z " fill="#272324" transform="translate(204,248)"/>
<path d="M0 0 C4.63235294 2.26470588 4.63235294 2.26470588 6 5 C6.91966455 11.66756801 6.91966455 11.66756801 4.67988586 14.91261292 C4.10272324 15.53643356 3.52556061 16.16025421 2.9309082 16.80297852 C2.29343658 17.49682648 1.65596497 18.19067444 0.99917603 18.9055481 C-2.09720701 22.14949724 -5.21839108 25.36131747 -8.39453125 28.52734375 C-9.40467537 29.53892296 -9.40467537 29.53892296 -10.43522644 30.57093811 C-11.8432044 31.97959068 -13.25242224 33.38700499 -14.6628418 34.79321289 C-16.82783604 36.95279773 -18.98737256 39.11773882 -21.14648438 41.28320312 C-22.52051237 42.6565712 -23.89485006 44.02962951 -25.26953125 45.40234375 C-25.91533646 46.05017319 -26.56114166 46.69800262 -27.22651672 47.36546326 C-28.12336433 48.25758263 -28.12336433 48.25758263 -29.03833008 49.16772461 C-29.56348709 49.69208603 -30.0886441 50.21644745 -30.62971497 50.75669861 C-32.79293518 52.71945426 -34.18889605 53.03022337 -37.125 53.5 C-42.77657291 52.77076479 -45.07589915 49.94974857 -49 46 C-50.10816208 44.92583062 -51.21763696 43.85301461 -52.328125 42.78125 C-53.51182043 41.62643713 -54.69410666 40.47017809 -55.875 39.3125 C-56.44686035 38.75409424 -57.0187207 38.19568848 -57.60791016 37.62036133 C-61.24465633 33.98850472 -63.65977291 31.28438192 -64.4375 26.0625 C-64 23 -64 23 -62 20.125 C-58.92318405 17.9455887 -56.91125962 17.1428737 -53.11328125 17.37890625 C-49.70001792 18.38206497 -47.55218089 20.52049136 -45.0546875 22.98046875 C-43.37513406 24.63128459 -41.68337221 26.12851317 -39.87158203 27.6262207 C-38.92395996 28.40956787 -37.97633789 29.19291504 -37 30 C-35.75126099 28.74340576 -35.75126099 28.74340576 -34.47729492 27.46142578 C-31.38804027 24.3540713 -28.29547754 21.25002724 -25.2019043 18.14697266 C-23.86343362 16.80347319 -22.52586184 15.45907756 -21.18920898 14.11376953 C-19.26782054 12.18025201 -17.34322285 10.24997998 -15.41796875 8.3203125 C-14.5224958 7.41709763 -14.5224958 7.41709763 -13.6089325 6.49563599 C-13.04857803 5.93520599 -12.48822357 5.374776 -11.91088867 4.79736328 C-11.17475594 4.05789963 -11.17475594 4.05789963 -10.42375183 3.30349731 C-6.89230634 0.07032872 -4.67517861 -0.46751786 0 0 Z " fill="#262223" transform="translate(201,320)"/>
<path d="M0 0 C1.1849556 -0.00960754 2.36991119 -0.01921509 3.59077454 -0.02911377 C4.87719345 -0.03336365 6.16361237 -0.03761353 7.48901367 -0.04199219 C8.8060881 -0.04769226 10.12316254 -0.05339233 11.48014832 -0.05926514 C14.27192572 -0.06977544 17.06367434 -0.07561757 19.85546875 -0.07910156 C23.42660135 -0.08457954 26.99735135 -0.10859195 30.56836414 -0.13707352 C33.97940662 -0.16022251 37.3903967 -0.16215138 40.80151367 -0.16699219 C42.08185989 -0.17933899 43.36220612 -0.19168579 44.68135071 -0.20440674 C45.87576279 -0.20140564 47.07017487 -0.19840454 48.30078125 -0.1953125 C49.34953934 -0.19895813 50.39829742 -0.20260376 51.47883606 -0.20635986 C55.74232047 0.34039263 58.347627 2.16427739 61.34448242 5.16113281 C62.12259997 11.94187143 62.12259997 11.94187143 59.69042969 15.75292969 C55.15808828 20.08974403 48.10338262 18.8969505 42.25073242 18.86035156 C40.85737499 18.86626433 39.46402263 18.87351267 38.07067871 18.8820343 C35.155329 18.89389674 32.2407436 18.88723754 29.32543945 18.86791992 C25.59566527 18.84502539 21.86816812 18.87182238 18.13861847 18.91298199 C15.26280333 18.93859892 12.38753041 18.93597025 9.51164246 18.92508888 C8.1369571 18.92360552 6.76222951 18.931254 5.38764954 18.94833946 C-5.27811472 19.05940641 -5.27811472 19.05940641 -8.61694336 16.88198853 C-10.77309174 14.42556701 -11.63090425 12.29513871 -12.21801758 9.09863281 C-11.52572397 5.48332174 -10.19960725 3.78004865 -7.65551758 1.16113281 C-5.0008371 -0.16620743 -2.97285098 0.01939907 0 0 Z " fill="#242021" transform="translate(148.655517578125,191.8388671875)"/>
<path d="M0 0 C7.87700252 6.75171645 7.87700252 6.75171645 11.00756836 9.87817383 C11.70776596 10.57521927 12.40796356 11.27226471 13.12937927 11.99043274 C13.85883255 12.72191025 14.58828583 13.45338776 15.33984375 14.20703125 C16.10680069 14.97303146 16.87375763 15.73903168 17.66395569 16.52824402 C19.27109547 18.13470736 20.87698941 19.74241795 22.48168945 21.35131836 C24.95084704 23.82587623 27.42535325 26.29499643 29.90039062 28.76367188 C31.4638628 30.32780406 33.02702518 31.892246 34.58984375 33.45703125 C35.33346664 34.19862991 36.07708954 34.94022858 36.84324646 35.70429993 C37.52137894 36.38558456 38.19951141 37.0668692 38.89819336 37.76879883 C39.79918007 38.67097893 39.79918007 38.67097893 40.71836853 39.59138489 C42 41 42 41 42 42 C28.14 42 14.28 42 0 42 C0 28.14 0 14.28 0 0 Z " fill="#F2F0F2" transform="translate(320,59)"/>
<path d="M0 0 C2.97 0 5.94 0 9 0 C9 11.88 9 23.76 9 36 C6.03 36 3.06 36 0 36 C0 24.12 0 12.24 0 0 Z " fill="#DAD6E8" transform="translate(366,375)"/>
</svg>
