<?xml version="1.0" encoding="UTF-8"?>
<svg version="1.1" xmlns="http://www.w3.org/2000/svg" width="512" height="512">
<path d="M0 0 C0.84663507 -0.00467997 1.69327014 -0.00935994 2.56556082 -0.01418173 C5.37740758 -0.02606306 8.18876074 -0.01670157 11.00061035 -0.00723267 C13.02672101 -0.01130142 15.05282945 -0.016645 17.07893372 -0.02316284 C22.56442295 -0.03680606 28.04974236 -0.03155011 33.53523445 -0.02202559 C39.28456189 -0.0144135 45.0338751 -0.0214789 50.78320312 -0.02618408 C60.43691611 -0.03163711 70.09056018 -0.02446187 79.7442627 -0.01016235 C90.89433043 0.00616325 102.04423357 0.00087442 113.19429731 -0.01564157 C122.77926778 -0.0292693 132.36418879 -0.03116979 141.94916582 -0.02332556 C147.66870858 -0.01865614 153.38817405 -0.01800412 159.10771179 -0.02793503 C164.48566046 -0.0366211 169.86339758 -0.03055269 175.24132347 -0.01325226 C177.21131731 -0.0092962 179.18132905 -0.01040632 181.15131569 -0.01704025 C183.84761559 -0.02528073 186.5432444 -0.01490419 189.23950195 0 C190.39910942 -0.01003825 190.39910942 -0.01003825 191.58214331 -0.02027929 C201.9857668 0.09069223 209.72281534 4.06111437 217.03381348 11.26766968 C224.20313336 19.03189057 227.28761381 26.2884156 227.23327637 36.81161499 C227.23342239 37.55347046 227.23356842 38.29532593 227.23371887 39.05966187 C227.23302367 41.5053299 227.22524964 43.95092124 227.21740723 46.39657593 C227.21554165 48.09479735 227.21411841 49.7930193 227.21311951 51.49124146 C227.2093053 55.95628348 227.19948436 60.42129287 227.18841553 64.88632202 C227.17817784 69.444423 227.17361683 74.00252926 227.1685791 78.56063843 C227.15786112 87.50075692 227.14079785 96.44085121 227.11975098 105.38095093 C224.80975098 105.38095093 222.49975098 105.38095093 220.11975098 105.38095093 C220.11975098 110.00095093 220.11975098 114.62095093 220.11975098 119.38095093 C222.42975098 119.38095093 224.73975098 119.38095093 227.11975098 119.38095093 C227.23633929 127.25735102 227.32481391 135.13354356 227.37881184 143.01059341 C227.40474737 146.66951539 227.43984404 150.32784088 227.49694824 153.98641968 C227.5518514 157.526718 227.58129165 161.06644792 227.59413719 164.60713959 C227.60767712 166.5944547 227.64661448 168.58154567 227.68623352 170.56851196 C227.689831 182.38416196 224.58593476 191.88109207 216.28381348 200.47860718 C205.69005044 209.79117504 193.3292273 210.79703187 179.82932091 210.60824966 C177.26652218 210.57559515 174.70467472 210.56729228 172.14167786 210.565979 C164.8618741 210.5604113 157.58285326 210.53156239 150.30358887 210.43954468 C145.83064189 210.38473742 141.35937221 210.37454588 136.88614845 210.3916893 C135.19701996 210.38976416 133.50781878 210.37160427 131.819067 210.33588028 C119.59995098 210.08473008 112.37562826 212.25926898 103.11975098 220.38095093 C104.24346603 220.38459656 105.36718109 220.38824219 106.52494812 220.39199829 C117.16084148 220.42908186 127.79644888 220.48699951 138.43212414 220.56485367 C143.89889339 220.60421385 149.36550432 220.63645833 154.83239746 220.65194702 C160.11700922 220.66718932 165.40118537 220.70176819 170.68560219 220.74925995 C172.69277453 220.76399602 174.70000908 220.77198743 176.70723534 220.77283478 C191.80459493 220.78560746 205.71926628 221.09585575 217.11975098 232.38095093 C225.37666886 241.28583322 227.72442289 250.82510481 227.6373291 262.72445679 C227.64784302 264.51430748 227.64784302 264.51430748 227.65856934 266.34031677 C227.67306541 269.58438597 227.66979819 272.82779242 227.65705299 276.07185054 C227.64684404 279.48597784 227.65634059 282.90006447 227.66259766 286.31419373 C227.6698523 292.04607963 227.66034517 297.77775863 227.64123535 303.50961304 C227.61948099 310.11036433 227.62651596 316.71062102 227.64854097 323.3113603 C227.66677014 329.00514766 227.66921654 334.69878725 227.6587863 340.3925944 C227.65259102 343.78157138 227.65160468 347.17031693 227.66493225 350.55927849 C227.67515115 354.34253689 227.65951967 358.12486124 227.6373291 361.90805054 C227.64542603 363.01228363 227.65352295 364.11651672 227.66186523 365.25421143 C227.54004838 376.52972106 224.26691009 386.35493916 216.11975098 394.38095093 C203.01582313 405.00464007 189.16947882 404.80915513 173.11975098 404.38095093 C173.11975098 401.74095093 173.11975098 399.10095093 173.11975098 396.38095093 C168.49975098 396.38095093 163.87975098 396.38095093 159.11975098 396.38095093 C159.11975098 399.02095093 159.11975098 401.66095093 159.11975098 404.38095093 C158.42526855 404.35887573 157.73078613 404.33680054 157.01525879 404.3140564 C141.24308825 403.36868106 141.24308825 403.36868106 127.55725098 409.69345093 C126.2222362 411.0818663 124.88785093 412.47152425 123.59094238 413.89559937 C120.77592886 416.73770727 117.47618202 418.97693909 114.24475098 421.31845093 C112.885013 422.32532079 111.52693487 423.33443611 110.17053223 424.34579468 C109.49973633 424.84578979 108.82894043 425.34578491 108.13781738 425.8609314 C101.76964565 430.65747594 95.4696646 435.58384393 89.35021973 440.69345093 C87.11975098 442.38095093 87.11975098 442.38095093 85.11975098 442.38095093 C85.11975098 429.84095093 85.11975098 417.30095093 85.11975098 404.38095093 C81.97572754 404.40415405 78.8317041 404.42735718 75.59240723 404.45126343 C72.52429609 404.46689147 69.45618951 404.47901825 66.38806152 404.49081421 C64.26694736 404.50082937 62.14584684 404.51444539 60.02478027 404.53182983 C56.96395482 404.55627617 53.903313 404.56747917 50.84240723 404.57626343 C49.43560448 404.59174728 49.43560448 404.59174728 48.00038147 404.60754395 C41.58087033 404.60862113 34.96245043 404.30230065 29.11975098 401.38095093 C29.11975098 417.55095093 29.11975098 433.72095093 29.11975098 450.38095093 C38.35975098 450.38095093 47.59975098 450.38095093 57.11975098 450.38095093 C57.18162598 456.75407593 57.18162598 456.75407593 57.24475098 463.25595093 C57.26295898 464.57450073 57.28116699 465.89305054 57.29992676 467.2515564 C57.35910662 479.94468143 55.19362482 489.30033703 48.43225098 500.06845093 C39.84200414 508.65869777 30.67688493 512.68462141 18.60231078 512.78684324 C17.5348913 512.78083319 16.46747182 512.77482315 15.3677063 512.76863098 C14.21213238 512.77401652 13.05655846 512.77940206 11.86596715 512.78495079 C8.68078075 512.79672894 5.49593283 512.79518426 2.31074381 512.78778398 C-1.13312767 512.78303604 -4.57694413 512.7955765 -8.02079773 512.80580139 C-14.75904685 512.82296325 -21.4972026 512.82383482 -28.2354679 512.81858849 C-33.71476433 512.81454052 -39.19403327 512.81599778 -44.6733284 512.82133675 C-45.45436027 512.82208517 -46.23539214 512.82283359 -47.04009164 512.82360469 C-48.6269658 512.82513623 -50.21383995 512.82667458 -51.80071409 512.82821966 C-66.66919831 512.84193535 -81.53762986 512.83651366 -96.40611286 512.82503445 C-109.99403375 512.81510397 -123.58181843 512.82804115 -137.16971831 512.85196864 C-151.1381538 512.87637998 -165.1065259 512.88596246 -179.07498229 512.87931591 C-186.91064835 512.87582809 -194.7462097 512.87802679 -202.58185959 512.89556694 C-209.25243486 512.91031444 -215.92283169 512.91089127 -222.59340356 512.89349603 C-225.99341109 512.88500412 -229.3928396 512.88497337 -232.79287148 512.89814758 C-236.48695865 512.91136603 -240.18018645 512.89980067 -243.87423706 512.88215637 C-244.93719509 512.89176138 -246.00015313 512.90136639 -247.09532201 512.91126245 C-258.25007668 512.80202156 -266.63762682 509.57193968 -274.64978027 501.81454468 C-281.93147512 493.86971825 -285.23995688 486.39903 -285.07556152 475.47860718 C-285.07273163 474.75604233 -285.06990173 474.03347748 -285.06698608 473.28901672 C-285.05589288 471.00698477 -285.0308099 468.72536196 -285.00524902 466.44345093 C-284.99520513 464.88551393 -284.98608176 463.32757072 -284.97790527 461.7696228 C-284.95770036 457.97311877 -284.91853342 454.17748664 -284.88024902 450.38095093 C-275.64024902 450.38095093 -266.40024902 450.38095093 -256.88024902 450.38095093 C-256.88913147 448.37582932 -256.89801392 446.3707077 -256.90716553 444.30482483 C-256.98899618 425.39803907 -257.04847481 406.49127673 -257.08749771 387.58435345 C-257.10809387 377.86438172 -257.13615797 368.14454022 -257.18200684 358.4246521 C-257.22196499 349.94952151 -257.24770324 341.47448528 -257.256603 332.99926311 C-257.26180258 328.51463022 -257.27396164 324.03026718 -257.30316925 319.54572105 C-257.33048049 315.31777075 -257.33866256 311.09019941 -257.33267975 306.86216927 C-257.33377301 305.31710114 -257.34163298 303.77201928 -257.35707092 302.22702789 C-257.46651699 290.70080387 -256.20585855 280.4489985 -248.70837402 271.22860718 C-239.61433875 262.0374134 -229.29723355 258.45766146 -216.60567951 258.25231647 C-215.0435958 258.24559955 -213.48148301 258.24420143 -211.91938782 258.24723816 C-211.05192812 258.2449726 -210.18446843 258.24270705 -209.29072207 258.24037284 C-206.40233772 258.23407476 -203.51400079 258.2348595 -200.62561035 258.23568726 C-198.54702698 258.23269311 -196.46844416 258.22929 -194.38986206 258.22550964 C-188.75534212 258.2166906 -183.12083737 258.21433239 -177.4863112 258.21369386 C-173.96176067 258.21298207 -170.43721398 258.2108453 -166.91266441 258.20819664 C-154.60424938 258.19894958 -142.29584515 258.19486088 -129.98742676 258.19564819 C-118.53473213 258.19624855 -107.08208468 258.18570328 -95.62940198 258.16990453 C-85.78028449 258.1568046 -75.93118236 258.15146534 -66.08205622 258.1521036 C-60.20700368 258.1523579 -54.33199306 258.14954437 -48.45694923 258.13892555 C-42.9272097 258.12920346 -37.3975518 258.12919348 -31.8678093 258.13644218 C-29.84627729 258.13748298 -27.82474009 258.13515536 -25.80321693 258.12908173 C-15.29084249 258.09956083 -5.22249382 258.27731898 5.11975098 260.38095093 C5.22158691 259.48577759 5.32342285 258.59060425 5.42834473 257.66830444 C6.89360294 245.43925187 11.28514805 235.7683979 20.95959473 227.88095093 C26.39353655 224.14719949 33.4569502 221.38095093 40.11975098 221.38095093 C40.11975098 217.75095093 40.11975098 214.12095093 40.11975098 210.38095093 C38.79435303 210.40189819 37.46895508 210.42284546 36.10339355 210.44442749 C31.12922204 210.51748865 26.15509676 210.56298861 21.18054199 210.60067749 C19.03820793 210.62064363 16.89592729 210.64782631 14.75378418 210.68270874 C-14.52511077 211.14712788 -14.52511077 211.14712788 -25.95056152 201.29110718 C-33.9611921 193.36155586 -38.50517415 183.82745594 -39.00888348 172.48416519 C-39.01055932 171.47027599 -39.01223516 170.4563868 -39.01396179 169.41177368 C-39.02035927 167.65410675 -39.02035927 167.65410675 -39.02688599 165.8609314 C-39.0264328 164.58911011 -39.02597961 163.31728882 -39.0255127 162.00692749 C-39.02850759 160.64297392 -39.03191088 159.2790212 -39.03569031 157.91506958 C-39.04450214 154.22065183 -39.04686727 150.52625727 -39.04750609 146.83183002 C-39.04821834 144.51974816 -39.05035598 142.20767214 -39.05300331 139.89559174 C-39.06224828 131.81811654 -39.06633937 123.74065781 -39.06555176 115.66317749 C-39.06495159 108.15263294 -39.07549361 100.64216035 -39.09129542 93.131634 C-39.10440526 86.66856178 -39.10973419 80.20551298 -39.10909635 73.74242759 C-39.10884232 69.88902234 -39.11164056 66.03568104 -39.1222744 62.18228912 C-39.13201323 58.55430935 -39.13199528 54.92645391 -39.12475777 51.29846954 C-39.12322707 49.34666842 -39.1315186 47.39486715 -39.14019775 45.44308472 C-39.09506355 32.71296271 -37.31615237 19.81685428 -27.88024902 10.38095093 C-19.21266602 3.36209295 -11.17014762 -0.0966954 0 0 Z " fill="#010101" transform="translate(284.8802490234375,-0.380950927734375)"/>
<path d="M0 0 C0.89786354 -0.00453111 1.79572708 -0.00906223 2.72079861 -0.01373065 C5.72384062 -0.02637225 8.72670121 -0.02475443 11.72976685 -0.02310181 C13.88513421 -0.02908716 16.04049942 -0.03589272 18.19586182 -0.04345703 C24.0471082 -0.06112245 29.89829608 -0.06581262 35.74956656 -0.0670886 C39.40573453 -0.06851033 43.06188763 -0.07278031 46.71805191 -0.07808304 C59.47457066 -0.09658433 72.23104762 -0.10475343 84.98757935 -0.10317993 C96.8766404 -0.10197815 108.76552003 -0.12308753 120.65453517 -0.15466726 C130.86447182 -0.18082017 141.07434916 -0.19154765 151.28431904 -0.19026911 C157.38117865 -0.18975924 163.47787698 -0.1954568 169.57470322 -0.21662521 C175.30884904 -0.23599109 181.04267944 -0.23614313 186.7768364 -0.22159195 C188.87948568 -0.2195008 190.98215463 -0.22422292 193.0847702 -0.23631287 C195.95906461 -0.25176759 198.83227168 -0.24245547 201.70654297 -0.22705078 C202.94946273 -0.24248147 202.94946273 -0.24248147 204.21749198 -0.25822389 C210.77531289 -0.18075397 216.26531733 1.55248774 220.98025513 6.26742554 C221.18235566 9.10616965 221.26025242 11.84906061 221.25149536 14.68930054 C221.25672211 15.56110458 221.26194885 16.43290863 221.26733398 17.33113098 C221.27759412 19.22942295 221.28335788 21.12774322 221.28521538 23.02606201 C221.28887234 26.03674465 221.30558423 29.04709585 221.32597351 32.05770874 C221.38142532 40.61957611 221.41196397 49.18149418 221.43655396 57.74349976 C221.45249605 62.97843936 221.48279464 68.21314806 221.52131844 73.44796753 C221.5329208 75.43809543 221.53889837 77.42826479 221.53899956 79.41842651 C221.34140449 95.31921515 221.34140449 95.31921515 226.56271362 110.11230469 C228.14659459 113.63765887 228.34363459 115.97742355 228.3208313 119.82357788 C228.32046875 121.12222778 228.3201062 122.42087769 228.31973267 123.75888062 C228.30463044 125.12371258 228.28913097 126.48854021 228.27322388 127.85336304 C228.27020264 129.10544556 228.2671814 130.35752808 228.2640686 131.64755249 C228.24840463 136.31259435 228.20652072 140.97751845 228.16775513 145.64242554 C228.10588013 156.07867554 228.04400513 166.51492554 227.98025513 177.26742554 C201.91025513 177.26742554 175.84025513 177.26742554 148.98025513 177.26742554 C148.98025513 180.56742554 148.98025513 183.86742554 148.98025513 187.26742554 C147.74096388 190.85484757 146.82846045 192.62958189 143.80484009 194.90332031 C140.32269356 196.58498836 137.83637892 196.64814615 133.97439575 196.65560913 C132.94659248 196.66349457 132.94659248 196.66349457 131.89802551 196.67153931 C129.64395018 196.68469106 127.39058704 196.67601893 125.13650513 196.66586304 C123.56379054 196.66788517 121.99107687 196.67079778 120.41836548 196.67456055 C117.12656707 196.67897734 113.83501332 196.67257378 110.54324341 196.65853882 C106.32983169 196.64144711 102.1169933 196.65129177 97.9036026 196.66925621 C94.65731509 196.68011159 91.41116287 196.6766397 88.16487122 196.66887283 C86.61157666 196.66687567 85.0582697 196.6693131 83.50498962 196.67631149 C81.33170163 196.68395514 79.15933417 196.67228235 76.9861145 196.65560913 C75.75099121 196.65322235 74.51586792 196.65083557 73.24331665 196.64837646 C69.68357128 196.23278874 67.82526563 195.40685077 64.98025513 193.26742554 C61.00696424 187.65001428 61.98025513 184.94237834 61.98025513 177.26742554 C32.61025513 177.26742554 3.24025513 177.26742554 -27.01974487 177.26742554 C-27.18095701 137.46594019 -27.18095701 137.46594019 -27.21505737 120.78305054 C-27.23878891 109.26539992 -27.26668259 97.74786638 -27.32150269 86.23031616 C-27.36140942 77.84201198 -27.38718694 69.4538028 -27.39609885 61.06540632 C-27.40130711 56.62502243 -27.4135218 52.18491032 -27.4426651 47.74461365 C-27.4698949 43.56181424 -27.47817467 39.37939757 -27.4721756 35.19651794 C-27.47327246 33.66470253 -27.4811814 32.13287379 -27.49656677 30.60113525 C-27.58488648 21.35140616 -27.38423898 14.33872031 -21.09005737 7.02523804 C-20.44810425 6.48640991 -19.80615112 5.94758179 -19.14474487 5.39242554 C-18.507948 4.83812866 -17.87115112 4.28383179 -17.21505737 3.71273804 C-11.74429389 0.11098984 -6.31723419 -0.02348621 0 0 Z " fill="#A3FDF0" transform="translate(70.01974487304688,273.7325744628906)"/>
<path d="M0 0 C1.92875977 0.00966797 1.92875977 0.00966797 3.89648438 0.01953125 C5.23437779 0.03623649 6.57226842 0.05316631 7.91015625 0.0703125 C9.27538408 0.08035928 10.64061905 0.08948214 12.00585938 0.09765625 C15.32830824 0.12113645 18.65038946 0.15397891 21.97265625 0.1953125 C21.97265625 2.8353125 21.97265625 5.4753125 21.97265625 8.1953125 C26.59265625 8.1953125 31.21265625 8.1953125 35.97265625 8.1953125 C35.97265625 5.5553125 35.97265625 2.9153125 35.97265625 0.1953125 C52.19372851 0.10161195 68.41471214 0.03120794 84.63599014 -0.01193619 C92.16887747 -0.0325068 99.70159604 -0.06052118 107.234375 -0.10644531 C113.80473189 -0.14648266 120.37496646 -0.17216024 126.94544196 -0.18104148 C130.42018524 -0.18622789 133.8945788 -0.19830058 137.36920929 -0.22760773 C141.2608515 -0.26016186 145.15216063 -0.26063615 149.04394531 -0.25878906 C150.74651993 -0.28036072 150.74651993 -0.28036072 152.48348999 -0.30236816 C164.31894069 -0.24192391 174.38411881 2.84581984 182.97265625 11.1953125 C191.23630847 20.08751992 193.57725647 29.64926164 193.49023438 41.53881836 C193.49724365 42.73205215 193.50425293 43.92528595 193.51147461 45.15467834 C193.52597068 48.39874754 193.52270346 51.64215399 193.50995827 54.88621211 C193.49974931 58.30033942 193.50924587 61.71442605 193.51550293 65.1285553 C193.52275758 70.8604412 193.51325045 76.5921202 193.49414062 82.32397461 C193.47238627 88.92472591 193.47942123 95.52498259 193.50144625 102.12572187 C193.51967541 107.81950923 193.52212181 113.51314882 193.51169157 119.20695597 C193.50549629 122.59593295 193.50450995 125.9846785 193.51783752 129.37364006 C193.52805642 133.15689847 193.51242494 136.93922282 193.49023438 140.72241211 C193.4983313 141.8266452 193.50642822 142.9308783 193.51477051 144.068573 C193.39251344 155.3848291 190.28653436 163.81641968 182.41015625 171.96484375 C171.93940882 181.54624885 161.49762457 183.37038062 147.6640625 183.29296875 C146.80615112 183.29196167 145.94823975 183.29095459 145.06433105 183.28991699 C141.88792568 183.28472151 138.71153949 183.27076049 135.53515625 183.2578125 C128.41953125 183.2371875 121.30390625 183.2165625 113.97265625 183.1953125 C113.97265625 198.7053125 113.97265625 214.2153125 113.97265625 230.1953125 C109.57692344 228.43701938 106.8933338 226.84084679 103.16015625 224.0703125 C96.62181175 219.28914246 89.91504901 214.78898274 83.16015625 210.3203125 C75.21511675 205.057451 67.33686497 199.7253052 59.58862305 194.17626953 C58.39295532 193.32063108 57.19246581 192.47166865 55.98606873 191.63122559 C54.64063826 190.67169979 53.31955052 189.6771239 52.0249939 188.6499939 C45.98715595 184.11873877 41.38158977 183.34337886 33.9453125 183.4609375 C32.40187416 183.44749298 32.40187416 183.44749298 30.82725525 183.43377686 C27.56262565 183.40982763 24.29978745 183.42550783 21.03515625 183.4453125 C17.77456785 183.44386281 14.51429722 183.43383517 11.25376892 183.41400146 C9.23358008 183.40392694 7.21328771 183.40532958 5.19313049 183.42047119 C-6.84952464 183.41395915 -19.18567288 181.03698337 -28.02734375 172.1953125 C-37.40156723 160.43034746 -39.17947743 150.20073852 -39.17260742 135.47167969 C-39.17596603 134.4266478 -39.17932465 133.38161591 -39.18278503 132.30491638 C-39.19224477 128.86732783 -39.19423569 125.42978824 -39.1953125 121.9921875 C-39.1985287 119.58856181 -39.20189304 117.18493632 -39.20539856 114.78131104 C-39.2113775 109.74792019 -39.21323974 104.71454649 -39.21264648 99.68115234 C-39.21254497 93.25468838 -39.22619162 86.82833518 -39.24341869 80.40189743 C-39.25457765 75.43798322 -39.25656449 70.47409545 -39.25603676 65.51016998 C-39.25721121 63.14207834 -39.26160275 60.77398588 -39.26936913 58.40590668 C-39.27924717 55.08270169 -39.27626021 51.75973282 -39.27026367 48.43652344 C-39.27588318 47.47300461 -39.28150269 46.50948578 -39.28729248 45.51676941 C-39.23032052 32.99258093 -37.6052076 21.42974686 -28.9140625 11.87109375 C-20.62850129 4.12931721 -11.488062 -0.10211611 0 0 Z " fill="#FB6845" transform="translate(39.02734375,21.8046875)"/>
<path d="M0 0 C0 7.92 0 15.84 0 24 C2.59875 22.2675 5.1975 20.535 7.875 18.75 C10.17611132 17.21592579 12.4756266 15.68747802 14.80509949 14.19667053 C17.19620166 12.55265575 19.32189093 10.91203853 21.52537537 9.04911804 C34.81550224 -1.64697598 47.00985125 -1.63748612 63.54296875 -1.27734375 C66.16845963 -1.26253969 68.79398244 -1.25266415 71.41950989 -1.24745178 C76.88585353 -1.2282647 82.35014438 -1.16510057 87.81567383 -1.07006836 C94.81414019 -0.94853583 101.81128504 -0.89687553 108.81067944 -0.86814022 C115.51332149 -0.84053301 122.21558266 -0.77866617 128.91796875 -0.71484375 C130.82559022 -0.69956288 130.82559022 -0.69956288 132.7717495 -0.68397331 C136.37066271 -0.64918361 139.96861485 -0.59363019 143.56713867 -0.53100586 C145.15607689 -0.51890579 145.15607689 -0.51890579 146.77711487 -0.50656128 C154.82125372 -0.33123809 161.10522861 1.10522861 167 7 C171.88343938 13.71431961 172.7221026 19.46625763 172.63110352 27.61914062 C172.64183647 29.31117867 172.64183647 29.31117867 172.65278625 31.03739929 C172.66961278 34.74410231 172.65030415 38.44958561 172.62890625 42.15625 C172.62973549 44.74499613 172.63219697 47.33374221 172.63621521 49.92248535 C172.63906912 55.33928725 172.624946 60.75564279 172.59692383 66.17236328 C172.56487724 72.41472668 172.56489156 78.65646509 172.5821386 84.89887285 C172.59806034 90.92976003 172.59113395 96.96035889 172.57420158 102.99125671 C172.56903212 105.54603059 172.5694865 108.10082244 172.57574654 110.65559387 C172.5812194 114.23107121 172.56075494 117.80550146 172.53344727 121.38085938 C172.54323608 122.95216866 172.54323608 122.95216866 172.55322266 124.55522156 C172.45498034 132.15105927 170.97900585 138.38780465 166.0703125 144.33984375 C165.42835938 144.86707031 164.78640625 145.39429688 164.125 145.9375 C163.48820313 146.48277344 162.85140625 147.02804687 162.1953125 147.58984375 C156.24486672 151.41210519 150.45119725 151.25159139 143.625 151.125 C142.69816406 151.11597656 141.77132812 151.10695313 140.81640625 151.09765625 C138.54399923 151.07422937 136.2721382 151.04142748 134 151 C134 153.64 134 156.28 134 159 C129.05 159 124.1 159 119 159 C119 156.36 119 153.72 119 151 C99.28813326 149.51277555 99.28813326 149.51277555 81.9375 156.4375 C80.26806736 158.27044737 78.62256421 160.12543691 77 162 C74.74521329 163.94078678 72.38304369 165.72053346 70 167.5 C69.45851318 167.92079834 68.91702637 168.34159668 68.35913086 168.77514648 C65.62553139 170.88478623 63.1164075 172.44179625 60 174 C60 166.41 60 158.82 60 151 C58.19402344 151.01571045 56.38804687 151.0314209 54.52734375 151.04760742 C48.53634238 151.09613441 42.54539702 151.13052281 36.55426025 151.15543652 C32.92457015 151.17104099 29.29509422 151.19218257 25.66552734 151.22631836 C22.15770383 151.25909979 18.65008532 151.27689219 15.14212036 151.28463173 C13.1636071 151.29280918 11.18517542 151.31619824 9.20678711 151.33988953 C1.48232267 151.34132343 -4.70319102 151.0039638 -11.20703125 146.45703125 C-12.00173828 145.64298828 -12.00173828 145.64298828 -12.8125 144.8125 C-13.35519531 144.28269531 -13.89789063 143.75289062 -14.45703125 143.20703125 C-19.20049528 136.42207637 -19.43513492 129.65656465 -19.38818359 121.66210938 C-19.39606903 119.99714165 -19.39606903 119.99714165 -19.40411377 118.29853821 C-19.41726626 114.64679699 -19.40859215 110.9954953 -19.3984375 107.34375 C-19.40045959 104.79601966 -19.40337215 102.24828989 -19.40713501 99.70056152 C-19.41155195 94.36785828 -19.40543588 89.03531108 -19.39111328 83.70263672 C-19.37478919 77.55409205 -19.38007864 71.40584592 -19.3965925 65.25730848 C-19.41189282 59.32099412 -19.41021493 53.38477179 -19.4014473 47.44844055 C-19.39944997 44.93190977 -19.40188809 42.41537133 -19.40888596 39.89884949 C-19.41652792 36.37832631 -19.40485691 32.85837161 -19.38818359 29.33789062 C-19.39425629 28.30388626 -19.40032898 27.2698819 -19.40658569 26.20454407 C-19.32774664 17.19187893 -17.39933524 10.55170037 -11 4 C-7.47585252 1.50731032 -4.34666062 0 0 0 Z " fill="#FCC075" transform="translate(325,237)"/>
<path d="M0 0 C1.53515625 1.84765625 1.53515625 1.84765625 3.0625 4.0625 C5.18816732 6.58045786 6.46081071 7.82617181 9.6171875 8.84375 C12.77539942 9.08870827 14.9796981 8.98355653 18 8 C20.42216075 5.79425224 22.21512193 3.58126941 24.05078125 0.87109375 C24.69402344 0.25363281 25.33726562 -0.36382812 26 -1 C30.23980111 -0.63239366 33.74815717 0.56800234 37.6171875 2.28515625 C38.63554687 2.73310547 39.65390625 3.18105469 40.703125 3.64257812 C42.27320313 4.34543945 42.27320313 4.34543945 43.875 5.0625 C44.94492188 5.53494141 46.01484375 6.00738281 47.1171875 6.49414062 C49.7475638 7.65667301 52.37497517 8.82544602 55 10 C54.94199219 11.02480469 54.88398438 12.04960937 54.82421875 13.10546875 C54.77730043 14.46610011 54.73180248 15.82678096 54.6875 17.1875 C54.64560547 17.86103516 54.60371094 18.53457031 54.56054688 19.22851562 C54.46920031 22.97372488 54.903289 24.85865316 57.03125 27.96875 C60.70985553 30.48569062 63.52408511 30.57924351 67.8125 30.3125 C68.85180664 30.27866211 68.85180664 30.27866211 69.91210938 30.24414062 C71.60901573 30.18562661 73.30479861 30.0959548 75 30 C76.74432758 33.71643677 78.46929019 37.44107961 80.16992188 41.17773438 C80.95765627 42.90704305 81.75207808 44.63330089 82.546875 46.359375 C83.00578125 47.39578125 83.4646875 48.4321875 83.9375 49.5 C84.35902344 50.4384375 84.78054687 51.376875 85.21484375 52.34375 C86.1290013 55.4364223 86.13151881 56.98595432 85 60 C83.15234375 61.6328125 83.15234375 61.6328125 80.9375 63.125 C78.37781873 65.24495302 77.16914875 66.44597655 76.19140625 69.6484375 C75.90599948 73.90041589 75.97355441 76.77503306 78.77734375 80.12109375 C80.89345456 81.95904313 80.89345456 81.95904313 83.15234375 83.46484375 C85.41286506 85.34303588 85.67138401 86.1073021 86 89 C85.21142578 91.64135742 85.21142578 91.64135742 83.9453125 94.60546875 C83.27048828 96.20358398 83.27048828 96.20358398 82.58203125 97.83398438 C82.10121094 98.94064453 81.62039062 100.04730469 81.125 101.1875 C80.65191406 102.30576172 80.17882812 103.42402344 79.69140625 104.57617188 C76.17589286 112.82410714 76.17589286 112.82410714 75 114 C71.90621785 114.13582458 68.8194729 114.24793936 65.72265625 114.25390625 C62.03764687 114.39146063 60.07366896 114.94846085 57.03515625 117.07421875 C53.81710816 121.70054892 54.63481006 126.04352419 54.82421875 131.50390625 C54 135 54 135 52.48193359 136.22094727 C50.36107014 137.29917937 48.22574549 138.16036726 46 139 C44.54481732 139.64774069 43.09167016 140.30007418 41.640625 140.95703125 C40.17841623 141.57866546 38.7148655 142.19715242 37.25 142.8125 C36.50878906 143.13669922 35.76757812 143.46089844 35.00390625 143.79492188 C34.28589844 144.09591797 33.56789063 144.39691406 32.828125 144.70703125 C32.1877832 144.9800708 31.54744141 145.25311035 30.88769531 145.53442383 C28.55234764 146.11040779 27.23667701 145.84701872 25 145 C23.17578125 142.93359375 23.17578125 142.93359375 21.3125 140.4375 C18.59190356 137.30377595 16.78579539 135.27026978 12.5625 134.8125 C7.99292847 135.2228933 6.13266638 137.67787679 3.25 141.0625 C2.55390625 142.00222656 1.8578125 142.94195312 1.140625 143.91015625 C0.43421875 144.59980469 -0.2721875 145.28945313 -1 146 C-4.85255964 145.61635633 -8.19293154 144.21261181 -11.73828125 142.71484375 C-12.80498047 142.26689453 -13.87167969 141.81894531 -14.97070312 141.35742188 C-16.62489258 140.65456055 -16.62489258 140.65456055 -18.3125 139.9375 C-19.99569336 139.22883789 -19.99569336 139.22883789 -21.71289062 138.50585938 C-24.47704277 137.34138677 -27.239304 136.17263728 -30 135 C-29.95359375 133.89140625 -29.9071875 132.7828125 -29.859375 131.640625 C-29.82184898 130.17711032 -29.78544971 128.71356644 -29.75 127.25 C-29.69972656 126.15558594 -29.69972656 126.15558594 -29.6484375 125.0390625 C-29.58717081 121.66939468 -29.75281253 119.4077319 -31.515625 116.5 C-35.48101443 114.10580261 -39.67401708 114.62780162 -44.15625 114.86328125 C-46.25 114.859375 -46.25 114.859375 -50 114 C-51.98693674 111.59266806 -52.92746794 108.90649411 -54 106 C-54.64657993 104.54430119 -55.29891833 103.09114629 -55.95703125 101.640625 C-56.57866546 100.17841623 -57.19715242 98.7148655 -57.8125 97.25 C-58.13669922 96.50878906 -58.46089844 95.76757812 -58.79492188 95.00390625 C-59.09591797 94.28589844 -59.39691406 93.56789063 -59.70703125 92.828125 C-59.9800708 92.1877832 -60.25311035 91.54744141 -60.53442383 90.88769531 C-61.11040779 88.55234764 -60.84701872 87.23667701 -60 85 C-57.93359375 83.17578125 -57.93359375 83.17578125 -55.4375 81.3125 C-52.30377595 78.59190356 -50.27026978 76.78579539 -49.8125 72.5625 C-50.22218443 67.99294286 -52.66256203 66.17459467 -56.0625 63.3125 C-57.00222656 62.62800781 -57.94195312 61.94351563 -58.91015625 61.23828125 C-59.59980469 60.49964844 -60.28945312 59.76101563 -61 59 C-60.65539851 54.75820818 -59.43140188 51.25050044 -57.71484375 47.3828125 C-57.26689453 46.36445313 -56.81894531 45.34609375 -56.35742188 44.296875 C-55.88884766 43.25015625 -55.42027344 42.2034375 -54.9375 41.125 C-54.22883789 39.52011719 -54.22883789 39.52011719 -53.50585938 37.8828125 C-52.34332699 35.2524362 -51.17455398 32.62502483 -50 30 C-48.46279297 30.08701172 -48.46279297 30.08701172 -46.89453125 30.17578125 C-45.53389989 30.22269957 -44.17321904 30.26819752 -42.8125 30.3125 C-42.13896484 30.35439453 -41.46542969 30.39628906 -40.77148438 30.43945312 C-37.05558724 30.53008476 -35.1518049 30.10335653 -32.0625 28 C-29.39283699 24.11685381 -29.22457116 21.29668086 -29.1875 16.6875 C-29.16236328 15.94693359 -29.13722656 15.20636719 -29.11132812 14.44335938 C-29.05281557 12.62947031 -29.02345651 10.81468097 -29 9 C-24.92405075 7.29425537 -20.83821032 5.61362135 -16.75 3.9375 C-15.59113281 3.45216797 -14.43226563 2.96683594 -13.23828125 2.46679688 C-11.56572266 1.78520508 -11.56572266 1.78520508 -9.859375 1.08984375 C-8.83295898 0.66566162 -7.80654297 0.24147949 -6.74902344 -0.19555664 C-3.91110864 -1.02601217 -2.68442 -1.15788109 0 0 Z " fill="#FBFBFB" transform="translate(158,290)"/>
<path d="M0 0 C1.29417091 -0.01248528 1.29417091 -0.01248528 2.61448669 -0.02522278 C5.45031321 -0.04920367 8.28590919 -0.05808016 11.12182617 -0.06469727 C13.10568812 -0.07367245 15.08954941 -0.08279445 17.07341003 -0.09205627 C21.22669108 -0.10851633 25.3798918 -0.11624098 29.53320312 -0.11914062 C34.83580722 -0.12452212 40.13764876 -0.16220579 45.44003773 -0.20788479 C49.53662322 -0.23773428 53.63302677 -0.24486589 57.72971153 -0.24586678 C59.68361594 -0.25005317 61.63752168 -0.26242342 63.59131813 -0.28338432 C84.98721395 -0.49466773 84.98721395 -0.49466773 93.01472473 7.12062073 C97.7401204 12.13832483 99.37929828 16.7027435 99.22729492 23.61889648 C99.20924805 24.6875293 99.19120117 25.75616211 99.17260742 26.85717773 C99.1494043 27.66541992 99.12620117 28.47366211 99.10229492 29.30639648 C99.72491211 29.08725586 100.3475293 28.86811523 100.98901367 28.64233398 C107.99069906 26.2400821 115.05283014 24.10646246 122.16479492 22.05639648 C123.09316162 21.78617676 124.02152832 21.51595703 124.97802734 21.23754883 C125.85563721 20.9869873 126.73324707 20.73642578 127.63745117 20.47827148 C128.42514893 20.25236328 129.21284668 20.02645508 130.02441406 19.79370117 C132.10229492 19.30639648 132.10229492 19.30639648 135.10229492 19.30639648 C135.10229492 40.09639648 135.10229492 60.88639648 135.10229492 82.30639648 C124.9762725 81.18128288 124.9762725 81.18128288 120.07885742 79.71264648 C119.03858398 79.40456055 117.99831055 79.09647461 116.92651367 78.77905273 C115.87077148 78.45807617 114.8150293 78.13709961 113.72729492 77.80639648 C112.64834961 77.48541992 111.5694043 77.16444336 110.45776367 76.83374023 C106.65712975 75.69971838 102.86510438 74.56066631 99.10229492 73.30639648 C99.16030273 74.06823242 99.21831055 74.83006836 99.27807617 75.61499023 C99.60476689 83.09154073 98.9644111 88.43472396 94.10229492 94.30639648 C87.80749502 100.01143502 83.53931546 101.45873844 75.09790039 101.49926758 C73.69759331 101.51153381 73.69759331 101.51153381 72.26899719 101.52404785 C69.16916549 101.5489267 66.06937976 101.56542678 62.96948242 101.57983398 C61.91114323 101.58515766 60.85280403 101.59048134 59.76239395 101.59596634 C54.15760268 101.62271235 48.55283376 101.64208016 42.94799805 101.65649414 C37.16420602 101.67311977 31.38098625 101.71787633 25.5974102 101.76886559 C21.14663049 101.80256409 16.69598594 101.81407464 12.24509048 101.81972122 C10.11368578 101.82642949 7.98228983 101.84164042 5.85100937 101.86561203 C2.86122205 101.89731318 -0.12703134 101.89729228 -3.11694336 101.88989258 C-3.9920607 101.90629791 -4.86717804 101.92270325 -5.76881409 101.93960571 C-13.00173804 101.86661238 -17.90563523 99.35524186 -22.95629883 94.20874023 C-23.41133789 93.5603418 -23.86637695 92.91194336 -24.33520508 92.24389648 C-24.80829102 91.59291992 -25.28137695 90.94194336 -25.76879883 90.27124023 C-28.05880788 86.28551514 -28.0316714 82.45425321 -28.05883789 77.9206543 C-28.06844543 76.62540833 -28.07805298 75.33016235 -28.08795166 73.9956665 C-28.09280072 72.58361996 -28.09707929 71.17157137 -28.10083008 69.75952148 C-28.10658718 68.30466715 -28.11234484 66.84981282 -28.11810303 65.3949585 C-28.12859791 62.34525196 -28.13445011 59.29557165 -28.13793945 56.24584961 C-28.14341369 52.35447687 -28.16742486 48.46345587 -28.19591141 44.57219315 C-28.21461777 41.56600969 -28.21974767 38.55990951 -28.22127533 35.55367279 C-28.2242856 34.12006462 -28.23225868 32.68645734 -28.24546051 31.2529068 C-28.38811826 14.56794746 -28.38811826 14.56794746 -22.88208008 7.84545898 C-22.14473633 7.21381836 -21.40739258 6.58217773 -20.64770508 5.93139648 C-19.92067383 5.28428711 -19.19364258 4.63717773 -18.44458008 3.97045898 C-12.68270446 0.20579792 -6.67318274 0.00553958 0 0 Z " fill="#040303" transform="translate(61.897705078125,60.693603515625)"/>
<path d="M0 0 C0.8146325 -0.00453111 1.62926501 -0.00906223 2.46858335 -0.01373065 C5.19601197 -0.02638235 7.9232411 -0.02475377 10.6506958 -0.02310181 C12.60725155 -0.02908664 14.56380494 -0.03589208 16.52035522 -0.04345703 C21.83455617 -0.06113042 27.1486927 -0.06581302 32.46292019 -0.0670886 C35.78423927 -0.06851019 39.10554198 -0.07277996 42.42685699 -0.07808304 C54.01743103 -0.09658887 65.60795905 -0.1047531 77.19854736 -0.10317993 C87.99637589 -0.1019789 98.79400441 -0.1230724 109.59178233 -0.15466726 C118.86669121 -0.18083731 128.1415348 -0.19154689 137.4164803 -0.19026911 C142.95392082 -0.18975963 148.49118365 -0.19543537 154.02858734 -0.21662521 C159.23907814 -0.23601934 164.44922201 -0.23612387 169.65972519 -0.22159195 C171.56844719 -0.21950411 173.47719097 -0.22420323 175.3858757 -0.23631287 C195.36210692 -0.3548079 195.36210692 -0.3548079 203.20635986 6.23226929 C203.73358643 6.88324585 204.26081299 7.53422241 204.80401611 8.20492554 C205.34928955 8.85332397 205.89456299 9.50172241 206.45635986 10.16976929 C209.63934465 14.90456937 210.11312393 18.87446128 210.09356689 24.53622437 C210.09385895 25.24896515 210.094151 25.96170593 210.0944519 26.69604492 C210.09306469 29.0389751 210.07753247 31.38158254 210.06182861 33.72445679 C210.05809631 35.35398688 210.05525037 36.98351922 210.05325317 38.61305237 C210.04563378 42.89235683 210.02599992 47.17152454 210.00384521 51.45077515 C209.98335023 55.82128042 209.97424365 60.19180789 209.96417236 64.56234741 C209.94275236 73.13076939 209.90863696 81.69908043 209.86651611 90.26742554 C212.50651611 90.26742554 215.14651611 90.26742554 217.86651611 90.26742554 C217.86651611 95.21742554 217.86651611 100.16742554 217.86651611 105.26742554 C215.22651611 105.26742554 212.58651611 105.26742554 209.86651611 105.26742554 C209.87650887 106.2931366 209.87650887 106.2931366 209.88670349 107.33956909 C209.95324191 114.47758263 209.99839364 121.61550758 210.03131104 128.75375366 C210.04466779 131.41538977 210.06681425 134.07653839 210.09283447 136.73812866 C210.12935726 140.57087306 210.14627504 144.40328844 210.15948486 148.23617554 C210.17496872 149.41981689 210.19045258 150.60345825 210.20640564 151.82296753 C210.20798449 159.63078296 209.26943107 165.13441181 205.30401611 171.95492554 C201.69199063 175.38171895 196.02000343 179.26742554 190.86651611 179.26742554 C190.86651611 124.81742554 190.86651611 70.36742554 190.86651611 14.26742554 C145.98651611 14.26742554 101.10651611 14.26742554 54.86651611 14.26742554 C54.86651611 23.83742554 54.86651611 33.40742554 54.86651611 43.26742554 C38.03651611 43.26742554 21.20651611 43.26742554 3.86651611 43.26742554 C3.86651611 88.14742554 3.86651611 133.02742554 3.86651611 179.26742554 C-12.66612222 179.26742554 -12.66612222 179.26742554 -19.79255009 172.80874538 C-25.99952311 165.67421666 -25.71386044 156.92473631 -25.66693115 147.9703064 C-25.67400056 146.54354464 -25.68274985 145.11679038 -25.69303894 143.69004822 C-25.71542466 139.83880286 -25.71261943 135.98797054 -25.70371747 132.13668513 C-25.69858681 128.91348884 -25.70591665 125.69036875 -25.71318954 122.46718031 C-25.73015303 114.86138295 -25.72665735 107.25578641 -25.7098999 99.6499939 C-25.69296722 91.81823007 -25.70883657 83.98702317 -25.74112278 76.15532011 C-25.76785325 69.4144756 -25.77508584 62.6738041 -25.7666077 55.93291193 C-25.76169033 51.91407654 -25.7638297 47.89557637 -25.78439522 43.87678337 C-25.80280813 40.09832744 -25.7967265 36.32067081 -25.77219582 32.54225731 C-25.76720626 31.16042729 -25.77062943 29.77853575 -25.78334427 28.39675522 C-25.86375789 18.90285152 -24.68618414 13.26382116 -18.28973389 6.24398804 C-17.74317139 5.79797241 -17.19660889 5.35195679 -16.63348389 4.89242554 C-16.08692139 4.43094116 -15.54035889 3.96945679 -14.97723389 3.49398804 C-10.16362909 0.29171705 -5.65071723 -0.02310461 0 0 Z " fill="#92B5F4" transform="translate(287.13348388671875,14.732574462890625)"/>
<path d="M0 0 C18.81 0 37.62 0 57 0 C57 15.18 57 30.36 57 46 C73.17 46 89.34 46 106 46 C106 71.08 106 96.16 106 122 C97.585 122.495 97.585 122.495 89 123 C84.78848416 125.58125164 81.6490238 127.84378822 78 131 C76.18664943 132.25845998 74.35211422 133.48681906 72.5 134.6875 C67.11496867 138.24709698 61.76819598 141.85949932 56.4375 145.5 C55.20978882 146.33797119 55.20978882 146.33797119 53.95727539 147.19287109 C48.52467924 150.91592431 43.18610444 154.7328227 37.93359375 158.70703125 C36 160 36 160 34 160 C34 147.46 34 134.92 34 122 C22.78 122 11.56 122 0 122 C0 81.74 0 41.48 0 0 Z " fill="#F8F8F8" transform="translate(306,73)"/>
<path d="M0 0 C1.92875977 0.00966797 1.92875977 0.00966797 3.89648438 0.01953125 C5.23437779 0.03623649 6.57226842 0.05316631 7.91015625 0.0703125 C9.27538408 0.08035928 10.64061905 0.08948214 12.00585938 0.09765625 C15.32820151 0.1211357 18.65045202 0.15700393 21.97265625 0.1953125 C21.97265625 5.1453125 21.97265625 10.0953125 21.97265625 15.1953125 C20.18859375 15.23269531 18.40453125 15.27007812 16.56640625 15.30859375 C14.20180273 15.37427718 11.83722032 15.44072369 9.47265625 15.5078125 C8.29960938 15.53037109 7.1265625 15.55292969 5.91796875 15.57617188 C-3.68102069 15.87276986 -11.02344489 17.03223412 -18.02734375 24.1953125 C-22.34508852 30.41151274 -22.60177427 36.32040433 -22.54492188 43.70092773 C-22.55193115 44.82880707 -22.55894043 45.9566864 -22.56616211 47.1187439 C-22.58370349 50.83071841 -22.57213138 54.54192456 -22.55859375 58.25390625 C-22.56128994 60.84408209 -22.56517341 63.43425694 -22.57019043 66.02442932 C-22.57608047 71.44713945 -22.56792343 76.86956338 -22.54882812 82.29223633 C-22.52707321 88.54194815 -22.53410677 94.79113763 -22.55613375 101.04083675 C-22.57654684 107.07650743 -22.57429197 113.11192473 -22.56260681 119.14763069 C-22.55994526 121.70520158 -22.56318909 124.26278587 -22.57252502 126.82034111 C-22.58272626 130.40068316 -22.56713717 133.98003415 -22.54492188 137.56030273 C-22.5530188 138.6094133 -22.56111572 139.65852386 -22.56945801 140.73942566 C-22.48620616 148.011623 -21.38652911 154.58205952 -16.27741241 160.07759762 C-11.56229704 164.42291271 -7.13693156 166.47412279 -0.64892578 166.35546875 C0.40342255 166.34306152 1.45577087 166.3306543 2.54000854 166.31787109 C3.67020416 166.29805176 4.80039978 166.27823242 5.96484375 166.2578125 C8.38671099 166.24886907 10.80858857 166.24244122 13.23046875 166.23828125 C17.02715504 166.22411086 20.82113471 166.19581751 24.6171875 166.12353516 C40.81548712 165.84154905 51.62371715 166.30220091 63.97265625 177.1953125 C65.65208291 178.37825846 67.34819902 179.53818551 69.06640625 180.6640625 C70.53565339 181.67375613 72.00441175 182.68416143 73.47265625 183.6953125 C81.59137068 189.26949186 89.76605968 194.7513326 97.97265625 200.1953125 C98.30265625 189.3053125 98.63265625 178.4153125 98.97265625 167.1953125 C103.35546875 167.16953125 107.73828125 167.14375 112.25390625 167.1171875 C115.76526023 167.08547576 119.2765254 167.04982361 122.78781128 167.01152039 C126.48518691 166.97226181 130.18232481 166.93982475 133.87988281 166.92431641 C137.44635208 166.90908786 141.01217406 166.87453497 144.57835388 166.82700348 C146.58993663 166.8051116 148.60170233 166.8028441 150.61340332 166.80096436 C158.8255238 166.67044606 164.55655552 165.92938995 170.99609375 160.484375 C171.44210938 159.93523437 171.888125 159.38609375 172.34765625 158.8203125 C172.80914062 158.27632812 173.270625 157.73234375 173.74609375 157.171875 C177.50303234 151.11770008 177.27468395 144.90882549 177.27905273 138.02441406 C177.29153801 136.35007294 177.29153801 136.35007294 177.30427551 134.64190674 C177.32834484 130.95654802 177.3371443 127.27136645 177.34375 123.5859375 C177.35271908 121.01772001 177.36184097 118.44950305 177.37110901 115.88128662 C177.38759355 110.49798969 177.39533091 105.11476379 177.39819336 99.73144531 C177.40182438 93.52947273 177.43169536 87.32799628 177.47359794 81.12617517 C177.51261964 75.13859519 177.52378878 69.15128801 177.52491951 63.16356659 C177.52911582 60.62633323 177.54152625 58.08909921 177.56243706 55.55194855 C177.58941444 51.99546118 177.58450544 48.44032789 177.57202148 44.88378906 C177.58685577 43.84448242 177.60169006 42.80517578 177.61697388 41.734375 C177.53701867 33.699928 175.53388039 26.71385074 169.69140625 20.94140625 C168.95921875 20.50957031 168.22703125 20.07773437 167.47265625 19.6328125 C166.74046875 19.17777344 166.00828125 18.72273438 165.25390625 18.25390625 C161.19873519 16.37214023 157.20491223 16.0692749 152.77775574 16.03709412 C151.24027679 16.02241089 151.24027679 16.02241089 149.67173767 16.00743103 C148.55827469 16.00167557 147.44481171 15.9959201 146.29760742 15.98999023 C145.11669525 15.98009064 143.93578308 15.97019104 142.71908569 15.95999146 C139.49015855 15.93385865 136.26123637 15.91197402 133.03226638 15.89198947 C129.65432222 15.87007462 126.27642225 15.84271291 122.89851379 15.81593323 C116.50612243 15.76608052 110.11370643 15.72111426 103.72126704 15.67791086 C96.4419376 15.62847493 89.1626525 15.57358043 81.88336599 15.51823127 C66.91317077 15.40452521 51.94293374 15.29766154 36.97265625 15.1953125 C36.12584492 10.11444454 35.88227526 5.34702873 35.97265625 0.1953125 C52.19372851 0.10161195 68.41471214 0.03120794 84.63599014 -0.01193619 C92.16887747 -0.0325068 99.70159604 -0.06052118 107.234375 -0.10644531 C113.80473189 -0.14648266 120.37496646 -0.17216024 126.94544196 -0.18104148 C130.42018524 -0.18622789 133.8945788 -0.19830058 137.36920929 -0.22760773 C141.2608515 -0.26016186 145.15216063 -0.26063615 149.04394531 -0.25878906 C150.74651993 -0.28036072 150.74651993 -0.28036072 152.48348999 -0.30236816 C164.31894069 -0.24192391 174.38411881 2.84581984 182.97265625 11.1953125 C191.23630847 20.08751992 193.57725647 29.64926164 193.49023438 41.53881836 C193.49724365 42.73205215 193.50425293 43.92528595 193.51147461 45.15467834 C193.52597068 48.39874754 193.52270346 51.64215399 193.50995827 54.88621211 C193.49974931 58.30033942 193.50924587 61.71442605 193.51550293 65.1285553 C193.52275758 70.8604412 193.51325045 76.5921202 193.49414062 82.32397461 C193.47238627 88.92472591 193.47942123 95.52498259 193.50144625 102.12572187 C193.51967541 107.81950923 193.52212181 113.51314882 193.51169157 119.20695597 C193.50549629 122.59593295 193.50450995 125.9846785 193.51783752 129.37364006 C193.52805642 133.15689847 193.51242494 136.93922282 193.49023438 140.72241211 C193.4983313 141.8266452 193.50642822 142.9308783 193.51477051 144.068573 C193.39251344 155.3848291 190.28653436 163.81641968 182.41015625 171.96484375 C171.93940882 181.54624885 161.49762457 183.37038062 147.6640625 183.29296875 C146.80615112 183.29196167 145.94823975 183.29095459 145.06433105 183.28991699 C141.88792568 183.28472151 138.71153949 183.27076049 135.53515625 183.2578125 C128.41953125 183.2371875 121.30390625 183.2165625 113.97265625 183.1953125 C113.97265625 198.7053125 113.97265625 214.2153125 113.97265625 230.1953125 C109.57692344 228.43701938 106.8933338 226.84084679 103.16015625 224.0703125 C96.62181175 219.28914246 89.91504901 214.78898274 83.16015625 210.3203125 C75.21511675 205.057451 67.33686497 199.7253052 59.58862305 194.17626953 C58.39295532 193.32063108 57.19246581 192.47166865 55.98606873 191.63122559 C54.64063826 190.67169979 53.31955052 189.6771239 52.0249939 188.6499939 C45.98715595 184.11873877 41.38158977 183.34337886 33.9453125 183.4609375 C32.40187416 183.44749298 32.40187416 183.44749298 30.82725525 183.43377686 C27.56262565 183.40982763 24.29978745 183.42550783 21.03515625 183.4453125 C17.77456785 183.44386281 14.51429722 183.43383517 11.25376892 183.41400146 C9.23358008 183.40392694 7.21328771 183.40532958 5.19313049 183.42047119 C-6.84952464 183.41395915 -19.18567288 181.03698337 -28.02734375 172.1953125 C-37.40156723 160.43034746 -39.17947743 150.20073852 -39.17260742 135.47167969 C-39.17596603 134.4266478 -39.17932465 133.38161591 -39.18278503 132.30491638 C-39.19224477 128.86732783 -39.19423569 125.42978824 -39.1953125 121.9921875 C-39.1985287 119.58856181 -39.20189304 117.18493632 -39.20539856 114.78131104 C-39.2113775 109.74792019 -39.21323974 104.71454649 -39.21264648 99.68115234 C-39.21254497 93.25468838 -39.22619162 86.82833518 -39.24341869 80.40189743 C-39.25457765 75.43798322 -39.25656449 70.47409545 -39.25603676 65.51016998 C-39.25721121 63.14207834 -39.26160275 60.77398588 -39.26936913 58.40590668 C-39.27924717 55.08270169 -39.27626021 51.75973282 -39.27026367 48.43652344 C-39.27588318 47.47300461 -39.28150269 46.50948578 -39.28729248 45.51676941 C-39.23032052 32.99258093 -37.6052076 21.42974686 -28.9140625 11.87109375 C-20.62850129 4.12931721 -11.488062 -0.10211611 0 0 Z " fill="#000000" transform="translate(39.02734375,21.8046875)"/>
<path d="M0 0 C34.98 0 69.96 0 106 0 C106 49.83 106 99.66 106 151 C94.12 151 82.24 151 70 151 C70 122.29 70 93.58 70 64 C68.68 63.34 67.36 62.68 66 62 C64.60515525 60.75396392 63.25944108 59.45183871 61.953125 58.11328125 C60.8084375 56.9521582 60.8084375 56.9521582 59.640625 55.76757812 C58.85171875 54.95740234 58.0628125 54.14722656 57.25 53.3125 C52.3125639 48.26397159 47.35602472 43.36993847 41.99609375 38.77124023 C38.28655193 35.47956632 34.84903998 31.91152272 31.375 28.375 C28.6072142 25.55796534 25.81793326 22.76683454 23 20 C22.48969238 19.46963135 21.97938477 18.9392627 21.45361328 18.39282227 C17.3075466 14.41256979 13.58150594 14.22911742 8.125 14.1875 C7.34125 14.16236328 6.5575 14.13722656 5.75 14.11132812 C3.83386445 14.05290936 1.91688207 14.02348074 0 14 C0 9.38 0 4.76 0 0 Z " fill="#FCFCFC" transform="translate(357,44)"/>
<path d="M0 0 C10.56 0 21.12 0 32 0 C34.2275 4.145625 34.2275 4.145625 36.5 8.375 C37.20479492 9.67896729 37.20479492 9.67896729 37.92382812 11.00927734 C38.47200195 12.03722412 38.47200195 12.03722412 39.03125 13.0859375 C39.40830078 13.7876709 39.78535156 14.4894043 40.17382812 15.21240234 C41 17 41 17 41 19 C41.86278564 18.98428955 42.72557129 18.9685791 43.61450195 18.95239258 C46.81809267 18.90124045 50.02147515 18.8636384 53.2253418 18.83520508 C54.61147919 18.82012603 55.99756894 18.7996595 57.38354492 18.77368164 C59.37658146 18.73726284 61.36996723 18.72186982 63.36328125 18.70703125 C64.56251221 18.6913208 65.76174316 18.67561035 66.99731445 18.65942383 C70 19 70 19 71.66142273 20.19415283 C73.46544758 22.6279258 73.39293031 24.21867933 73.41992188 27.23413086 C73.44378967 28.83610573 73.44378967 28.83610573 73.46813965 30.47044373 C73.46834106 31.62359573 73.46854248 32.77674774 73.46875 33.96484375 C73.48017029 35.74212608 73.48017029 35.74212608 73.49182129 37.55531311 C73.50263415 40.06281424 73.50547061 42.57036045 73.50097656 45.07788086 C73.50000463 48.91921954 73.54160917 52.75855946 73.5859375 56.59960938 C73.5911445 59.03384999 73.59383269 61.46809757 73.59375 63.90234375 C73.61014526 65.05347153 73.62654053 66.2045993 73.64343262 67.39060974 C73.6341272 68.46174515 73.62482178 69.53288055 73.61523438 70.63647461 C73.61728882 71.57784775 73.61934326 72.51922089 73.62145996 73.48912048 C73 76 73 76 71.09448242 78.30088806 C66.67044183 80.73003102 62.8469342 80.57509558 57.87304688 80.54931641 C56.8562233 80.55953827 55.83939972 80.56976013 54.79176331 80.58029175 C51.43385212 80.60807067 48.07676235 80.606172 44.71875 80.6015625 C42.38374527 80.60933629 40.04874336 80.6180056 37.71374512 80.62753296 C32.82127714 80.64245387 27.92909783 80.64187697 23.03662109 80.63134766 C16.76478787 80.61974917 10.49413416 80.65364165 4.22249603 80.700037 C-0.59880488 80.72948751 -5.41982076 80.73125869 -10.24119568 80.72501755 C-12.55368896 80.72604491 -14.866198 80.73653805 -17.17860413 80.75664139 C-20.41086749 80.7812961 -23.64082098 80.767838 -26.87304688 80.74462891 C-28.30704079 80.76756012 -28.30704079 80.76756012 -29.77000427 80.79095459 C-36.01540174 80.69174612 -36.01540174 80.69174612 -38.71220303 78.79706287 C-41.53455517 75.69307277 -42.62648416 72.93817521 -42.63110352 68.80834961 C-42.64363663 67.82390366 -42.65616974 66.8394577 -42.66908264 65.82518005 C-42.65582443 64.77814407 -42.64256622 63.73110809 -42.62890625 62.65234375 C-42.63131821 61.56288956 -42.63373016 60.47343536 -42.63621521 59.35096741 C-42.63523802 57.05384674 -42.62187531 54.75670215 -42.59692383 52.4597168 C-42.56257954 48.94563817 -42.57628251 45.43407011 -42.59570312 41.91992188 C-42.58880545 39.68488514 -42.57913379 37.44985489 -42.56640625 35.21484375 C-42.57136612 34.16578354 -42.57632599 33.11672333 -42.58143616 32.03587341 C-42.51147094 27.7004993 -42.37259428 24.73166632 -40.38549805 20.82958984 C-37.19218228 18.38043332 -35.26534746 18.42400554 -31.265625 18.51171875 C-29.32236328 18.53588867 -29.32236328 18.53588867 -27.33984375 18.56054688 C-25.97654572 18.60232061 -24.61326448 18.6446453 -23.25 18.6875 C-21.87113376 18.7125909 -20.49222403 18.73540271 -19.11328125 18.75585938 C-15.74108644 18.81481383 -12.37109259 18.89706829 -9 19 C-8.34 17.02 -7.68 15.04 -7 13 C-3.535 6.565 -3.535 6.565 0 0 Z " fill="#FBFBFB" transform="translate(389,271)"/>
<path d="M0 0 C13.32553299 -0.23170911 26.65058686 -0.40938689 39.97772408 -0.51812172 C46.16621171 -0.57031047 52.35332125 -0.6410911 58.54101562 -0.75439453 C64.51281129 -0.86306014 70.48328184 -0.9228435 76.45598984 -0.94877243 C78.73435206 -0.96724898 81.01264173 -1.00333193 83.29043961 -1.05730057 C101.23313413 -1.46551051 101.23313413 -1.46551051 105.61590576 2.16973877 C107.19091797 4.84228516 107.19091797 4.84228516 108.10348511 7.5050354 C109.85320895 12.37444591 114.68769218 14.8737143 119.16412354 17.05410767 C122.69006654 18.23016822 125.68332201 18.26892109 129.40136719 18.29052734 C130.12891205 18.29724457 130.85645691 18.30396179 131.60604858 18.31088257 C134.00306091 18.32982554 136.39979254 18.33378521 138.796875 18.3359375 C140.47210808 18.34236929 142.14734005 18.34909793 143.8225708 18.35610962 C147.3329122 18.36807405 150.84315528 18.37179143 154.35351562 18.37060547 C158.83339617 18.37040262 163.31263992 18.39767268 167.79236984 18.43214989 C171.25326382 18.45448282 174.71400627 18.45844102 178.1749649 18.45738602 C179.82545409 18.45973359 181.47594798 18.46850923 183.12636566 18.48405075 C193.64735599 18.57382807 201.34586772 17.80566596 210.25 11.8125 C213.88126094 8.34617991 213.88126094 8.34617991 218 0 C248.69 0 279.38 0 311 0 C311 17.79958246 311 17.79958246 305.12890625 23.96484375 C300.21202998 28.50993354 295.94499329 31.24569095 289.0810957 31.25726891 C287.62621236 31.26694224 287.62621236 31.26694224 286.14193743 31.276811 C285.08416592 31.2737138 284.02639441 31.2706166 282.93656921 31.26742554 C281.24191181 31.27422221 281.24191181 31.27422221 279.51301891 31.28115618 C275.71916855 31.29383825 271.92546104 31.29217733 268.1315918 31.29052734 C265.41479957 31.29542262 262.69801744 31.30325842 259.98123169 31.31088257 C253.3624417 31.32749066 246.74368733 31.33299203 240.12487825 31.33410732 C234.74414904 31.33505791 229.36343157 31.33916874 223.98270607 31.34550858 C208.72427079 31.36312065 193.46586363 31.37234753 178.20741811 31.37084763 C177.38494914 31.37076772 176.56248016 31.3706878 175.71508789 31.37060547 C174.89161359 31.37052371 174.06813929 31.37044195 173.21971122 31.37035771 C159.87524124 31.36954487 146.53088414 31.38868204 133.18644681 31.4168822 C119.48145144 31.44561556 105.77651112 31.45942224 92.07148486 31.45769465 C84.37836967 31.45703089 76.68537282 31.46251687 68.99228477 31.48405075 C62.4419416 31.50226855 55.89177041 31.50660507 49.34141286 31.4930319 C46.00052696 31.48650495 42.66023999 31.48855083 39.31934166 31.5037384 C35.69405984 31.51915149 32.06964459 31.50990737 28.44438171 31.49447632 C27.39330237 31.50476344 26.34222302 31.51505057 25.25929278 31.52564943 C17.81876614 31.45565685 12.41131554 29.98935839 6.7578125 25.03515625 C6.21898437 24.38417969 5.68015625 23.73320312 5.125 23.0625 C4.57070313 22.41410156 4.01640625 21.76570313 3.4453125 21.09765625 C0.17929861 16.35752258 -0.23166943 12.39431465 -0.125 6.6875 C-0.10695313 5.43324219 -0.08890625 4.17898438 -0.0703125 2.88671875 C-0.03550781 1.45779297 -0.03550781 1.45779297 0 0 Z " fill="#FEFEFE" transform="translate(15,466)"/>
<path d="M0 0 C1.53515625 1.84765625 1.53515625 1.84765625 3.0625 4.0625 C5.18816732 6.58045786 6.46081071 7.82617181 9.6171875 8.84375 C12.77539942 9.08870827 14.9796981 8.98355653 18 8 C20.42216075 5.79425224 22.21512193 3.58126941 24.05078125 0.87109375 C24.69402344 0.25363281 25.33726562 -0.36382812 26 -1 C30.23980111 -0.63239366 33.74815717 0.56800234 37.6171875 2.28515625 C38.63554687 2.73310547 39.65390625 3.18105469 40.703125 3.64257812 C42.27320313 4.34543945 42.27320313 4.34543945 43.875 5.0625 C44.94492188 5.53494141 46.01484375 6.00738281 47.1171875 6.49414062 C49.7475638 7.65667301 52.37497517 8.82544602 55 10 C54.94199219 11.02480469 54.88398438 12.04960937 54.82421875 13.10546875 C54.77730043 14.46610011 54.73180248 15.82678096 54.6875 17.1875 C54.64560547 17.86103516 54.60371094 18.53457031 54.56054688 19.22851562 C54.46920031 22.97372488 54.903289 24.85865316 57.03125 27.96875 C60.70985553 30.48569062 63.52408511 30.57924351 67.8125 30.3125 C68.85180664 30.27866211 68.85180664 30.27866211 69.91210938 30.24414062 C71.60901573 30.18562661 73.30479861 30.0959548 75 30 C76.74432758 33.71643677 78.46929019 37.44107961 80.16992188 41.17773438 C80.95765627 42.90704305 81.75207808 44.63330089 82.546875 46.359375 C83.00578125 47.39578125 83.4646875 48.4321875 83.9375 49.5 C84.35902344 50.4384375 84.78054687 51.376875 85.21484375 52.34375 C86.1290013 55.4364223 86.13151881 56.98595432 85 60 C83.15234375 61.6328125 83.15234375 61.6328125 80.9375 63.125 C78.37781873 65.24495302 77.16914875 66.44597655 76.19140625 69.6484375 C75.90599948 73.90041589 75.97355441 76.77503306 78.77734375 80.12109375 C80.89345456 81.95904313 80.89345456 81.95904313 83.15234375 83.46484375 C85.41286506 85.34303588 85.67138401 86.1073021 86 89 C85.21142578 91.64135742 85.21142578 91.64135742 83.9453125 94.60546875 C83.27048828 96.20358398 83.27048828 96.20358398 82.58203125 97.83398438 C82.10121094 98.94064453 81.62039062 100.04730469 81.125 101.1875 C80.65191406 102.30576172 80.17882812 103.42402344 79.69140625 104.57617188 C76.17589286 112.82410714 76.17589286 112.82410714 75 114 C71.90621785 114.13582458 68.8194729 114.24793936 65.72265625 114.25390625 C62.03764687 114.39146063 60.07366896 114.94846085 57.03515625 117.07421875 C53.81710816 121.70054892 54.63481006 126.04352419 54.82421875 131.50390625 C54 135 54 135 52.48193359 136.22094727 C50.36107014 137.29917937 48.22574549 138.16036726 46 139 C44.54481732 139.64774069 43.09167016 140.30007418 41.640625 140.95703125 C40.17841623 141.57866546 38.7148655 142.19715242 37.25 142.8125 C36.50878906 143.13669922 35.76757812 143.46089844 35.00390625 143.79492188 C34.28589844 144.09591797 33.56789063 144.39691406 32.828125 144.70703125 C32.1877832 144.9800708 31.54744141 145.25311035 30.88769531 145.53442383 C28.55234764 146.11040779 27.23667701 145.84701872 25 145 C23.17578125 142.93359375 23.17578125 142.93359375 21.3125 140.4375 C18.59190356 137.30377595 16.78579539 135.27026978 12.5625 134.8125 C7.99292847 135.2228933 6.13266638 137.67787679 3.25 141.0625 C2.55390625 142.00222656 1.8578125 142.94195312 1.140625 143.91015625 C0.43421875 144.59980469 -0.2721875 145.28945313 -1 146 C-4.85255964 145.61635633 -8.19293154 144.21261181 -11.73828125 142.71484375 C-12.80498047 142.26689453 -13.87167969 141.81894531 -14.97070312 141.35742188 C-16.62489258 140.65456055 -16.62489258 140.65456055 -18.3125 139.9375 C-19.99569336 139.22883789 -19.99569336 139.22883789 -21.71289062 138.50585938 C-24.47704277 137.34138677 -27.239304 136.17263728 -30 135 C-29.95359375 133.89140625 -29.9071875 132.7828125 -29.859375 131.640625 C-29.82184898 130.17711032 -29.78544971 128.71356644 -29.75 127.25 C-29.69972656 126.15558594 -29.69972656 126.15558594 -29.6484375 125.0390625 C-29.58717081 121.66939468 -29.75281253 119.4077319 -31.515625 116.5 C-35.48101443 114.10580261 -39.67401708 114.62780162 -44.15625 114.86328125 C-46.25 114.859375 -46.25 114.859375 -50 114 C-51.98693674 111.59266806 -52.92746794 108.90649411 -54 106 C-54.64657993 104.54430119 -55.29891833 103.09114629 -55.95703125 101.640625 C-56.57866546 100.17841623 -57.19715242 98.7148655 -57.8125 97.25 C-58.13669922 96.50878906 -58.46089844 95.76757812 -58.79492188 95.00390625 C-59.09591797 94.28589844 -59.39691406 93.56789063 -59.70703125 92.828125 C-59.9800708 92.1877832 -60.25311035 91.54744141 -60.53442383 90.88769531 C-61.11040779 88.55234764 -60.84701872 87.23667701 -60 85 C-57.93359375 83.17578125 -57.93359375 83.17578125 -55.4375 81.3125 C-52.30377595 78.59190356 -50.27026978 76.78579539 -49.8125 72.5625 C-50.22218443 67.99294286 -52.66256203 66.17459467 -56.0625 63.3125 C-57.00222656 62.62800781 -57.94195312 61.94351563 -58.91015625 61.23828125 C-59.59980469 60.49964844 -60.28945312 59.76101563 -61 59 C-60.65539851 54.75820818 -59.43140188 51.25050044 -57.71484375 47.3828125 C-57.26689453 46.36445313 -56.81894531 45.34609375 -56.35742188 44.296875 C-55.88884766 43.25015625 -55.42027344 42.2034375 -54.9375 41.125 C-54.22883789 39.52011719 -54.22883789 39.52011719 -53.50585938 37.8828125 C-52.34332699 35.2524362 -51.17455398 32.62502483 -50 30 C-48.46279297 30.08701172 -48.46279297 30.08701172 -46.89453125 30.17578125 C-45.53389989 30.22269957 -44.17321904 30.26819752 -42.8125 30.3125 C-42.13896484 30.35439453 -41.46542969 30.39628906 -40.77148438 30.43945312 C-37.05558724 30.53008476 -35.1518049 30.10335653 -32.0625 28 C-29.39283699 24.11685381 -29.22457116 21.29668086 -29.1875 16.6875 C-29.16236328 15.94693359 -29.13722656 15.20636719 -29.11132812 14.44335938 C-29.05281557 12.62947031 -29.02345651 10.81468097 -29 9 C-24.92405075 7.29425537 -20.83821032 5.61362135 -16.75 3.9375 C-15.59113281 3.45216797 -14.43226563 2.96683594 -13.23828125 2.46679688 C-11.56572266 1.78520508 -11.56572266 1.78520508 -9.859375 1.08984375 C-8.83295898 0.66566162 -7.80654297 0.24147949 -6.74902344 -0.19555664 C-3.91110864 -1.02601217 -2.68442 -1.15788109 0 0 Z M-14 19 C-13.92136719 19.78761719 -13.84273437 20.57523437 -13.76171875 21.38671875 C-13.61054834 28.10982393 -14.70433598 32.49484061 -19.11303711 37.51489258 C-23.9044267 42.40677676 -27.48737973 45.68625845 -34.625 46 C-35.58664063 45.9175 -36.54828125 45.835 -37.5390625 45.75 C-38.75722656 45.87375 -38.75722656 45.87375 -40 46 C-42.04372894 48.6145786 -42.97913317 50.1653266 -43.0625 53.5 C-42.14910747 56.30449524 -42.14910747 56.30449524 -38.98828125 57.91796875 C-36.72941838 59.73925085 -36.07027894 60.69241595 -35.4152832 63.55908203 C-35.18522375 66.65530952 -35.11741379 69.70784325 -35.125 72.8125 C-35.104375 73.88693359 -35.08375 74.96136719 -35.0625 76.06835938 C-35.01548389 78.71301554 -34.9955509 81.3550121 -35 84 C-35.91845703 84.43892578 -35.91845703 84.43892578 -36.85546875 84.88671875 C-39.51934209 86.26960382 -41.16296193 87.61865435 -43 90 C-42.99077298 92.54713404 -42.99077298 92.54713404 -42 95 C-41.76152344 95.71285156 -41.52304688 96.42570312 -41.27734375 97.16015625 C-40.64505859 98.07087891 -40.64505859 98.07087891 -40 99 C-37.53855518 99.21272456 -37.53855518 99.21272456 -34.6875 98.9375 C-27.49901747 99.30301606 -23.92176853 102.63629398 -19.10009766 107.56176758 C-14.85789116 112.3641545 -13.96131387 116.14327709 -14.1484375 122.58203125 C-14.07496094 123.77892578 -14.07496094 123.77892578 -14 125 C-11.11547861 127.37171759 -9.63178679 128 -5.9375 128 C-3.03905684 126.50402934 -1.13666987 124.43342957 1 122 C1 121.34 1 120.68 1 120 C4.7100213 119.96450815 8.4153181 120.0066313 12.125 120.0625 C13.17171875 120.05154297 14.2184375 120.04058594 15.296875 120.02929688 C23.02736002 120.2005418 23.02736002 120.2005418 25.96899414 122.6184082 C27.54296875 124.5546875 27.54296875 124.5546875 28.79370117 126.49560547 C29.19177979 126.99205566 29.5898584 127.48850586 30 128 C34.0378333 128.0791732 35.63981913 127.24012058 39 125 C39.09003993 122.53765903 39.09003993 122.53765903 38.875 119.6875 C39.29984491 112.52582872 42.64806025 108.91068264 47.56152344 104.10009766 C52.36426518 99.8581551 56.14306407 98.96130767 62.58203125 99.1484375 C63.37996094 99.09945312 64.17789063 99.05046875 65 99 C67.37171759 96.11547861 68 94.63178679 68 90.9375 C67.0482873 88.75133624 67.0482873 88.75133624 64.48046875 87.09375 C60.77967931 82.47796222 61.22959436 78.31182611 61.3125 72.5625 C61.28478516 71.53833984 61.25707031 70.51417969 61.22851562 69.45898438 C61.25249383 62.04972033 61.25249383 62.04972033 63.38647461 59.05297852 C64.87096652 57.64357339 66.4315531 56.31533774 68 55 C68.0958418 51.82257395 68.0958418 51.82257395 67 49 C66.505 47.515 66.505 47.515 66 46 C65.29617187 46.09023438 64.59234375 46.18046875 63.8671875 46.2734375 C57.12572619 46.50225995 53.12483685 44.89654358 48.19750977 40.47827148 C39.25014789 31.68155811 39.25014789 31.68155811 38.9375 24.8125 C38.97230469 23.93722656 39.00710937 23.06195313 39.04296875 22.16015625 C39.24408024 19.72440202 39.24408024 19.72440202 36.75 17.75 C33.51905825 16.86883407 32.11519591 16.75392164 29 18 C28.35933594 18.83144531 27.71867187 19.66289062 27.05859375 20.51953125 C22.47467821 24.23701065 18.29470934 23.77015882 12.5625 23.6875 C11.02625977 23.72907227 11.02625977 23.72907227 9.45898438 23.77148438 C2.03589983 23.74746145 2.03589983 23.74746145 -0.91845703 21.61572266 C-2.32275825 20.11700722 -3.66559577 18.56127358 -5 17 C-8.79557881 17 -10.62902617 17.50178941 -14 19 Z " fill="#030404" transform="translate(158,290)"/>
<path d="M0 0 C1.26188896 -0.01292336 1.26188896 -0.01292336 2.54927063 -0.02610779 C5.3228759 -0.04876262 8.09547048 -0.0420304 10.86914062 -0.03295898 C12.80058085 -0.03819451 14.73201851 -0.04447073 16.66345215 -0.05174255 C20.70853723 -0.06214565 24.75327051 -0.05758615 28.79833984 -0.04296875 C33.98051057 -0.02577454 39.16157321 -0.04928452 44.3436203 -0.08445835 C48.33110899 -0.10642379 52.31833214 -0.10499305 56.30586243 -0.09669304 C58.21642777 -0.09587318 60.12701255 -0.10274325 62.03752136 -0.11746407 C64.7093002 -0.13489595 67.37908255 -0.1203803 70.05078125 -0.09765625 C71.23230522 -0.11519455 71.23230522 -0.11519455 72.43769836 -0.13308716 C76.32006013 -0.06594397 78.3367239 0.39765367 81.51560974 2.68566895 C83.87007491 6.02185097 84.15288295 7.68040385 84.15649414 11.72900391 C84.16902725 12.95700211 84.18156036 14.18500031 84.19447327 15.45021057 C84.18121506 16.76803024 84.16795685 18.08584991 84.15429688 19.44360352 C84.15512611 20.81693205 84.15758757 22.19026047 84.16160583 23.56358337 C84.16445904 26.4360862 84.14980958 29.30780721 84.12231445 32.18017578 C84.08819839 35.85809094 84.09426402 39.53461171 84.11297703 43.21259403 C84.12355498 46.04629601 84.11460291 48.87967456 84.09959221 51.71334648 C84.0919063 53.72742793 84.09925802 55.7415486 84.10682678 57.75563049 C84.09099045 58.98047653 84.07515411 60.20532257 84.05883789 61.46728516 C84.05263931 62.54474503 84.04644073 63.6222049 84.04005432 64.73231506 C83.52539062 67.53344727 83.52539062 67.53344727 82.02708435 69.88023376 C78.4525796 72.24240122 75.10813913 72.09236348 70.96484375 72.05102539 C70.10261703 72.05803467 69.24039032 72.06504395 68.35203552 72.07226562 C65.5032425 72.08986415 62.65544367 72.07821639 59.80664062 72.06469727 C57.82653615 72.06739165 55.84643296 72.07127362 53.86633301 72.07629395 C49.71691284 72.08219151 45.56783715 72.07361764 41.41845703 72.05493164 C36.0984073 72.03214204 30.77916471 72.04526372 25.45914459 72.0692215 C21.37048252 72.08367243 17.28201195 72.0790767 13.19334412 72.06871033 C11.23172409 72.0660411 9.2700867 72.06931968 7.30848694 72.07862854 C4.56716832 72.08878249 1.82715857 72.07330953 -0.9140625 72.05102539 C-1.72561295 72.05912231 -2.53716339 72.06721924 -3.37330627 72.07556152 C-6.81971988 72.02363222 -9.06658362 71.80198855 -11.9763031 69.88696289 C-13.9001899 66.86495216 -13.98787689 64.93499268 -14.00805664 61.35961914 C-14.02389297 60.11152466 -14.03972931 58.86343018 -14.05604553 57.57751465 C-14.0522042 56.21907171 -14.04716523 54.86063171 -14.04101562 53.50219727 C-14.04625199 52.10501694 -14.05252852 50.70784016 -14.05979919 49.31066895 C-14.07019903 46.38524721 -14.0656482 43.46031202 -14.05102539 40.53491211 C-14.03383004 36.78846157 -14.05734114 33.04354363 -14.09251499 29.2972641 C-14.11448904 26.4129625 -14.11304792 23.52902774 -14.10474968 20.64466858 C-14.10393027 19.26357847 -14.11079185 17.8824614 -14.12552071 16.50144958 C-14.14296279 14.57012566 -14.12510667 12.6385807 -14.10571289 10.70727539 C-14.10475113 9.60903442 -14.10378937 8.51079346 -14.10279846 7.37927246 C-13.47460938 4.53344727 -13.47460938 4.53344727 -11.46482849 2.18092346 C-7.61300206 0.0587404 -4.28670112 -0.03551493 0 0 Z " fill="#FDFDFD" transform="translate(62.474609375,75.466552734375)"/>
<path d="M0 0 C16.5 0 33 0 50 0 C59 17 59 17 59 19 C59.62455078 18.97905273 60.24910156 18.95810547 60.89257812 18.93652344 C63.7615506 18.85264156 66.63026408 18.80111489 69.5 18.75 C70.48226562 18.71648437 71.46453125 18.68296875 72.4765625 18.6484375 C79.97701504 18.54843147 85.32360249 19.76363462 91.0234375 24.78125 C91.46945312 25.3484375 91.91546875 25.915625 92.375 26.5 C93.06722656 27.35078125 93.06722656 27.35078125 93.7734375 28.21875 C96.46399069 32.12605017 97.25601983 34.93367841 97.30639648 39.71142578 C97.32238388 40.86007111 97.33837128 42.00871643 97.35484314 43.19216919 C97.36020584 44.43070648 97.36556854 45.66924377 97.37109375 46.9453125 C97.38012222 48.22550262 97.3891507 49.50569275 97.39845276 50.82467651 C97.41492991 53.53646356 97.42263958 56.24812743 97.42553711 58.95996094 C97.43089732 62.40981309 97.46848136 65.85848106 97.51428127 69.30800056 C97.55147228 72.62459547 97.5525804 75.94101661 97.55859375 79.2578125 C97.57812607 80.48420441 97.59765839 81.71059631 97.61778259 82.97415161 C97.57780289 90.65442896 96.50962773 96.63851529 92 103 C89.80904619 105.05800065 87.67845611 106.63807316 85 108 C84.35367111 108.34301651 83.70734222 108.68603302 83.04142761 109.03944397 C78.53951834 110.46125525 74.18828909 110.30325991 69.4934082 110.30639648 C68.43584824 110.31472 67.37828827 110.32304352 66.28868103 110.33161926 C62.79267694 110.35571217 59.29685956 110.36449149 55.80078125 110.37109375 C53.36565597 110.38006199 50.93053126 110.38918387 48.4954071 110.39845276 C43.3886074 110.41494437 38.28187326 110.42264296 33.17504883 110.42553711 C26.64607079 110.43091493 20.11771318 110.4685705 13.5889101 110.51428127 C8.55728432 110.54409569 3.52580699 110.55126167 -1.50589943 110.55226326 C-3.91195321 110.55645832 -6.31800772 110.5688637 -8.72397423 110.58978081 C-12.09858497 110.61677887 -15.47177024 110.61184304 -18.84643555 110.59936523 C-19.8312088 110.61419952 -20.81598206 110.62903381 -21.83059692 110.64431763 C-29.51048934 110.56386971 -36.439241 108.63609473 -41.94861889 103.01015377 C-48.17824269 95.44025446 -48.32477288 87.50484289 -48.37109375 78.07421875 C-48.38012222 76.93144974 -48.3891507 75.78868073 -48.39845276 74.61128235 C-48.4129212 72.19994716 -48.42183349 69.78857302 -48.42553711 67.37719727 C-48.4374278 63.70976881 -48.48664619 60.04402681 -48.53710938 56.37695312 C-48.54657545 54.02604982 -48.5538096 51.67513625 -48.55859375 49.32421875 C-48.57812607 48.23848068 -48.59765839 47.15274261 -48.61778259 46.03410339 C-48.57039347 37.94257748 -46.85814624 31.06852613 -41.15647888 25.05595398 C-36.58707414 20.91990346 -32.85071491 18.73499206 -26.578125 18.8046875 C-25.04091797 18.81435547 -25.04091797 18.81435547 -23.47265625 18.82421875 C-22.40917969 18.84097656 -21.34570312 18.85773438 -20.25 18.875 C-18.63158203 18.88853516 -18.63158203 18.88853516 -16.98046875 18.90234375 C-14.32008722 18.92588695 -11.66015664 18.95877201 -9 19 C-8.67 17.68 -8.34 16.36 -8 15 C-5.36 10.05 -2.72 5.1 0 0 Z M9 15 C7.515 17.76375 6.03 20.5275 4.5 23.375 C4.03013672 24.24431152 3.56027344 25.11362305 3.07617188 26.00927734 C2.52799805 27.03722412 2.52799805 27.03722412 1.96875 28.0859375 C1.59169922 28.7876709 1.21464844 29.4894043 0.82617188 30.21240234 C-0.13984328 31.97436711 -0.13984328 31.97436711 0 34 C-1.28632324 33.96072388 -1.28632324 33.96072388 -2.59863281 33.9206543 C-5.78916189 33.83529403 -8.97910807 33.77268487 -12.17041016 33.7253418 C-13.54983702 33.7002407 -14.92913142 33.66615127 -16.30810547 33.62280273 C-18.29335872 33.56197125 -20.27959359 33.53642063 -22.265625 33.51171875 C-23.45961914 33.48553467 -24.65361328 33.45935059 -25.88378906 33.43237305 C-29.07404712 33.76851299 -29.07404712 33.76851299 -31.38549805 35.82958984 C-33.80043442 40.57181935 -33.59123977 44.96231451 -33.56640625 50.21484375 C-33.57260483 51.30334122 -33.57880341 52.39183868 -33.58518982 53.51332092 C-33.59228445 55.81217556 -33.58912029 58.11108162 -33.57641602 60.40991211 C-33.56256104 63.92202631 -33.596617 67.43147053 -33.63476562 70.94335938 C-33.63571695 73.17968815 -33.63385728 75.41602025 -33.62890625 77.65234375 C-33.64216446 78.69937973 -33.65542267 79.74641571 -33.66908264 80.82518005 C-33.65654953 81.80962601 -33.64401642 82.79407196 -33.63110352 83.80834961 C-33.63014175 84.66818954 -33.62917999 85.52802948 -33.62818909 86.41392517 C-32.71506958 90.17297707 -31.14398286 92.7911418 -28 95 C-24.62255082 95.86681156 -21.34469133 95.8001445 -17.87304688 95.74462891 C-16.34781151 95.7555809 -16.34781151 95.7555809 -14.79176331 95.76675415 C-11.43341076 95.78295538 -8.07699153 95.755758 -4.71875 95.7265625 C-2.38374839 95.72552514 -0.04874501 95.72656114 2.28625488 95.72958374 C7.17889497 95.72940434 12.07087563 95.70855628 16.96337891 95.67236328 C23.23503544 95.62698801 29.50572847 95.62590081 35.77750397 95.63939857 C40.59882166 95.6460814 45.41991966 95.63281208 50.24119568 95.61314011 C52.55365347 95.60544138 54.8661357 95.6031375 57.17860413 95.6063118 C60.4105587 95.60705352 63.6412779 95.58180454 66.87304688 95.54931641 C67.82904282 95.55427124 68.78503876 95.55922607 69.77000427 95.56433105 C73.90355836 95.49800941 76.42013973 95.31838847 80.09448242 93.30088806 C82.40124871 90.51549732 82.62305786 89.22130111 82.61523438 85.63647461 C82.62453979 84.5653392 82.63384521 83.4942038 82.64343262 82.39060974 C82.62703735 81.23948196 82.61064209 80.08835419 82.59375 78.90234375 C82.59379028 77.71653214 82.59383057 76.53072052 82.59387207 75.30897522 C82.58851201 72.80317889 82.57090892 70.29738326 82.54199219 67.79174805 C82.50012023 63.94853574 82.50092424 60.10707387 82.5078125 56.26367188 C82.49732109 53.83071694 82.48438327 51.39777107 82.46875 48.96484375 C82.46854858 47.81169174 82.46834717 46.65853973 82.46813965 45.47044373 C82.44427185 43.86846886 82.44427185 43.86846886 82.41992188 42.23413086 C82.40729309 40.82326454 82.40729309 40.82326454 82.39440918 39.38389587 C81.92787722 36.56407405 81.30188077 35.65448407 79 34 C75.89906261 33.58456042 75.89906261 33.58456042 72.36328125 33.70703125 C71.06455078 33.71669922 69.76582031 33.72636719 68.42773438 33.73632812 C67.05598361 33.76139415 65.68423882 33.78678899 64.3125 33.8125 C62.92905076 33.8275498 61.54558599 33.8412377 60.16210938 33.85351562 C56.77434793 33.88892777 53.38736861 33.93831946 50 34 C49.01 31.03 49.01 31.03 48 28 C45.69 23.71 43.38 19.42 41 15 C30.44 15 19.88 15 9 15 Z " fill="#050404" transform="translate(380,256)"/>
<path d="M0 0 C-0.49371094 0.75925781 -0.98742187 1.51851563 -1.49609375 2.30078125 C-2.45708984 3.79158203 -2.45708984 3.79158203 -3.4375 5.3125 C-4.07558594 6.29863281 -4.71367188 7.28476562 -5.37109375 8.30078125 C-7.93439743 12.54836601 -8.13193691 15.66427495 -8.15821838 20.5488739 C-8.16315636 21.21705621 -8.16809434 21.88523852 -8.17318195 22.57366878 C-8.18856358 24.81693226 -8.19691935 27.06016711 -8.20532227 29.3034668 C-8.21490027 30.90980278 -8.2249103 32.51613624 -8.23532104 34.12246704 C-8.2623846 38.48783652 -8.28338632 42.85321682 -8.30332303 47.21862388 C-8.32517362 51.7790549 -8.35256685 56.3394525 -8.37937927 60.89985657 C-8.42931869 69.5376928 -8.47425289 78.17554758 -8.51740164 86.81342012 C-8.56676333 96.64645646 -8.62168542 106.47945926 -8.67708123 116.31246316 C-8.79092046 136.54161105 -8.89755804 156.77079146 -9 177 C-14.94 177 -20.88 177 -27 177 C-27.09265124 156.2767948 -27.16400679 135.5536396 -27.20724869 114.83026886 C-27.22786158 105.20773766 -27.25595784 95.58533763 -27.30175781 85.96289062 C-27.34166455 77.57458644 -27.36744207 69.18637727 -27.37635398 60.79798079 C-27.38156223 56.35759689 -27.39377693 51.91748478 -27.42292023 47.47718811 C-27.45015003 43.29438871 -27.45842979 39.11197203 -27.45243073 34.92909241 C-27.45352759 33.39727699 -27.46143652 31.86544826 -27.4768219 30.33370972 C-27.56514161 21.08398062 -27.36449411 14.07129478 -21.0703125 6.7578125 C-14.1593893 0.95707776 -8.91667697 -0.35666708 0 0 Z " fill="#27EDD7" transform="translate(70,274)"/>
<path d="M0 0 C7.61032981 4.32191569 13.06341874 10.6459597 15.52734375 19.1328125 C17.52011779 29.03864072 15.95183459 36.77203204 10.9296875 45.48828125 C6.56096987 51.97442748 0.94139161 54.83494877 -6.22265625 57.5703125 C-16.0232145 59.4616483 -24.6069336 58.29891799 -32.97265625 52.6953125 C-38.42329343 48.34570403 -42.33469011 42.08456686 -43.78515625 35.2578125 C-44.9219487 16.99458949 -44.9219487 16.99458949 -39.78515625 10.2578125 C-39.04265625 9.2059375 -38.30015625 8.1540625 -37.53515625 7.0703125 C-27.50983236 -3.18285966 -13.16643554 -6.10308033 0 0 Z " fill="#040404" transform="translate(184.78515625,334.7421875)"/>
<path d="M0 0 C0 58.41 0 116.82 0 177 C-6.61144842 175.89809193 -8.70616013 174.74456964 -13 170 C-17.75349178 162.75287269 -17.57740177 155.08970162 -17.53344727 146.70288086 C-17.54051667 145.27611911 -17.54926596 143.84936485 -17.55955505 142.42262268 C-17.58194077 138.57137732 -17.57913554 134.720545 -17.57023358 130.8692596 C-17.56510292 127.6460633 -17.57243276 124.42294321 -17.57970566 121.19975477 C-17.59666915 113.59395741 -17.59317346 105.98836087 -17.57641602 98.38256836 C-17.55948334 90.55080453 -17.57535268 82.71959763 -17.6076389 74.88789457 C-17.63436936 68.14705006 -17.64160195 61.40637856 -17.63312382 54.6654864 C-17.62820644 50.64665101 -17.63034581 46.62815084 -17.65091133 42.60935783 C-17.66932425 38.8309019 -17.66324261 35.05324527 -17.63871193 31.27483177 C-17.63372237 29.89300175 -17.63714554 28.51111021 -17.64986038 27.12932968 C-17.73023584 17.63993245 -16.60591842 11.86436675 -10.05078125 4.94140625 C-9.47714844 4.48636719 -8.90351563 4.03132813 -8.3125 3.5625 C-7.73113281 3.08941406 -7.14976562 2.61632812 -6.55078125 2.12890625 C-4.10548463 0.34882886 -3.11892245 0 0 0 Z " fill="#5A91F1" transform="translate(279,16)"/>
<path d="M0 0 C0 49.5 0 99 0 150 C-6.85795996 148.85700667 -6.85795996 148.85700667 -10.125 146 C-11.08792969 145.195625 -11.08792969 145.195625 -12.0703125 144.375 C-17.73018708 137.40900052 -18.58358788 130.27521093 -18.50170898 121.54858398 C-18.50711197 120.43845947 -18.51251495 119.32833496 -18.51808167 118.18457031 C-18.53052453 114.53813499 -18.51410755 110.892496 -18.49609375 107.24609375 C-18.49624883 104.69979308 -18.49773928 102.15349217 -18.50050354 99.60719299 C-18.50188552 94.28041201 -18.48980044 88.95390849 -18.46655273 83.62719727 C-18.43993433 77.48600481 -18.43820323 71.34519028 -18.4499411 65.20395988 C-18.46075307 59.27243502 -18.45440273 53.34102453 -18.44038582 47.40950203 C-18.43587905 44.89576678 -18.43552772 42.38202045 -18.43945122 39.86828423 C-18.44237043 36.3526337 -18.42582183 32.83759463 -18.40405273 29.32202148 C-18.40855438 28.28958817 -18.41305603 27.25715485 -18.41769409 26.19343567 C-18.3253326 17.18896478 -16.39366127 10.54589131 -10 4 C-6.94871881 1.84177672 -3.84938188 0 0 0 Z " fill="#FAAC43" transform="translate(324,237)"/>
<path d="M0 0 C1.5405038 49.99672305 1.41019782 100.00173629 0 150 C-3.85901323 149.31911464 -6.06453045 148.57479691 -9.0625 146 C-9.71347656 145.46375 -10.36445313 144.9275 -11.03515625 144.375 C-16.79671994 137.41072421 -17.58808796 130.15182867 -17.53344727 121.38085938 C-17.54206284 120.25283401 -17.55067841 119.12480865 -17.55955505 117.96260071 C-17.58214686 114.25607975 -17.57548858 110.55031895 -17.56640625 106.84375 C-17.57164446 104.25500261 -17.57792166 101.66625713 -17.58518982 99.07751465 C-17.59558133 93.66078676 -17.59138175 88.24434637 -17.57641602 82.82763672 C-17.55949089 76.58520839 -17.57534551 70.34347919 -17.6076389 64.10112715 C-17.63764437 58.07024287 -17.63950157 52.03971224 -17.6301403 46.00874329 C-17.62932194 43.45395498 -17.63616325 40.89915199 -17.65091133 38.34440613 C-17.66839098 34.76880366 -17.65378395 31.19468429 -17.63110352 27.61914062 C-17.64279572 26.5716011 -17.65448792 25.52406158 -17.66653442 24.44477844 C-17.56465444 16.5238026 -15.52593029 10.5068712 -9.83203125 4.84375 C-9.16558594 4.4003125 -8.49914062 3.956875 -7.8125 3.5 C-7.13832031 3.0359375 -6.46414062 2.571875 -5.76953125 2.09375 C-2.38214286 0 -2.38214286 0 0 0 Z " fill="#FA3401" transform="translate(33,38)"/>
<path d="M0 0 C6.00890427 3.12595571 9.70205432 8.06722191 13.0625 13.8125 C15.64008496 22.75823605 14.49678498 29.66214421 10.046875 37.8203125 C6.4828945 42.78960239 1.86134783 45.58788406 -3.875 47.5 C-11.66726982 48.15402744 -19.25384136 48.66431922 -26.0078125 44.19140625 C-31.17795018 39.50799701 -35.23114119 32.91212725 -36.24609375 25.95703125 C-36.45221739 17.74846039 -34.56095761 11.51293772 -28.9375 5.390625 C-20.77706897 -2.08977011 -10.56711329 -4.10338076 0 0 Z " fill="#040404" transform="translate(415.875,293.5)"/>
<path d="M0 0 C19.14 0 38.28 0 58 0 C58 4.62 58 9.24 58 14 C38.86 14 19.72 14 0 14 C0 9.38 0 4.76 0 0 Z " fill="#000000" transform="translate(329,165)"/>
<path d="M0 0 C19.14 0 38.28 0 58 0 C58 4.62 58 9.24 58 14 C38.86 14 19.72 14 0 14 C0 9.38 0 4.76 0 0 Z " fill="#000000" transform="translate(329,135)"/>
<path d="M0 0 C4.58203706 2.32077202 7.33307988 5.48287168 8.9921875 10.3515625 C9.89383321 15.64873104 8.97325778 19.87995708 5.9921875 24.3515625 C2.22852476 28.06504307 -0.90830363 30.49120422 -6.2578125 30.6640625 C-10.91764018 30.60422523 -13.41993976 29.43880184 -17.0078125 26.3515625 C-20.37393431 22.62153563 -21.87502741 20.11096491 -22.2578125 15.0390625 C-21.94308956 10.39689913 -20.90612555 7.22962688 -17.54296875 3.90234375 C-12.09333602 -0.74783185 -7.00710533 -2.26299511 0 0 Z " fill="#A0F8EB" transform="translate(177.0078125,347.6484375)"/>
<path d="M0 0 C5.61 0 11.22 0 17 0 C17.2475 2.64 17.495 5.28 17.75 8 C18.45495626 14.49111464 19.42039906 19.42003383 23 25 C23.37898438 25.59425781 23.75796875 26.18851562 24.1484375 26.80078125 C25.06881969 28.22051974 26.02971921 29.61388459 27 31 C20.08626051 31.51002996 14.68911367 31.22855446 9 27 C3.85389577 22.13809876 0.20487545 17.72463567 -0.1953125 10.44921875 C-0.13020833 6.96614583 -0.06510417 3.48307292 0 0 Z " fill="#E0EAF3" transform="translate(15,466)"/>
<path d="M0 0 C0 7.92 0 15.84 0 24 C-7.20074167 22.55985167 -13.97459149 20.98152548 -21 19 C-21 14.38 -21 9.76 -21 5 C-17.87576967 4.16368595 -14.75069056 3.33082292 -11.625 2.5 C-10.73554688 2.26152344 -9.84609375 2.02304688 -8.9296875 1.77734375 C-8.07890625 1.55175781 -7.228125 1.32617188 -6.3515625 1.09375 C-5.56604004 0.88427734 -4.78051758 0.67480469 -3.97119141 0.45898438 C-2 0 -2 0 0 0 Z " fill="#F8F8F8" transform="translate(182,100)"/>
<path d="M0 0 C2.8100346 1.79363911 4.50940468 3.01880935 6 6 C6.04052587 10.1984806 5.62808916 13.8803628 3.5625 17.5625 C-0.51268019 19.84857669 -4.44715571 19.71966757 -9 19 C-11.96247942 17.3381213 -12.680393 16.13449904 -13.58984375 12.90625 C-14.32077979 8.72947263 -14.42868768 6.70955202 -12.1875 3 C-8.4620862 -0.40609262 -4.91281441 -0.70586414 0 0 Z " fill="#F8F8F8" transform="translate(409,307)"/>
<path d="M0 0 C7.86289308 6.73962264 7.86289308 6.73962264 10.45703125 9.39453125 C11.01197266 9.95720703 11.56691406 10.51988281 12.13867188 11.09960938 C12.69103516 11.66486328 13.24339844 12.23011719 13.8125 12.8125 C17.53424928 16.88999317 17.53424928 16.88999317 22 20 C22 20.66 22 21.32 22 22 C14.74 22 7.48 22 0 22 C0 14.74 0 7.48 0 0 Z " fill="#F1F1F1" transform="translate(378,83)"/>
<path d="M0 0 C4.95 0 9.9 0 15 0 C15 4.95 15 9.9 15 15 C10.05 15 5.1 15 0 15 C0 10.05 0 5.1 0 0 Z " fill="#FCFFFE" transform="translate(258,355)"/>
<path d="M0 0 C4.95 0 9.9 0 15 0 C15 4.95 15 9.9 15 15 C10.05 15 5.1 15 0 15 C0 10.05 0 5.1 0 0 Z " fill="#FCFFFE" transform="translate(68,355)"/>
</svg>
