<?xml version="1.0" encoding="UTF-8"?>
<svg version="1.1" xmlns="http://www.w3.org/2000/svg" width="512" height="512">
<path d="M0 0 C1.31412621 0.00008308 1.31412621 0.00008308 2.65480042 0.00016785 C5.52955269 0.00731752 8.40288416 0.04525867 11.27734375 0.0859375 C13.27457262 0.10169703 15.27180588 0.1169101 17.26904297 0.1315918 C43.67041221 0.38824517 70.06263837 1.68398779 96.21484375 5.4609375 C97.75760986 5.68209229 97.75760986 5.68209229 99.33154297 5.90771484 C124.26398757 9.62466356 149.07871829 15.87319196 173.27246094 22.91796875 C174.07863861 23.15092651 174.88481628 23.38388428 175.71542358 23.62390137 C177.2131193 24.06049851 178.70824042 24.50608636 180.19985962 24.9630127 C189.01653861 27.53578687 196.03060787 26.27791312 204.6953125 23.828125 C206.75299783 23.26614618 208.81069692 22.70421777 210.8684082 22.14233398 C212.46925766 21.69916336 212.46925766 21.69916336 214.10244751 21.24703979 C264.00560675 7.46876327 313.58499422 0.38148468 365.37817383 0.16577148 C367.34146199 0.15403309 369.30471332 0.13325635 371.26782227 0.10424805 C374.15792684 0.06186837 377.04712491 0.04547354 379.9375 0.03515625 C381.25138451 0.00889412 381.25138451 0.00889412 382.59181213 -0.01789856 C386.38063971 -0.00426166 388.54908964 0.02479764 391.77026367 2.13500977 C393.56044715 5.01739577 393.67737929 6.72176694 393.60546875 10.1015625 C393.58613281 11.70644531 393.58613281 11.70644531 393.56640625 13.34375 C393.51613281 15.01050781 393.51613281 15.01050781 393.46484375 16.7109375 C393.44679688 17.83757812 393.42875 18.96421875 393.41015625 20.125 C393.36304597 22.90450646 393.29727736 25.6822909 393.21484375 28.4609375 C394.40037842 28.43999023 395.58591309 28.41904297 396.80737305 28.39746094 C401.21480179 28.32494419 405.62217801 28.27909535 410.0300293 28.24121094 C411.93604405 28.22112204 413.84199737 28.19384556 415.74780273 28.15917969 C418.49087701 28.11054108 421.233135 28.08794171 423.9765625 28.0703125 C424.82570724 28.04966736 425.67485199 28.02902222 426.54972839 28.00775146 C427.35018082 28.00744934 428.15063324 28.00714722 428.9753418 28.00683594 C430.02458076 27.99351227 430.02458076 27.99351227 431.09501648 27.97991943 C434.27249308 28.70093273 435.8970152 30.20197991 438.21484375 32.4609375 C438.8404389 35.22298717 438.8404389 35.22298717 438.84125614 38.47050476 C438.85367818 39.70912419 438.86610022 40.94774363 438.87889868 42.22389698 C438.86739713 43.60068453 438.85542489 44.97746822 438.84303284 46.35424805 C438.84807627 47.8150377 438.85530353 49.27582117 438.86453098 50.73659039 C438.88350958 54.75619465 438.8711884 58.7751929 438.85380805 62.79478216 C438.84046675 67.12751361 438.85585945 71.46015448 438.86763 75.7928772 C438.88603525 84.2828069 438.8774751 92.77250687 438.85954178 101.26242948 C438.84553156 108.16067712 438.84161958 115.05886229 438.84498405 121.9571228 C438.8454615 122.93790383 438.84593894 123.91868486 438.84643085 124.92918652 C438.84745715 126.92145548 438.84851251 128.91372442 438.84959661 130.90599334 C438.85816951 148.53340359 438.84146956 166.16070273 438.81176758 183.78808594 C438.78292876 200.90336779 438.77584587 218.01848957 438.79125977 235.13378906 C438.80801051 253.75908365 438.81206765 272.38430218 438.79454941 291.00959873 C438.79270496 292.99464988 438.79087024 294.97970103 438.78904533 296.9647522 C438.78813324 297.94150443 438.78722115 298.91825667 438.78628143 299.92460746 C438.78066901 306.81672519 438.78398976 313.70880589 438.79059029 320.60092163 C438.79831174 328.99704124 438.79161386 337.39300311 438.76641525 345.78909087 C438.75389251 350.07515699 438.74780709 354.36097719 438.75895691 358.64705276 C438.76896377 362.56771562 438.76061638 366.48788702 438.73737573 370.40848982 C438.73219662 371.82968887 438.73381379 373.25093161 438.74277038 374.67211187 C438.75390458 376.59851282 438.73818349 378.52501374 438.72100163 380.45137024 C438.71981014 381.52305104 438.71861866 382.59473185 438.71739107 383.69888783 C438.08553881 387.17161022 437.00636416 388.35533162 434.21484375 390.4609375 C431.39157069 390.84526246 428.96174426 390.98483002 426.14105225 390.94195557 C424.91085999 390.94708212 424.91085999 390.94708212 423.65581536 390.95231223 C420.90397858 390.958908 418.1531143 390.93688741 415.40136719 390.91503906 C413.43035912 390.91391095 411.45934937 390.91454374 409.48834229 390.91680908 C404.1332313 390.91795857 398.77847739 390.89441114 393.42344952 390.86651325 C387.82872507 390.84153876 382.23399278 390.83916072 376.63922119 390.83441162 C366.04281788 390.82197023 355.44657929 390.78913281 344.85024858 390.74901366 C332.78753068 390.7043322 320.724805 390.68231802 308.66202497 390.66223192 C283.84620652 390.62040126 259.03053435 390.55002653 234.21484375 390.4609375 C234.064104 391.73380615 233.91336426 393.0066748 233.75805664 394.31811523 C232.83427866 402.11863277 229.37347435 406.82633238 223.5078125 411.91796875 C216.87747885 416.37960723 211.35323287 416.90850453 203.53125 416.859375 C202.00974586 416.86368027 202.00974586 416.86368027 200.45750427 416.86807251 C198.32021524 416.87010674 196.18290732 416.86462191 194.0456543 416.85205078 C190.79107606 416.8360052 187.53774276 416.85191324 184.28320312 416.87109375 C182.19921603 416.86911088 180.11522971 416.8652663 178.03125 416.859375 C177.06643204 416.86544769 176.10161407 416.87152039 175.1075592 416.8777771 C166.84604289 416.79265309 160.03329006 415.05300268 153.82421875 409.328125 C148.7663396 403.46000308 147.09342021 398.10166771 147.21484375 390.4609375 C146.18263073 390.46462467 145.15041771 390.46831184 144.08692551 390.47211075 C118.99153657 390.56083881 93.89616793 390.62660713 68.80065536 390.66818619 C56.66473573 390.68882704 44.52891961 390.71697678 32.39306641 390.76269531 C21.81765082 390.80251639 11.24231019 390.82835923 0.66682172 390.83729148 C-4.93483172 390.84251423 -10.53627071 390.8548213 -16.13785553 390.88385773 C-21.40732892 390.91095203 -26.67649896 390.91939459 -31.94603539 390.91336823 C-33.88266586 390.91447114 -35.81930619 390.9224605 -37.75587654 390.9377594 C-40.39542711 390.95759377 -43.03382492 390.95290091 -45.67340088 390.94195557 C-46.44383012 390.95360693 -47.21425936 390.9652583 -48.00803494 390.97726274 C-51.28396182 390.94041888 -53.32624815 390.80693174 -55.98047656 388.8057735 C-58.27811858 385.82042726 -58.28715217 384.19485193 -58.29131413 380.45137024 C-58.30236181 379.21275081 -58.3134095 377.97413137 -58.32479197 376.69797802 C-58.31683443 375.32119216 -58.30849673 373.94440846 -58.29981995 372.56762695 C-58.30514332 371.10683903 -58.3122078 369.64605658 -58.320867 368.18528461 C-58.33954913 364.1657702 -58.3331704 360.14662283 -58.32271397 356.12709284 C-58.31573772 351.79436151 -58.33170784 347.46170679 -58.3447113 343.1289978 C-58.36638263 334.63910861 -58.36621647 326.1493533 -58.35808576 317.65944552 C-58.35179285 310.76120123 -58.35291626 303.86299606 -58.35935783 296.9647522 C-58.36025949 295.98397117 -58.36116114 295.00319014 -58.36209012 293.99268848 C-58.36394127 292.00041953 -58.36580383 290.00815059 -58.36767768 288.01588166 C-58.38426691 269.32246417 -58.37552723 250.62912209 -58.3586921 231.93570912 C-58.34399241 214.82170411 -58.35862536 197.70787462 -58.38746227 180.59389222 C-58.41683198 163.03333437 -58.42783575 145.47285761 -58.41828007 127.91227627 C-58.41725748 125.92722513 -58.41626287 123.94217397 -58.41529655 121.9571228 C-58.41482016 120.98037057 -58.41434377 120.00361833 -58.41385295 118.99726754 C-58.4116857 112.10513166 -58.42150931 105.21307228 -58.43606758 98.32095337 C-58.45355495 89.92481935 -58.45352538 81.52890921 -58.43071593 73.13278413 C-58.41954116 68.84665963 -58.41648388 64.56093009 -58.43501663 60.27482224 C-58.45175185 56.35407981 -58.44556625 52.43407894 -58.42079984 48.51338518 C-58.41589308 47.09218114 -58.41949582 45.67091807 -58.43228728 44.24976313 C-58.44837995 42.32339851 -58.43088774 40.39683972 -58.41156864 38.47050476 C-58.41129895 37.39882396 -58.41102926 36.32714315 -58.4107514 35.22298717 C-57.5685751 31.50471542 -55.93614697 30.47116722 -52.78515625 28.4609375 C-50.66532898 27.97991943 -50.66532898 27.97991943 -48.5456543 28.00683594 C-47.74520187 28.00713806 -46.94474945 28.00744019 -46.12004089 28.00775146 C-45.27089615 28.02839661 -44.4217514 28.04904175 -43.546875 28.0703125 C-42.66610794 28.07597229 -41.78534088 28.08163208 -40.87788391 28.08746338 C-38.07557932 28.1097842 -35.27457179 28.15997173 -32.47265625 28.2109375 C-30.56837789 28.23100809 -28.66407941 28.24925789 -26.75976562 28.265625 C-22.10106572 28.30963483 -17.4433306 28.37863201 -12.78515625 28.4609375 C-12.80610352 27.75485352 -12.82705078 27.04876953 -12.84863281 26.32128906 C-12.93184923 23.11798374 -12.9838341 19.91490587 -13.03515625 16.7109375 C-13.06867187 15.59976563 -13.1021875 14.48859375 -13.13671875 13.34375 C-13.14960937 12.27382813 -13.1625 11.20390625 -13.17578125 10.1015625 C-13.19672852 9.11704102 -13.21767578 8.13251953 -13.23925781 7.11816406 C-12.78515625 4.4609375 -12.78515625 4.4609375 -11.30981445 2.13720703 C-7.6655578 -0.28242997 -4.22576256 -0.07261993 0 0 Z " fill="#000000" transform="translate(65.78515625,47.5390625)"/>
<path d="M0 0 C0 105.27 0 210.54 0 319 C-11.55 319.33 -23.1 319.66 -35 320 C-85.21974945 322.44974388 -132.36402691 330.79695226 -179 350 C-179 243.08 -179 136.16 -179 26 C-116.90096831 9.28102993 -116.90096831 9.28102993 -95 6 C-93.93297852 5.83161621 -92.86595703 5.66323242 -91.76660156 5.48974609 C-75.16114577 2.90869589 -58.65357984 1.51779701 -41.875 0.75 C-40.98914215 0.70889099 -40.1032843 0.66778198 -39.19058228 0.62542725 C-26.1177271 0.03811169 -13.09758934 0 0 0 Z " fill="#EAEDEF" transform="translate(443,64)"/>
<path d="M0 0 C57.82406099 0 113.25843778 6.57736383 168.68774414 23.34912109 C172.1041461 24.31080704 175.55679462 25.13919866 179 26 C179 132.92 179 239.84 179 350 C170.42 346.7 161.84 343.4 153 340 C139.60110301 335.0870711 125.94507382 331.96572333 112 329 C111.08895508 328.80519043 110.17791016 328.61038086 109.23925781 328.40966797 C96.95731577 325.84103276 84.58064099 324.24715013 72.125 322.8125 C71.02673386 322.68521515 71.02673386 322.68521515 69.90628052 322.55535889 C67.75322315 322.30850923 65.59949633 322.06883387 63.4453125 321.83203125 C62.20281738 321.69514893 60.96032227 321.5582666 59.68017578 321.41723633 C39.76049874 319.64140283 20.05794637 319.51430632 0 319 C0 213.73 0 108.46 0 0 Z " fill="#D0D0D5" transform="translate(69,64)"/>
<path d="M0 0 C9.57 0 19.14 0 29 0 C29.00142502 3.75984787 29.00285004 7.51969574 29.00431824 11.39347839 C29.01968942 45.85621797 29.05976581 80.31885771 29.12685562 114.78153671 C29.13562258 119.29649613 29.14417235 123.81145593 29.15258789 128.32641602 C29.15426695 129.22527951 29.15594602 130.124143 29.15767596 131.05024479 C29.18436025 145.61272361 29.19344206 160.17516307 29.19604143 174.73766383 C29.19909873 189.67537704 29.22101954 204.61297628 29.26052457 219.55063802 C29.28431309 228.77120743 29.29331229 237.99154946 29.28351311 247.21214537 C29.27820551 253.53138442 29.29118779 259.85041934 29.3186629 266.16960027 C29.33398163 269.81787243 29.34113027 273.46568789 29.32659721 277.11397362 C29.31106145 281.06678672 29.33398598 285.01883805 29.36076355 288.97160339 C29.35009029 290.12821462 29.33941703 291.28482585 29.32842034 292.47648591 C29.25015696 298.9074888 29.25015696 298.9074888 32.41158104 304.21308422 C34.96195866 305.97373815 36.06018263 306.62256974 39.09545898 306.61181641 C39.8748584 306.62192245 40.65425781 306.6320285 41.45727539 306.6424408 C42.29508545 306.62895096 43.13289551 306.61546112 43.99609375 306.6015625 C44.88425781 306.60825455 45.77242187 306.61494659 46.6875 306.62184143 C48.60305549 306.63509783 50.51870476 306.63801519 52.43429565 306.63168335 C57.55063279 306.62029742 62.66557301 306.70201712 67.78125 306.77734375 C68.8176915 306.79116592 69.854133 306.8049881 70.92198181 306.81922913 C121.63623382 307.59349821 175.27023871 314.77798024 220.75390625 338.13916016 C221.74390625 338.6397998 222.73390625 339.14043945 223.75390625 339.65625 C224.62345947 340.10806641 225.4930127 340.55988281 226.38891602 341.02539062 C230.46341966 342.54623388 233.58552195 342.52695477 237.65869141 341.00952148 C238.9916626 340.32224976 238.9916626 340.32224976 240.3515625 339.62109375 C241.35646729 339.11545898 242.36137207 338.60982422 243.39672852 338.08886719 C244.46205811 337.54391602 245.5273877 336.99896484 246.625 336.4375 C275.30680499 322.3021019 306.36091285 314.94050449 338 311 C339.12277344 310.85723633 340.24554688 310.71447266 341.40234375 310.56738281 C344.87071634 310.13334856 348.34066341 309.71784887 351.8125 309.3125 C352.82417236 309.19285889 353.83584473 309.07321777 354.87817383 308.94995117 C368.95982663 307.41013679 383.12450644 306.97484624 397.28125 306.859375 C399.14974006 306.83988986 401.01822965 306.82035868 402.88671875 306.80078125 C405.72630428 306.77150717 408.56503668 306.74998907 411.40478516 306.74951172 C414.21847817 306.74619089 417.03037038 306.71183885 419.84375 306.671875 C421.11708191 306.68247955 421.11708191 306.68247955 422.4161377 306.69329834 C423.20887085 306.67688293 424.001604 306.66046753 424.81835938 306.64355469 C425.5078064 306.63990906 426.19725342 306.63626343 426.90759277 306.63250732 C430.23693022 305.62609218 432.25680563 303.94262841 434 301 C434.76348608 296.99904847 434.67672742 293.03432491 434.63923645 288.97160339 C434.64759213 287.73818201 434.6559478 286.50476062 434.66455668 285.23396283 C434.68271287 281.81291523 434.67849868 278.39321345 434.6648711 274.97223198 C434.65561167 271.28238264 434.67514973 267.59267292 434.69119263 263.90286255 C434.71504134 257.51098241 434.72063922 251.11929512 434.71384621 244.72737694 C434.70405107 235.485778 434.72177272 226.24439307 434.74621352 217.00282875 C434.78511935 202.00912396 434.80176702 187.01548032 434.80444336 172.02172852 C434.8070908 157.45659244 434.82020471 142.89152782 434.84741211 128.32641602 C434.84908549 127.42864396 434.85075887 126.53087191 434.85248295 125.60589465 C434.86094241 121.10204203 434.86960783 116.59818984 434.87837565 112.09433782 C434.9508486 74.72956541 434.98583837 37.36483665 435 0 C444.57 0 454.14 0 464 0 C464 108.9 464 217.8 464 330 C364.25 330.25 364.25 330.25 332.71972656 330.29785156 C323.41646276 330.33105943 323.41646276 330.33105943 314.11322021 330.36956787 C309.96002573 330.38661644 305.80697625 330.39242965 301.65374756 330.39154053 C296.36121433 330.39077163 291.06906989 330.40896715 285.77663755 330.44108915 C283.83108536 330.44963284 281.8854895 330.45142845 279.93992662 330.44582415 C277.31741442 330.43922468 274.69617537 330.456986 272.0737915 330.48101807 C271.3074728 330.47325726 270.5411541 330.46549644 269.75161362 330.45750046 C266.30114512 330.51354101 264.34078732 330.75048984 261.52248764 332.81393051 C258.72023356 336.83755736 259.56169759 341.62947691 259.56640625 346.37109375 C258.87059106 350.8291097 257.4564677 352.21084432 254 355 C248.87972812 357.56013594 240.78861157 356.31344654 235.08886719 356.35009766 C233.20332479 356.3666375 231.31784459 356.39390159 229.43261719 356.43212891 C226.70995657 356.48704051 223.98876563 356.50879426 221.265625 356.5234375 C220.42791565 356.54610687 219.5902063 356.56877625 218.72711182 356.59213257 C214.5489538 356.57713373 211.82015996 356.29844309 208.48339844 353.65478516 C203.97666576 348.83702944 204.76459236 343.55202298 204.57421875 337.25 C204.30487613 334.03346665 204.30487613 334.03346665 202.4687233 332.32179546 C199.00481443 330.46716111 195.75964348 330.5770202 191.9262085 330.60127258 C191.10805664 330.59463089 190.28990479 330.5879892 189.44696045 330.58114624 C186.6933565 330.56244076 183.94018406 330.56514724 181.18652344 330.56762695 C179.18356847 330.5585249 177.1806191 330.54811276 175.17767715 330.53649426 C169.80761458 330.50897041 164.43765955 330.49940825 159.0675354 330.49352264 C154.03080541 330.48529379 148.99420443 330.4609252 143.95751953 330.43786621 C129.22173471 330.37983232 114.48585692 330.34775707 99.75 330.3125 C66.8325 330.209375 33.915 330.10625 0 330 C0 221.1 0 112.2 0 0 Z " fill="#675D67" transform="translate(24,92)"/>
<path d="M0 0 C0.97090576 0.57484131 1.94181152 1.14968262 2.94213867 1.74194336 C4.04944336 2.38679687 5.15674805 3.03165039 6.29760742 3.69604492 C7.48524906 4.40772268 8.67274539 5.11964296 9.86010742 5.83178711 C11.10272405 6.56211559 12.34622913 7.29093431 13.59057617 8.01831055 C16.15413784 9.51903734 18.71304618 11.02727502 21.26879883 12.54125977 C25.91731366 15.28979052 30.60366035 17.9702468 35.29052734 20.65283203 C44.41181982 25.87974763 53.5008111 31.16445471 62.54760742 36.51928711 C63.38485352 37.00880859 64.22209961 37.49833008 65.0847168 38.00268555 C65.8459082 38.45675781 66.60709961 38.91083008 67.39135742 39.37866211 C68.05329102 39.77021484 68.71522461 40.16176758 69.3972168 40.56518555 C71.04760742 41.76928711 71.04760742 41.76928711 73.04760742 44.76928711 C73.25255689 47.55122526 73.3413081 50.23388107 73.33813477 53.0168457 C73.34485199 53.85781296 73.35156921 54.69878021 73.35848999 55.56523132 C73.37751106 58.34945561 73.38139629 61.13343936 73.38354492 63.91772461 C73.38997017 65.85202128 73.39669832 67.78631696 73.40371704 69.72061157 C73.41570021 73.77754978 73.41939681 77.83440276 73.41821289 81.89135742 C73.41800968 87.0890945 73.44530906 92.28628492 73.47975731 97.48389244 C73.50199906 101.47991443 73.50605126 105.47580431 73.50499344 109.47188187 C73.50735361 111.38803618 73.51620052 113.30419391 73.53165817 115.22028732 C73.55126242 117.90156019 73.54550218 120.58164734 73.53344727 123.26293945 C73.54468628 124.05376419 73.55592529 124.84458893 73.56750488 125.65937805 C73.51026374 130.67162023 72.63859675 133.25681871 69.04760742 136.76928711 C66.61938477 138.47583008 66.61938477 138.47583008 63.88354492 140.01147461 C62.85704834 140.59501709 61.83055176 141.17855957 60.77294922 141.77978516 C59.66733643 142.3950708 58.56172363 143.01035645 57.42260742 143.64428711 C56.258991 144.3018155 55.09599664 144.96044584 53.93359375 145.62011719 C51.51611506 146.9909701 49.09602515 148.35703952 46.67407227 149.7199707 C42.09288702 152.30276626 37.54147088 154.93653513 32.99072266 157.57250977 C29.76152211 159.44149888 26.52582914 161.29888082 23.28979492 163.15600586 C19.16272105 165.53089919 15.0683297 167.95139745 10.99291992 170.41381836 C10.04070557 170.98076416 9.08849121 171.54770996 8.10742188 172.13183594 C6.33110154 173.19055632 4.56327478 174.26371792 2.80615234 175.35400391 C2.01571533 175.82104736 1.22527832 176.28809082 0.41088867 176.76928711 C-0.60557739 177.38803711 -0.60557739 177.38803711 -1.64257812 178.01928711 C-6.03678051 179.4460908 -9.84165388 178.27553969 -13.93652344 176.40917969 C-14.92015869 175.83321045 -15.90379395 175.25724121 -16.91723633 174.66381836 C-18.03493408 174.01695068 -19.15263184 173.37008301 -20.30419922 172.70361328 C-21.49956064 171.99655814 -22.69478857 171.28927727 -23.88989258 170.58178711 C-25.13725875 169.85460249 -26.38523345 169.12846079 -27.63378906 168.40332031 C-30.80746049 166.556872 -33.97348831 164.69772785 -37.13781738 162.83532715 C-39.90700842 161.20846234 -42.68360689 159.59440627 -45.46020508 157.98022461 C-49.42749663 155.67362306 -53.38905475 153.35763822 -57.34692383 151.03491211 C-61.05447523 148.86419953 -64.7798892 146.7310153 -68.52661133 144.62866211 C-69.83940063 143.88676636 -69.83940063 143.88676636 -71.17871094 143.12988281 C-72.80362786 142.21359755 -74.43304573 141.30522575 -76.06787109 140.40673828 C-76.78773193 139.99915283 -77.50759277 139.59156738 -78.24926758 139.17163086 C-78.8715625 138.82608154 -79.49385742 138.48053223 -80.13500977 138.12451172 C-82.69054442 136.21884637 -84.19828154 134.46014722 -85.95239258 131.76928711 C-86.34478945 128.8183007 -86.51025985 126.24220611 -86.48583984 123.29467773 C-86.49445541 122.45341843 -86.50307098 121.61215912 -86.51194763 120.7454071 C-86.53460246 117.97180183 -86.52787024 115.19920725 -86.51879883 112.42553711 C-86.52403436 110.49409688 -86.53031058 108.56265922 -86.5375824 106.63122559 C-86.54798549 102.5861405 -86.54342599 98.54140723 -86.52880859 94.49633789 C-86.51161439 89.31416717 -86.53512436 84.13310453 -86.57029819 78.95105743 C-86.59226363 74.96356874 -86.5908329 70.97634559 -86.58253288 66.98881531 C-86.58171302 65.07824996 -86.58858309 63.16766518 -86.60330391 61.25715637 C-86.62073579 58.58537753 -86.60622014 55.91559518 -86.58349609 53.24389648 C-86.59518829 52.45621384 -86.60688049 51.66853119 -86.618927 50.85697937 C-86.54928939 46.83038474 -86.14757604 45.00894339 -83.57180786 41.84628296 C-81.01950669 39.82250347 -78.52602875 38.12788791 -75.69067383 36.52709961 C-74.66723877 35.94347656 -73.64380371 35.35985352 -72.58935547 34.75854492 C-71.49228271 34.14333984 -70.39520996 33.52813477 -69.26489258 32.89428711 C-67.51542884 31.89951572 -65.7659721 30.90473178 -64.01695251 29.90917969 C-62.20317244 28.87803506 -60.38748821 27.8503067 -58.5715332 26.82299805 C-53.96465973 24.21330085 -49.37992617 21.56552723 -44.79614258 18.91552734 C-42.61816371 17.65686947 -40.43848713 16.4011445 -38.25708008 15.1484375 C-33.25535543 12.27420377 -28.27506857 9.37501911 -23.34301758 6.38256836 C-22.04835571 5.60574707 -22.04835571 5.60574707 -20.72753906 4.81323242 C-19.14378327 3.86049819 -17.56707089 2.89590237 -15.99951172 1.91674805 C-15.29947021 1.498125 -14.59942871 1.07950195 -13.87817383 0.64819336 C-13.28431885 0.28282471 -12.69046387 -0.08254395 -12.07861328 -0.45898438 C-7.82870832 -2.00152078 -4.13187628 -1.72238388 0 0 Z " fill="#030302" transform="translate(164.952392578125,153.230712890625)"/>
<path d="M0 0 C9.57 0 19.14 0 29 0 C29.00142502 3.75984787 29.00285004 7.51969574 29.00431824 11.39347839 C29.01968942 45.85621797 29.05976581 80.31885771 29.12685562 114.78153671 C29.13562258 119.29649613 29.14417235 123.81145593 29.15258789 128.32641602 C29.15426695 129.22527951 29.15594602 130.124143 29.15767596 131.05024479 C29.18436025 145.61272361 29.19344206 160.17516307 29.19604143 174.73766383 C29.19909873 189.67537704 29.22101954 204.61297628 29.26052457 219.55063802 C29.28431309 228.77120743 29.29331229 237.99154946 29.28351311 247.21214537 C29.27820551 253.53138442 29.29118779 259.85041934 29.3186629 266.16960027 C29.33398163 269.81787243 29.34113027 273.46568789 29.32659721 277.11397362 C29.31106145 281.06678672 29.33398598 285.01883805 29.36076355 288.97160339 C29.35009029 290.12821462 29.33941703 291.28482585 29.32842034 292.47648591 C29.25015696 298.9074888 29.25015696 298.9074888 32.41158104 304.21308422 C34.96195866 305.97373815 36.06018263 306.62256974 39.09545898 306.61181641 C40.26452034 306.62696793 40.26452034 306.62696793 41.4571991 306.64242554 C42.29503433 306.62894073 43.13286957 306.61545593 43.99609375 306.6015625 C44.88448441 306.60829987 45.77287506 306.61503723 46.68818665 306.62197876 C48.60397061 306.63530678 50.51984902 306.6382703 52.43566895 306.63195801 C57.54502063 306.62011493 62.65300506 306.69934956 67.76171875 306.7734375 C69.31483261 306.79386108 69.31483261 306.79386108 70.89932251 306.81469727 C80.54411817 306.96234052 90.13655056 307.47264573 99.75 308.25 C100.89716492 308.3425708 100.89716492 308.3425708 102.06750488 308.43701172 C141.04855466 311.68285155 141.04855466 311.68285155 154 316 C154 316.66 154 317.32 154 318 C103.18 318 52.36 318 0 318 C0 213.06 0 108.12 0 0 Z " fill="#827582" transform="translate(24,92)"/>
<path d="M0 0 C5.61 0 11.22 0 17 0 C17.1140281 39.39000186 17.20253032 78.77997782 17.25532665 118.17011181 C17.26158029 122.81897455 17.26805189 127.46783697 17.2746582 132.11669922 C17.27662553 133.50497429 17.27662553 133.50497429 17.2786326 134.92129533 C17.30039758 149.91316763 17.33982512 164.90494421 17.38576398 179.8967597 C17.43249823 195.27625147 17.46028898 210.65569306 17.47044247 226.03525293 C17.47730793 235.52764918 17.49900269 245.01977488 17.53958233 254.51208787 C17.5659833 261.01863107 17.57400701 267.52503412 17.56750689 274.03162701 C17.56429983 277.78740018 17.56926449 281.54270011 17.59602737 285.29838943 C17.6248237 289.36912843 17.61495524 293.43885663 17.60127258 297.50967407 C17.62311889 299.29274946 17.62311889 299.29274946 17.64540654 301.11184657 C17.5642051 310.01726973 17.5642051 310.01726973 14.58742046 313.71814537 C10.97087852 316.90758562 9.357769 317.12463615 4.6343689 317.12025452 C3.49570877 317.12162918 2.35704865 317.12300385 1.18388367 317.12442017 C-0.07127548 317.12082489 -1.32643463 317.11722961 -2.61962891 317.11352539 C-4.59516502 317.11374443 -4.59516502 317.11374443 -6.61061096 317.1139679 C-10.22815931 317.11425551 -13.84567469 317.10836458 -17.46321535 317.10139394 C-21.24153763 317.09515442 -25.01986062 317.09455613 -28.79818726 317.09336853 C-35.95569495 317.09025698 -43.11318743 317.08204596 -50.27068841 317.07201904 C-58.41809884 317.06085243 -66.56550998 317.05534607 -74.71292615 317.05032361 C-91.47529302 317.03986321 -108.23764457 317.02226718 -125 317 C-123 314 -123 314 -120.81469727 313.33984375 C-119.90776123 313.20707031 -119.0008252 313.07429688 -118.06640625 312.9375 C-116.52472778 312.7041394 -116.52472778 312.7041394 -114.9519043 312.46606445 C-113.27414917 312.23536255 -113.27414917 312.23536255 -111.5625 312 C-110.40468018 311.83266357 -109.24686035 311.66532715 -108.05395508 311.49291992 C-99.77913726 310.32290695 -91.48906167 309.27360001 -83.1875 308.3125 C-82.17824463 308.19326172 -81.16898926 308.07402344 -80.12915039 307.95117188 C-66.04535945 306.4092079 -51.87780329 305.97486508 -37.71875 305.859375 C-35.85025994 305.83988986 -33.98177035 305.82035868 -32.11328125 305.80078125 C-29.27369572 305.77150717 -26.43496332 305.74998907 -23.59521484 305.74951172 C-20.78152183 305.74619089 -17.96962962 305.71183885 -15.15625 305.671875 C-13.88291809 305.68247955 -13.88291809 305.68247955 -12.5838623 305.69329834 C-11.79112915 305.67688293 -10.998396 305.66046753 -10.18164062 305.64355469 C-9.4921936 305.63990906 -8.80274658 305.63626343 -8.09240723 305.63250732 C-4.76449887 304.62652418 -2.74401039 302.94028166 -1 300 C-0.23686276 296.01163197 -0.32326121 292.05984933 -0.36076355 288.00956726 C-0.35240787 286.78022943 -0.3440522 285.5508916 -0.33544332 284.2843011 C-0.31728744 280.87465348 -0.32150113 277.46635623 -0.3351289 274.05677497 C-0.34438848 270.37919549 -0.32485017 266.70175609 -0.30880737 263.0242157 C-0.28495886 256.65361631 -0.27936073 250.28321041 -0.28615379 243.91257286 C-0.295949 234.70174274 -0.27822716 225.49112733 -0.25378648 216.28033195 C-0.21488081 201.33654144 -0.19823299 186.39281228 -0.19555664 171.44897461 C-0.19290919 156.93234103 -0.17979521 142.41577915 -0.15258789 127.89916992 C-0.15007782 126.55699234 -0.15007782 126.55699234 -0.14751705 125.18770006 C-0.13905758 120.69883151 -0.13039217 116.20996339 -0.12162435 111.72109544 C-0.04915162 74.4807401 -0.0131607 37.24042084 0 0 Z " fill="#827582" transform="translate(459,93)"/>
<path d="M0 0 C0.20889049 8.11025629 0.36861594 16.21938246 0.46630955 24.33166695 C0.5132089 28.09903336 0.57676496 31.86455494 0.67895508 35.63085938 C0.77703242 39.2685125 0.83061222 42.9043966 0.85389519 46.54327011 C0.87047655 47.92855565 0.90286198 49.31374828 0.95157051 50.69827652 C1.31672087 61.5115259 1.31672087 61.5115259 -1.86383057 65.10694885 C-4.17789287 66.67910555 -6.44680599 67.86492701 -9 69 C-10.49249268 69.88691528 -10.49249268 69.88691528 -12.01513672 70.79174805 C-13.33408936 71.51938354 -13.33408936 71.51938354 -14.6796875 72.26171875 C-15.68249756 72.81843262 -16.68530762 73.37514648 -17.71850586 73.94873047 C-18.76014893 74.52252441 -19.80179199 75.09631836 -20.875 75.6875 C-29.76262955 80.6148899 -38.59852496 85.61224116 -47.33740234 90.79956055 C-52.78586351 94 -52.78586351 94 -55 94 C-55.51319441 86.01216229 -55.90213059 78.03133164 -56.13986778 70.03101826 C-56.25409116 66.31378068 -56.40825311 62.60790239 -56.65966797 58.8972168 C-58.22977835 35.09498451 -58.22977835 35.09498451 -52.99624634 28.45947266 C-47.8335146 24.12944365 -41.99017141 21.53615163 -35.75061035 19.10983276 C-32.03849217 17.61204505 -28.73612821 15.65215279 -25.33984375 13.5546875 C-23.20645001 12.32687164 -21.07236754 11.10025149 -18.9375 9.875 C-16.75889349 8.62278042 -14.58049942 7.37019113 -12.40234375 6.1171875 C-11.47929443 5.58722168 -10.55624512 5.05725586 -9.60522461 4.51123047 C-7.81479886 3.47264595 -6.04275207 2.40192466 -4.28735352 1.30517578 C-2 0 -2 0 0 0 Z " fill="#E9B876" transform="translate(222,215)"/>
<path d="M0 0 C2.19740997 0.00849452 4.39220293 -0.02024835 6.58935547 -0.05200195 C8.00211511 -0.05361481 9.41487931 -0.05303482 10.82763672 -0.05004883 C12.09978027 -0.05190186 13.37192383 -0.05375488 14.68261719 -0.05566406 C20.3357577 0.72078319 24.0310393 2.88541162 27.74169922 7.32495117 C30.52190637 12.89873186 29.91112548 19.31367813 29.83544922 25.38354492 C29.85091797 26.62040039 29.86638672 27.85725586 29.88232422 29.1315918 C29.85145221 36.35178248 29.34543992 41.36942248 25.33544922 47.44604492 C18.07935832 53.22130095 11.49445386 52.69118854 2.58544922 52.75854492 C1.32216797 52.78754883 0.05888672 52.81655273 -1.24267578 52.84643555 C-8.24605544 52.89425274 -13.06940131 52.85242326 -18.66455078 48.44604492 C-24.34652541 41.11928816 -23.94004586 34.7004188 -24.03955078 25.75854492 C-24.095625 23.87619141 -24.095625 23.87619141 -24.15283203 21.95581055 C-24.21501947 15.39503582 -24.04419955 10.46110251 -20.23339844 4.98583984 C-14.35197466 -0.78666868 -7.70691702 -0.04549639 0 0 Z " fill="#040404" transform="translate(304.66455078125,144.553955078125)"/>
<path d="M0 0 C0.68755371 -0.00241196 1.37510742 -0.00482391 2.08349609 -0.00730896 C3.52903036 -0.00633474 4.97460391 0.00695737 6.41992188 0.03198242 C8.61979182 0.06632494 10.8156437 0.05261762 13.015625 0.03320312 C14.42710026 0.04010229 15.83856524 0.04977534 17.25 0.0625 C18.52101563 0.07337646 19.79203125 0.08425293 21.1015625 0.09545898 C26.36237607 0.89194441 29.42865538 3.30322708 32.9375 7.19140625 C36.81245523 12.78856381 35.88583865 19.26230296 35.9375 25.81640625 C35.96650391 27.02361328 35.99550781 28.23082031 36.02539062 29.47460938 C36.07674961 36.70042301 35.59725843 41.52554566 31.625 47.62890625 C25.36227515 53.58613233 19.15035825 52.87666895 10.91088867 52.92407227 C9.51723064 52.93558474 8.12361646 52.95602554 6.73022461 52.9855957 C4.70917011 53.02846438 2.68942256 53.04446604 0.66796875 53.0546875 C-0.53835205 53.06927002 -1.74467285 53.08385254 -2.98754883 53.09887695 C-7.07096455 52.53234901 -9.17874275 51.18747021 -12.375 48.62890625 C-18.01833823 41.15529616 -17.61923603 34.87731055 -17.6875 25.81640625 C-17.71650391 24.54474609 -17.74550781 23.27308594 -17.77539062 21.96289062 C-17.85520235 10.24284598 -17.85520235 10.24284598 -13.375 5.62890625 C-8.8627308 1.24089566 -6.50343255 -0.00371012 0 0 Z " fill="#070605" transform="translate(298.375,215.37109375)"/>
<path d="M0 0 C2.08960392 -0.00966514 4.17820682 -0.04066833 6.26757812 -0.07226562 C7.60611397 -0.07880015 8.94465684 -0.08404886 10.28320312 -0.08789062 C11.49588867 -0.09723633 12.70857422 -0.10658203 13.95800781 -0.11621094 C18.3584178 0.34466414 21.72274277 1.74565771 25.00585938 4.74023438 C30.20860309 11.42201894 29.60930648 17.24208897 29.67382812 25.42773438 C29.70283203 26.63494141 29.73183594 27.84214844 29.76171875 29.0859375 C29.81306581 36.31007456 29.33838015 41.1406391 25.36132812 47.24023438 C19.08481903 53.06842139 13.44343411 52.49034813 5.29541016 52.53540039 C3.13313631 52.55256129 0.97241305 52.59643979 -1.18945312 52.640625 C-2.5735565 52.65075713 -3.95767285 52.65927161 -5.34179688 52.66601562 C-6.59637695 52.68059814 -7.85095703 52.69518066 -9.14355469 52.71020508 C-13.97875137 52.06004067 -16.87503415 49.98470213 -20.30078125 46.59619141 C-24.69834458 40.18338108 -24.31112744 33.66408477 -24.13867188 26.11523438 C-24.14125 24.86613281 -24.14382813 23.61703125 -24.14648438 22.33007812 C-24.01334957 9.85534712 -24.01334957 9.85534712 -19.10351562 4.59570312 C-12.69987396 -0.30119932 -7.80137064 0.02185258 0 0 Z " fill="#050404" transform="translate(304.638671875,286.759765625)"/>
<path d="M0 0 C7.54207618 3.0004567 7.54207618 3.0004567 10 5 C10.59594727 8.12280273 10.59594727 8.12280273 10.56640625 11.93359375 C10.57204086 12.60793961 10.57767548 13.28228546 10.58348083 13.97706604 C10.59994068 16.13125057 10.58438993 18.2833866 10.5625 20.4375 C10.54589031 22.58785326 10.53683339 24.73684777 10.55223083 26.88722229 C10.56576285 28.84071227 10.55032735 30.79433882 10.53344727 32.74780273 C11.09023636 36.6290102 11.94473414 37.63552466 15 40 C17.97272655 42.10095101 21.11182564 43.90771274 24.25 45.75 C25.07113281 46.25660156 25.89226562 46.76320313 26.73828125 47.28515625 C32.09909024 50.43707406 35.76545376 51.89842806 42 51 C44.29677792 49.35290959 44.91944535 48.43970738 45.43237305 45.63989258 C45.45855713 44.73392334 45.48474121 43.8279541 45.51171875 42.89453125 C45.54716797 41.91162109 45.58261719 40.92871094 45.61914062 39.91601562 C45.64169922 38.89185547 45.66425781 37.86769531 45.6875 36.8125 C45.72166016 35.77673828 45.75582031 34.74097656 45.79101562 33.67382812 C45.87351759 31.11626736 45.93843456 28.55815037 46 26 C49.3 27.65 52.6 29.3 56 31 C56 52.12 56 73.24 56 95 C52.24692515 93.49877006 49.12276361 92.02264097 45.66796875 90.015625 C44.632771 89.41637207 43.59757324 88.81711914 42.53100586 88.19970703 C41.42764893 87.55630371 40.32429199 86.91290039 39.1875 86.25 C38.04998291 85.58983887 36.91246582 84.92967773 35.74047852 84.24951172 C33.36029037 82.86793851 30.98139666 81.48417296 28.60351562 80.09863281 C25.63917424 78.37147191 22.67235419 76.64862987 19.70451355 74.92749023 C16.94782302 73.32841361 14.1926754 71.72668536 11.4375 70.125 C10.40326904 69.52461914 9.36903809 68.92423828 8.3034668 68.30566406 C7.35640869 67.75362305 6.40935059 67.20158203 5.43359375 66.6328125 C4.59884521 66.14699707 3.76409668 65.66118164 2.90405273 65.16064453 C1 64 1 64 0 63 C-0.0940067 61.03630847 -0.11743381 59.06920801 -0.11352539 57.10327148 C-0.11344986 55.84203964 -0.11337433 54.5808078 -0.11329651 53.28135681 C-0.1081891 51.89460206 -0.10297309 50.50784771 -0.09765625 49.12109375 C-0.09579201 47.71004791 -0.09436814 46.29900143 -0.09336853 44.88795471 C-0.08954379 41.16759465 -0.0797139 37.4472734 -0.06866455 33.72692871 C-0.05844948 29.93319219 -0.05387071 26.13944942 -0.04882812 22.34570312 C-0.03809158 14.89711769 -0.0210157 7.44856428 0 0 Z " fill="#E9C99F" transform="translate(95,215)"/>
<path d="M0 0 C6.93 0 13.86 0 21 0 C21 105.27 21 210.54 21 319 C9.45 319.33 -2.1 319.66 -14 320 C-63.73484254 322.42608988 -112.03332577 330.17950744 -158 350 C-158 346.37 -158 342.74 -158 339 C-139.73946971 329.03489203 -120.18305237 322.80456983 -100 318 C-98.88625 317.72671875 -97.7725 317.4534375 -96.625 317.171875 C-78.81386588 313.06832939 -60.62346436 310.89423953 -42.4375 309.3125 C-41.39378235 309.22150024 -41.39378235 309.22150024 -40.32897949 309.12866211 C-36.22380961 308.77570149 -32.11727483 308.45031031 -28.00799561 308.14898682 C-26.0752476 308.00558313 -24.1433088 307.8513977 -22.21142578 307.69677734 C-8.07161967 306.69269461 5.70128241 307 20 307 C20 206.02 20 105.04 20 1 C13.4 1 6.8 1 0 1 C0 0.67 0 0.34 0 0 Z " fill="#CFCFD3" transform="translate(422,64)"/>
<path d="M0 0 C5.94 0 11.88 0 18 0 C18 0.33 18 0.66 18 1 C12.39 1 6.78 1 1 1 C1 101.98 1 202.96 1 307 C10.24 307 19.48 307 29 307 C35.34443706 307.20805446 41.66625209 307.44162251 48 307.8125 C49.17376694 307.8782724 49.17376694 307.8782724 50.37124634 307.94537354 C61.53490806 308.57982811 72.49907068 309.58370656 83.51171875 311.57470703 C86.36587401 312.06253459 89.22611845 312.47010386 92.09375 312.87109375 C121.96744745 317.08539895 152.51849214 323.96726433 179 339 C179 342.63 179 346.26 179 350 C178.29093506 349.72325439 177.58187012 349.44650879 176.85131836 349.16137695 C168.91511083 346.06989117 160.96526275 343.01585332 153 340 C152.24605957 339.71366699 151.49211914 339.42733398 150.71533203 339.13232422 C138.18922196 334.44608539 125.05270213 331.77594108 112 329 C111.08895508 328.80519043 110.17791016 328.61038086 109.23925781 328.40966797 C96.95731577 325.84103276 84.58064099 324.24715013 72.125 322.8125 C71.02673386 322.68521515 71.02673386 322.68521515 69.90628052 322.55535889 C67.75322315 322.30850923 65.59949633 322.06883387 63.4453125 321.83203125 C62.20281738 321.69514893 60.96032227 321.5582666 59.68017578 321.41723633 C39.76049874 319.64140283 20.05794637 319.51430632 0 319 C0 213.73 0 108.46 0 0 Z " fill="#B0B0B4" transform="translate(69,64)"/>
<path d="M0 0 C0.65740173 -0.00700928 1.31480347 -0.01401855 1.99212646 -0.02124023 C4.15924667 -0.03880619 6.32505466 -0.02720423 8.4921875 -0.01367188 C10.00146739 -0.01636724 11.51074558 -0.02025003 13.02001953 -0.02526855 C16.18083249 -0.03116164 19.34119284 -0.02260738 22.50195312 -0.00390625 C26.55087307 0.01888393 30.59873248 0.00575973 34.64761353 -0.01819611 C37.76350883 -0.03265965 40.87915324 -0.02804571 43.99505615 -0.01768494 C45.4877739 -0.01501915 46.98051454 -0.01828225 48.47320557 -0.02760315 C50.56087454 -0.03777883 52.64683324 -0.02225756 54.734375 0 C56.51497314 0.00477356 56.51497314 0.00477356 58.33154297 0.00964355 C61.96728032 0.61798774 63.13880479 1.6405511 65.3671875 4.51757812 C65.93359375 6.51757812 65.93359375 6.51757812 65.9296875 8.51757812 C65.95160156 9.17757812 65.97351563 9.83757812 65.99609375 10.51757812 C65.00560324 13.66746098 63.07198269 14.71900725 60.3671875 16.51757812 C57.29394531 17.03224182 57.29394531 17.03224182 53.8203125 17.05102539 C52.51545898 17.06686172 51.21060547 17.08269806 49.86621094 17.09901428 C48.44986614 17.09517285 47.03352416 17.09013383 45.6171875 17.08398438 C44.15657149 17.08922243 42.69595888 17.09549958 41.23535156 17.10276794 C38.17887417 17.1131605 35.12286268 17.10862723 32.06640625 17.09399414 C28.15531946 17.0767992 24.24570084 17.10031381 20.33477783 17.13548374 C17.32005129 17.15747458 14.30567527 17.15601256 11.29089355 17.14771843 C9.84922677 17.14689997 8.40753398 17.15374342 6.96594238 17.16848946 C4.94871396 17.18596303 2.93127355 17.16805694 0.9140625 17.14868164 C-0.23223633 17.14771988 -1.37853516 17.14675812 -2.55957031 17.14576721 C-6.60008308 16.31986223 -8.10277368 14.71076066 -10.6328125 11.51757812 C-11.1953125 7.95507812 -11.1953125 7.95507812 -10.6328125 4.51757812 C-7.51378673 0.3171366 -5.09845314 0.01366831 0 0 Z " fill="#040404" transform="translate(359.6328125,246.482421875)"/>
<path d="M0 0 C0.65740173 -0.00700928 1.31480347 -0.01401855 1.99212646 -0.02124023 C4.15924667 -0.03880619 6.32505466 -0.02720423 8.4921875 -0.01367188 C10.00146739 -0.01636724 11.51074558 -0.02025003 13.02001953 -0.02526855 C16.18083249 -0.03116164 19.34119284 -0.02260738 22.50195312 -0.00390625 C26.55087307 0.01888393 30.59873248 0.00575973 34.64761353 -0.01819611 C37.76350883 -0.03265965 40.87915324 -0.02804571 43.99505615 -0.01768494 C45.4877739 -0.01501915 46.98051454 -0.01828225 48.47320557 -0.02760315 C50.56087454 -0.03777883 52.64683324 -0.02225756 54.734375 0 C56.51497314 0.00477356 56.51497314 0.00477356 58.33154297 0.00964355 C61.99224998 0.62216575 63.1758889 1.56652151 65.3671875 4.51757812 C65.9296875 7.95507812 65.9296875 7.95507812 65.3671875 11.51757812 C62.83753593 14.70909177 61.33069168 16.31852243 57.29394531 17.15249634 C56.14764648 17.1564743 55.00134766 17.16045227 53.8203125 17.16455078 C51.86303223 17.18819199 51.86303223 17.18819199 49.86621094 17.21231079 C48.44986117 17.20336073 47.03351914 17.19310567 45.6171875 17.18164062 C44.15657142 17.18501133 42.69595807 17.18986608 41.23535156 17.19613647 C38.17876398 17.20349602 35.12290851 17.1928334 32.06640625 17.16943359 C28.15527066 17.14094457 24.24585052 17.15735373 20.33477783 17.18729591 C17.32001909 17.2053948 14.30566472 17.19959939 11.29089355 17.18665695 C9.84924108 17.18333001 8.40755147 17.18738505 6.96594238 17.19905472 C4.94865658 17.21180215 2.93124144 17.18891548 0.9140625 17.16455078 C-0.23223633 17.16057281 -1.37853516 17.15659485 -2.55957031 17.15249634 C-6.59631668 16.31852243 -8.10316093 14.70909177 -10.6328125 11.51757812 C-11.1953125 7.95507812 -11.1953125 7.95507812 -10.6328125 4.51757812 C-7.51378673 0.3171366 -5.09845314 0.01366831 0 0 Z " fill="#050505" transform="translate(359.6328125,149.482421875)"/>
<path d="M0 0 C0.64604187 -0.00700928 1.29208374 -0.01401855 1.95770264 -0.02124023 C4.08755834 -0.03880645 6.21607868 -0.02720288 8.34594727 -0.01367188 C9.83041132 -0.01636756 11.31487365 -0.02025062 12.79933167 -0.02526855 C15.90887277 -0.03116195 19.01795384 -0.02260766 22.12744141 -0.00390625 C26.10676749 0.01886412 30.08501328 0.00577258 34.06429958 -0.01819611 C37.12962427 -0.03267583 40.19469443 -0.02803797 43.26002693 -0.01768494 C44.72679841 -0.01502259 46.19359324 -0.01827013 47.66033745 -0.02760315 C49.71428139 -0.03780337 51.76649678 -0.02222274 53.8203125 0 C54.98739243 0.00318237 56.15447235 0.00636475 57.35691833 0.00964355 C61.11326329 0.62157977 62.78797982 1.87234718 65.47485352 4.51757812 C66.13891602 6.51757812 66.13891602 6.51757812 66.09985352 8.51757812 C66.11918945 9.50757813 66.11918945 9.50757813 66.13891602 10.51757812 C65.09951383 13.64801296 63.18044325 14.71710041 60.47485352 16.51757812 C57.40161133 17.03224182 57.40161133 17.03224182 53.92797852 17.05102539 C52.623125 17.06686172 51.31827148 17.08269806 49.97387695 17.09901428 C48.55753216 17.09517285 47.14119017 17.09013383 45.72485352 17.08398438 C44.26423751 17.08922243 42.80362489 17.09549958 41.34301758 17.10276794 C38.28654018 17.1131605 35.23052869 17.10862723 32.17407227 17.09399414 C28.26298547 17.0767992 24.35336686 17.10031381 20.44244385 17.13548374 C17.42771731 17.15747458 14.41334129 17.15601256 11.39855957 17.14771843 C9.95689279 17.14689997 8.5152 17.15374342 7.0736084 17.16848946 C5.05637998 17.18596303 3.03893957 17.16805694 1.02172852 17.14868164 C-0.12457031 17.14771988 -1.27086914 17.14675812 -2.4519043 17.14576721 C-6.49241707 16.31986223 -7.99510767 14.71076066 -10.52514648 11.51757812 C-11.08764648 7.95507812 -11.08764648 7.95507812 -10.52514648 4.51757812 C-7.42406038 0.3585654 -5.06188154 0.01381207 0 0 Z " fill="#020202" transform="translate(359.525146484375,317.482421875)"/>
<path d="M0 0 C0.64604187 -0.00700928 1.29208374 -0.01401855 1.95770264 -0.02124023 C4.08755834 -0.03880645 6.21607868 -0.02720288 8.34594727 -0.01367188 C9.83041132 -0.01636756 11.31487365 -0.02025062 12.79933167 -0.02526855 C15.90887277 -0.03116195 19.01795384 -0.02260766 22.12744141 -0.00390625 C26.10676749 0.01886412 30.08501328 0.00577258 34.06429958 -0.01819611 C37.12962427 -0.03267583 40.19469443 -0.02803797 43.26002693 -0.01768494 C44.72679841 -0.01502259 46.19359324 -0.01827013 47.66033745 -0.02760315 C49.71428139 -0.03780337 51.76649678 -0.02222274 53.8203125 0 C54.98739243 0.00318237 56.15447235 0.00636475 57.35691833 0.00964355 C61.11326329 0.62157977 62.78797982 1.87234718 65.47485352 4.51757812 C66.13891602 6.51757812 66.13891602 6.51757812 66.09985352 8.51757812 C66.11918945 9.50757813 66.11918945 9.50757813 66.13891602 10.51757812 C65.09951383 13.64801296 63.18044325 14.71710041 60.47485352 16.51757812 C57.40161133 17.03224182 57.40161133 17.03224182 53.92797852 17.05102539 C52.623125 17.06686172 51.31827148 17.08269806 49.97387695 17.09901428 C48.55753216 17.09517285 47.14119017 17.09013383 45.72485352 17.08398438 C44.26423751 17.08922243 42.80362489 17.09549958 41.34301758 17.10276794 C38.28654018 17.1131605 35.23052869 17.10862723 32.17407227 17.09399414 C28.26298547 17.0767992 24.35336686 17.10031381 20.44244385 17.13548374 C17.42771731 17.15747458 14.41334129 17.15601256 11.39855957 17.14771843 C9.95689279 17.14689997 8.5152 17.15374342 7.0736084 17.16848946 C5.05637998 17.18596303 3.03893957 17.16805694 1.02172852 17.14868164 C-0.12457031 17.14771988 -1.27086914 17.14675812 -2.4519043 17.14576721 C-6.49241707 16.31986223 -7.99510767 14.71076066 -10.52514648 11.51757812 C-11.08764648 7.95507812 -11.08764648 7.95507812 -10.52514648 4.51757812 C-7.42406038 0.3585654 -5.06188154 0.01381207 0 0 Z " fill="#020202" transform="translate(359.525146484375,220.482421875)"/>
<path d="M0 0 C1.30485352 -0.01253311 2.60970703 -0.02506622 3.95410156 -0.03797913 C5.37045289 -0.02571045 6.78679464 -0.01229037 8.203125 0.00219727 C9.66373878 0.00136805 11.12435245 -0.00109334 12.58496094 -0.00511169 C15.64156283 -0.00796597 18.69743044 0.00669358 21.75390625 0.03417969 C25.66486559 0.06826323 29.57451249 0.06224153 33.48553467 0.04351711 C36.50027333 0.03293027 39.51470848 0.04189994 42.52941895 0.05690193 C43.97106016 0.06207194 45.41273322 0.06161629 46.85437012 0.05535698 C48.87170527 0.04988554 50.88905599 0.07317461 52.90625 0.09765625 C54.05254883 0.10385483 55.19884766 0.11005341 56.37988281 0.11643982 C60.1017961 0.7397339 61.7839805 2.01286117 64.453125 4.63110352 C65.1171875 6.63110352 65.1171875 6.63110352 65.078125 8.63110352 C65.09746094 9.62110352 65.09746094 9.62110352 65.1171875 10.63110352 C64.07778531 13.76153835 62.15871473 14.8306258 59.453125 16.63110352 C56.37988281 17.14576721 56.37988281 17.14576721 52.90625 17.16455078 C51.60139648 17.18038712 50.29654297 17.19622345 48.95214844 17.21253967 C47.53580364 17.20869824 46.11946166 17.20365922 44.703125 17.19750977 C43.24250899 17.20274782 41.78189638 17.20902497 40.32128906 17.21629333 C37.26481167 17.22668589 34.20880018 17.22215263 31.15234375 17.20751953 C27.24125696 17.19032459 23.33163834 17.2138392 19.42071533 17.24900913 C16.40598879 17.27099997 13.39161277 17.26953795 10.37683105 17.26124382 C8.93516427 17.26042536 7.49347148 17.26726881 6.05187988 17.28201485 C4.03465146 17.29948842 2.01721105 17.28158233 0 17.26220703 C-1.14629883 17.26124527 -2.29259766 17.26028351 -3.47363281 17.2592926 C-7.50097863 16.43607903 -9.00420873 14.79236793 -11.546875 11.63110352 C-12.171875 8.63110352 -12.171875 8.63110352 -11.546875 5.63110352 C-7.93899413 1.14547143 -5.71879496 0.00479815 0 0 Z " fill="#010101" transform="translate(360.546875,291.368896484375)"/>
<path d="M0 0 C0.65740173 -0.00700928 1.31480347 -0.01401855 1.99212646 -0.02124023 C4.15924667 -0.03880619 6.32505466 -0.02720423 8.4921875 -0.01367188 C10.00146739 -0.01636724 11.51074558 -0.02025003 13.02001953 -0.02526855 C16.18083249 -0.03116164 19.34119284 -0.02260738 22.50195312 -0.00390625 C26.55087307 0.01888393 30.59873248 0.00575973 34.64761353 -0.01819611 C37.76350883 -0.03265965 40.87915324 -0.02804571 43.99505615 -0.01768494 C45.4877739 -0.01501915 46.98051454 -0.01828225 48.47320557 -0.02760315 C50.56087454 -0.03777883 52.64683324 -0.02225756 54.734375 0 C56.51497314 0.00477356 56.51497314 0.00477356 58.33154297 0.00964355 C61.99224998 0.62216575 63.1758889 1.56652151 65.3671875 4.51757812 C65.9296875 7.95507812 65.9296875 7.95507812 65.3671875 11.51757812 C62.84687221 14.69375042 61.34986942 16.31899713 57.32518005 17.13230896 C56.19362991 17.12723831 55.06207977 17.12216766 53.89624023 17.11694336 C52.60817978 17.12302109 51.32011932 17.12909882 49.99302673 17.13536072 C48.59560016 17.11645679 47.19818481 17.0967068 45.80078125 17.07617188 C44.36019824 17.07191844 42.91960837 17.06959283 41.47901917 17.06910706 C38.46526859 17.06295167 35.45226421 17.04030091 32.4387207 17.00463867 C28.57950123 16.95932594 24.72095596 16.94460992 20.86149502 16.94090176 C17.88887408 16.93646937 14.91639401 16.92115955 11.9438343 16.90202522 C10.52090676 16.89315897 9.09796428 16.88642125 7.6750164 16.88186455 C5.68618471 16.872803 3.69743864 16.84871887 1.70874023 16.82397461 C0.57798569 16.81333481 -0.55276886 16.80269501 -1.7177887 16.79173279 C-4.61095988 16.51963334 -6.24237727 16.13320925 -8.6328125 14.51757812 C-11.11320157 10.79699452 -11.09618453 8.91961242 -10.6328125 4.51757812 C-7.53760657 0.30382395 -5.08602619 0.013635 0 0 Z " fill="#060707" transform="translate(359.6328125,175.482421875)"/>
<path d="M0 0 C1.22534857 0.00356205 1.22534857 0.00356205 2.47545165 0.00719607 C5.21014886 0.01760512 7.9445213 0.04247929 10.67912292 0.06729126 C12.6404222 0.0777183 14.6017264 0.08725336 16.56303406 0.09596252 C21.88703182 0.12213482 27.21087455 0.16080159 32.53477693 0.20168638 C38.09877625 0.24229852 43.66283521 0.27145501 49.22689819 0.30181885 C59.76304314 0.36106069 70.2990937 0.43062744 80.83514947 0.50388968 C92.83015438 0.58679502 104.82521905 0.65821147 116.82030261 0.72865558 C141.4949289 0.87382123 166.16944484 1.03343852 190.84391785 1.20254517 C190.84391785 1.53254517 190.84391785 1.86254517 190.84391785 2.20254517 C189.81685856 2.20401173 188.78979927 2.20547829 187.73161697 2.20698929 C162.76128962 2.24355568 137.79109669 2.3029676 112.82088089 2.38644791 C100.74554974 2.4262871 88.67028422 2.45865478 76.59489441 2.47354126 C66.07214214 2.48653249 55.54953398 2.51343233 45.02686286 2.55715823 C39.45320681 2.57982997 33.8797289 2.59545243 28.30602264 2.59442902 C23.06272863 2.59368578 17.81982923 2.61150099 12.57663727 2.643713 C10.64971719 2.65225023 8.72275303 2.65393617 6.79582214 2.64834785 C4.16931899 2.6417438 1.54408466 2.65954125 -1.08229065 2.68356323 C-2.23209809 2.67192261 -2.23209809 2.67192261 -3.40513396 2.66004682 C-6.85537689 2.71609924 -8.81550005 2.95318525 -11.63359451 5.01647568 C-14.43584859 9.04010253 -13.59438456 13.83202208 -13.5896759 18.57363892 C-14.28549109 23.03165487 -15.69961445 24.41338948 -19.15608215 27.20254517 C-24.27635403 29.76268111 -32.36747058 28.5159917 -38.06721497 28.55264282 C-39.95275736 28.56918267 -41.83823756 28.59644676 -43.72346497 28.63467407 C-46.44612558 28.68958568 -49.16731652 28.71133943 -51.89045715 28.72598267 C-52.7281665 28.74865204 -53.56587585 28.77132141 -54.42897034 28.79467773 C-58.57667234 28.77978822 -61.34439301 28.5007566 -64.68049622 25.90811157 C-67.66584251 22.64542837 -67.98534341 20.55638316 -68.15608215 16.20254517 C-67.50011047 16.17748901 -66.84413879 16.15243286 -66.16828918 16.12661743 C-63.20568032 16.01081256 -60.24340184 15.88801631 -57.28108215 15.76504517 C-56.24854309 15.72572876 -55.21600403 15.68641235 -54.1521759 15.64590454 C-53.16604309 15.60401001 -52.17991028 15.56211548 -51.16389465 15.51895142 C-50.2526886 15.4822937 -49.34148254 15.44563599 -48.40266418 15.40786743 C-46.12124734 15.33677452 -46.12124734 15.33677452 -44.15608215 14.20254517 C-43.24608459 14.2346106 -42.33608704 14.26667603 -41.39851379 14.29971313 C-37.69171262 14.18862911 -35.5824959 13.29361749 -32.2771759 11.64785767 C-31.19114075 11.11547485 -30.10510559 10.58309204 -28.98616028 10.03457642 C-27.8666095 9.4712561 -26.74705872 8.90793579 -25.59358215 8.32754517 C-23.36371507 7.22476523 -21.13326741 6.12315829 -18.9021759 5.02285767 C-17.91918518 4.53059692 -16.93619446 4.03833618 -15.92341614 3.53115845 C-15.01019592 3.09271606 -14.09697571 2.65427368 -13.15608215 2.20254517 C-12.08529655 1.67270743 -12.08529655 1.67270743 -10.99287891 1.13216591 C-7.30398669 -0.07668725 -3.83577 -0.04905761 0 0 Z " fill="#605660" transform="translate(297.1560821533203,419.7974548339844)"/>
<path d="M0 0 C2.89094858 1.02789283 5.27424597 2.2829458 7.8125 4 C4.8433803 7.23051546 1.85215275 9.32125541 -1.96484375 11.46875 C-3.10880615 12.117229 -4.25276855 12.76570801 -5.43139648 13.43383789 C-6.66237572 14.12295519 -7.89358156 14.81166784 -9.125 15.5 C-11.02009187 16.56592577 -12.91434267 17.63333441 -14.80848694 18.70094299 C-16.08352663 19.41940618 -17.35903079 20.1370457 -18.63499451 20.85386658 C-22.63134579 23.10366124 -26.59105001 25.40653966 -30.53125 27.75390625 C-31.48265869 28.3159375 -32.43406738 28.87796875 -33.41430664 29.45703125 C-35.18307554 30.50462418 -36.94564624 31.56277454 -38.70092773 32.6328125 C-39.48927002 33.09558594 -40.2776123 33.55835938 -41.08984375 34.03515625 C-42.10292603 34.64435913 -42.10292603 34.64435913 -43.13647461 35.26586914 C-45.84611433 36.23574018 -47.45705273 35.80417471 -50.1875 35 C-53 33.5625 -53 33.5625 -55.1875 32 C-55.1875 31.34 -55.1875 30.68 -55.1875 30 C-54.09417358 29.39696045 -54.09417358 29.39696045 -52.97875977 28.78173828 C-30.70854652 16.73525602 -30.70854652 16.73525602 -9.07055664 3.61816406 C-8.36406982 3.15893555 -7.65758301 2.69970703 -6.9296875 2.2265625 C-6.29015137 1.80197754 -5.65061523 1.37739258 -4.99169922 0.93994141 C-3.1875 0 -3.1875 0 0 0 Z " fill="#DBA16B" transform="translate(205.1875,196)"/>
<path d="M0 0 C3.13439441 1.07229283 6.06195683 2.47657021 9 4 C7.75218668 7.74343995 6.78318268 7.96057152 3.3828125 9.79296875 C2.39579346 10.33373047 1.40877441 10.87449219 0.3918457 11.43164062 C-0.68621338 12.01107422 -1.76427246 12.59050781 -2.875 13.1875 C-5.15183646 14.42714602 -7.42649989 15.67078974 -9.69921875 16.91796875 C-10.58632286 17.40473587 -10.58632286 17.40473587 -11.49134827 17.90133667 C-15.8883616 20.33441146 -20.18344834 22.90783925 -24.45703125 25.55078125 C-25.67788674 26.29990302 -26.89875251 27.04900802 -28.11962891 27.7980957 C-29.89847005 28.89098501 -31.6716791 29.98992735 -33.43280029 31.11117554 C-35.0728691 32.1544955 -36.72953086 33.17159127 -38.38671875 34.1875 C-39.32733154 34.77917969 -40.26794434 35.37085938 -41.23706055 35.98046875 C-44 37 -44 37 -47.10083008 36.42578125 C-50.06428028 34.96838763 -51.8496441 33.48117988 -54 31 C-52.40885417 30.08203125 -50.81770833 29.1640625 -49.2265625 28.24609375 C-48.18564453 27.64555176 -47.14472656 27.04500977 -46.07226562 26.42626953 C-43.7559026 25.08993149 -41.43950318 23.75365677 -39.12304688 22.41748047 C-33.54502593 19.19985152 -27.96733619 15.9816557 -22.39144897 12.7603302 C-20.00223992 11.38006547 -17.6127925 10.00021367 -15.22332764 8.62039185 C-13.51665366 7.63461913 -11.81032703 6.64824512 -10.10400391 5.66186523 C-9.06937012 5.06446533 -8.03473633 4.46706543 -6.96875 3.8515625 C-5.59879883 3.05999756 -5.59879883 3.05999756 -4.20117188 2.25244141 C-2.82011309 1.46663489 -1.42121505 0.71060752 0 0 Z " fill="#DBA16B" transform="translate(158,169)"/>
<path d="M0 0 C3.279375 -0.020625 6.55875 -0.04125 9.9375 -0.0625 C10.97253662 -0.071604 12.00757324 -0.08070801 13.07397461 -0.09008789 C14.28839233 -0.09383423 14.28839233 -0.09383423 15.52734375 -0.09765625 C16.77632446 -0.10551147 16.77632446 -0.10551147 18.05053711 -0.11352539 C20 0 20 0 21 1 C21.08669432 2.4887186 21.10703494 3.981445 21.09765625 5.47265625 C21.09515869 6.28226807 21.09266113 7.09187988 21.09008789 7.92602539 C21.08098389 8.96106201 21.07187988 9.99609863 21.0625 11.0625 C21.041875 14.341875 21.02125 17.62125 21 21 C14.07 21 7.14 21 0 21 C0 14.07 0 7.14 0 0 Z " fill="#5AE1AF" transform="translate(297,160)"/>
<path d="M0 0 C6.6 0 13.2 0 20 0 C20 6.6 20 13.2 20 20 C13.4 20 6.8 20 0 20 C0 13.4 0 6.8 0 0 Z " fill="#F9606B" transform="translate(297,303)"/>
<path d="M0 0 C6.27 0 12.54 0 19 0 C19 6.6 19 13.2 19 20 C12.73 20 6.46 20 0 20 C0 13.4 0 6.8 0 0 Z " fill="#FEDE75" transform="translate(298,232)"/>
<path d="M0 0 C0 0.66 0 1.32 0 2 C-0.7120459 2.40613525 -1.4240918 2.81227051 -2.15771484 3.23071289 C-4.31824619 4.46335252 -6.47845178 5.69656319 -8.63842773 6.93017578 C-11.14671044 8.36244913 -13.65686383 9.79137255 -16.16821289 11.21826172 C-22.64445911 14.90346403 -29.0872048 18.63204974 -35.47265625 22.47265625 C-36.65610005 23.1781778 -37.83985082 23.88318473 -39.02392578 24.58764648 C-41.26945554 25.92786576 -43.5064517 27.28250584 -45.73388672 28.65258789 C-46.74854004 29.25449951 -47.76319336 29.85641113 -48.80859375 30.4765625 C-49.69345459 31.01361816 -50.57831543 31.55067383 -51.48999023 32.10400391 C-54 33 -54 33 -56.82446289 32.15771484 C-57.54239014 31.77566895 -58.26031738 31.39362305 -59 31 C-56.5849251 28.32186248 -53.98947088 26.6956489 -50.86328125 24.91796875 C-49.82204102 24.32177734 -48.78080078 23.72558594 -47.70800781 23.11132812 C-46.58749023 22.47646484 -45.46697266 21.84160156 -44.3125 21.1875 C-41.95851417 19.84961958 -39.60590609 18.5093371 -37.25390625 17.16796875 C-36.65411957 16.82643768 -36.05433289 16.48490662 -35.43637085 16.13302612 C-31.30289918 13.77051829 -27.22047806 11.33669277 -23.15234375 8.86328125 C-22.0749292 8.21399658 -20.99751465 7.56471191 -19.88745117 6.89575195 C-17.8314751 5.65346309 -15.78309239 4.39849945 -13.7434082 3.12963867 C-12.81230225 2.57123291 -11.88119629 2.01282715 -10.921875 1.4375 C-9.70902832 0.69306641 -9.70902832 0.69306641 -8.47167969 -0.06640625 C-5.309483 -1.26081954 -3.23826749 -0.78460743 0 0 Z " fill="#B88052" transform="translate(188,185)"/>
<path d="M0 0 C3.52055917 0.59084404 6.43361222 1.5155542 9.64453125 3.06640625 C10.48564453 3.46923828 11.32675781 3.87207031 12.19335938 4.28710938 C13.05767578 4.70798828 13.92199219 5.12886719 14.8125 5.5625 C15.69615234 5.98724609 16.57980469 6.41199219 17.49023438 6.84960938 C19.66264337 7.89471424 21.83239957 8.94496762 24 10 C24 10.99 24 11.98 24 13 C16.74 13 9.48 13 2 13 C1.67 9.7 1.34 6.4 1 3 C0.67 2.01 0.34 1.02 0 0 Z " fill="#7F727F" transform="translate(227,423)"/>
<path d="M0 0 C1.32 0.33 2.64 0.66 4 1 C4 5.62 4 10.24 4 15 C2.68 14.67 1.36 14.34 0 14 C0 9.38 0 4.76 0 0 Z " fill="#DCA26B" transform="translate(121,230)"/>
</svg>
