<?xml version="1.0" encoding="UTF-8"?>
<svg version="1.1" xmlns="http://www.w3.org/2000/svg" width="512" height="512">
<path d="M0 0 C5.55781363 4.58469464 10.28341628 8.78985645 13.61694336 15.22924805 C15.52029373 18.10438781 16.48256612 19.34713792 19.81155396 20.36416626 C23.11564302 20.63532311 26.31533732 20.62591232 29.62890625 20.51953125 C30.82934067 20.51950607 32.02977509 20.5194809 33.2665863 20.51945496 C37.09602524 20.51355707 40.92129734 20.44788414 44.75 20.375 C48.58155472 20.32860499 52.41230278 20.29514647 56.24412537 20.28410339 C58.62604704 20.27455407 61.00800361 20.24321017 63.38929749 20.18769836 C71.38273199 20.1187288 71.38273199 20.1187288 75.39428711 22.33081055 C78.49033974 26.18391022 78.30884579 29.80795798 78.28515625 34.640625 C78.28193359 35.80078125 78.27871094 36.9609375 78.27539062 38.15625 C78.26701172 39.3628125 78.25863281 40.569375 78.25 41.8125 C78.24548828 43.03453125 78.24097656 44.2565625 78.23632812 45.515625 C78.22454815 48.53129946 78.20809853 51.54687498 78.1875 54.5625 C79.16611496 54.55361755 80.14472992 54.54473511 81.15299988 54.5355835 C90.37839946 54.45447425 99.60372664 54.3945234 108.82940197 54.35525131 C113.572373 54.33438224 118.31505604 54.30607708 123.05786133 54.26074219 C127.63551474 54.21726008 132.21289125 54.19335777 136.79073524 54.18299103 C138.53665844 54.17560389 140.28256659 54.16117842 142.02837181 54.13957977 C144.47522018 54.11051371 146.92092651 54.10654524 149.36791992 54.10839844 C150.08865189 54.09401733 150.80938385 54.07963623 151.55195618 54.06481934 C156.3715896 54.1042801 158.80585507 55.14360664 162.1875 58.5625 C163.38889488 60.96528975 163.31070302 62.44775367 163.30775452 65.13088989 C163.30981651 66.57383423 163.30981651 66.57383423 163.31192017 68.04592896 C163.30832489 69.1047226 163.30472961 70.16351624 163.30102539 71.25439453 C163.30117142 72.36659363 163.30131744 73.47879272 163.3014679 74.62469482 C163.3007691 78.3149203 163.29297824 82.0050958 163.28515625 85.6953125 C163.28329195 88.24836194 163.2818681 90.80141174 163.28086853 93.35446167 C163.27743553 99.39636916 163.26954747 105.43825508 163.25951904 111.48015392 C163.24835045 118.35793876 163.24284557 125.23572445 163.23782361 132.11351609 C163.22736466 146.26318769 163.20956896 160.41284217 163.1875 174.5625 C166.1575 174.5625 169.1275 174.5625 172.1875 174.5625 C172.1875 180.5025 172.1875 186.4425 172.1875 192.5625 C92.9875 192.5625 13.7875 192.5625 -67.8125 192.5625 C-67.8125 186.6225 -67.8125 180.6825 -67.8125 174.5625 C-65.1725 174.2325 -62.5325 173.9025 -59.8125 173.5625 C-65.18384452 164.67952211 -70.58619656 155.82527158 -76.25 147.125 C-96.86758257 115.40535705 -117.8296261 82.06231548 -109.78271484 42.28442383 C-105.51390474 24.38246164 -95.35479241 7.73035485 -79.8125 -2.4375 C-54.39568796 -17.41758928 -24.2928129 -18.24005817 0 0 Z " fill="#24384E" transform="translate(229.8125,81.4375)"/>
<path d="M0 0 C12.07960281 9.84952229 18.48836943 24.83126744 20.49169922 40.03466797 C20.95967575 44.92275832 21.04978312 49.81099426 21.09375 54.71875 C21.10768799 55.72067383 21.12162598 56.72259766 21.13598633 57.75488281 C21.03285146 73.95107584 13.52530368 86.69194581 2.71875 98.40625 C1.72875 98.90125 1.72875 98.90125 0.71875 99.40625 C1.33621094 99.63699219 1.95367187 99.86773437 2.58984375 100.10546875 C16.7085362 105.54234727 28.44469825 112.62534048 34.84362793 126.91894531 C38.05466259 135.63842198 38.30619945 143.82319817 38.25 152.96875 C38.25270122 154.53385661 38.25658886 156.09896157 38.26159668 157.6640625 C38.26744828 160.91829665 38.25906147 164.17208744 38.24023438 167.42626953 C38.21729381 171.59377216 38.23068912 175.7602527 38.25452423 179.92771912 C38.26897102 183.14825165 38.26438413 186.368541 38.25401306 189.58908081 C38.25135051 191.12645592 38.25459895 192.6638533 38.26393127 194.20120239 C38.27409608 196.3430666 38.2586074 198.48326032 38.23632812 200.625 C38.23314575 201.84123047 38.22996338 203.05746094 38.22668457 204.31054688 C37.60386471 208.10644011 36.71071258 209.05554061 33.71875 211.40625 C30.97600651 211.91240788 30.97600651 211.91240788 27.76661682 211.9209137 C26.54829163 211.93363815 25.32996643 211.94636261 24.07472229 211.95947266 C22.72762867 211.95329042 21.38053695 211.9466844 20.03344727 211.93969727 C18.61240747 211.94675587 17.19137519 211.95550064 15.77035522 211.96580505 C11.91281829 211.98831662 8.05569131 211.98535528 4.19811368 211.97648358 C0.9773705 211.97137497 -2.24329556 211.97866525 -5.4640308 211.98595566 C-13.06243344 212.00296046 -20.66063529 211.99938329 -28.2590332 211.98266602 C-36.09700082 211.96574459 -43.93441152 211.98157781 -51.7723183 212.0138889 C-58.50282424 212.0405833 -65.23315681 212.04786123 -71.96371037 212.03937382 C-75.98308327 212.03444401 -80.00212109 212.03666268 -84.02145195 212.05716133 C-87.8014746 212.07551637 -91.58069622 212.06956311 -95.36067581 212.04496193 C-96.74698677 212.03995327 -98.13335874 212.04344547 -99.5196209 212.05611038 C-110.1260909 212.14533653 -110.1260909 212.14533653 -114.60522461 209.27952576 C-116.60980549 205.84299449 -116.90905502 203.77322929 -116.91235352 199.80273438 C-116.92488663 198.48366089 -116.93741974 197.1645874 -116.95033264 195.80554199 C-116.93805377 194.37035137 -116.92463217 192.93517014 -116.91015625 191.5 C-116.91098607 190.0137108 -116.91344972 188.5274217 -116.91746521 187.0411377 C-116.9203221 183.92395427 -116.90564855 180.80748964 -116.87817383 177.69042969 C-116.84432769 173.73093624 -116.85003 169.77274745 -116.8688364 165.81319427 C-116.8795124 162.73980223 -116.8703699 159.66670301 -116.85545158 156.59333801 C-116.85033037 155.13597998 -116.85067639 153.67859051 -116.85699654 152.22123718 C-116.89984602 136.38540236 -113.41855655 123.95115792 -102.59375 112.21875 C-96.00618927 105.90829507 -88.1985534 102.08876008 -79.28125 100.40625 C-80.10625 99.478125 -80.93125 98.55 -81.78125 97.59375 C-95.28859902 81.65954867 -100.44183906 67.14293991 -99.28125 46.40625 C-97.87470906 31.65172991 -93.73949284 18.04874936 -84.28125 6.40625 C-83.78238281 5.77074219 -83.28351563 5.13523437 -82.76953125 4.48046875 C-63.54690226 -17.35682515 -22.15975645 -15.48147368 0 0 Z " fill="#23374E" transform="translate(474.28125,300.59375)"/>
<path d="M0 0 C14.35835777 10.05985255 20.68624852 25.15754252 23.7421875 41.93359375 C25.48707583 55.05198149 25.56255503 67.33425656 20.4921875 79.74609375 C20.2034375 80.47957031 19.9146875 81.21304688 19.6171875 81.96875 C16.95443988 87.94804488 12.65629148 92.7605552 8.4921875 97.74609375 C7.15546078 99.41004003 5.82117511 101.07595977 4.4921875 102.74609375 C5.09804687 102.89304687 5.70390625 103.04 6.328125 103.19140625 C18.34226816 106.40749996 28.69874035 112.95545908 35.31640625 123.7109375 C40.97997845 134.58554466 41.82591216 144.18178963 41.86328125 156.2265625 C41.87226131 157.7277281 41.88138338 159.22889285 41.89064026 160.73005676 C41.90705442 163.86262173 41.91481766 166.99508069 41.91772461 170.12768555 C41.92313077 174.13609594 41.96093323 178.14350931 42.00646877 182.15163708 C42.03622761 185.24607489 42.04344773 188.34027078 42.04445076 191.43483925 C42.04864789 192.91282072 42.06106208 194.39080325 42.08196831 195.86864281 C42.10888991 197.93425637 42.10406109 199.99753185 42.09155273 202.06323242 C42.09662338 203.23601242 42.10169403 204.40879242 42.10691833 205.61711121 C41.4921875 208.74609375 41.4921875 208.74609375 39.81814575 211.62432861 C34.46085671 215.04196294 28.86872223 214.43376047 22.67749023 214.37719727 C21.25468046 214.3823378 19.83187706 214.38962009 18.40908813 214.39888 C14.55156045 214.4173841 10.6947245 214.40446301 6.83722568 214.38478971 C2.79919561 214.36839657 -1.23879087 214.37721687 -5.27684021 214.38230896 C-12.05666142 214.38682868 -18.83620662 214.37096655 -25.6159668 214.34301758 C-33.45449131 214.31095313 -41.29251841 214.31098669 -49.1310783 214.32823235 C-56.67298404 214.34409408 -64.21470739 214.33736706 -71.75660515 214.32029533 C-74.9658894 214.31342252 -78.17502756 214.31445955 -81.38430977 214.32184029 C-85.16264065 214.32949975 -88.94040511 214.31738895 -92.71863937 214.28999138 C-94.10535818 214.28310326 -95.49212986 214.28301423 -96.87884712 214.29020691 C-98.77113006 214.29889118 -100.66347966 214.28052 -102.55567932 214.26075745 C-103.61477792 214.25795053 -104.67387651 214.2551436 -105.76506901 214.25225163 C-109.210343 213.6164457 -110.39643013 212.49554183 -112.5078125 209.74609375 C-113.01574707 206.65039062 -113.01574707 206.65039062 -113.02539062 202.96484375 C-113.0323999 202.29103165 -113.03940918 201.61721954 -113.04663086 200.92298889 C-113.06422049 198.69693634 -113.0525756 196.47215917 -113.0390625 194.24609375 C-113.04175969 192.68871824 -113.045644 191.13134438 -113.05065918 189.57397461 C-113.0565576 186.3055014 -113.04799006 183.03746531 -113.02929688 179.76904297 C-113.00665794 175.6110594 -113.01953092 171.4541173 -113.04358673 167.2961731 C-113.05816584 164.07530131 -113.05338135 160.85466878 -113.04307556 157.63378906 C-113.04043361 156.10302605 -113.04358739 154.57224029 -113.05299377 153.04150391 C-113.12272092 138.48849562 -110.42626597 126.87582738 -100.5078125 115.74609375 C-93.17828637 108.86426991 -84.86012763 105.0862063 -75.5078125 101.74609375 C-76.2090625 101.06546875 -76.9103125 100.38484375 -77.6328125 99.68359375 C-78.59216741 98.70542796 -79.5504404 97.72620028 -80.5078125 96.74609375 C-81.4359375 95.81796875 -82.3640625 94.88984375 -83.3203125 93.93359375 C-86.50332529 90.19521154 -88.62648913 85.98267624 -90.8203125 81.62109375 C-91.17005127 80.92781982 -91.51979004 80.2345459 -91.88012695 79.52026367 C-99.33643412 64.23106817 -96.92204181 42.48995118 -91.5078125 26.74609375 C-86.44610878 13.36613624 -78.43022376 3.19891909 -65.5078125 -3.25390625 C-44.68555048 -11.08307677 -19.54388237 -11.62774011 0 0 Z " fill="#23374E" transform="translate(112.5078125,298.25390625)"/>
<path d="M0 0 C1.58385498 0.00737183 1.58385498 0.00737183 3.19970703 0.01489258 C20.27042188 0.27115042 33.12707902 4.91764794 45.1875 17.3125 C59.07058635 32.6537661 61.07722418 54.00029516 60.36669922 73.79248047 C59.40718258 87.28584663 52.04024934 97.75649064 43.04296875 107.28125 C41.14120937 109.1775451 41.14120937 109.1775451 40.1875 111.3125 C41.11369141 111.55033203 41.11369141 111.55033203 42.05859375 111.79296875 C55.34867028 115.45431404 64.51060679 121.74407734 71.6796875 133.55859375 C75.49952664 140.53524295 77.29554649 147.09432423 77.38037109 155.02124023 C77.39263733 156.01956375 77.39263733 156.01956375 77.40515137 157.03805542 C77.42989009 159.23239257 77.44648801 161.42666573 77.4609375 163.62109375 C77.46626118 164.37243151 77.47158485 165.12376926 77.47706985 165.89787483 C77.50374623 169.87176618 77.52314207 173.84562666 77.53759766 177.81958008 C77.55095575 181.10501836 77.57884923 184.3898383 77.61962891 187.67504883 C77.66893641 191.64789209 77.69371516 195.62017322 77.70082474 199.5933094 C77.70753536 201.10479947 77.7227528 202.61627708 77.74671555 204.12759209 C77.77836686 206.24384839 77.77840637 208.35793403 77.77099609 210.47436523 C77.77908295 211.67697495 77.7871698 212.87958466 77.79550171 214.11863708 C77.1875 217.3125 77.1875 217.3125 75.50772095 220.19944763 C70.17743961 223.59174103 64.6375706 223.00889908 58.48046875 222.95947266 C57.06913119 222.96625125 55.65780248 222.97515576 54.24649048 222.98602295 C50.41990551 223.00879485 46.59399542 222.99998922 42.76739883 222.98412752 C38.76052295 222.97145735 34.75370436 222.98321172 30.74682617 222.99105835 C24.01828652 223.0001517 17.29002139 222.98817542 10.56152344 222.96435547 C2.78543314 222.93714455 -4.99000167 222.94595895 -12.76607609 222.9734875 C-19.4456623 222.99618669 -26.12505133 222.99937476 -32.80466366 222.98629415 C-36.7927061 222.978504 -40.78044055 222.97744576 -44.76846313 222.99397659 C-48.51816066 223.00843419 -52.26701418 222.99837752 -56.01662064 222.96950531 C-57.39163436 222.96290117 -58.76671928 222.96478088 -60.14170456 222.97581863 C-70.65383257 223.05241698 -70.65383257 223.05241698 -75.1307373 220.1934967 C-77.1639231 216.71048356 -77.43471704 214.59551486 -77.42773438 210.56958008 C-77.43328339 209.9119165 -77.4388324 209.25425293 -77.44454956 208.57666016 C-77.45632039 206.41103264 -77.43208871 204.24751132 -77.40625 202.08203125 C-77.40453706 200.56613765 -77.40460644 199.05024108 -77.40637207 197.53434753 C-77.40471992 194.35748932 -77.38605291 191.18133763 -77.35449219 188.00463867 C-77.31498386 183.95756771 -77.31042794 179.91142857 -77.31795502 175.86420155 C-77.32104537 172.73176225 -77.30882872 169.59952744 -77.29182434 166.46713829 C-77.28485059 164.97660292 -77.28166289 163.48604437 -77.28251648 161.99549294 C-77.26954707 147.08218982 -74.35751378 134.4778087 -63.8125 123.3125 C-57.02054322 117.2824095 -48.81773748 112.82148574 -39.8125 111.3125 C-40.67875 110.3225 -41.545 109.3325 -42.4375 108.3125 C-53.17320923 95.68670111 -60.23274432 83.21274259 -60.125 66.3125 C-60.12008545 65.39476807 -60.1151709 64.47703613 -60.11010742 63.53149414 C-59.7962223 45.01227194 -54.91357831 27.79598804 -42 14.0625 C-38.01458736 10.23680809 -33.77872501 7.678229 -28.8125 5.3125 C-27.678125 4.755625 -26.54375 4.19875 -25.375 3.625 C-17.05163911 0.55849862 -8.81400579 -0.04853682 0 0 Z " fill="#23374E" transform="translate(255.8125,289.6875)"/>
<path d="M0 0 C0.95197266 -0.020625 1.90394531 -0.04125 2.88476562 -0.0625 C17.00106541 -0.1393757 28.0807193 5.47593221 38.3359375 14.98828125 C50.00713593 27.54892045 52.93188505 41.52792664 52.52636719 58.01123047 C52.31995842 63.21114359 51.54574354 68.17201636 50.4375 73.25 C50.29747559 73.9090332 50.15745117 74.56806641 50.01318359 75.24707031 C45.67755387 94.93974366 35.22404186 111.00426666 24.18457031 127.59521484 C20.49705428 133.19863146 16.94142886 138.88774163 13.37011719 144.56567383 C9.56231184 150.58564892 5.5700332 156.44829018 1.4375 162.25 C-1.10011569 159.82561389 -3.1853376 157.53940291 -4.97265625 154.51953125 C-5.39925537 153.80804932 -5.82585449 153.09656738 -6.26538086 152.36352539 C-6.71405518 151.60418701 -7.16272949 150.84484863 -7.625 150.0625 C-11.3195202 143.91200944 -15.07994561 137.82187661 -19 131.8125 C-19.91150255 130.40758077 -20.82296035 129.00263251 -21.734375 127.59765625 C-23.17938695 125.37288505 -24.62778999 123.15057735 -26.08398438 120.93310547 C-39.53174092 100.41979303 -49.66350066 80.71492228 -49.875 55.6875 C-49.90400391 54.57052734 -49.93300781 53.45355469 -49.96289062 52.30273438 C-50.0402029 42.04399018 -47.88303089 32.89778307 -42.0625 24.3125 C-41.4953125 23.45785156 -40.928125 22.60320312 -40.34375 21.72265625 C-30.4840177 8.03579101 -16.86989365 0.08884737 0 0 Z " fill="#D25A5A" transform="translate(186.5625,85.75)"/>
<path d="M0 0 C1.66289062 0.02030273 1.66289062 0.02030273 3.359375 0.04101562 C6.07343232 0.07611119 8.78645193 0.1252773 11.5 0.1875 C9.31960392 8.03274288 6.45609682 15.40963233 3.19726562 22.86328125 C0.94589926 28.25152358 -0.1689814 32.3370683 0.5 38.1875 C1.54316173 40.39239371 1.54316173 40.39239371 3.3125 42 C3.94285156 42.64839844 4.57320312 43.29679687 5.22265625 43.96484375 C5.97417969 44.69832031 6.72570312 45.43179688 7.5 46.1875 C8.43819067 47.14518729 9.37427012 48.10494589 10.30859375 49.06640625 C16.4270904 56.23407272 16.4270904 56.23407272 24.6875 59.25 C29.95689755 57.78147937 32.6741513 54.98691796 36.5 51.1875 C37.47242036 50.2406431 38.44509139 49.29404359 39.41796875 48.34765625 C45.86929496 42.64305828 45.86929496 42.64305828 48.90625 34.9609375 C48.82058518 28.19035756 45.56656479 21.9650522 43 15.8125 C41.96346 13.28597327 40.9347431 10.75638838 39.90625 8.2265625 C39.44541016 7.11490723 38.98457031 6.00325195 38.50976562 4.85791016 C37.5 2.1875 37.5 2.1875 37.5 0.1875 C64.95755179 -0.71240716 64.95755179 -0.71240716 74.875 6.375 C92.27852045 25.02162905 84.5 54.56517639 84.5 77.1875 C44.9 77.1875 5.3 77.1875 -35.5 77.1875 C-35.5 17.51182432 -35.5 17.51182432 -28.5 9.1875 C-19.68546105 1.19748362 -11.59089217 -0.27036172 0 0 Z " fill="#B1D3E2" transform="translate(231.5,417.8125)"/>
<path d="M0 0 C1.07314453 0.00322266 2.14628906 0.00644531 3.25195312 0.00976562 C4.37150391 0.01814453 5.49105469 0.02652344 6.64453125 0.03515625 C8.34125977 0.04192383 8.34125977 0.04192383 10.07226562 0.04882812 C12.86724052 0.06062127 15.66210945 0.07707975 18.45703125 0.09765625 C17.82000173 3.92375221 16.69150911 7.2094738 15.171875 10.7734375 C14.72392578 11.84916016 14.27597656 12.92488281 13.81445312 14.03320312 C12.87143355 16.27595533 11.92095927 18.51558825 10.96289062 20.75195312 C8.47185054 26.7728653 6.53798769 31.56058835 7.45703125 38.09765625 C8.50019298 40.30254996 8.50019298 40.30254996 10.26953125 41.91015625 C10.89988281 42.55855469 11.53023438 43.20695312 12.1796875 43.875 C12.93121094 44.60847656 13.68273437 45.34195313 14.45703125 46.09765625 C15.39522192 47.05534354 16.33130137 48.01510214 17.265625 48.9765625 C23.54141043 56.19859676 23.54141043 56.19859676 32.0234375 59.3125 C38.36245832 58.32443106 42.20568767 53.1207086 46.39453125 48.66015625 C47.25626953 47.77521484 48.11800781 46.89027344 49.00585938 45.97851562 C54.38112024 40.9914996 54.38112024 40.9914996 56.68359375 34.40136719 C56.41840585 30.53442468 55.36014192 27.7970159 53.83203125 24.23828125 C53.56567871 23.60782898 53.29932617 22.97737671 53.02490234 22.32781982 C52.17896266 20.32998731 51.318806 18.33870295 50.45703125 16.34765625 C49.59780568 14.34135493 48.74164671 12.33381995 47.88916016 10.324646 C47.11828684 8.51107675 46.33865289 6.70123876 45.55859375 4.89160156 C44.45703125 2.09765625 44.45703125 2.09765625 44.45703125 0.09765625 C72.05810502 -0.80695476 72.05810502 -0.80695476 81.83203125 6.34765625 C99.48378419 24.83996885 91.45703125 53.95471551 91.45703125 77.09765625 C51.85703125 77.09765625 12.25703125 77.09765625 -28.54296875 77.09765625 C-28.54296875 17.19155919 -28.54296875 17.19155919 -18.9609375 7.234375 C-13.43011206 2.34687659 -7.36682745 -0.03897792 0 0 Z " fill="#B1D3E2" transform="translate(403.54296875,417.90234375)"/>
<path d="M0 0 C1.67642578 0.01353516 1.67642578 0.01353516 3.38671875 0.02734375 C6.13303462 0.05081654 8.87890472 0.08365272 11.625 0.125 C9.11145054 8.03983375 5.98068094 15.60209681 2.67773438 23.21679688 C-0.27537718 29.9250489 -0.27537718 29.9250489 -0.375 37.125 C0.64253842 39.08084049 0.64253842 39.08084049 2.3125 40.6875 C2.93898437 41.35007812 3.56546875 42.01265625 4.2109375 42.6953125 C5.00757813 43.49710937 5.80421875 44.29890625 6.625 45.125 C7.7214607 46.24729176 8.81780624 47.36969604 9.9140625 48.4921875 C16.15607229 55.78290359 16.15607229 55.78290359 24.453125 59.4296875 C28.39628175 59.05091136 29.55931609 57.98064648 32.375 55.25 C33.22449219 54.43660156 34.07398437 53.62320313 34.94921875 52.78515625 C35.83222656 51.90730469 36.71523437 51.02945313 37.625 50.125 C39.02685547 48.76181641 39.02685547 48.76181641 40.45703125 47.37109375 C46.42853489 42.04151413 46.42853489 42.04151413 49.03125 34.86328125 C48.9473975 28.23444142 45.72067856 22.28511172 43.125 16.3125 C42.08646441 13.89231287 41.05789884 11.46825998 40.03125 9.04296875 C39.57041016 7.97844482 39.10957031 6.9139209 38.63476562 5.81713867 C37.625 3.125 37.625 3.125 37.625 0.125 C41.24971857 0.00716719 44.87393403 -0.06278808 48.5 -0.125 C49.51320313 -0.15851563 50.52640625 -0.19203125 51.5703125 -0.2265625 C61.71687528 -0.35664664 69.52252 2.25818927 76.9375 9.26953125 C92.56284698 26.45017897 84.625 59.96860084 84.625 77.125 C45.025 77.125 5.425 77.125 -35.375 77.125 C-35.375 17.16109342 -35.375 17.16109342 -27.375 8.125 C-18.72243124 0.88098895 -11.00416883 -0.16849728 0 0 Z " fill="#B1D3E2" transform="translate(52.375,417.875)"/>
<path d="M0 0 C11.88 0 23.76 0 36 0 C36 44.88 36 89.76 36 136 C16.2 136 -3.6 136 -24 136 C-24.20625 129.235 -24.4125 122.47 -24.625 115.5 C-24.71604004 113.40076172 -24.80708008 111.30152344 -24.90087891 109.13867188 C-25.21485293 96.52827214 -22.92519665 88.69714636 -15.23554993 78.70674133 C0.60705057 56.82237996 3.71103727 25.97726087 0 0 Z " fill="#E0D5B1" transform="translate(254,120)"/>
<path d="M0 0 C22.44 0 44.88 0 68 0 C68 2.64 68 5.28 68 8 C62.39 8 56.78 8 51 8 C51 13.61 51 19.22 51 25 C56.94 25 62.88 25 69 25 C69 27.97 69 30.94 69 34 C63.39 34 57.78 34 52 34 C52 39.61 52 45.22 52 51 C57.28 51 62.56 51 68 51 C68 67.83 68 84.66 68 102 C65.36 102 62.72 102 60 102 C59.99589111 100.90534424 59.99178223 99.81068848 59.98754883 98.68286133 C59.96572948 94.61028355 59.91141169 90.53866809 59.84741211 86.46655273 C59.82425636 84.70623009 59.80984206 82.94576939 59.80444336 81.18530273 C59.79513558 78.65000621 59.75410952 76.11687372 59.70703125 73.58203125 C59.7109639 72.79850784 59.71489655 72.01498444 59.71894836 71.2077179 C59.61422828 67.26059502 59.24563923 65.36967845 57.00854492 62.00292969 C52.94656776 59.29868067 49.93663065 59.2930006 45.15625 59.37109375 C44.30953735 59.36868179 43.46282471 59.36626984 42.5904541 59.36378479 C40.80520939 59.36476169 39.0199338 59.37811803 37.23486328 59.40307617 C34.5083892 59.4373944 31.78515688 59.42372665 29.05859375 59.40429688 C27.32029876 59.41119567 25.5820121 59.42086835 23.84375 59.43359375 C23.03216431 59.42863388 22.22057861 59.42367401 21.38439941 59.41856384 C17.68450092 59.49522661 15.35003771 59.82647242 11.99145508 61.49145508 C9.16893351 65.04685647 9.27183332 68.34689825 9.29296875 72.703125 C9.27784744 73.54091492 9.26272614 74.37870483 9.24714661 75.24188232 C9.20423992 77.91152802 9.19542914 80.58004373 9.1875 83.25 C9.16435787 85.0625301 9.13899312 86.87503329 9.11132812 88.6875 C9.04844684 93.12510001 9.01613475 97.56199374 9 102 C6.03 102 3.06 102 0 102 C0 85.17 0 68.34 0 51 C5.61 51 11.22 51 17 51 C17 45.39 17 39.78 17 34 C11.39 34 5.78 34 0 34 C0 31.03 0 28.06 0 25 C5.61 25 11.22 25 17 25 C17 19.39 17 13.78 17 8 C11.39 8 5.78 8 0 8 C0 5.36 0 2.72 0 0 Z " fill="#DFD4B0" transform="translate(307,154)"/>
<path d="M0 0 C6.7124126 4.15583934 11.23090451 9.0899916 15 16 C15.3403125 16.61359375 15.680625 17.2271875 16.03125 17.859375 C19.35989633 25.07144206 19.40218122 33.89946316 16.86328125 41.32421875 C11.97877482 51.54193955 5.88213396 58.82244457 -4.7421875 63.10546875 C-13.58581565 65.53375514 -23.46264042 65.31223062 -31.75 61.3125 C-35.74342297 58.98845876 -39.04686773 56.59912996 -42 53 C-42.680625 52.278125 -43.36125 51.55625 -44.0625 50.8125 C-50.08166148 42.07500753 -51.67943042 32.40619037 -50 22 C-46.8120239 11.83105432 -40.35635746 4.03588055 -31 -1 C-21.7851437 -4.79888226 -8.87792463 -4.83468376 0 0 Z " fill="#25384E" transform="translate(204,106)"/>
<path d="M0 0 C4.43368266 1.32374619 8.10572459 3.07461599 12.0546875 5.4765625 C13.71757812 6.48203125 13.71757812 6.48203125 15.4140625 7.5078125 C16.56778733 8.21341252 17.72143219 8.91914331 18.875 9.625 C20.05175274 10.33908674 21.2288332 11.05263372 22.40625 11.765625 C25.27409848 13.50513965 28.13849923 15.25007001 31 17 C29.38989854 29.13741498 23.51469364 37.89366618 13.91015625 45.421875 C4.51830716 52.27246543 -3.97623237 57.69521142 -16 56 C-19.26823713 55.06700663 -22.05323589 53.68030373 -25 52 C-26.31291016 51.27103516 -26.31291016 51.27103516 -27.65234375 50.52734375 C-39.04640779 43.76761151 -47.1532592 35.45178938 -52 23 C-52 22.34 -52 21.68 -52 21 C-51.07960938 20.90203125 -50.15921875 20.8040625 -49.2109375 20.703125 C-31.64395978 18.6280034 -11.83982367 14.20778841 0 0 Z " fill="#FCFCFD" transform="translate(446,345)"/>
<path d="M0 0 C5.72740556 2.12250139 10.77828072 5.26634456 16.00341797 8.39477539 C17.75355509 9.43962242 19.51126277 10.47086371 21.26953125 11.50195312 C22.37167969 12.16001953 23.47382813 12.81808594 24.609375 13.49609375 C25.61967773 14.09607178 26.62998047 14.6960498 27.67089844 15.31420898 C30 17 30 17 31 20 C26.62871447 34.6796902 17.38836322 43.64396197 4.625 51.453125 C-2.07531666 54.960322 -9.4406955 57.43827475 -17 56 C-31.52037174 50.4060863 -44.53115033 40.70675633 -51.25 26.32421875 C-52 24 -52 24 -52 21 C-50.20369141 20.76216797 -50.20369141 20.76216797 -48.37109375 20.51953125 C-29.57640638 17.88555958 -14.02587136 13.36270959 0 0 Z " fill="#FCFDFD" transform="translate(267,345)"/>
<path d="M0 0 C5.74045632 2.12141577 10.77740298 5.30227113 16.00341797 8.44970703 C17.75495547 9.50297993 19.51196409 10.54667105 21.26953125 11.58984375 C22.37167969 12.25113281 23.47382812 12.91242188 24.609375 13.59375 C25.61967773 14.19896484 26.62998047 14.80417969 27.67089844 15.42773438 C30 17 30 17 31 19 C29.15045151 26.95577844 25.36861576 32.97751437 20 39 C19.24976562 39.90685547 19.24976562 39.90685547 18.484375 40.83203125 C14.87449435 44.87035734 10.66125365 47.61155804 6 50.3125 C5.41855225 50.65031494 4.83710449 50.98812988 4.23803711 51.33618164 C-2.35512573 54.99534534 -9.47442919 57.42285534 -17 56 C-31.47764639 50.51734101 -44.61481338 40.70542172 -51.21484375 26.359375 C-52 24 -52 24 -52 21 C-50.23849609 20.77957031 -50.23849609 20.77957031 -48.44140625 20.5546875 C-30.85179323 18.17751386 -12.24219793 13.93077695 0 0 Z " fill="#FCFDFD" transform="translate(88,345)"/>
<path d="M0 0 C7.58643936 6.21839292 12.77313189 14.49522096 13.93359375 24.3359375 C13.97484375 25.5734375 14.01609375 26.8109375 14.05859375 28.0859375 C9.05543653 25.81063233 4.2918858 23.27635656 -0.33203125 20.3046875 C-1.11078613 19.80815674 -1.88954102 19.31162598 -2.69189453 18.80004883 C-4.25224119 17.79687716 -5.80314249 16.77883042 -7.34326172 15.74487305 C-12.49738537 12.4447223 -15.81073286 11.35800351 -21.94140625 12.0859375 C-24.68477102 14.0672565 -25.93346392 16.07288939 -27.69140625 18.9609375 C-34.77790368 28.80329504 -47.07653954 32.79127181 -58.640625 34.81640625 C-62.1075098 35.22254386 -65.45448907 35.21508258 -68.94140625 35.0859375 C-68.49392492 23.51854503 -65.55636303 13.04573756 -57.94140625 4.0859375 C-42.46537565 -10.05915447 -17.49966248 -11.38756257 0 0 Z " fill="#AFD1E0" transform="translate(461.94140625,313.9140625)"/>
<path d="M0 0 C6.88566464 5.7479046 11.74342783 14.62612907 13.5625 23.375 C13.5625 24.695 13.5625 26.015 13.5625 27.375 C9.82781034 26.0074026 6.68371777 24.29304349 3.359375 22.1171875 C2.37839844 21.49199219 1.39742188 20.86679687 0.38671875 20.22265625 C-1.65528267 18.91235038 -3.68927515 17.58947471 -5.71484375 16.25390625 C-10.92376308 12.96513758 -15.27049272 10.25811257 -21.58789062 10.81152344 C-24.80120878 11.79044877 -25.90528604 13.74969514 -27.5625 16.5625 C-34.67380743 27.38887642 -44.40559783 30.26392889 -56.6796875 33.1328125 C-60.99992914 33.96407851 -65.03151114 34.46123822 -69.4375 34.375 C-69.84158868 22.15908835 -65.81309024 11.40916769 -57.66015625 2.4140625 C-42.81664763 -11.97412377 -16.45481842 -10.88549526 0 0 Z " fill="#B0D2E1" transform="translate(104.4375,314.625)"/>
<path d="M0 0 C6.83783246 5.88624544 11.56069435 14.28948557 12.71484375 23.25390625 C12.79734375 24.38828125 12.87984375 25.52265625 12.96484375 26.69140625 C7.96168653 24.41610108 3.1981358 21.88182531 -1.42578125 18.91015625 C-2.20453613 18.41362549 -2.98329102 17.91709473 -3.78564453 17.40551758 C-5.34599119 16.40234591 -6.89689249 15.38429917 -8.43701172 14.3503418 C-13.59113537 11.05019105 -16.90448286 9.96347226 -23.03515625 10.69140625 C-25.77852102 12.67272525 -27.02721392 14.67835814 -28.78515625 17.56640625 C-35.69411746 27.16218571 -47.78239894 31.11798426 -59.12841797 33.04736328 C-62.75914963 33.49387562 -66.37884233 33.67848641 -70.03515625 33.69140625 C-69.18209115 21.26102911 -66.65615351 9.42734059 -57.09765625 0.56640625 C-55.77626576 -0.43663777 -54.42247789 -1.39891863 -53.03515625 -2.30859375 C-52.42027344 -2.71464844 -51.80539063 -3.12070312 -51.171875 -3.5390625 C-35.81180929 -12.34804429 -14.03169431 -10.12413387 0 0 Z " fill="#B0D2E1" transform="translate(284.03515625,315.30859375)"/>
<path d="M0 0 C4.42952014 2.98100408 7.47736935 7.28572442 8.6328125 12.515625 C8.94581319 17.81577 7.16236349 22.17205344 4.1875 26.5 C-1.02419545 31.4574664 -5.73203643 32.02283614 -12.72265625 31.98046875 C-17.83529792 31.1854562 -20.64433866 28.43117402 -23.8125 24.5 C-26.65689226 20.11489527 -26.47170664 14.57019427 -25.8125 9.5 C-20.92299927 -0.27900146 -10.2349243 -5.10621498 0 0 Z " fill="#E1D6B1" transform="translate(196.8125,121.5)"/>
<path d="M0 0 C5.61 0 11.22 0 17 0 C17 8.58 17 17.16 17 26 C11.39 26 5.78 26 0 26 C0 17.42 0 8.84 0 0 Z " fill="#DFD5B0" transform="translate(333,230)"/>
<path d="M0 0 C1.70410173 2.30745381 3.20816244 4.55567191 4.6875 7 C5.10322266 7.66773438 5.51894531 8.33546875 5.94726562 9.0234375 C6.97444224 10.67636538 7.98847336 12.33744888 9 14 C3.56169459 19.54091495 3.56169459 19.54091495 0.4375 21.875 C-0.12066406 22.30554688 -0.67882812 22.73609375 -1.25390625 23.1796875 C-3 24 -3 24 -4.91796875 24.01171875 C-8.10410764 22.4634824 -9.76626212 19.76448802 -11.75 16.9375 C-12.16121094 16.36966797 -12.57242188 15.80183594 -12.99609375 15.21679688 C-14.00695036 13.81805343 -15.00477206 12.40990625 -16 11 C-13.08794197 8.02198943 -10.194514 5.20642533 -6.875 2.6875 C-5.88113281 1.91986328 -5.88113281 1.91986328 -4.8671875 1.13671875 C-3 0 -3 0 0 0 Z " fill="#22364D" transform="translate(134,37)"/>
<path d="M0 0 C4.0744433 1.35814777 5.42021951 4.1308426 7.6875 7.5625 C8.10322266 8.17802734 8.51894531 8.79355469 8.94726562 9.42773438 C9.97193162 10.94706671 10.98690678 12.47292657 12 14 C9.34256397 16.77218895 6.66105355 19.13115654 3.5 21.3125 C2.7471875 21.84488281 1.994375 22.37726563 1.21875 22.92578125 C-1 24 -1 24 -3.015625 24.015625 C-6.01522165 22.48039837 -7.35383209 20.18694347 -9.25 17.4375 C-10.30960937 15.91962891 -10.30960937 15.91962891 -11.390625 14.37109375 C-11.92171875 13.58863281 -12.4528125 12.80617188 -13 12 C-11.47022724 7.99000394 -8.98468218 6.17346767 -5.5625 3.6875 C-4.59441406 2.96949219 -3.62632812 2.25148438 -2.62890625 1.51171875 C-1.32759766 0.76341797 -1.32759766 0.76341797 0 0 Z " fill="#22364D" transform="translate(429,84)"/>
<path d="M0 0 C4.56030824 3.80475422 8.85089392 7.74969621 13 12 C11.44997253 15.88397689 8.99523379 18.02979619 5.875 20.75 C4.96492188 21.54921875 4.05484375 22.3484375 3.1171875 23.171875 C2.41851562 23.77515625 1.71984375 24.3784375 1 25 C-2.68069887 23.46356148 -4.98775204 21.21849055 -7.75 18.375 C-8.54921875 17.55773437 -9.3484375 16.74046875 -10.171875 15.8984375 C-10.77515625 15.27195312 -11.3784375 14.64546875 -12 14 C-8.72905967 8.54843278 -4.58146674 4.38130557 0 0 Z " fill="#23374E" transform="translate(406,58)"/>
<path d="M0 0 C4.18358477 0.55848826 7.02629569 3.04446302 10.25 5.5625 C10.80429687 5.98724609 11.35859375 6.41199219 11.9296875 6.84960938 C13.29089411 7.89398341 14.64605833 8.94622464 16 10 C12.84577733 14.82596069 9.71080883 19.57557408 6 24 C1.99264783 23.39889717 -0.55469371 21.33397972 -3.75 18.9375 C-4.73484375 18.20402344 -5.7196875 17.47054687 -6.734375 16.71484375 C-7.48203125 16.14894531 -8.2296875 15.58304688 -9 15 C-7.61219205 11.10993227 -5.7847773 8.03441292 -3.375 4.6875 C-2.74335938 3.80449219 -2.11171875 2.92148437 -1.4609375 2.01171875 C-0.97882813 1.34785156 -0.49671875 0.68398438 0 0 Z " fill="#22364E" transform="translate(378,37)"/>
<path d="M0 0 C3.58513106 1.62184501 6.58992323 3.79256239 9.75 6.125 C11.22726563 7.21167969 11.22726563 7.21167969 12.734375 8.3203125 C13.48203125 8.87460938 14.2296875 9.42890625 15 10 C13.45158425 13.34708051 11.50894136 16.24667512 9.375 19.25 C8.42753906 20.58804688 8.42753906 20.58804688 7.4609375 21.953125 C6.97882813 22.62859375 6.49671875 23.3040625 6 24 C1.44299575 23.47515308 -1.192874 21.68492697 -4.8125 18.9375 C-5.78832031 18.20402344 -6.76414062 17.47054687 -7.76953125 16.71484375 C-8.50558594 16.14894531 -9.24164063 15.58304688 -10 15 C-7.08785803 9.6237379 -3.75648099 4.82081727 0 0 Z " fill="#22364E" transform="translate(81,84)"/>
<path d="M0 0 C3.3875376 2.66163668 6.51748161 5.38945894 9.4375 8.5625 C9.95183594 9.12066406 10.46617188 9.67882812 10.99609375 10.25390625 C12 12 12 12 11.9296875 13.9140625 C10.65667134 16.77032564 8.88013582 18.59115536 6.6875 20.8125 C5.90761719 21.62332031 5.12773438 22.43414062 4.32421875 23.26953125 C2 25 2 25 0.03515625 25.078125 C-2.92954151 23.50757494 -4.93026956 21.34879875 -7.25 18.9375 C-8.14203125 18.01839844 -9.0340625 17.09929687 -9.953125 16.15234375 C-10.62859375 15.44207031 -11.3040625 14.73179688 -12 14 C-10.41332422 10.09714233 -7.86649519 7.66479018 -4.875 4.75 C-3.96492188 3.85796875 -3.05484375 2.9659375 -2.1171875 2.046875 C-1.41851562 1.37140625 -0.71984375 0.6959375 0 0 Z " fill="#23374E" transform="translate(105,58)"/>
<path d="M0 0 C5.96652354 1.57013777 10.82909025 4.75029782 16 8 C14.45454854 13.47932789 11.84456788 18.11429181 9 23 C2.77012202 22.49487476 -2.45474233 19.67395877 -8 17 C-6.3341708 10.83643195 -3.12194714 5.51740344 0 0 Z " fill="#23374E" transform="translate(62,113)"/>
<path d="M0 0 C0.83887056 2.43572059 1.67126529 4.87333217 2.5 7.3125 C2.85771484 8.34793945 2.85771484 8.34793945 3.22265625 9.40429688 C4.23208263 12.38931489 5 14.82658914 5 18 C2.75194998 18.67321284 0.50147776 19.33834123 -1.75 20 C-3.00296875 20.37125 -4.2559375 20.7425 -5.546875 21.125 C-9 22 -9 22 -13 22 C-13.70246995 20.1096624 -14.38640849 18.21243172 -15.0625 16.3125 C-15.44535156 15.25675781 -15.82820313 14.20101562 -16.22265625 13.11328125 C-17.05727329 9.77061903 -17.45093886 8.13832703 -16 5 C-13.6001062 3.7712301 -11.60365677 2.95563956 -9.0625 2.1875 C-8.41603516 1.97158203 -7.76957031 1.75566406 -7.10351562 1.53320312 C-2.41629464 0 -2.41629464 0 0 0 Z " fill="#23374D" transform="translate(465,144)"/>
<path d="M0 0 C3.01062735 1.79113273 4.06100234 4.41893617 5.6640625 7.4765625 C6.15036133 8.36214844 6.15036133 8.36214844 6.64648438 9.265625 C7.55859375 11 7.55859375 11 8.8515625 14.1015625 C7.8515625 17.1015625 7.8515625 17.1015625 5.015625 18.70703125 C3.84773438 19.22910156 2.67984375 19.75117188 1.4765625 20.2890625 C0.31382812 20.81886719 -0.84890625 21.34867188 -2.046875 21.89453125 C-5.1484375 23.1015625 -5.1484375 23.1015625 -8.1484375 23.1015625 C-9.34849281 21.0037102 -10.53346733 18.8995376 -11.7109375 16.7890625 C-12.22430664 15.89670898 -12.22430664 15.89670898 -12.74804688 14.98632812 C-13.62610012 13.39873691 -14.39430018 11.75162319 -15.1484375 10.1015625 C-13.80530529 6.07216586 -11.95804907 5.47139563 -8.3359375 3.3515625 C-7.27761719 2.71734375 -6.21929687 2.083125 -5.12890625 1.4296875 C-2.1484375 0.1015625 -2.1484375 0.1015625 0 0 Z " fill="#23374E" transform="translate(449.1484375,112.8984375)"/>
<path d="M0 0 C6.18160604 0.53753096 11.326858 2.54582388 17 5 C16.46246904 11.18160604 14.45417612 16.326858 12 22 C9.5409452 21.35681657 7.08276476 20.71057848 4.625 20.0625 C3.92632812 19.88009766 3.22765625 19.69769531 2.5078125 19.50976562 C-2.7734375 18.11328125 -2.7734375 18.11328125 -5 17 C-4.54619105 15.10307857 -4.08675008 13.20750405 -3.625 11.3125 C-3.36976562 10.25675781 -3.11453125 9.20101562 -2.8515625 8.11328125 C-2.08094511 5.29593234 -1.14501457 2.68331675 0 0 Z " fill="#22364D" transform="translate(47,145)"/>
<path d="M0 0 C3.465 7.92 3.465 7.92 7 16 C4.73125 17.32 2.4625 18.64 0.125 20 C-0.58769043 20.41765625 -1.30038086 20.8353125 -2.03466797 21.265625 C-6.77777778 24 -6.77777778 24 -9 24 C-11.64 18.72 -14.28 13.44 -17 8 C-14.751875 6.68 -12.50375 5.36 -10.1875 4 C-9.48391357 3.58234375 -8.78032715 3.1646875 -8.05541992 2.734375 C-3.33333333 0 -3.33333333 0 0 0 Z " fill="#22364D" transform="translate(164,20)"/>
<path d="M0 0 C1.32 5.28 2.64 10.56 4 16 C-1.8156306 18.46965135 -6.69206757 20.25926628 -13 21 C-13.83919398 18.73117913 -14.67151724 16.46022973 -15.5 14.1875 C-15.73847656 13.54490234 -15.97695312 12.90230469 -16.22265625 12.24023438 C-17.27068746 9.35066261 -18 7.09923939 -18 4 C-15.75438718 3.13237686 -13.50473745 2.2807897 -11.25 1.4375 C-10.61578125 1.19064453 -9.9815625 0.94378906 -9.328125 0.68945312 C-5.50383994 -0.72473562 -4.09110661 -1.02277665 0 0 Z " fill="#22364E" transform="translate(197,9)"/>
<path d="M0 0 C6.41991126 0.57065878 12.01589463 2.67344909 18 5 C16.49829538 10.98551772 15.05773837 16.61255621 12 22 C10.08191891 21.54762239 8.16557967 21.08785537 6.25 20.625 C4.64898437 20.24214844 4.64898437 20.24214844 3.015625 19.8515625 C0.44147278 19.12466459 -1.67600186 18.2973776 -4 17 C-2.91103333 11.24237834 -1.70663707 5.60752181 0 0 Z " fill="#22364D" transform="translate(315,8)"/>
<path d="M0 0 C4.42323682 0.58265272 7.5155864 2.26766211 11.3125 4.5625 C12.38113281 5.20316406 13.44976562 5.84382813 14.55078125 6.50390625 C15.35902344 6.99761719 16.16726563 7.49132812 17 8 C16.04416032 9.93873142 15.08523808 11.8759433 14.125 13.8125 C13.59132813 14.89144531 13.05765625 15.97039063 12.5078125 17.08203125 C11 20 11 20 9 23 C4.85701333 22.40165275 1.81805623 20.99335715 -1.8125 18.9375 C-2.78832031 18.38964844 -3.76414062 17.84179688 -4.76953125 17.27734375 C-5.50558594 16.85582031 -6.24164063 16.43429688 -7 16 C-5.35433477 10.31497465 -2.70967216 5.23318364 0 0 Z " fill="#22364D" transform="translate(348,20)"/>
<path d="M0 0 C5.94 0 11.88 0 18 0 C18 5.94 18 11.88 18 18 C15.215625 18.020625 12.43125 18.04125 9.5625 18.0625 C8.68408447 18.071604 7.80566895 18.08070801 6.90063477 18.09008789 C4.93354026 18.09723091 2.96646379 18.05031893 1 18 C0 17 0 17 -0.09765625 13.18359375 C-0.09191138 11.60152953 -0.07889593 10.01948969 -0.0625 8.4375 C-0.041875 5.653125 -0.02125 2.86875 0 0 Z " fill="#364757" transform="translate(264,230)"/>
<path d="M0 0 C1.58206422 0.00574487 3.16410406 0.01876032 4.74609375 0.03515625 C7.53046875 0.05578125 10.31484375 0.07640625 13.18359375 0.09765625 C13.18359375 6.03765625 13.18359375 11.97765625 13.18359375 18.09765625 C7.24359375 18.09765625 1.30359375 18.09765625 -4.81640625 18.09765625 C-4.83703125 15.31328125 -4.85765625 12.52890625 -4.87890625 9.66015625 C-4.88801025 8.78174072 -4.89711426 7.9033252 -4.90649414 6.99829102 C-4.91363716 5.03119651 -4.86672518 3.06412004 -4.81640625 1.09765625 C-3.81640625 0.09765625 -3.81640625 0.09765625 0 0 Z " fill="#364657" transform="translate(268.81640625,152.90234375)"/>
<path d="M0 0 C1.585869 3.171738 1.37866445 6.63513822 1.5625 10.125 C1.60568359 10.87910156 1.64886719 11.63320312 1.69335938 12.41015625 C1.7994832 14.27321888 1.90025001 16.13658524 2 18 C-3.80766296 19.5056904 -8.9981863 20.21824777 -15 20 C-15.50377768 17.73000175 -16.00290019 15.45896997 -16.5 13.1875 C-16.91765625 11.29064453 -16.91765625 11.29064453 -17.34375 9.35546875 C-18 6 -18 6 -18 3 C-12.03803595 1.43106209 -6.20647077 0 0 0 Z " fill="#22364E" transform="translate(230,1)"/>
<path d="M0 0 C0.50354867 2.43681587 1.00296756 4.87435439 1.5 7.3125 C1.64308594 8.00279297 1.78617187 8.69308594 1.93359375 9.40429688 C2.52625044 12.32524773 3 15.01108122 3 18 C-5.91 18.99 -5.91 18.99 -15 20 C-15.99 14.39 -16.98 8.78 -18 3 C-5.94642857 -0.21428571 -5.94642857 -0.21428571 0 0 Z " fill="#23374E" transform="translate(474,178)"/>
<path d="M0 0 C2.25036286 0.30987617 4.50027894 0.62299818 6.75 0.9375 C8.00296875 1.11152344 9.2559375 1.28554687 10.546875 1.46484375 C13.09982593 1.86049338 15.5186291 2.30446422 18 3 C17.69188262 5.45895618 17.37871012 7.91708307 17.0625 10.375 C16.97548828 11.07367188 16.88847656 11.77234375 16.79882812 12.4921875 C16.11328125 17.7734375 16.11328125 17.7734375 15 20 C12.74971671 19.85860519 10.49977794 19.71171997 8.25 19.5625 C6.37054688 19.44068359 6.37054688 19.44068359 4.453125 19.31640625 C1.81682447 19.07484478 -0.48037294 18.75716066 -3 18 C-2.69112547 15.56199034 -2.37805338 13.12464633 -2.0625 10.6875 C-1.97548828 9.99720703 -1.88847656 9.30691406 -1.79882812 8.59570312 C-1.40789865 5.59857712 -0.9584996 2.87549881 0 0 Z " fill="#23374E" transform="translate(38,178)"/>
<path d="M0 0 C4.1765625 0.4640625 4.1765625 0.4640625 8.4375 0.9375 C9.31591553 1.03281006 10.19433105 1.12812012 11.09936523 1.22631836 C16.88888889 1.88888889 16.88888889 1.88888889 18 3 C17.96164498 4.73187671 17.84349547 6.4622367 17.6875 8.1875 C17.56955078 9.60095703 17.56955078 9.60095703 17.44921875 11.04296875 C16.97004158 14.19720456 16.08678658 17.00579206 15 20 C12.9163691 19.85848172 10.83310062 19.71162064 8.75 19.5625 C7.58984375 19.48128906 6.4296875 19.40007813 5.234375 19.31640625 C2 19 2 19 -2 18 C-1.34 12.06 -0.68 6.12 0 0 Z " fill="#23364E" transform="translate(281,1)"/>
<path d="M0 0 C5.94 0 11.88 0 18 0 C18.125 12.375 18.125 12.375 17 18 C11.39 18 5.78 18 0 18 C0 12.06 0 6.12 0 0 Z " fill="#23374D" transform="translate(247,0)"/>
<path d="M0 0 C5.61 0 11.22 0 17 0 C17 5.61 17 11.22 17 17 C11.39 17 5.78 17 0 17 C0 11.39 0 5.78 0 0 Z " fill="#273A50" transform="translate(239,230)"/>
<path d="M0 0 C5.61 0 11.22 0 17 0 C17 5.61 17 11.22 17 17 C11.39 17 5.78 17 0 17 C0 11.39 0 5.78 0 0 Z " fill="#283B51" transform="translate(265,205)"/>
<path d="M0 0 C5.61 0 11.22 0 17 0 C17 5.61 17 11.22 17 17 C11.39 17 5.78 17 0 17 C0 11.39 0 5.78 0 0 Z " fill="#24384E" transform="translate(239,205)"/>
<path d="M0 0 C5.61 0 11.22 0 17 0 C17 5.61 17 11.22 17 17 C11.39 17 5.78 17 0 17 C0 11.39 0 5.78 0 0 Z " fill="#26394F" transform="translate(333,188)"/>
<path d="M0 0 C5.61 0 11.22 0 17 0 C17 5.61 17 11.22 17 17 C11.39 17 5.78 17 0 17 C0 11.39 0 5.78 0 0 Z " fill="#25394F" transform="translate(333,162)"/>
<path d="M0 0 C5.61 0 11.22 0 17 0 C17 5.61 17 11.22 17 17 C11.39 17 5.78 17 0 17 C0 11.39 0 5.78 0 0 Z " fill="#273A50" transform="translate(265,128)"/>
<path d="M0 0 C5.28 0 10.56 0 16 0 C16 5.61 16 11.22 16 17 C10.72 17 5.44 17 0 17 C0 11.39 0 5.78 0 0 Z " fill="#25384F" transform="translate(265,179)"/>
<path d="M0 0 C1.95115425 2.92673137 3.29645658 5.7129896 4.6875 8.9375 C5.14511719 9.97777344 5.60273438 11.01804687 6.07421875 12.08984375 C7.02210426 15.06948385 7.25974297 16.19309697 6 19 C3.4375 21.75 3.4375 21.75 1 24 C-2.36591866 22.55746343 -4.51047079 20.66735273 -7 18 C-5.06375702 11.79522136 -2.74390859 5.89174281 0 0 Z " fill="#CA595A" transform="translate(435,433)"/>
<path d="M0 0 C0.66 0 1.32 0 2 0 C3.06101016 2.4097519 4.09873228 4.82549854 5.125 7.25 C5.42792969 7.93191406 5.73085938 8.61382812 6.04296875 9.31640625 C8.17156199 14.41512959 8.17156199 14.41512959 7.3125 17.34375 C5.68433817 19.39833517 3.91545088 21.21224585 2 23 C-1.36591866 21.55746343 -3.51047079 19.66735273 -6 17 C-4.33846988 11.14340094 -2.52958084 5.5409866 0 0 Z " fill="#CB595A" transform="translate(255,434)"/>
<path d="M0 0 C2.98807037 2.54735203 4.27726991 5.35824598 5.8125 8.9375 C6.27269531 9.97777344 6.73289062 11.01804687 7.20703125 12.08984375 C8 15 8 15 7.26953125 17.23828125 C5.71284025 19.39848937 3.94396775 21.1856301 2 23 C-1.36573933 21.55754029 -3.75010389 19.916532 -6 17 C-5.57514336 12.93553816 -4.03740135 9.42060316 -2.4375 5.6875 C-1.75494141 4.08455078 -1.75494141 4.08455078 -1.05859375 2.44921875 C-0.53458984 1.23685547 -0.53458984 1.23685547 0 0 Z " fill="#CB595A" transform="translate(76,434)"/>
<path d="M0 0 C0.33 0 0.66 0 1 0 C1 4.62 1 9.24 1 14 C-1.97 14 -4.94 14 -8 14 C-6.67726488 10.40241608 -5.0805802 7.36262865 -2.9375 4.1875 C-2.14666016 3.00220703 -2.14666016 3.00220703 -1.33984375 1.79296875 C-0.89769531 1.20128906 -0.45554688 0.60960937 0 0 Z " fill="#DED4B0" transform="translate(212,242)"/>
</svg>
