<?xml version="1.0" encoding="UTF-8"?>
<svg version="1.1" xmlns="http://www.w3.org/2000/svg" width="512" height="512">
<path d="M0 0 C1.35714203 -0.00417985 2.71428056 -0.00966092 4.07141268 -0.01631981 C7.77684015 -0.03070798 11.48204394 -0.02655062 15.18748331 -0.019153 C19.19304874 -0.0144071 23.19856677 -0.02694372 27.20411682 -0.03717041 C35.04212762 -0.05433608 42.88005818 -0.05520305 50.71808289 -0.04995751 C57.09122434 -0.04591034 63.46434213 -0.04736585 69.83748245 -0.05270576 C71.19989386 -0.0538284 71.19989386 -0.0538284 72.58982874 -0.05497371 C74.43519763 -0.05650524 76.28056651 -0.05804359 78.12593539 -0.05958868 C95.41802206 -0.0733057 112.71006344 -0.06788169 130.00214906 -0.05640347 C145.80734203 -0.04647238 161.6124179 -0.05941103 177.41759281 -0.08333766 C193.66303779 -0.10774469 209.90842827 -0.11733255 226.15389121 -0.11068493 C235.2678039 -0.10719622 244.38162657 -0.10940175 253.49552536 -0.12693596 C261.25409196 -0.14167802 269.01250514 -0.14226725 276.7710688 -0.12486505 C280.72604141 -0.11636905 284.68074019 -0.11417093 288.63569832 -0.1295166 C292.26293485 -0.14341592 295.8896643 -0.13853417 299.51687188 -0.11927737 C301.43618333 -0.11377216 303.35552093 -0.12774507 305.27478254 -0.14263147 C317.30691077 -0.04116165 326.80066684 3.16237411 336.38809204 10.38768005 C337.25434204 10.96518005 338.12059204 11.54268005 339.01309204 12.13768005 C348.75204691 21.36405835 354.28663706 34.18801502 354.64878845 47.52296448 C354.6635371 49.41938704 354.66761133 51.3159134 354.66275024 53.21238708 C354.67041664 54.7775708 354.67041664 54.7775708 354.67823792 56.37437439 C354.69205497 59.79813996 354.69118367 63.22170255 354.68887329 66.64549255 C354.69276336 69.03724746 354.69709867 71.42900167 354.70185852 73.820755 C354.70930287 78.8220901 354.70904151 83.82335457 354.70376587 88.82469177 C354.69796084 95.22814505 354.71493608 101.63131005 354.73811054 108.03471565 C354.75284898 112.96927068 354.75371963 117.90375618 354.75060081 122.83832932 C354.75111354 125.19939115 354.75634221 127.56045693 354.76641273 129.92149734 C354.77876737 133.22177621 354.77199183 136.52149204 354.76040649 139.82176208 C354.76805023 140.79233551 354.77569397 141.76290894 354.78356934 142.76289368 C354.73523344 149.00165983 354.14754869 154.25608294 349.85293579 159.12986755 C343.86144301 163.57368573 339.81597836 164.14412675 332.38809204 163.38768005 C327.38579006 160.93200454 323.88957669 157.39064935 321.38809204 152.38768005 C321.38809204 148.09768005 321.38809204 143.80768005 321.38809204 139.38768005 C270.56809204 139.38768005 219.74809204 139.38768005 167.38809204 139.38768005 C167.38809204 163.80768005 167.38809204 188.22768005 167.38809204 213.38768005 C177.76955688 213.31807068 177.76955688 213.31807068 188.36074829 213.24705505 C192.7494352 213.22661311 197.13806327 213.20735705 201.52676392 213.19236755 C208.49034846 213.16847078 215.4537223 213.1402227 222.41714478 213.08592224 C228.03221888 213.04241094 233.64706697 213.01853148 239.26229668 213.00817108 C241.40289301 213.00078927 243.54347719 212.98637427 245.68397713 212.96475983 C248.68596093 212.93565615 251.68701489 212.93172704 254.68911743 212.93357849 C255.57097214 212.91919739 256.45282684 212.90481628 257.36140442 212.88999939 C263.20599552 212.92891629 266.59751091 213.98596982 271.38809204 217.38768005 C275.35940368 222.37727673 276.02654663 226.46494379 275.77481079 232.80174255 C275.03175635 237.77045003 272.45680999 240.39911595 268.88809204 243.70018005 C265.39247855 246.05971916 262.46289032 246.51344037 258.30050659 246.50793457 C257.09324165 246.50999657 257.09324165 246.50999657 255.86158752 246.51210022 C254.98764847 246.50850494 254.11370941 246.50490967 253.21328735 246.50120544 C251.82252739 246.50142448 251.82252739 246.50142448 250.40367126 246.50164795 C247.34116267 246.50095167 244.278715 246.49317254 241.21621704 246.4853363 C239.09201084 246.48347111 236.9678042 246.48204769 234.84359741 246.48104858 C229.25406709 246.47723136 223.66456277 246.46740783 218.07504272 246.4563446 C212.37080233 246.44611342 206.66655772 246.4415473 200.96231079 246.43650818 C189.77089312 246.42578488 178.57949474 246.40871796 167.38809204 246.38768005 C167.3991951 247.5600824 167.41029816 248.73248474 167.42173767 249.94041443 C167.52321986 261.00437723 167.59810858 272.06824525 167.6471529 283.13256836 C167.6732151 288.82050518 167.70855216 294.50806541 167.76528931 300.19578552 C167.81972847 305.68768501 167.84953798 311.17922291 167.86247826 316.67137146 C167.87169669 318.76371449 167.88969834 320.85603837 167.91674232 322.94822693 C167.9531904 325.88550643 167.95803075 328.82130352 167.95571899 331.7587738 C167.98268356 333.04811073 167.98268356 333.04811073 168.01019287 334.36349487 C167.95912289 340.38447702 166.51523216 344.88436774 162.38809204 349.38768005 C158.2931219 352.53199455 155.16413953 352.75928044 150.06721497 352.7484436 C149.34015407 352.75100688 148.61309318 352.75357015 147.86400014 352.7562111 C145.43324561 352.76114367 143.00311531 352.74466527 140.57241821 352.72825623 C138.82786066 352.72740984 137.08330205 352.72788533 135.33874512 352.72958374 C130.60562742 352.73044466 125.8727377 352.71280319 121.13967299 352.69186187 C116.19224309 352.67311124 111.24480798 352.6713459 106.29734802 352.66778564 C96.92994077 352.65846045 87.56263852 352.6338402 78.19527751 352.60373718 C67.53032486 352.57020798 56.8653672 352.55371087 46.20037496 352.53865087 C24.26288871 352.50729109 2.32549699 352.45452131 -19.61190796 352.38768005 C-19.54458915 359.05917666 -19.45465952 365.73010188 -19.34945679 372.40110779 C-19.31632744 374.66764012 -19.28825868 376.93425257 -19.26547241 379.20091248 C-19.23170561 382.47054493 -19.17937824 385.73945103 -19.12362671 389.0087738 C-19.11723679 390.01226364 -19.11084686 391.01575348 -19.10426331 392.0496521 C-18.95664444 399.21140166 -18.39852733 406.3688424 -13.36190796 411.82518005 C-6.85353816 415.52311744 -0.67635714 415.6751976 6.63442993 415.64305115 C8.14306358 415.64848183 8.14306358 415.64848183 9.68217468 415.65402222 C11.85650287 415.6608929 14.03084822 415.66342604 16.20518684 415.66207504 C19.64781937 415.66110713 23.090142 415.6740824 26.5327301 415.6910553 C36.31725706 415.73725649 46.1017507 415.76194438 55.88638306 415.76853943 C61.87922409 415.77355205 67.87173894 415.79778452 73.86446953 415.83386612 C76.14539063 415.8436649 78.42635657 415.84599566 80.70729256 415.84069443 C83.89560011 415.83362922 87.08293323 415.85089415 90.27114868 415.8735199 C91.21105652 415.86534744 92.15096436 415.85717499 93.11935425 415.84875488 C98.71879362 415.91943685 101.95109639 416.6419696 106.38809204 420.38768005 C110.01642868 424.20698177 110.69809662 427.27047011 110.88809204 432.38768005 C110.69809662 437.50488999 110.01642868 440.56837833 106.38809204 444.38768005 C100.99759674 449.03467948 96.3751716 448.96007123 89.43252563 448.90525818 C88.33901794 448.91226746 87.24551025 448.91927673 86.11886597 448.92649841 C82.50782783 448.94408561 78.89757554 448.93244738 75.28652954 448.91893005 C72.76794281 448.9216259 70.2493571 448.9255091 67.73077393 448.93052673 C62.44996171 448.93642376 57.16935246 448.92823993 51.88858032 448.90916443 C45.81164769 448.88746431 39.7352534 448.89439908 33.65833414 448.91647005 C27.78607333 448.93693293 21.91401434 448.93460728 16.0417366 448.92294312 C13.55642241 448.92028714 11.07109436 448.92350551 8.58579636 448.93286133 C5.09684585 448.94310791 1.60890191 448.92740856 -1.87997437 448.90525818 C-2.89338898 448.9133551 -3.90680359 448.92145203 -4.95092773 448.92979431 C-18.71303938 448.76927647 -29.40479703 443.31328735 -39.36190796 434.07518005 C-50.11913945 422.70904867 -52.06687645 410.26539868 -51.99958801 395.14332581 C-52.00376632 393.60881788 -52.00924655 392.07431304 -52.01590782 390.53981388 C-52.03031606 386.34412712 -52.02613224 382.14863757 -52.01874101 377.95294023 C-52.01400016 373.41976486 -52.02652731 368.8866316 -52.03675842 364.35346985 C-52.05393386 355.48073252 -52.05478903 346.60806605 -52.04954552 337.73531641 C-52.0455002 330.52169142 -52.04695167 323.30808734 -52.05229378 316.09446335 C-52.0530422 315.06684854 -52.05379062 314.03923373 -52.05456172 312.98047908 C-52.05609324 310.89271919 -52.05763159 308.80495931 -52.05917669 306.71719943 C-52.07289722 287.14890426 -52.06746721 267.58064909 -52.05599148 248.01235484 C-52.04605985 230.12171234 -52.05899937 212.23117328 -52.08292567 194.34054674 C-52.10732523 175.95711972 -52.11692241 157.57374085 -52.11027294 139.19029796 C-52.1067826 128.87472518 -52.10900062 118.55923193 -52.12652397 108.24367142 C-52.14125665 99.46220231 -52.14186744 90.68086875 -52.12445306 81.89940228 C-52.11594945 77.4219221 -52.11377786 72.94468395 -52.12910461 68.46721649 C-52.14298078 64.36259138 -52.13815123 60.25841497 -52.11886538 56.15381561 C-52.11511401 54.67477347 -52.11800232 53.19569512 -52.12847703 51.71668531 C-52.23301526 35.81623396 -48.1362637 24.31797033 -37.29940796 12.63768005 C-26.47167986 2.39000882 -14.47455119 -0.06999689 0 0 Z M-19.61190796 139.38768005 C-19.61190796 163.80768005 -19.61190796 188.22768005 -19.61190796 213.38768005 C31.20809204 213.38768005 82.02809204 213.38768005 134.38809204 213.38768005 C134.38809204 188.96768005 134.38809204 164.54768005 134.38809204 139.38768005 C83.56809204 139.38768005 32.74809204 139.38768005 -19.61190796 139.38768005 Z M-19.61190796 246.38768005 C-19.61190796 270.80768005 -19.61190796 295.22768005 -19.61190796 320.38768005 C31.20809204 320.38768005 82.02809204 320.38768005 134.38809204 320.38768005 C134.38809204 295.96768005 134.38809204 271.54768005 134.38809204 246.38768005 C83.56809204 246.38768005 32.74809204 246.38768005 -19.61190796 246.38768005 Z " fill="#000000" transform="translate(51.611907958984375,-0.3876800537109375)"/>
<path d="M0 0 C8.51168894 7.2295535 16.48184949 15.18284974 24.42871094 23.02368164 C25.64388007 24.21718623 26.86527723 25.40438235 28.09277344 26.58520508 C39.9964412 38.04430471 50.02798868 50.07509536 50.43164062 67.42236328 C50.47233172 86.1911313 43.7805147 98.47906947 30.62983358 111.77139664 C29.85958463 112.53495342 29.08933568 113.29851021 28.29574585 114.08520508 C27.45601561 114.92961529 26.61628537 115.7740255 25.75110877 116.6440239 C23.44879862 118.95613866 21.14000492 121.26152774 18.82811642 123.56405759 C16.32508682 126.0602435 13.83077438 128.56511613 11.33528137 131.0688324 C6.45848958 135.95890452 1.5736952 140.84090458 -3.31410004 145.71997589 C-7.28629497 149.68537599 -11.25552815 153.65371846 -15.22269821 157.62414551 C-15.78883101 158.190738 -16.35496381 158.7573305 -16.93825214 159.34109247 C-18.08851717 160.49231672 -19.23877548 161.64354768 -20.38902716 162.79478526 C-31.15175821 173.56605248 -41.92363339 184.32813712 -52.69870274 195.08705974 C-61.94010307 204.31504031 -71.17358438 213.55088338 -80.40136719 222.79248047 C-91.13144077 233.53860989 -101.86636528 244.27985485 -112.6090759 255.01335239 C-113.75436798 256.15768886 -114.89965381 257.30203157 -116.04493332 258.44638062 C-116.60837175 259.00935622 -117.17181018 259.57233182 -117.7523225 260.15236729 C-121.71931275 264.11676902 -125.68281494 268.08463748 -129.64497757 272.05386353 C-134.47078589 276.88808626 -139.30190442 281.71692565 -144.13990451 286.53894824 C-146.60721295 288.99837604 -149.07206854 291.46013475 -151.53047371 293.92846489 C-154.19668606 296.60285436 -156.87193355 299.26786389 -159.54971313 301.93066406 C-160.32442353 302.71206662 -161.09913392 303.49346918 -161.89732039 304.29855061 C-166.87534728 309.22257134 -171.39905338 312.56824894 -178.31654358 314.2339325 C-179.12217743 314.43158203 -179.92781128 314.62923157 -180.75785828 314.83287048 C-182.05539787 315.13929222 -182.05539787 315.13929222 -183.37915039 315.4519043 C-184.30524109 315.6766745 -185.23133179 315.9014447 -186.18548584 316.13302612 C-189.23770292 316.87132187 -192.29244693 317.5984122 -195.34765625 318.32421875 C-197.48275618 318.83536887 -199.61780071 319.34675046 -201.75279236 319.85835266 C-206.22774769 320.92853566 -210.70411204 321.99258432 -215.18139648 323.05297852 C-220.89181171 324.40643227 -226.59717357 325.77999912 -232.30147648 327.15895367 C-236.71144047 328.22169492 -241.12452759 329.2709802 -245.53857231 330.31662941 C-247.64181882 330.81705502 -249.74395918 331.32215542 -251.84489632 331.83218956 C-278.66061108 338.32758765 -278.66061108 338.32758765 -286.29945374 334.99760437 C-290.29043039 332.54338674 -292.56460378 329.4750588 -294 325 C-294.56710665 318.0583277 -293.56031151 311.68835189 -291.9362793 304.96386719 C-291.71676605 304.01619476 -291.49725281 303.06852234 -291.27108765 302.09213257 C-290.54970952 298.99104376 -289.81243121 295.89399573 -289.07421875 292.796875 C-288.56498537 290.62853401 -288.05651877 288.46001281 -287.54878235 286.2913208 C-286.48556993 281.76088788 -285.41474348 277.23234578 -284.33813477 272.70507812 C-282.96017089 266.90886471 -281.59885221 261.10889854 -280.24287701 255.30750656 C-279.195996 250.83486641 -278.14160722 246.3640233 -277.08481789 241.8937149 C-276.58006076 239.75560223 -276.07733429 237.6170091 -275.5766964 235.47792816 C-274.87585482 232.48965259 -274.16524107 229.5038686 -273.4519043 226.51855469 C-273.24762314 225.63946442 -273.04334198 224.76037415 -272.83287048 223.85464478 C-272.63522095 223.03626129 -272.43757141 222.21787781 -272.2339325 221.37469482 C-272.06708797 220.67052807 -271.90024343 219.96636131 -271.72834301 219.24085617 C-269.37494641 212.00027964 -265.06569824 207.63813233 -259.77207947 202.38439941 C-258.49862438 201.10286602 -258.49862438 201.10286602 -257.19944292 199.79544306 C-254.84797309 197.43215628 -252.48997077 195.07575617 -250.12890875 192.7220757 C-247.58144627 190.1793466 -245.04262601 187.62801304 -242.50265503 185.07780457 C-237.52703403 180.08499168 -232.54326612 175.10038873 -227.55642378 170.11878622 C-223.50137089 166.06777671 -219.44907263 162.01403119 -215.39871407 157.95832825 C-214.82195727 157.38082302 -214.24520047 156.8033178 -213.65096619 156.20831242 C-212.47921169 155.03502642 -211.30746062 153.861737 -210.13571293 152.6884442 C-199.14706312 141.6860671 -188.14884705 130.69329183 -177.14759815 119.70351464 C-167.09285974 109.65870153 -157.0495906 99.60251132 -147.01179116 89.54077345 C-136.69775745 79.20232876 -126.37633095 68.87131974 -116.04676157 58.54839659 C-110.25055878 52.75568251 -104.45723836 46.96015687 -98.67155266 41.15693665 C-93.74439601 36.21503274 -88.8102148 31.28027399 -83.86698782 26.35444272 C-81.34731275 23.84326057 -78.83088744 21.3290439 -76.3231411 18.80594444 C-73.59854303 16.06487362 -70.85846421 13.339613 -68.11680603 10.61560059 C-67.33477261 9.82396216 -66.55273919 9.03232373 -65.74700779 8.21669626 C-48.15974835 -9.13921514 -21.3988428 -13.97732431 0 0 Z " fill="#000000" transform="translate(462,176)"/>
<path d="M0 0 C1.11148509 -0.00445784 2.22297019 -0.00891569 3.36813664 -0.01350862 C4.59943075 -0.01332426 5.83072485 -0.01313989 7.0993309 -0.01294994 C9.04952389 -0.01846498 9.04952389 -0.01846498 11.03911471 -0.02409142 C14.66011591 -0.03412835 18.28110053 -0.03783093 21.90211368 -0.04048073 C25.80271407 -0.04437878 29.70330128 -0.05395746 33.60389328 -0.0626936 C43.02993731 -0.08247225 52.45598245 -0.09252603 61.88204205 -0.10142139 C66.31833092 -0.10580203 70.7546186 -0.11116942 75.19090652 -0.11641026 C89.93374127 -0.133424 104.67657527 -0.14791885 119.41941833 -0.155159 C123.24678422 -0.15706897 127.0741501 -0.15898929 130.90151596 -0.16094494 C132.32846783 -0.16167055 132.32846783 -0.16167055 133.78424701 -0.16241082 C149.19953594 -0.17071359 164.61474733 -0.19605403 180.03000239 -0.22852562 C195.84800983 -0.26157458 211.66597784 -0.2796058 227.48401999 -0.28280324 C236.36872015 -0.28497035 245.25330723 -0.29374838 254.13797379 -0.31926441 C261.70365503 -0.3409419 269.26919575 -0.34903643 276.83490452 -0.33929763 C280.69592964 -0.3347443 284.55666465 -0.33669869 288.41765022 -0.35605907 C292.60203244 -0.3768601 296.78576768 -0.36673329 300.97018051 -0.35352612 C302.19255173 -0.36449536 303.41492295 -0.37546461 304.67433572 -0.38676625 C310.85996646 -0.33945591 315.05677774 -0.28338688 319.78872299 4.13422108 C334.97727683 22.36048568 324.78872299 51.40894154 324.78872299 75.13422108 C212.25872299 75.13422108 99.72872299 75.13422108 -16.21127701 75.13422108 C-16.21127701 11.13422108 -16.21127701 11.13422108 -12.21127701 5.13422108 C-7.93729916 1.36905012 -5.64812395 0.01046809 0 0 Z " fill="#41A4F3" transform="translate(48.21127700805664,31.865778923034668)"/>
<path d="M0 0 C4.15701684 3.49808774 8.17800579 7.05384514 12.01733398 10.90380859 C12.93775986 11.82431 13.85818573 12.7448114 14.8065033 13.69320679 C15.78642152 14.67822924 16.76628374 15.66330741 17.74609375 16.6484375 C18.76720048 17.67141306 19.788531 18.69416528 20.81007385 19.71670532 C23.47711353 22.38753361 26.14113436 25.06135282 28.80450439 27.73583984 C31.5312385 30.47286736 34.26086305 33.20700901 36.99023438 35.94140625 C42.32963089 41.29147548 47.66583652 46.64471273 53 52 C51.4071122 55.90635934 48.73458745 58.56740361 45.80450439 61.5032959 C45.269561 62.0470038 44.73461761 62.5907117 44.18346381 63.1508956 C42.38914307 64.97193032 40.58771696 66.78576223 38.78613281 68.59960938 C37.49786621 69.90368323 36.20996727 71.20812039 34.92240906 72.51289368 C30.69027084 76.79742631 26.44725712 81.07110284 22.203125 85.34375 C20.74045971 86.81713779 19.27781074 88.29054178 17.81517792 89.76396179 C11.72720398 95.89519229 5.63633845 102.02352597 -0.46203232 108.14441681 C-9.18901853 116.90384616 -17.8986465 125.6797425 -26.58464122 134.4798274 C-32.69973113 140.67246888 -38.83401279 146.84568102 -44.98271871 153.00494432 C-48.6510228 156.68053646 -52.31057722 160.36392718 -55.94985199 164.06828308 C-59.37867288 167.55753374 -62.83081796 171.02194046 -66.30168724 174.46935081 C-67.56562802 175.7328523 -68.82117122 177.00482463 -70.06711006 178.28608131 C-78.20018788 186.63682404 -84.27816984 190.87137479 -96 193 C-98.060597 193.4890305 -100.11953267 193.98518393 -102.17578125 194.4921875 C-104.22053463 194.95674704 -106.26613206 195.41760498 -108.3125 195.875 C-115.24114557 197.44296282 -122.16300575 199.02642122 -129.0625 200.71875 C-130.76152466 201.13471436 -130.76152466 201.13471436 -132.49487305 201.55908203 C-134.66153176 202.09193753 -136.82711749 202.62918034 -138.99145508 203.17138672 C-140.45941528 203.53127686 -140.45941528 203.53127686 -141.95703125 203.8984375 C-142.81272705 204.11161621 -143.66842285 204.32479492 -144.55004883 204.54443359 C-147.08810971 205.01638393 -149.42448827 205.08115927 -152 205 C-149.5699402 192.88167546 -146.83320644 180.84175088 -144 168.8125 C-143.74923706 167.74566986 -143.74923706 167.74566986 -143.4934082 166.6572876 C-141.24095749 157.08547353 -141.24095749 157.08547353 -140.58666611 154.54923725 C-140.13047892 152.56696938 -139.77886367 150.56052601 -139.47000504 148.5500288 C-137.38497933 136.44666236 -131.70831157 130.04198633 -123.06152344 121.69921875 C-121.71846864 120.3595562 -120.37806526 119.01723112 -119.0401001 117.67248535 C-115.43044734 114.05941462 -111.78523386 110.48433659 -108.13206768 106.91534042 C-104.30946158 103.16817458 -100.52121334 99.38658406 -96.72906494 95.60864258 C-89.55651927 88.47327063 -82.3539638 81.36901968 -75.13989091 74.27566242 C-66.92269502 66.19298313 -58.73988559 58.07586199 -50.55966902 49.95578575 C-33.74421105 33.26547806 -16.88640632 16.61850073 0 0 Z " fill="#41A3F3" transform="translate(358,269)"/>
<path d="M0 0 C5.4504869 2.61290114 9.36350022 5.96038651 13.57879639 10.25154114 C14.2460675 10.91735703 14.91333862 11.58317291 15.60083008 12.26916504 C17.00051095 13.67049633 18.39528988 15.07673944 19.78533936 16.48762512 C21.90267229 18.6339526 24.03808814 20.76095413 26.17645264 22.88630676 C27.54084991 24.25694152 28.90416847 25.62865109 30.26629639 27.00154114 C30.89864197 27.63095108 31.53098755 28.26036102 32.18249512 28.90884399 C36.69505453 33.5176796 41.70348059 38.87641058 41.78192139 45.70075989 C41.09156512 55.29294762 32.50424168 62.39316279 26.03973389 68.73591614 C25.18257782 69.58882736 24.32542175 70.44173859 23.44229126 71.32049561 C20.72918803 74.01693724 18.00579334 76.70270142 15.28192139 79.38825989 C13.42966606 81.22545227 11.57809648 83.06333629 9.72723389 84.90193176 C5.21169415 89.38456843 0.68767985 93.85850865 -3.84307861 98.32575989 C-7.62609088 96.75632305 -10.01564409 94.39474711 -12.88702393 91.50886536 C-13.37528656 91.02089478 -13.86354919 90.53292419 -14.36660767 90.03016663 C-15.97292823 88.42245714 -17.57205574 86.80778888 -19.17120361 85.19294739 C-20.28606178 84.07435754 -21.40136348 82.95620959 -22.51708984 81.83848572 C-25.4477847 78.90016664 -28.37242283 75.95589034 -31.2958374 73.0103302 C-34.28190587 70.00377726 -37.2736672 67.00290107 -40.26495361 64.00154114 C-46.12991317 58.11515303 -51.98848593 52.22245889 -57.84307861 46.32575989 C-53.26159484 40.8406554 -48.41247667 35.72022306 -43.37432861 30.65388489 C-42.57579468 29.84965088 -41.77726074 29.04541687 -40.95452881 28.21681213 C-39.27505679 26.5279436 -37.59416504 24.84048583 -35.91192627 23.15437317 C-33.343973 20.57665767 -30.7868828 17.98846946 -28.22979736 15.39997864 C-26.59113437 13.75478982 -24.95183311 12.11023644 -23.31182861 10.46638489 C-22.55228882 9.69449829 -21.79274902 8.92261169 -21.01019287 8.12733459 C-15.07438409 2.21623486 -8.90878771 -3.25903734 0 0 Z " fill="#8EC8F6" transform="translate(438.84307861328125,200.6742401123047)"/>
</svg>
