<?xml version="1.0" encoding="UTF-8"?>
<svg version="1.1" xmlns="http://www.w3.org/2000/svg" width="512" height="512">
<path d="M0 0 C1.20672867 -0.01925285 1.20672867 -0.01925285 2.43783569 -0.03889465 C3.30349152 -0.04628159 4.16914734 -0.05366852 5.06103516 -0.0612793 C6.4019371 -0.07338692 6.4019371 -0.07338692 7.76992798 -0.08573914 C9.66121488 -0.09956575 11.55252659 -0.11029427 13.44384766 -0.11816406 C16.3323495 -0.13539219 19.21971103 -0.17929215 22.10791016 -0.22338867 C23.94644342 -0.23351472 25.78498639 -0.2420311 27.62353516 -0.2487793 C28.48514252 -0.26628738 29.34674988 -0.28379547 30.23446655 -0.30183411 C34.33021959 -0.28705543 36.44306251 -0.15254733 40.00097656 2.05126953 C42.31668077 4.54481844 42.89241995 5.78721595 42.97509766 9.17700195 C41.91110692 12.98963542 41.34993256 13.92711202 37.97509766 16.17700195 C35.00118705 16.34922543 32.12306847 16.40894396 29.15087891 16.37231445 C28.289478 16.36948456 27.42807709 16.36665466 26.54057312 16.36373901 C23.78943997 16.35254433 21.03863241 16.32744116 18.28759766 16.30200195 C16.42236798 16.29197123 14.55713321 16.28284554 12.69189453 16.2746582 C8.11940256 16.25430888 3.54761455 16.21515926 -1.02490234 16.17700195 C-1.02490234 25.74700195 -1.02490234 35.31700195 -1.02490234 45.17700195 C134.93509766 45.17700195 270.89509766 45.17700195 410.97509766 45.17700195 C410.97509766 35.60700195 410.97509766 26.03700195 410.97509766 16.17700195 C406.66179382 16.1858844 402.34848999 16.19476685 397.90447998 16.20391846 C358.37849624 16.28346319 318.85252196 16.34320472 279.32647572 16.38126327 C274.14929095 16.38626628 268.97210637 16.39144355 263.79492188 16.39672852 C262.76420902 16.39777776 261.73349617 16.398827 260.67154959 16.39990804 C243.96795159 16.41732778 227.26440848 16.44887409 210.56084308 16.48561314 C193.4298392 16.52297893 176.29886413 16.54522856 159.16782117 16.55335593 C148.59142529 16.55885277 138.01518456 16.57623295 127.43883643 16.60866782 C120.19271533 16.6297619 112.94667479 16.63621362 105.70052519 16.63100746 C101.51572249 16.6284377 97.33119146 16.632461 93.14643669 16.65382385 C89.31817422 16.67322478 85.49036726 16.67431451 81.66208425 16.66059753 C80.27439536 16.65890111 78.88667857 16.6640303 77.49904498 16.67653468 C75.61785681 16.69250612 73.73649704 16.68157809 71.85528183 16.66919327 C70.8087726 16.67071215 69.76226337 16.67223103 68.68404174 16.67379594 C65.28024292 16.04957236 64.11878323 14.83292767 61.97509766 12.17700195 C60.78258184 9.53643122 60.9063995 8.4330587 61.66259766 5.61450195 C63.16714007 2.82035176 64.26496241 1.80285143 66.97509766 0.17700195 C69.68766046 -0.20019621 69.68766046 -0.20019621 72.86417007 -0.20331478 C74.07593894 -0.21175472 75.28770781 -0.22019466 76.53619695 -0.22889036 C77.88271405 -0.22309494 79.22922996 -0.2170139 80.57574463 -0.2106781 C82.0048053 -0.21484974 83.43386266 -0.22032631 84.86291385 -0.22699791 C88.79484337 -0.24149427 92.72656404 -0.23719477 96.6585052 -0.2298311 C100.89722985 -0.22511192 105.1359085 -0.23759833 109.37461853 -0.24784851 C117.68134576 -0.26506776 125.98799745 -0.26586988 134.29473791 -0.26063561 C141.04658469 -0.25659768 147.79840911 -0.25803298 154.55025482 -0.26338387 C155.51045343 -0.26413229 156.47065204 -0.26488071 157.45994757 -0.26565181 C159.41049459 -0.26718326 161.36104161 -0.26872161 163.31158862 -0.27026678 C181.61549364 -0.28400368 199.91935596 -0.27854628 218.22326002 -0.26708157 C234.96918051 -0.25715283 251.71499046 -0.27008152 268.4608939 -0.29401576 C285.65081931 -0.31839963 302.84069323 -0.32801608 320.0306356 -0.32136303 C329.68330075 -0.3178686 339.33588092 -0.3201174 348.98853302 -0.33761406 C357.20775689 -0.35232734 365.42683597 -0.35298318 373.64605698 -0.33554315 C377.83946834 -0.32702263 382.03262095 -0.32490903 386.22601891 -0.3401947 C390.0666919 -0.35402116 393.90688398 -0.34930527 397.747529 -0.32995547 C399.13515894 -0.32618875 400.52282722 -0.32913685 401.91042307 -0.33956712 C409.69902168 -0.39393792 415.36215718 -0.12741175 421.97509766 4.17700195 C424.5517635 6.8858045 425.79614693 8.64014978 426.97509766 12.17700195 C426.88968866 13.94133765 426.79672468 15.70584674 426.65385437 17.46646118 C424.33664877 46.90157046 433.57653531 66.92489069 448.01318359 92.03027344 C448.74800964 93.30945145 448.74800964 93.30945145 449.49768066 94.61447144 C450.48101628 96.32003428 451.47034821 98.02215427 452.46569824 99.72073364 C459.27738193 111.48152682 462.50234675 120.98011027 461.94921875 134.63427734 C461.84904813 137.14076342 461.82614037 139.63938044 461.81494141 142.14770508 C461.61383062 156.56300387 459.18044497 169.49917782 448.93994141 180.3293457 C442.09547754 186.81166863 435.28643925 190.62511169 425.97509766 192.17700195 C425.97509766 260.48700195 425.97509766 328.79700195 425.97509766 399.17700195 C430.26509766 399.17700195 434.55509766 399.17700195 438.97509766 399.17700195 C445.82802329 400.26949734 452.15450299 402.60238693 456.55322266 408.17700195 C460.14851344 413.79722663 461.13972322 418.29742722 461.17822266 424.95043945 C461.18392273 425.71119781 461.1896228 426.47195618 461.19549561 427.25576782 C461.20493514 428.86458957 461.21147543 430.47343057 461.21533203 432.08227539 C461.22503466 434.53607111 461.25606546 436.98902785 461.28759766 439.44262695 C461.2941285 441.00772616 461.29937865 442.57283134 461.30322266 444.13793945 C461.31556946 444.86830414 461.32791626 445.59866882 461.34063721 446.35116577 C461.32125035 450.81280933 460.95401516 453.78152161 457.97509766 457.17700195 C452.62907501 459.97035237 448.42292551 460.60908545 442.4495697 460.55452538 C441.61291011 460.5588857 440.77625053 460.56324602 439.91423762 460.56773847 C437.11005888 460.57868879 434.30637244 460.56827371 431.50219727 460.55795288 C429.47174039 460.56140952 427.44128538 460.56617413 425.41083431 460.57213461 C419.83053875 460.58467328 414.25039685 460.57846113 408.67010069 460.56917596 C402.65229971 460.56239757 396.63452544 460.57286069 390.61672974 460.58111572 C379.50909116 460.59369627 368.40149492 460.59258984 357.29385605 460.58438132 C347.03255853 460.57683544 336.77127898 460.57486418 326.50997925 460.57844925 C325.4891009 460.57879298 325.4891009 460.57879298 324.44759875 460.57914366 C321.68489855 460.58007767 318.92219836 460.58103287 316.15949818 460.58202295 C290.24184163 460.5912005 264.32421631 460.58287869 238.40656458 460.56673226 C215.37893647 460.55249538 192.35135814 460.55376926 169.32373047 460.56811523 C143.45355878 460.5841782 117.5834147 460.59054964 91.71323872 460.58127844 C88.95556451 460.58031629 86.19789029 460.57937777 83.44021606 460.57844925 C82.76120349 460.57821202 82.08219092 460.57797479 81.38260221 460.57773036 C71.12760899 460.57431756 60.87263572 460.57830949 50.61764526 460.58588791 C38.95757185 460.59446171 27.29754581 460.59204061 15.63747764 460.57604568 C9.68629479 460.56815157 3.73521305 460.56509083 -2.21596909 460.57499313 C-7.6613048 460.58391683 -13.10644545 460.57904546 -18.55176342 460.56306048 C-20.52407287 460.55970282 -22.49639872 460.56142875 -24.46869767 460.56868784 C-27.14582548 460.57778702 -29.82228182 460.56847727 -32.49937439 460.55452538 C-33.65279628 460.56506062 -33.65279628 460.56506062 -34.82951963 460.5758087 C-39.93014762 460.52254163 -43.48696033 459.54944816 -48.02490234 457.17700195 C-51.42468519 453.26888097 -51.47893081 449.28853932 -51.45849609 444.3137207 C-51.46373795 443.56290726 -51.4689798 442.81209381 -51.47438049 442.03852844 C-51.48078444 440.45424633 -51.47948478 438.86991658 -51.47094727 437.28564453 C-51.46246415 434.88201487 -51.49117329 432.48078617 -51.52294922 430.07739258 C-51.56645732 420.57504936 -51.05622125 413.97100281 -44.71240234 406.42700195 C-35.67639295 398.86197083 -28.13698563 399.17700195 -16.02490234 399.17700195 C-16.02490234 330.86700195 -16.02490234 262.55700195 -16.02490234 192.17700195 C-18.99490234 191.51700195 -21.96490234 190.85700195 -25.02490234 190.17700195 C-36.68488891 184.77658712 -44.58691866 175.80564702 -49.14990234 163.9387207 C-56.70973775 140.0779902 -52.4124141 116.59534437 -41.24020386 94.93179321 C-35.8458888 84.71696706 -30.36962039 74.52187191 -24.26000977 64.71362305 C-17.56966213 53.65696521 -16.85449433 44.31148176 -17.21240234 31.55200195 C-17.25910625 28.8847973 -17.29232469 26.21877396 -17.30329895 23.55117798 C-17.31271308 21.91138408 -17.343361 20.2715126 -17.39970398 18.63265991 C-17.47034928 12.98873734 -16.28065371 9.81574353 -13.02490234 5.17700195 C-8.79420155 1.89605032 -5.3555151 0.07461008 0 0 Z M-4.02490234 61.17700195 C-9.98063441 72.49289287 -15.91260831 83.78669031 -21.61523438 95.22729492 C-22.68232733 97.36702025 -23.7538726 99.50448037 -24.82568359 101.6418457 C-25.50953497 103.01020656 -26.19313936 104.3786909 -26.87646484 105.74731445 C-27.19507477 106.38251007 -27.51368469 107.01770569 -27.84194946 107.67214966 C-29.37329044 110.30169743 -29.37329044 110.30169743 -30.02490234 113.17700195 C-12.86490234 113.17700195 4.29509766 113.17700195 21.97509766 113.17700195 C26.17039671 102.3890901 30.33991676 91.64337024 34.20288086 80.73925781 C34.93207262 78.68462771 35.6693249 76.63299066 36.40673828 74.58129883 C36.87662053 73.26050638 37.34604089 71.9395495 37.81494141 70.6184082 C38.23122803 69.44995361 38.64751465 68.28149902 39.07641602 67.07763672 C40.12306966 64.20550949 40.12306966 64.20550949 39.97509766 61.17700195 C25.45509766 61.17700195 10.93509766 61.17700195 -4.02490234 61.17700195 Z M57.97509766 61.17700195 C54.97064822 68.3876806 52.03696976 75.50335427 49.42431641 82.8449707 C49.12064651 83.69126541 48.81697662 84.53756012 48.50410461 85.40950012 C47.87342259 87.16912264 47.24420874 88.92927206 46.61645508 90.68994141 C45.65045931 93.39853717 44.67933202 96.10525398 43.70751953 98.81176758 C43.09198895 100.5310626 42.47674365 102.25045979 41.86181641 103.9699707 C41.57126877 104.78024216 41.28072113 105.59051361 40.98136902 106.42533875 C39.58985568 109.72516995 39.58985568 109.72516995 38.97509766 113.17700195 C56.46509766 113.17700195 73.95509766 113.17700195 91.97509766 113.17700195 C94.5278085 102.96615857 97.02439795 92.79241019 99.26757812 82.51782227 C99.73430986 80.38490309 100.20812701 78.2536284 100.68212891 76.12231445 C100.9833349 74.75001178 101.28413239 73.37761936 101.58447266 72.00512695 C101.85227539 70.78728516 102.12007812 69.56944336 102.39599609 68.31469727 C103.09609592 65.05318902 103.09609592 65.05318902 102.97509766 61.17700195 C88.12509766 61.17700195 73.27509766 61.17700195 57.97509766 61.17700195 Z M119.97509766 61.17700195 C118.77356991 64.78158518 117.70878374 68.00151042 116.921875 71.65014648 C116.74183929 72.47765411 116.56180359 73.30516174 116.37631226 74.15774536 C116.18977081 75.03292816 116.00322937 75.90811096 115.81103516 76.80981445 C115.61410065 77.72407196 115.41716614 78.63832947 115.21426392 79.58029175 C114.80080873 81.50457897 114.38908778 83.42923955 113.97900391 85.35424805 C113.350461 88.30029894 112.713903 91.24454092 112.07666016 94.1887207 C111.67513422 96.0623149 111.2740764 97.9360095 110.87353516 99.80981445 C110.68294525 100.68904572 110.49235535 101.56827698 110.29598999 102.47415161 C110.03539291 103.70595657 110.03539291 103.70595657 109.76953125 104.96264648 C109.53875381 106.0413652 109.53875381 106.0413652 109.30331421 107.14187622 C108.86895201 109.49159378 108.86895201 109.49159378 108.97509766 113.17700195 C126.46509766 113.17700195 143.95509766 113.17700195 161.97509766 113.17700195 C163.21930255 100.73495299 164.37812127 88.39357745 165.10009766 75.92700195 C165.38884766 71.05950195 165.67759766 66.19200195 165.97509766 61.17700195 C150.79509766 61.17700195 135.61509766 61.17700195 119.97509766 61.17700195 Z M181.97509766 61.17700195 C181.32370044 64.43398802 180.81705685 67.26632886 180.58618164 70.52075195 C180.49620155 71.75728516 180.49620155 71.75728516 180.40440369 73.01879883 C180.34394363 73.89600586 180.28348358 74.77321289 180.22119141 75.67700195 C180.15601822 76.59030273 180.09084503 77.50360352 180.0236969 78.44458008 C179.88691492 80.37090483 179.75168928 82.29734065 179.61791992 84.22387695 C179.41330233 87.16686674 179.20338545 90.10944272 178.99267578 93.05200195 C178.8602006 94.92697981 178.72802895 96.80197915 178.59619141 98.67700195 C178.53370712 99.55420898 178.47122284 100.43141602 178.40684509 101.33520508 C178.35001053 102.15956055 178.29317596 102.98391602 178.23461914 103.83325195 C178.18434067 104.55319336 178.13406219 105.27313477 178.08226013 106.01489258 C177.96406473 108.39960228 177.97509766 110.78936494 177.97509766 113.17700195 C195.79509766 113.17700195 213.61509766 113.17700195 231.97509766 113.17700195 C231.66572266 108.02075195 231.35634766 102.86450195 231.03759766 97.55200195 C230.9422876 95.95662598 230.84697754 94.36125 230.7487793 92.7175293 C230.49662469 88.53697623 230.23878877 84.35684109 229.97509766 80.17700195 C229.93278015 79.50125122 229.89046265 78.82550049 229.84686279 78.12927246 C229.72563297 76.22044527 229.5985363 74.31199344 229.47119141 72.40356445 C229.3637561 70.77668701 229.3637561 70.77668701 229.25415039 69.11694336 C228.99132088 65.81360244 228.99132088 65.81360244 227.97509766 61.17700195 C212.79509766 61.17700195 197.61509766 61.17700195 181.97509766 61.17700195 Z M243.97509766 61.17700195 C244.37973086 67.61852286 244.78916744 74.05972571 245.2019043 80.50073242 C245.34167649 82.69076664 245.48035931 84.88087068 245.61791992 87.07104492 C245.81612629 90.22374263 246.01828171 93.37616639 246.22119141 96.52856445 C246.28165146 97.50379059 246.34211151 98.47901672 246.40440369 99.48379517 C246.46439041 100.40429657 246.52437714 101.32479797 246.58618164 102.27319336 C246.63725571 103.07705475 246.68832977 103.88091614 246.74095154 104.70913696 C247.01037567 107.54882689 247.506159 110.36337 247.97509766 113.17700195 C265.46509766 113.17700195 282.95509766 113.17700195 300.97509766 113.17700195 C300.24256976 106.16401322 300.24256976 106.16401322 299.05126953 99.31567383 C298.87438599 98.47870972 298.69750244 97.64174561 298.51525879 96.77941895 C298.32669312 95.91030884 298.13812744 95.04119873 297.94384766 94.14575195 C297.74786987 93.22862427 297.55189209 92.31149658 297.34997559 91.36657715 C296.93860099 89.44680173 296.52503981 87.52749366 296.109375 85.60864258 C295.47115318 82.6587705 294.84182164 79.7070961 294.21337891 76.75512695 C293.81155945 74.88522255 293.40923413 73.01542675 293.00634766 71.14575195 C292.81778198 70.260448 292.62921631 69.37514404 292.43493652 68.4630127 C291.87940176 64.49781097 291.87940176 64.49781097 289.97509766 61.17700195 C288.53219979 61.0840438 287.08479981 61.05953682 285.63891602 61.06347656 C284.71803696 61.06355209 283.7971579 61.06362762 282.84837341 61.06370544 C281.34682457 61.07144737 281.34682457 61.07144737 279.81494141 61.0793457 C278.28553673 61.08146812 278.28553673 61.08146812 276.72523499 61.08363342 C273.45432658 61.08925099 270.18348552 61.10180645 266.91259766 61.11450195 C264.7010101 61.11951469 262.48942148 61.12407799 260.27783203 61.12817383 C254.84356409 61.13922612 249.40933568 61.15598132 243.97509766 61.17700195 Z M306.97509766 61.17700195 C307.64379481 67.238164 308.71675675 73.11779669 310.00634766 79.07543945 C310.20232544 79.99161041 310.39830322 80.90778137 310.60021973 81.85171509 C311.01209755 83.77316246 311.42565616 85.69425025 311.84082031 87.61499023 C312.47748676 90.56306466 313.10751127 93.51250463 313.73681641 96.4621582 C314.1387677 98.3333363 314.54109792 100.20443305 314.94384766 102.07543945 C315.13241333 102.95871918 315.320979 103.8419989 315.51525879 104.75204468 C315.69214233 105.56694366 315.86902588 106.38184265 316.05126953 107.22143555 C316.20591675 107.93899017 316.36056396 108.6565448 316.51989746 109.39584351 C316.93034837 111.26402183 316.93034837 111.26402183 317.97509766 113.17700195 C335.46509766 113.17700195 352.95509766 113.17700195 370.97509766 113.17700195 C365.07514131 95.43269281 365.07514131 95.43269281 358.80224609 77.83032227 C358.07404616 75.85638392 357.35252148 73.88007941 356.63134766 71.90356445 C356.16558039 70.63519621 355.69945057 69.36696102 355.23291016 68.09887695 C354.61633545 66.42196777 354.61633545 66.42196777 353.98730469 64.71118164 C353.20926734 62.27971251 353.20926734 62.27971251 351.97509766 61.17700195 C350.5628472 61.08412935 349.14600831 61.05953424 347.73071289 61.06347656 C346.37942543 61.06358986 346.37942543 61.06358986 345.00083923 61.06370544 C343.53210106 61.07144737 343.53210106 61.07144737 342.03369141 61.0793457 C341.03628433 61.08076065 340.03887726 61.0821756 339.01124573 61.08363342 C335.81166642 61.08925081 332.61215597 61.10180624 329.41259766 61.11450195 C327.24918721 61.11951471 325.08577566 61.12407801 322.92236328 61.12817383 C317.6065844 61.13922588 312.29084595 61.15598092 306.97509766 61.17700195 Z M369.97509766 61.17700195 C371.28866032 67.68516361 373.09958572 73.73878173 375.41650391 79.9543457 C375.74424301 80.84690567 376.07198212 81.73946564 376.40965271 82.65907288 C377.44694542 85.47955668 378.49227694 88.29698506 379.53759766 91.11450195 C380.24317664 93.0316354 380.94825944 94.94895154 381.65283203 96.86645508 C382.9378306 100.35505828 384.22290183 103.84362417 385.51635742 107.32910156 C385.90368797 108.37426186 385.90368797 108.37426186 386.29884338 109.4405365 C386.97144344 111.24648037 386.97144344 111.24648037 387.97509766 113.17700195 C405.13509766 113.17700195 422.29509766 113.17700195 439.97509766 113.17700195 C434.57296331 101.77249611 429.17059652 90.40278452 423.51513672 79.12670898 C422.44403856 76.99004415 421.37741573 74.85118084 420.31103516 72.7121582 C419.62639683 71.34353978 418.94151147 69.97504488 418.25634766 68.60668945 C417.93976196 67.97149384 417.62317627 67.33629822 417.29699707 66.68185425 C415.92633467 63.73304833 415.92633467 63.73304833 413.97509766 61.17700195 C412.59349651 61.08421865 411.20721728 61.05953153 409.82250977 61.06347656 C408.94167221 61.06355209 408.06083466 61.06362762 407.15330505 61.06370544 C405.71737755 61.07144737 405.71737755 61.07144737 404.25244141 61.0793457 C402.78962486 61.08146812 402.78962486 61.08146812 401.29725647 61.08363342 C398.16900623 61.08925063 395.04082642 61.10180603 391.91259766 61.11450195 C389.79736431 61.11951474 387.68212985 61.12407803 385.56689453 61.12817383 C380.36960469 61.13922564 375.17235621 61.15598049 369.97509766 61.17700195 Z M-35.02490234 129.17700195 C-36.27771715 152.55534659 -36.27771715 152.55534659 -25.95849609 170.45043945 C-20.4640507 175.35659069 -13.69434826 177.57735179 -6.36865234 177.4543457 C1.37497207 176.53801681 8.99378277 173.286896 13.97509766 167.17700195 C21.79352506 154.4924179 19.97509766 145.48622342 19.97509766 129.17700195 C1.82509766 129.17700195 -16.32490234 129.17700195 -35.02490234 129.17700195 Z M35.97509766 129.17700195 C34.36562469 151.28509181 34.36562469 151.28509181 43.22509766 169.05200195 C49.27841912 174.57158969 56.39554539 177.58134573 64.62744141 177.45825195 C72.06628295 176.56707626 78.82106827 173.57646131 83.97509766 168.17700195 C93.06124195 156.60358912 90.97509766 143.79643283 90.97509766 129.17700195 C72.82509766 129.17700195 54.67509766 129.17700195 35.97509766 129.17700195 Z M106.97509766 129.17700195 C105.15297416 151.7054507 105.15297416 151.7054507 114.11572266 168.7980957 C120.60454606 174.38569363 126.97047918 177.90402498 135.79931641 177.5324707 C144.85515093 176.0529717 151.74526248 172.42631706 157.16259766 165.05200195 C164.3345925 155.02256325 161.97509766 140.36399116 161.97509766 129.17700195 C143.82509766 129.17700195 125.67509766 129.17700195 106.97509766 129.17700195 Z M177.97509766 129.17700195 C176.15313304 151.8473468 176.15313304 151.8473468 185.41259766 169.05200195 C191.92377786 174.45151724 198.03284723 177.73463647 206.72900391 177.49731445 C213.26366238 176.56541533 220.45480705 174.08474604 224.97509766 169.17700195 C234.63180545 154.7749832 231.97509766 151.19659631 231.97509766 129.17700195 C214.15509766 129.17700195 196.33509766 129.17700195 177.97509766 129.17700195 Z M247.97509766 129.17700195 C246.87843647 150.27863443 246.87843647 150.27863443 255.24072266 168.4934082 C261.10481086 174.18580013 267.72048267 176.83388784 275.85009766 177.48950195 C284.6489498 177.15108456 290.19084892 173.65397427 296.71337891 167.91918945 C306.67005593 155.84736343 302.97509766 145.60321267 302.97509766 129.17700195 C284.82509766 129.17700195 266.67509766 129.17700195 247.97509766 129.17700195 Z M318.97509766 129.17700195 C317.87507028 151.005399 317.87507028 151.005399 326.97509766 169.17700195 C333.39827462 174.64254163 340.29342742 177.74168158 348.88134766 177.41137695 C356.7761109 176.5276348 361.76712268 173.15877742 367.71337891 168.0168457 C377.27421663 156.01213236 373.97509766 144.65892896 373.97509766 129.17700195 C355.82509766 129.17700195 337.67509766 129.17700195 318.97509766 129.17700195 Z M389.97509766 129.17700195 C388.82227543 151.6329097 388.82227543 151.6329097 398.97509766 170.17700195 C405.15499708 175.11338503 411.92757339 177.66314869 419.93212891 177.4309082 C428.3996125 176.37854409 435.01098743 171.54752683 440.58056641 165.34887695 C448.09092228 153.6520762 444.97509766 144.0210147 444.97509766 129.17700195 C426.82509766 129.17700195 408.67509766 129.17700195 389.97509766 129.17700195 Z M26.97509766 175.17700195 C26.31509766 176.04325195 25.65509766 176.90950195 24.97509766 177.80200195 C18.36089869 185.78789559 9.63345661 188.46224851 -0.02490234 192.17700195 C-0.02490234 260.48700195 -0.02490234 328.79700195 -0.02490234 399.17700195 C4.26509766 399.17700195 8.55509766 399.17700195 12.97509766 399.17700195 C12.9809639 397.04580399 12.98683014 394.91460602 12.99287415 392.71882629 C13.04949779 372.66219971 13.12255518 352.6056813 13.21081257 332.54916859 C13.25579316 322.23721653 13.29520261 311.92529918 13.3215332 301.61328125 C13.34449494 292.62614856 13.37787254 283.63912552 13.42379922 274.65207976 C13.44775604 269.89275492 13.4664687 265.13353883 13.47271156 260.37415504 C13.47875129 255.89503866 13.49871081 251.41620062 13.52937317 246.93718719 C13.53817125 245.29288603 13.54187232 243.64854853 13.54010582 242.00422478 C13.5384554 239.75919261 13.55513138 237.51501132 13.57637024 235.27009583 C13.5809792 234.01369199 13.58558817 232.75728815 13.5903368 231.46281147 C14.00853795 227.89142605 14.82260028 226.02719919 16.97509766 223.17700195 C21.97291886 219.74161581 26.53133674 219.74260384 32.37353516 219.77294922 C33.30111633 219.76608597 34.22869751 219.75922272 35.18438721 219.75215149 C38.23978126 219.7339026 41.29466098 219.73771791 44.35009766 219.7434082 C46.47949388 219.73884589 48.60888864 219.73354017 50.73828125 219.7275238 C55.19683828 219.71859675 59.65521613 219.72101177 64.11376953 219.73095703 C69.82362777 219.74245325 75.53286818 219.72222279 81.24264526 219.69303989 C85.63846759 219.67468445 90.03414164 219.67496896 94.42999268 219.68067741 C96.53510404 219.68083067 98.64022543 219.67478284 100.74530029 219.66238594 C103.68948029 219.64748833 106.63251569 219.65814389 109.57666016 219.67529297 C110.44333313 219.665625 111.3100061 219.65595703 112.20294189 219.64599609 C117.57719378 219.71145972 120.77472588 220.50458123 124.97509766 224.17700195 C127.35438977 227.72732143 127.23509537 230.94981633 127.25357056 235.14984131 C127.26224907 236.1998658 127.26224907 236.1998658 127.27110291 237.27110291 C127.28813108 239.62357116 127.29097102 241.97584412 127.29394531 244.32836914 C127.30335501 246.04096581 127.31363399 247.75355788 127.32471275 249.46614456 C127.35199517 254.05508766 127.36736937 258.64399867 127.3802948 263.23300171 C127.39421966 267.53810895 127.41885996 271.84312871 127.44262695 276.14819336 C127.50589496 288.74108002 127.55194236 301.33404843 127.60009766 313.92700195 C127.72384766 342.05950195 127.84759766 370.19200195 127.97509766 399.17700195 C221.03509766 399.17700195 314.09509766 399.17700195 409.97509766 399.17700195 C409.97509766 330.86700195 409.97509766 262.55700195 409.97509766 192.17700195 C405.68509766 190.52700195 401.39509766 188.87700195 396.97509766 187.17700195 C393.47509766 185.11450195 393.47509766 185.11450195 390.97509766 183.17700195 C390.10884766 182.51700195 389.24259766 181.85700195 388.35009766 181.17700195 C386.09530273 179.27822728 384.04483288 177.27293636 381.97509766 175.17700195 C381.46462891 175.75708008 380.95416016 176.3371582 380.42822266 176.93481445 C372.28961525 185.67948837 362.20248234 191.59315093 350.13525391 192.35668945 C336.4780782 192.6666884 325.64846524 188.86058303 315.41259766 179.5715332 C313.91798646 178.12159788 312.44097356 176.65596604 310.97509766 175.17700195 C310.46462891 175.75708008 309.95416016 176.3371582 309.42822266 176.93481445 C300.35928205 186.6791017 289.55234527 191.99713669 276.28759766 192.55200195 C261.7235295 192.27581861 249.87077576 185.43918665 239.97509766 175.17700195 C239.37697266 176.02262695 238.77884766 176.86825195 238.16259766 177.73950195 C230.69144192 186.59187975 219.20379257 191.14973888 207.93994141 192.5559082 C195.67433703 193.05687492 184.56385846 188.67073939 174.97509766 181.17700195 C173.04454703 179.25486331 171.55383654 177.4090121 169.97509766 175.17700195 C169.31509766 175.87825195 168.65509766 176.57950195 167.97509766 177.30200195 C158.79107863 186.35810985 147.52855789 192.14882099 134.47509766 192.48950195 C121.52885956 192.34618566 110.99464377 187.27528104 101.91259766 178.30200195 C100.92547405 177.26787246 99.9431042 176.22904765 98.97509766 175.17700195 C98.31509766 175.87825195 97.65509766 176.57950195 96.97509766 177.30200195 C89.54220088 184.65184961 79.70151545 191.5202825 68.97509766 192.17700195 C68.12689453 192.23887695 67.27869141 192.30075195 66.40478516 192.36450195 C54.70483224 192.85327283 44.04466404 189.67615704 34.97509766 182.17700195 C33.01220677 180.3363288 31.12531921 178.46265556 29.28759766 176.49731445 C28.85447266 176.06161133 28.42134766 175.6259082 27.97509766 175.17700195 C27.64509766 175.17700195 27.31509766 175.17700195 26.97509766 175.17700195 Z M28.97509766 235.17700195 C28.97509766 289.29700195 28.97509766 343.41700195 28.97509766 399.17700195 C56.36509766 399.17700195 83.75509766 399.17700195 111.97509766 399.17700195 C111.97509766 345.05700195 111.97509766 290.93700195 111.97509766 235.17700195 C84.58509766 235.17700195 57.19509766 235.17700195 28.97509766 235.17700195 Z M-35.02490234 420.17700195 C-36.96687089 427.94487613 -36.02490234 436.17006052 -36.02490234 444.17700195 C123.03509766 444.17700195 282.09509766 444.17700195 445.97509766 444.17700195 C447.41841995 429.76766329 447.41841995 429.76766329 442.53759766 417.42700195 C438.9195038 414.53252687 434.72395283 415.03507279 430.34222603 415.04557419 C429.55348034 415.04352155 428.76473465 415.04146892 427.95208758 415.03935409 C425.28698217 415.03366202 422.62192808 415.03514404 419.95681763 415.03656006 C418.03563435 415.03397769 416.1144516 415.0309649 414.19326961 415.02755666 C408.89656465 415.01946842 403.59987322 415.01769608 398.30316281 415.01695919 C392.59754143 415.01511183 386.89192712 415.00756616 381.18630981 415.00082397 C368.70307974 414.98722773 356.21985286 414.98121408 343.73661661 414.97681332 C335.9471915 414.97405338 328.15776763 414.96981652 320.36834335 414.96530914 C298.81596238 414.95311537 277.26358303 414.94278049 255.71119881 414.93943405 C254.3172153 414.93921242 252.9232318 414.93899063 251.52924829 414.9387687 C250.13187034 414.93854806 248.7344924 414.93832758 247.33711445 414.93810725 C244.53366224 414.9376647 241.73021003 414.93721758 238.92675781 414.93676758 C238.23166357 414.93665819 237.53656933 414.9365488 236.82041163 414.93643609 C214.27355167 414.93280412 191.72672383 414.91687875 169.17987617 414.89357721 C145.35087671 414.86899555 121.52189932 414.85526874 97.69288623 414.85406613 C84.69969035 414.85314802 71.70653653 414.84736135 58.7133522 414.82924652 C47.65186674 414.8138795 36.59043634 414.80870496 25.52894224 414.81698462 C19.88181741 414.82090305 14.23480358 414.81990356 8.58769226 414.80592728 C3.42233795 414.7932598 -1.74282112 414.79432251 -6.90817489 414.80651799 C-8.78097655 414.80848745 -10.65379171 414.80533948 -12.52657436 414.79667363 C-15.06473905 414.78566857 -17.60220399 414.79300647 -20.14034843 414.80506516 C-20.8739808 414.79746996 -21.60761316 414.78987477 -22.36347681 414.78204942 C-27.95325593 414.83970794 -31.11445199 416.2665516 -35.02490234 420.17700195 Z " fill="#000000" transform="translate(51.02490234375,25.822998046875)"/>
<path d="M0 0 C0.8313446 -0.00571014 1.66268921 -0.01142029 2.51922607 -0.01730347 C3.42787918 -0.01842133 4.33653229 -0.01953918 5.27272034 -0.02069092 C6.71214493 -0.02813828 6.71214493 -0.02813828 8.1806488 -0.03573608 C11.35921441 -0.05035703 14.53773013 -0.05715891 17.71632385 -0.06268311 C19.92205812 -0.06843374 22.12779238 -0.07419148 24.33352661 -0.07995605 C28.95958184 -0.09046525 33.58561969 -0.09630874 38.21168518 -0.09979248 C44.14477357 -0.10528307 50.07763315 -0.12932361 56.01064968 -0.15776443 C60.56677934 -0.17636807 65.12285358 -0.18159516 69.67901802 -0.18312836 C71.86672787 -0.18615955 74.05443663 -0.19420372 76.2421093 -0.20731354 C79.29936646 -0.22432952 82.35606031 -0.2225048 85.41334534 -0.21600342 C86.31997421 -0.2252182 87.22660309 -0.23443298 88.16070557 -0.243927 C94.25891024 -0.20321341 94.25891024 -0.20321341 97.4425354 1.48303223 C99.6425967 3.97171367 99.84203691 5.85578206 99.9077301 9.14044189 C98.73788393 11.84955935 97.74733423 13.53527439 95.34492493 15.26687622 C91.65176438 16.59061869 87.97373546 16.40075181 84.10011292 16.36749268 C83.19762188 16.36773375 82.29513084 16.36797482 81.3652916 16.36822319 C78.44704544 16.36673168 75.52905549 16.3515063 72.6108551 16.33575439 C70.80795922 16.33281346 69.00506163 16.33077333 67.2021637 16.32965088 C60.52065977 16.31916942 53.83919242 16.29124698 47.1577301 16.26544189 C32.2252301 16.22419189 17.2927301 16.18294189 1.9077301 16.14044189 C1.9077301 54.75044189 1.9077301 93.36044189 1.9077301 133.14044189 C72.8577301 133.14044189 143.8077301 133.14044189 216.9077301 133.14044189 C216.9077301 94.53044189 216.9077301 55.92044189 216.9077301 16.14044189 C187.18467137 16.21959767 187.18467137 16.21959767 157.46168518 16.32061768 C151.707901 16.32965088 151.707901 16.32965088 149.01275635 16.33132935 C147.13379977 16.33439686 145.25484709 16.34142344 143.37591553 16.35159302 C140.52683185 16.3662402 137.67798839 16.36825362 134.82887268 16.36749268 C133.99434224 16.37468889 133.1598118 16.38188511 132.29999256 16.38929939 C128.07358154 16.37419672 124.7223181 16.19272243 120.9077301 14.14044189 C118.74053805 11.48070619 118.91238147 10.05206593 119.0952301 6.57794189 C119.91547839 3.1076607 120.19582732 2.22175905 122.9077301 0.14044189 C124.81905746 -0.23987484 124.81905746 -0.23987484 127.01777649 -0.24723816 C127.85319977 -0.25714279 128.68862305 -0.26704742 129.54936218 -0.2772522 C130.46265289 -0.27275055 131.3759436 -0.2682489 132.31690979 -0.26361084 C133.28146088 -0.27047409 134.24601196 -0.27733734 135.23979187 -0.28440857 C138.43654502 -0.30274698 141.63281049 -0.29882777 144.8296051 -0.29315186 C147.05057434 -0.29771147 149.27154217 -0.30301638 151.49250793 -0.30903625 C156.15310893 -0.3179821 160.81353874 -0.31552884 165.47413635 -0.30560303 C171.44068279 -0.29413319 177.40663566 -0.31428728 183.3731041 -0.34352016 C187.96284226 -0.36189061 192.55243857 -0.3615876 197.14220428 -0.35588264 C199.34138571 -0.35572942 201.54057673 -0.36177482 203.73972321 -0.37417412 C206.82051445 -0.38909134 209.90021461 -0.37839962 212.98097229 -0.36126709 C214.33876297 -0.37576904 214.33876297 -0.37576904 215.72398376 -0.39056396 C221.60664447 -0.32223904 225.18368121 0.53065879 229.9077301 4.14044189 C234.08159794 9.5388499 233.33675124 16.04966359 233.31178284 22.56817627 C233.31864609 23.81762527 233.32550934 25.06707428 233.33258057 26.35438538 C233.3477174 29.769798 233.34935073 33.18466354 233.34363818 36.60006905 C233.34054167 39.45546543 233.34664378 42.31081269 233.35267693 45.16620207 C233.36670836 51.90358813 233.36517195 58.64084735 233.35377502 65.37823486 C233.34229008 72.32093738 233.35637862 79.26325378 233.3831715 86.20590544 C233.40534377 92.17552514 233.41196262 98.14502377 233.40609509 104.11468172 C233.40272852 107.67627496 233.40512048 111.2376206 233.42234612 114.79917908 C233.44071678 118.77050873 233.42661234 122.74136492 233.40943909 126.71270752 C233.42394104 128.47557854 233.42394104 128.47557854 233.43873596 130.27406311 C233.38201959 136.53159469 233.15763606 140.4062943 228.9077301 145.14044189 C224.011421 149.44325898 219.30597032 149.28895053 213.05220032 149.28761292 C212.13577672 149.2912896 211.21935313 149.29496629 210.27515912 149.29875439 C207.19141415 149.30980457 204.10770286 149.31363733 201.02394104 149.31744385 C198.81813449 149.32370745 196.61232899 149.33035416 194.40652466 149.33735657 C188.40436127 149.35477489 182.40220586 149.36532045 176.40002346 149.3735621 C172.65158639 149.37871012 168.90315181 149.38478592 165.15471649 149.39107323 C154.7747976 149.40794312 144.39488028 149.42257827 134.0149498 149.42982197 C131.32182056 149.43173183 128.62869134 149.43365217 125.93556213 149.43560791 C124.93152866 149.43633352 124.93152866 149.43633352 123.90721169 149.43707379 C113.06448041 149.44537383 102.22185946 149.47071082 91.37917635 149.50318859 C80.24503975 149.53626725 69.11094307 149.55393871 57.97675347 149.55746621 C51.72617113 149.55981911 45.4757632 149.568811 39.22522736 149.59392738 C33.34504251 149.61717372 27.46514736 149.62145503 21.58492851 149.611166 C19.42702968 149.61066971 17.26911674 149.61701751 15.11126137 149.63072205 C12.16422413 149.64839108 9.21823213 149.64135902 6.27119446 149.62818909 C5.41816734 149.63915833 4.56514022 149.65012758 3.6862638 149.66142923 C-2.04675503 149.59961564 -5.36157739 148.41454628 -10.0922699 145.14044189 C-13.55486555 141.33158668 -14.21633205 138.00781444 -14.23944092 132.9606781 C-14.24659622 131.88821335 -14.25375153 130.8157486 -14.26112366 129.71078491 C-14.26381256 128.53410248 -14.26650146 127.35742004 -14.26927185 126.14508057 C-14.27584305 124.90582321 -14.28241425 123.66656586 -14.28918457 122.38975525 C-14.30893292 118.2793046 -14.32058439 114.16889297 -14.33055115 110.05841064 C-14.33459941 108.64232171 -14.33871635 107.22623296 -14.34290123 105.81014442 C-14.36194757 99.15730371 -14.37618018 92.50447405 -14.3845132 85.85161132 C-14.3942862 78.17623255 -14.42060939 70.50114213 -14.46101409 62.82586497 C-14.4911866 56.89030088 -14.5059831 50.9548194 -14.50929421 45.01918012 C-14.51164329 41.4753914 -14.52058467 37.93191092 -14.54575539 34.38820457 C-14.57339313 30.43337167 -14.56920145 26.47891752 -14.5622406 22.52398682 C-14.57505066 21.35337708 -14.58786072 20.18276733 -14.60105896 18.97668457 C-14.56077939 12.70647818 -14.3068328 8.90727867 -10.0922699 4.14044189 C-9.5766449 3.54231689 -9.0610199 2.94419189 -8.5297699 2.32794189 C-5.89328265 0.14997417 -3.26918657 0.0134673 0 0 Z " fill="#000000" transform="translate(208.09226989746094,244.85955810546875)"/>
<path d="M0 0 C2.1875 1.375 2.1875 1.375 4 4 C4.59849479 7.50810025 4.5578126 10.94934278 4.5 14.5 C4.51546875 15.45003906 4.5309375 16.40007812 4.546875 17.37890625 C4.50813988 24.26407327 4.50813988 24.26407327 2.1875 27.625 C-1.0470087 29.65811976 -3.26438239 29.53365966 -7 29 C-9.1875 27.625 -9.1875 27.625 -11 25 C-11.59849479 21.49189975 -11.5578126 18.05065722 -11.5 14.5 C-11.51546875 13.54996094 -11.5309375 12.59992188 -11.546875 11.62109375 C-11.50813988 4.73592673 -11.50813988 4.73592673 -9.1875 1.375 C-5.9529913 -0.65811976 -3.73561761 -0.53365966 0 0 Z " fill="#000000" transform="translate(147,326)"/>
</svg>
