<?xml version="1.0" encoding="UTF-8"?>
<svg version="1.1" xmlns="http://www.w3.org/2000/svg" width="512" height="512">
<path d="M0 0 C1.20672867 -0.01925285 1.20672867 -0.01925285 2.43783569 -0.03889465 C3.30349152 -0.04628159 4.16914734 -0.05366852 5.06103516 -0.0612793 C6.4019371 -0.07338692 6.4019371 -0.07338692 7.76992798 -0.08573914 C9.66121488 -0.09956575 11.55252659 -0.11029427 13.44384766 -0.11816406 C16.3323495 -0.13539219 19.21971103 -0.17929215 22.10791016 -0.22338867 C23.94644342 -0.23351472 25.78498639 -0.2420311 27.62353516 -0.2487793 C28.48514252 -0.26628738 29.34674988 -0.28379547 30.23446655 -0.30183411 C34.28101224 -0.28723299 36.4849998 -0.10528727 40.05957031 1.95361328 C41.97509766 4.17700195 41.97509766 4.17700195 41.97509766 8.17700195 C48.57509766 8.17700195 55.17509766 8.17700195 61.97509766 8.17700195 C62.30509766 6.52700195 62.63509766 4.87700195 62.97509766 3.17700195 C65.17313496 0.85664124 66.51650965 0.24077137 69.68766046 -0.20019621 C70.73590863 -0.20122534 71.7841568 -0.20225447 72.86417007 -0.20331478 C74.07593894 -0.21175472 75.28770781 -0.22019466 76.53619695 -0.22889036 C77.88271405 -0.22309494 79.22922996 -0.2170139 80.57574463 -0.2106781 C82.0048053 -0.21484974 83.43386266 -0.22032631 84.86291385 -0.22699791 C88.79484337 -0.24149427 92.72656404 -0.23719477 96.6585052 -0.2298311 C100.89722985 -0.22511192 105.1359085 -0.23759833 109.37461853 -0.24784851 C117.68134576 -0.26506776 125.98799745 -0.26586988 134.29473791 -0.26063561 C141.04658469 -0.25659768 147.79840911 -0.25803298 154.55025482 -0.26338387 C155.51045343 -0.26413229 156.47065204 -0.26488071 157.45994757 -0.26565181 C159.41049459 -0.26718326 161.36104161 -0.26872161 163.31158862 -0.27026678 C181.61549364 -0.28400368 199.91935596 -0.27854628 218.22326002 -0.26708157 C234.96918051 -0.25715283 251.71499046 -0.27008152 268.4608939 -0.29401576 C285.65081931 -0.31839963 302.84069323 -0.32801608 320.0306356 -0.32136303 C329.68330075 -0.3178686 339.33588092 -0.3201174 348.98853302 -0.33761406 C357.20775689 -0.35232734 365.42683597 -0.35298318 373.64605698 -0.33554315 C377.83946834 -0.32702263 382.03262095 -0.32490903 386.22601891 -0.3401947 C390.0666919 -0.35402116 393.90688398 -0.34930527 397.747529 -0.32995547 C399.13515894 -0.32618875 400.52282722 -0.32913685 401.91042307 -0.33956712 C409.69902168 -0.39393792 415.36215718 -0.12741175 421.97509766 4.17700195 C424.5517635 6.8858045 425.79614693 8.64014978 426.97509766 12.17700195 C426.88968866 13.94133765 426.79672468 15.70584674 426.65385437 17.46646118 C424.33664877 46.90157046 433.57653531 66.92489069 448.01318359 92.03027344 C448.74800964 93.30945145 448.74800964 93.30945145 449.49768066 94.61447144 C450.48101628 96.32003428 451.47034821 98.02215427 452.46569824 99.72073364 C459.27738193 111.48152682 462.50234675 120.98011027 461.94921875 134.63427734 C461.84904813 137.14076342 461.82614037 139.63938044 461.81494141 142.14770508 C461.61383062 156.56300387 459.18044497 169.49917782 448.93994141 180.3293457 C442.09547754 186.81166863 435.28643925 190.62511169 425.97509766 192.17700195 C425.97509766 260.48700195 425.97509766 328.79700195 425.97509766 399.17700195 C430.26509766 399.17700195 434.55509766 399.17700195 438.97509766 399.17700195 C445.82802329 400.26949734 452.15450299 402.60238693 456.55322266 408.17700195 C460.14851344 413.79722663 461.13972322 418.29742722 461.17822266 424.95043945 C461.18392273 425.71119781 461.1896228 426.47195618 461.19549561 427.25576782 C461.20493514 428.86458957 461.21147543 430.47343057 461.21533203 432.08227539 C461.22503466 434.53607111 461.25606546 436.98902785 461.28759766 439.44262695 C461.2941285 441.00772616 461.29937865 442.57283134 461.30322266 444.13793945 C461.31556946 444.86830414 461.32791626 445.59866882 461.34063721 446.35116577 C461.32125035 450.81280933 460.95401516 453.78152161 457.97509766 457.17700195 C452.62907501 459.97035237 448.42292551 460.60908545 442.4495697 460.55452538 C441.61291011 460.5588857 440.77625053 460.56324602 439.91423762 460.56773847 C437.11005888 460.57868879 434.30637244 460.56827371 431.50219727 460.55795288 C429.47174039 460.56140952 427.44128538 460.56617413 425.41083431 460.57213461 C419.83053875 460.58467328 414.25039685 460.57846113 408.67010069 460.56917596 C402.65229971 460.56239757 396.63452544 460.57286069 390.61672974 460.58111572 C379.50909116 460.59369627 368.40149492 460.59258984 357.29385605 460.58438132 C347.03255853 460.57683544 336.77127898 460.57486418 326.50997925 460.57844925 C325.4891009 460.57879298 325.4891009 460.57879298 324.44759875 460.57914366 C321.68489855 460.58007767 318.92219836 460.58103287 316.15949818 460.58202295 C290.24184163 460.5912005 264.32421631 460.58287869 238.40656458 460.56673226 C215.37893647 460.55249538 192.35135814 460.55376926 169.32373047 460.56811523 C143.45355878 460.5841782 117.5834147 460.59054964 91.71323872 460.58127844 C88.95556451 460.58031629 86.19789029 460.57937777 83.44021606 460.57844925 C82.76120349 460.57821202 82.08219092 460.57797479 81.38260221 460.57773036 C71.12760899 460.57431756 60.87263572 460.57830949 50.61764526 460.58588791 C38.95757185 460.59446171 27.29754581 460.59204061 15.63747764 460.57604568 C9.68629479 460.56815157 3.73521305 460.56509083 -2.21596909 460.57499313 C-7.6613048 460.58391683 -13.10644545 460.57904546 -18.55176342 460.56306048 C-20.52407287 460.55970282 -22.49639872 460.56142875 -24.46869767 460.56868784 C-27.14582548 460.57778702 -29.82228182 460.56847727 -32.49937439 460.55452538 C-33.65279628 460.56506062 -33.65279628 460.56506062 -34.82951963 460.5758087 C-39.93014762 460.52254163 -43.48696033 459.54944816 -48.02490234 457.17700195 C-51.42468519 453.26888097 -51.47893081 449.28853932 -51.45849609 444.3137207 C-51.46373795 443.56290726 -51.4689798 442.81209381 -51.47438049 442.03852844 C-51.48078444 440.45424633 -51.47948478 438.86991658 -51.47094727 437.28564453 C-51.46246415 434.88201487 -51.49117329 432.48078617 -51.52294922 430.07739258 C-51.56645732 420.57504936 -51.05622125 413.97100281 -44.71240234 406.42700195 C-35.67639295 398.86197083 -28.13698563 399.17700195 -16.02490234 399.17700195 C-16.02490234 330.86700195 -16.02490234 262.55700195 -16.02490234 192.17700195 C-18.99490234 191.51700195 -21.96490234 190.85700195 -25.02490234 190.17700195 C-36.68488891 184.77658712 -44.58691866 175.80564702 -49.14990234 163.9387207 C-56.70973775 140.0779902 -52.4124141 116.59534437 -41.24020386 94.93179321 C-35.8458888 84.71696706 -30.36962039 74.52187191 -24.26000977 64.71362305 C-17.56966213 53.65696521 -16.85449433 44.31148176 -17.21240234 31.55200195 C-17.25910625 28.8847973 -17.29232469 26.21877396 -17.30329895 23.55117798 C-17.31271308 21.91138408 -17.343361 20.2715126 -17.39970398 18.63265991 C-17.47034928 12.98873734 -16.28065371 9.81574353 -13.02490234 5.17700195 C-8.79420155 1.89605032 -5.3555151 0.07461008 0 0 Z " fill="#020201" transform="translate(51.02490234375,25.822998046875)"/>
<path d="M0 0 C0.43570313 0.37511719 0.87140625 0.75023437 1.3203125 1.13671875 C2.57131863 2.21171752 3.82544688 3.28308956 5.08203125 4.3515625 C6.68302793 5.72757186 8.25200906 7.14071937 9.8125 8.5625 C19.56655133 16.66465554 30.62137131 17.85440819 42.8359375 17.22216797 C54.97777338 15.97565729 63.79749226 8.31643146 72 0 C72.87398437 0.97839844 72.87398437 0.97839844 73.765625 1.9765625 C82.59638426 11.39048511 91.7918846 16.90193223 104.82397461 17.34375 C118.69558665 17.54296085 128.73937494 13.50477791 139 4 C140.34251258 2.67590955 141.67870506 1.34526401 143 0 C143.763125 1.010625 144.52625 2.02125 145.3125 3.0625 C149.44917476 7.88373087 154.49827342 10.92316736 160 14 C160.62390625 14.36480469 161.2478125 14.72960937 161.890625 15.10546875 C170.4984649 19.23490546 182.92659137 17.90548619 191.875 15.5 C200.55364292 12.44398664 207.85590642 6.77968946 214 0 C214.763125 1.010625 215.52625 2.02125 216.3125 3.0625 C220.44917476 7.88373087 225.49827342 10.92316736 231 14 C231.62390625 14.36480469 232.2478125 14.72960937 232.890625 15.10546875 C241.59139235 19.27948552 254.05839764 17.88313574 263.0625 15.375 C271.82873709 12.26369543 277.70226713 6.65198035 284 0 C284.639375 0.680625 285.27875 1.36125 285.9375 2.0625 C295.24342394 11.23845293 305.09476745 17.43018767 318.4375 17.5625 C333.46390513 17.29653112 343.50048622 11.89012358 353.75 1.3203125 C354.1625 0.88460937 354.575 0.44890625 355 0 C355.639375 0.680625 356.27875 1.36125 356.9375 2.0625 C363.20727014 8.27928616 369.76152383 12.827886 378 16 C379.65 16.66 381.3 17.32 383 18 C383 86.64 383 155.28 383 226 C289.94 226 196.88 226 101 226 C100.75 140.875 100.75 140.875 100.70214844 113.98779297 C100.66893218 106.04040813 100.66893218 106.04040813 100.63043213 98.0930481 C100.61341379 94.55076848 100.60756901 91.00865867 100.60845947 87.46633911 C100.60923029 82.94761962 100.59096123 78.42935339 100.55891085 73.91075158 C100.55039039 72.25259296 100.54855578 70.59438329 100.55417585 68.9362123 C100.56081091 66.69471869 100.54292989 64.45469405 100.51898193 62.21334839 C100.51529476 60.95786634 100.51160759 59.7023843 100.50780869 58.40885735 C99.90217538 54.34331535 98.55279306 52.18606864 96 49 C91.08729248 45.61024328 86.64653802 45.56500382 80.89282227 45.59594727 C79.99610809 45.58908401 79.09939392 45.58222076 78.17550659 45.57514954 C75.22231037 45.55690405 72.26964654 45.56071586 69.31640625 45.56640625 C67.25666634 45.56184338 65.19692795 45.55653749 63.13719177 45.55052185 C58.82406421 45.54159516 54.51112185 45.54400891 50.19799805 45.55395508 C44.67880056 45.56544409 39.16024294 45.54523178 33.64112949 45.51603794 C29.38852396 45.4976661 25.13607148 45.49797039 20.8834362 45.50367546 C18.84892822 45.50382855 16.81440979 45.49779413 14.77993965 45.48538399 C11.93174562 45.4704574 9.08473017 45.48116344 6.23657227 45.49829102 C4.98403404 45.48378906 4.98403404 45.48378906 3.70619202 45.46899414 C-1.98757546 45.54046265 -5.41021624 46.54145514 -10 50 C-12.78492869 54.50070499 -13.37933592 57.92416741 -13.39872742 63.17538452 C-13.40537424 63.87471497 -13.41202107 64.57404542 -13.41886932 65.2945677 C-13.43744263 67.62540237 -13.43489795 69.95572113 -13.43237305 72.28662109 C-13.4413937 73.962369 -13.45172166 75.63811029 -13.46325684 77.31384277 C-13.49081743 81.85468244 -13.50011008 86.39539687 -13.50611091 90.93630934 C-13.515497 95.68493575 -13.5417006 100.43346872 -13.56611633 105.18203735 C-13.6097785 114.17039149 -13.63832722 123.15872749 -13.66143972 132.1471554 C-13.68849288 142.38173644 -13.73240434 152.61622344 -13.77772844 162.85073733 C-13.87057069 183.90044258 -13.94165541 204.9501733 -14 226 C-18.29 226 -22.58 226 -27 226 C-27 157.03 -27 88.06 -27 17 C-23.7 16.01 -20.4 15.02 -17 14 C-10.50431706 10.37005953 -4.19719989 6.29579983 0 0 Z " fill="#00C5C7" transform="translate(78,200)"/>
<path d="M0 0 C0.43570313 0.37511719 0.87140625 0.75023437 1.3203125 1.13671875 C2.57131863 2.21171752 3.82544688 3.28308956 5.08203125 4.3515625 C6.68302793 5.72757186 8.25200906 7.14071937 9.8125 8.5625 C19.56655133 16.66465554 30.62137131 17.85440819 42.8359375 17.22216797 C54.97777338 15.97565729 63.79749226 8.31643146 72 0 C72.87398437 0.97839844 72.87398437 0.97839844 73.765625 1.9765625 C82.59638426 11.39048511 91.7918846 16.90193223 104.82397461 17.34375 C118.69558665 17.54296085 128.73937494 13.50477791 139 4 C140.34251258 2.67590955 141.67870506 1.34526401 143 0 C143.763125 1.010625 144.52625 2.02125 145.3125 3.0625 C149.44917476 7.88373087 154.49827342 10.92316736 160 14 C160.62390625 14.36480469 161.2478125 14.72960937 161.890625 15.10546875 C170.4984649 19.23490546 182.92659137 17.90548619 191.875 15.5 C200.55364292 12.44398664 207.85590642 6.77968946 214 0 C214.763125 1.010625 215.52625 2.02125 216.3125 3.0625 C220.44917476 7.88373087 225.49827342 10.92316736 231 14 C231.62390625 14.36480469 232.2478125 14.72960937 232.890625 15.10546875 C241.59139235 19.27948552 254.05839764 17.88313574 263.0625 15.375 C271.82873709 12.26369543 277.70226713 6.65198035 284 0 C284.639375 0.680625 285.27875 1.36125 285.9375 2.0625 C295.24342394 11.23845293 305.09476745 17.43018767 318.4375 17.5625 C333.46390513 17.29653112 343.50048622 11.89012358 353.75 1.3203125 C354.1625 0.88460937 354.575 0.44890625 355 0 C355.639375 0.680625 356.27875 1.36125 356.9375 2.0625 C363.20727014 8.27928616 369.76152383 12.827886 378 16 C379.65 16.66 381.3 17.32 383 18 C383 86.64 383 155.28 383 226 C289.94 226 196.88 226 101 226 C100.75 140.875 100.75 140.875 100.70214844 113.98779297 C100.66893218 106.04040813 100.66893218 106.04040813 100.63043213 98.0930481 C100.61341379 94.55076848 100.60756901 91.00865867 100.60845947 87.46633911 C100.60923029 82.94761962 100.59096123 78.42935339 100.55891085 73.91075158 C100.55039039 72.25259296 100.54855578 70.59438329 100.55417585 68.9362123 C100.56081091 66.69471869 100.54292989 64.45469405 100.51898193 62.21334839 C100.51529476 60.95786634 100.51160759 59.7023843 100.50780869 58.40885735 C99.90217538 54.34331535 98.55279306 52.18606864 96 49 C91.08729248 45.61024328 86.64653802 45.56500382 80.89282227 45.59594727 C79.99610809 45.58908401 79.09939392 45.58222076 78.17550659 45.57514954 C75.22231037 45.55690405 72.26964654 45.56071586 69.31640625 45.56640625 C67.25666634 45.56184338 65.19692795 45.55653749 63.13719177 45.55052185 C58.82406421 45.54159516 54.51112185 45.54400891 50.19799805 45.55395508 C44.67880056 45.56544409 39.16024294 45.54523178 33.64112949 45.51603794 C29.38852396 45.4976661 25.13607148 45.49797039 20.8834362 45.50367546 C18.84892822 45.50382855 16.81440979 45.49779413 14.77993965 45.48538399 C11.93174562 45.4704574 9.08473017 45.48116344 6.23657227 45.49829102 C4.98403404 45.48378906 4.98403404 45.48378906 3.70619202 45.46899414 C-1.98757546 45.54046265 -5.41021624 46.54145514 -10 50 C-12.78492869 54.50070499 -13.37933592 57.92416741 -13.39872742 63.17538452 C-13.40537424 63.87471497 -13.41202107 64.57404542 -13.41886932 65.2945677 C-13.43744263 67.62540237 -13.43489795 69.95572113 -13.43237305 72.28662109 C-13.4413937 73.962369 -13.45172166 75.63811029 -13.46325684 77.31384277 C-13.49081743 81.85468244 -13.50011008 86.39539687 -13.50611091 90.93630934 C-13.515497 95.68493575 -13.5417006 100.43346872 -13.56611633 105.18203735 C-13.6097785 114.17039149 -13.63832722 123.15872749 -13.66143972 132.1471554 C-13.68849288 142.38173644 -13.73240434 152.61622344 -13.77772844 162.85073733 C-13.87057069 183.90044258 -13.94165541 204.9501733 -14 226 C-18.29 226 -22.58 226 -27 226 C-27 157.03 -27 88.06 -27 17 C-23.7 16.01 -20.4 15.02 -17 14 C-10.50431706 10.37005953 -4.19719989 6.29579983 0 0 Z M118.33097935 51.29905891 C116.85235433 54.29961566 116.62086007 56.17045824 116.61231995 59.49620056 C116.60241531 60.58824295 116.59251068 61.68028534 116.58230591 62.80541992 C116.58680756 63.99361328 116.5913092 65.18180664 116.59594727 66.40600586 C116.58908401 67.66506241 116.58222076 68.92411896 116.57514954 70.22132874 C116.55722917 73.66768066 116.55838433 77.11377781 116.56409192 80.56016231 C116.56718552 83.44036167 116.5610894 86.32051222 116.55505317 89.20070463 C116.54101317 95.99704438 116.54256473 102.79325841 116.55395508 109.58959961 C116.56543525 116.59419612 116.55136145 123.59840971 116.5245586 130.60295576 C116.50238605 136.62351007 116.49576772 142.64394431 116.50163502 148.66453654 C116.50500219 152.25744298 116.5026058 155.850104 116.48538399 159.442976 C116.46701278 163.4504297 116.48111772 167.45714064 116.49829102 171.46459961 C116.48862305 172.65076874 116.47895508 173.83693787 116.46899414 175.05905151 C116.53741582 183.27680337 116.53741582 183.27680337 121 190 C126.1488661 193.26061533 130.36604262 193.42898283 136.26098633 193.38768005 C137.64665031 193.39575836 137.64665031 193.39575836 139.0603075 193.40399987 C142.15101819 193.41829004 145.24130124 193.41117304 148.33203125 193.40405273 C150.54975733 193.40975569 152.76748047 193.41671966 154.98519897 193.42485046 C161.00575797 193.44280388 167.02617139 193.44160949 173.04674911 193.43590808 C178.07182905 193.4328198 183.09688088 193.43890458 188.12195683 193.44494683 C200.65257332 193.45980057 213.18311946 193.45617243 225.71373093 193.44408352 C236.59252553 193.43414875 247.47115011 193.44709677 258.34991848 193.47101771 C269.52597047 193.49540685 280.70196081 193.50461741 291.87804317 193.49836498 C298.15032638 193.49499098 304.42246906 193.49744023 310.69473267 193.51461601 C316.59139719 193.53005846 322.48773642 193.52615936 328.38438797 193.50731087 C330.54914919 193.50361772 332.71393437 193.50675447 334.87867355 193.51719666 C337.83249746 193.5303581 340.78523672 193.5189017 343.73901367 193.50120544 C344.59679822 193.51081045 345.45458277 193.52041546 346.33836079 193.53031152 C351.70772611 193.46406773 354.7242106 192.53711766 359 189 C364.12286392 183.56424791 363.56705877 177.82982893 363.51757812 170.77172852 C363.5245874 169.54339294 363.53159668 168.31505737 363.53881836 167.04949951 C363.55337904 163.69170534 363.55000602 160.33490073 363.53730202 156.9771626 C363.52714505 153.45570414 363.53657537 149.93428674 363.54284668 146.41282654 C363.55011625 140.49901783 363.54055471 134.58540917 363.52148438 128.67163086 C363.4997268 121.8459463 363.50676129 115.02073992 363.52879 108.19506699 C363.54697591 102.32393078 363.54948652 96.45293805 363.53903532 90.58178276 C363.53281652 87.07997587 363.5319197 83.57839328 363.54518127 80.07660103 C363.55894294 76.1701022 363.53983793 72.26413338 363.51757812 68.35766602 C363.52567505 67.20471542 363.53377197 66.05176483 363.54211426 64.86387634 C363.47378836 58.38493385 363.13463599 54.11879708 359 49 C353.55190467 44.84439567 349.18735957 44.42320589 342.47216797 44.49829102 C341.54283447 44.49288803 340.61350098 44.48748505 339.65600586 44.48191833 C336.60107032 44.46946697 333.54708366 44.48589586 330.4921875 44.50390625 C328.36182608 44.50375121 326.23146437 44.50226132 324.10110474 44.49949646 C319.64426144 44.49811416 315.18774062 44.51064455 310.73095703 44.53344727 C305.01997615 44.56186568 299.30952947 44.55908283 293.59850883 44.54635715 C289.20272257 44.53940181 284.80705972 44.54718709 280.41128922 44.55961418 C278.30536497 44.56412763 276.19942748 44.56446641 274.09350204 44.56054878 C271.15173929 44.55763715 268.21071267 44.57414041 265.26904297 44.59594727 C264.40034576 44.59144562 263.53164856 44.58694397 262.6366272 44.58230591 C257.97425157 44.63970578 254.71630551 44.86672862 251 48 C250.34 49.32 249.68 50.64 249 52 C239.1 52.495 239.1 52.495 229 53 C228.505 50.525 228.505 50.525 228 48 C223.77291649 44.19055117 219.11028159 44.56807124 213.73095703 44.59594727 C212.34221375 44.58565239 212.34221375 44.58565239 210.92541504 44.57514954 C207.86939085 44.55687063 204.81387956 44.56072108 201.7578125 44.56640625 C199.62938266 44.56184457 197.5009543 44.55653903 195.37252808 44.55052185 C190.91219092 44.54158828 186.45203278 44.54401627 181.99169922 44.55395508 C176.28303127 44.56543745 170.57498255 44.54524539 164.86639595 44.51603794 C160.47053111 44.4976672 156.07481435 44.49797031 151.67892075 44.50367546 C149.5746359 44.50382861 147.47034097 44.49778975 145.36609268 44.48538399 C142.41961413 44.47046184 139.47427557 44.4811609 136.52783203 44.49829102 C135.66318329 44.48862305 134.79853455 44.47895508 133.90768433 44.46899414 C127.40936199 44.54787453 122.36702719 45.73944421 118.33097935 51.29905891 Z " fill="#E7E8E9" transform="translate(78,200)"/>
<path d="M0 0 C28.05 0 56.1 0 85 0 C85 54.78 85 109.56 85 166 C56.95 166 28.9 166 0 166 C0 111.22 0 56.44 0 0 Z " fill="#0EAEBD" transform="translate(79,260)"/>
<path d="M0 0 C0.75085363 0.00411064 1.50170726 0.00822127 2.27531403 0.01245648 C3.07333571 0.0089504 3.8713574 0.00544433 4.69356155 0.00183201 C7.39628551 -0.00755107 10.09879723 -0.00254104 12.80153054 0.00229985 C14.74731345 -0.00143295 16.69309487 -0.00603297 18.63887388 -0.0114308 C24.0081926 -0.02372216 29.37744931 -0.02339315 34.74677891 -0.02104205 C40.5287519 -0.02063542 46.3107046 -0.0316582 52.09266824 -0.04115719 C63.42896986 -0.05780169 74.76525068 -0.06326828 86.1015635 -0.06438194 C95.31201213 -0.06533078 104.52245387 -0.0694328 113.73290032 -0.07578319 C135.57176042 -0.09053518 157.41061515 -0.10283191 179.2494809 -0.10178608 C179.94835804 -0.10175492 180.64723518 -0.10172376 181.36729041 -0.10169166 C184.90972817 -0.10152544 188.45216592 -0.10132736 191.99460368 -0.10112225 C193.04997076 -0.10106241 193.04997076 -0.10106241 194.12665839 -0.10100137 C195.54946556 -0.10092049 196.97227273 -0.1008369 198.39507991 -0.10075058 C220.53572683 -0.09952485 242.67631252 -0.11454028 264.81694192 -0.14189571 C289.67477625 -0.17259546 314.53257005 -0.18980413 339.39042455 -0.18796927 C352.55855378 -0.18730405 365.72661395 -0.19285366 378.89472741 -0.21432537 C390.10523397 -0.23248721 401.31564018 -0.23692577 412.52615504 -0.22330652 C418.25013792 -0.21675157 423.973928 -0.21675035 429.69789284 -0.23401302 C434.93237071 -0.24963764 440.16650122 -0.2469896 445.40097006 -0.22944476 C447.30002826 -0.2263513 449.19911171 -0.23009444 451.09814017 -0.24116491 C453.66951722 -0.25516835 456.23965586 -0.24479362 458.81098908 -0.22805256 C459.93024603 -0.2429571 459.93024603 -0.2429571 461.07211423 -0.25816274 C464.48855652 -0.21077676 466.34118388 0.02088008 469.09761792 2.1133365 C474.91317624 10.09399489 471.6689927 18.77456685 471.6689927 29.26972538 C312.6089927 29.26972538 153.5489927 29.26972538 -10.3310073 29.26972538 C-10.3310073 0.08385043 -10.3310073 0.08385043 0 0 Z " fill="#8A8895" transform="translate(25.331007301807404,440.73027461767197)"/>
<path d="M0 0 C6.6 0 13.2 0 20 0 C20.99 2.97 20.99 2.97 22 6 C25.17402055 7.05800685 27.42244347 7.13019844 30.75713634 7.1386652 C31.96488096 7.14413964 33.17262558 7.14961409 34.41696852 7.15525442 C35.76407819 7.15633069 37.11118793 7.15731537 38.45829773 7.15821838 C39.88394444 7.16278274 41.30958981 7.16778258 42.7352336 7.17318195 C46.66199559 7.18678685 50.58874891 7.19418821 54.51552832 7.20060861 C58.74660934 7.20860224 62.97767223 7.22230358 67.20874023 7.23532104 C74.54241558 7.25709853 81.87609275 7.27523837 89.20978355 7.29092598 C99.81314391 7.31361303 110.41648422 7.34175746 121.01982758 7.37124526 C138.22194978 7.41893547 155.42408016 7.46219578 172.6262207 7.50268555 C189.33911781 7.5420332 206.05200764 7.58345768 222.76489258 7.62768555 C223.79461788 7.63040982 224.82434319 7.63313409 225.88527229 7.63594092 C231.05096506 7.64962027 236.21665772 7.66334057 241.38235033 7.67708123 C284.25488521 7.79106845 327.12743601 7.89760053 370 8 C370 17.9 370 27.8 370 38 C233.38 38 96.76 38 -44 38 C-44 28.1 -44 18.2 -44 8 C-41.30328125 7.95101562 -38.6065625 7.90203125 -35.828125 7.8515625 C-33.2134857 7.79753718 -30.59893729 7.74023579 -27.984375 7.68261719 C-26.16868879 7.64435809 -24.35292759 7.60949983 -22.53710938 7.578125 C-19.92550877 7.5324077 -17.31442312 7.47442464 -14.703125 7.4140625 C-13.89256653 7.40251129 -13.08200806 7.39096008 -12.24688721 7.37905884 C-6.74399198 7.37085404 -6.74399198 7.37085404 -2 5 C-1.34 3.35 -0.68 1.7 0 0 Z " fill="#FCC64E" transform="translate(93,34)"/>
<path d="M0 0 C0.9293335 -0.00540298 1.85866699 -0.01080597 2.81616211 -0.01637268 C5.87109765 -0.02882405 8.92508431 -0.01239515 11.97998047 0.00561523 C14.11034189 0.00546019 16.2407036 0.0039703 18.37106323 0.00120544 C22.82790653 -0.00017685 27.28442735 0.01235353 31.74121094 0.03515625 C37.45219182 0.06357466 43.1626385 0.06079181 48.87365913 0.04806614 C53.2694454 0.04111079 57.66510825 0.04889607 62.06087875 0.06132317 C64.166803 0.06583662 66.27274049 0.0661754 68.37866592 0.06225777 C71.32042868 0.05934614 74.2614553 0.07584939 77.203125 0.09765625 C78.0718222 0.0931546 78.94051941 0.08865295 79.83554077 0.08401489 C84.98130869 0.14736595 88.65138413 0.68092515 92.47216797 4.50170898 C93.0501653 10.62848066 93.0501653 10.62848066 91.0145874 13.70379639 C87.25341904 16.3635668 83.98279158 16.03142611 79.48095703 15.95581055 C78.09748392 15.95653376 78.09748392 15.95653376 76.68606186 15.95727158 C73.70291191 15.95428786 70.72076387 15.92383719 67.73779297 15.89233398 C65.89518719 15.88645225 64.05257474 15.8823719 62.20996094 15.88012695 C55.38059464 15.85916233 48.55137145 15.80331736 41.72216797 15.75170898 C26.45966797 15.66920898 11.19716797 15.58670898 -4.52783203 15.50170898 C-4.52783203 54.44170898 -4.52783203 93.38170898 -4.52783203 133.50170898 C66.75216797 133.50170898 138.03216797 133.50170898 211.47216797 133.50170898 C211.47216797 94.56170898 211.47216797 55.62170898 211.47216797 15.50170898 C180.71665697 15.6600656 180.71665697 15.6600656 149.96142578 15.86206055 C144.01269531 15.88012695 144.01269531 15.88012695 141.22772217 15.88348389 C139.28286073 15.88962578 137.33801452 15.90369332 135.39324951 15.92401123 C132.44695581 15.95325353 129.50159266 15.95733441 126.55517578 15.95581055 C125.68894215 15.97020298 124.82270851 15.98459541 123.93022537 15.99942398 C120.10401229 15.97289805 118.11351613 15.95759148 114.93182373 13.69598389 C112.81245191 10.50996941 112.99677282 8.23695656 113.47216797 4.50170898 C115.30332004 1.88577746 116.38185163 1.53181443 119.47216797 0.50170898 C122.48803489 0.38424806 125.48160757 0.32353613 128.49829102 0.30883789 C129.42222153 0.3006604 130.34615204 0.29248291 131.29808044 0.28405762 C134.3600093 0.25921779 137.42189178 0.24268999 140.48388672 0.22827148 C142.05347106 0.22028597 142.05347106 0.22028597 143.65476418 0.21213913 C149.1947214 0.18541201 154.73465614 0.16603682 160.2746582 0.15161133 C164.85591624 0.13827741 169.43672831 0.11043382 174.01782227 0.06958008 C179.55211035 0.02022623 185.08599417 -0.00451341 190.62049294 -0.01161575 C192.7267784 -0.01832264 194.83305504 -0.03352998 196.93921471 -0.05750656 C199.89297594 -0.08921017 202.84518477 -0.0891867 205.79907227 -0.08178711 C207.0953656 -0.10639511 207.0953656 -0.10639511 208.41784668 -0.13150024 C214.56034407 -0.06876086 218.82210334 1.4062064 223.47216797 5.50170898 C227.62109668 10.85344456 226.90143372 17.26821896 226.8762207 23.74584961 C226.88308395 24.97579147 226.8899472 26.20573334 226.89701843 27.47294617 C226.91215385 30.83464447 226.91378901 34.1957869 226.90807605 37.55747795 C226.90497924 40.36813871 226.91108198 43.1787496 226.91711479 45.98940325 C226.93114553 52.62131455 226.9296104 59.253097 226.91821289 65.88500977 C226.90672797 72.71865146 226.92081657 79.55190087 226.94760936 86.38549089 C226.96978277 92.26169355 226.97640023 98.13777321 226.97053295 104.01401472 C226.96716666 107.51971811 226.9695565 111.02516995 226.98678398 114.53083801 C227.00515694 118.43990404 226.99104906 122.34848917 226.97387695 126.25756836 C226.98837891 127.99238716 226.98837891 127.99238716 227.00317383 129.76225281 C226.94755959 135.80301804 226.81414083 139.89832953 222.47216797 144.50170898 C217.342894 148.74463967 213.57958705 149.07422438 207.21118164 149.00291443 C206.28740565 149.00844883 205.36362967 149.01398322 204.41186047 149.01968533 C201.321011 149.03328248 198.23097033 149.01832741 195.14013672 149.00341797 C192.92241066 149.00720147 190.70468695 149.01270177 188.48696899 149.01979065 C182.46635188 149.03375829 176.44602013 149.02256607 170.42541885 149.00607944 C164.12613955 148.99223432 157.82687691 148.99868841 151.52758789 149.00221252 C140.94884868 149.00491506 130.37021008 148.99152286 119.79150391 148.96826172 C108.91190379 148.94434171 98.03245373 148.93725778 87.15283203 148.94775391 C74.03550782 148.96038622 60.91825895 148.95786733 47.80093384 148.9420948 C42.7930845 148.93633479 37.78528538 148.93641783 32.7774353 148.9411602 C26.88080109 148.94593089 20.98437468 148.9358242 15.08778 148.91420555 C12.92302527 148.90863882 10.75825056 148.90817133 8.59349442 148.91315842 C5.63981674 148.91910986 2.6867747 148.9066084 -0.2668457 148.88938904 C-1.55352252 148.89840411 -1.55352252 148.89840411 -2.86619282 148.9076013 C-7.8310288 148.85492592 -11.21739118 148.23137591 -15.52783203 145.50170898 C-20.77579721 140.11850687 -20.08715048 134.03444973 -20.02954102 126.96630859 C-20.03764549 125.07509529 -20.03764549 125.07509529 -20.0459137 123.14567566 C-20.059837 119.69934784 -20.04872172 116.253521 -20.03220248 112.80722117 C-20.01831884 109.19541611 -20.02481571 105.58363916 -20.02833557 101.97181702 C-20.03103474 95.90837561 -20.0175863 89.8451325 -19.99438477 83.78173828 C-19.96776474 76.77657812 -19.96603275 69.77174916 -19.97777313 62.76655573 C-19.98855977 56.01970246 -19.9823577 49.27296874 -19.96821785 42.52612495 C-19.9624669 39.65820037 -19.96253365 36.79036351 -19.96728325 33.92243767 C-19.97295056 29.91734723 -19.95371664 25.91274971 -19.93188477 21.90771484 C-19.93638641 20.71952148 -19.94088806 19.53132813 -19.94552612 18.30712891 C-19.93562149 17.21508652 -19.92571686 16.12304413 -19.91551208 14.99790955 C-19.91308219 14.05164672 -19.91065229 13.10538389 -19.90814877 12.13044643 C-19.44733069 8.94528618 -18.4106707 7.09530003 -16.52783203 4.50170898 C-11.01276302 0.43294463 -6.73158978 -0.07526848 0 0 Z " fill="#010404" transform="translate(214.52783203125,244.498291015625)"/>
<path d="M0 0 C0.73734375 0.75152344 1.4746875 1.50304687 2.234375 2.27734375 C8.48059024 8.42651327 14.81986689 12.85035021 23 16 C24.65 16.66 26.3 17.32 28 18 C28 86.64 28 155.28 28 226 C-65.06 226 -158.12 226 -254 226 C-254 225.67 -254 225.34 -254 225 C-176.12 225 -98.24 225 -18 225 C-18 214.77 -18 204.54 -18 194 C-86.64 194 -155.28 194 -226 194 C-226 193.67 -226 193.34 -226 193 C-224.85109472 192.99853344 -223.70218945 192.99706688 -222.51846886 192.99555588 C-195.24476599 192.95985262 -167.97116959 192.90360967 -140.69756343 192.82207905 C-137.34053101 192.81206161 -133.98349809 192.80221748 -130.62646484 192.79248047 C-129.62397907 192.78956841 -129.62397907 192.78956841 -128.60124107 192.78659752 C-117.78033413 192.7555778 -106.9594484 192.73859696 -96.13850538 192.72680578 C-85.03491758 192.71439405 -73.93143269 192.68659483 -62.82791293 192.64538693 C-56.59132627 192.62272945 -50.35489852 192.6070919 -44.11826706 192.60811615 C-38.24955357 192.60886022 -32.38119192 192.59101105 -26.51256943 192.55883217 C-24.35750431 192.55030548 -22.20239986 192.54860192 -20.04732513 192.55419731 C-17.10628136 192.56081689 -14.16636372 192.54296502 -11.22543335 192.51898193 C-10.37133798 192.52674235 -9.51724261 192.53450277 -8.63726556 192.54249835 C-3.30807542 192.46549215 -0.16122641 191.6339282 4 188 C6.68140618 184.50254491 7.37617841 181.99258554 7.38768005 177.62442017 C7.39758469 176.5590654 7.40748932 175.49371063 7.41769409 174.39607239 C7.41094162 172.65821724 7.41094162 172.65821724 7.40405273 170.88525391 C7.41091599 169.65706436 7.41777924 168.42887482 7.42485046 167.16346741 C7.44000285 163.80164309 7.44161586 160.44037386 7.43590808 157.07855654 C7.43281366 154.26804018 7.43891164 151.45757381 7.44494683 148.64706457 C7.4589869 142.01369071 7.45743577 135.38044565 7.44604492 128.74707031 C7.43457016 121.91403722 7.44862939 115.08139691 7.4754414 108.24841559 C7.49762874 102.37306672 7.5042288 96.49784087 7.49836498 90.62245309 C7.49500068 87.11726182 7.49737476 83.61232216 7.51461601 80.10716629 C7.53301595 76.19580053 7.51886675 72.28491415 7.50170898 68.37353516 C7.51137695 67.21901352 7.52104492 66.06449188 7.53100586 64.87498474 C7.47130373 58.37307781 6.95264453 54.25244548 3 49 C-1.40813765 45.9717468 -5.65463242 45.49090009 -10.875 45.3125 C-13.22625 45.209375 -15.5775 45.10625 -18 45 C-18 35.43 -18 25.86 -18 16 C-18.99 15.505 -18.99 15.505 -20 15 C-19.09121094 14.63261719 -19.09121094 14.63261719 -18.1640625 14.2578125 C-10.59846879 10.88239377 -5.54703596 6.07813515 0 0 Z " fill="#B8BABF" transform="translate(433,200)"/>
<path d="M0 0 C12.21 0 24.42 0 37 0 C37 54.12 37 108.24 37 164 C24.79 164 12.58 164 0 164 C0 109.88 0 55.76 0 0 Z " fill="#00C6C8" transform="translate(80,261)"/>
<path d="M0 0 C30.36 0 60.72 0 92 0 C92 38.94 92 77.88 92 118 C76.49 118 60.98 118 45 118 C45 79.39 45 40.78 45 1 C30.15 1 15.3 1 0 1 C0 0.67 0 0.34 0 0 Z " fill="#0EAEBE" transform="translate(334,260)"/>
<path d="M0 0 C15.84 0 31.68 0 48 0 C48.495 5.98125 48.99 11.9625 49.5 18.125 C49.65662109 19.98141113 49.81324219 21.83782227 49.97460938 23.75048828 C50.09810237 25.27372692 50.22117498 26.79699972 50.34375 28.3203125 C50.40852539 29.06917725 50.47330078 29.81804199 50.54003906 30.58959961 C51.10950559 37.78702378 51 44.69863698 51 52 C33.18 52 15.36 52 -3 52 C-3 35.90718284 -3 35.90718284 -2.34375 28.3203125 C-2.28477539 27.5873999 -2.22580078 26.8544873 -2.16503906 26.09936523 C-1.94949716 23.44073875 -1.72424143 20.78290686 -1.5 18.125 C-1.005 12.14375 -0.51 6.1625 0 0 Z " fill="#FDFDFD" transform="translate(232,87)"/>
<path d="M0 0 C15.51 0 31.02 0 47 0 C51.65904553 20.18919728 51.65904553 20.18919728 53.16210938 26.78588867 C53.47282412 28.14624895 53.78501875 29.50627199 54.09863281 30.8659668 C54.56167821 32.87465392 55.01959903 34.88445294 55.4765625 36.89453125 C55.74549316 38.06862549 56.01442383 39.24271973 56.29150391 40.45239258 C57.05355163 44.26814568 57.51736798 48.13894383 58 52 C39.85 52 21.7 52 3 52 C0.70061728 25.55709877 0.70061728 25.55709877 0.375 13.0625 C0.25125 8.751875 0.1275 4.44125 0 0 Z " fill="#FA4F29" transform="translate(295,87)"/>
<path d="M0 0 C15.51 0 31.02 0 47 0 C46.814375 6.4659375 46.814375 6.4659375 46.625 13.0625 C46.59100098 14.36711182 46.55700195 15.67172363 46.52197266 17.01586914 C46.14822189 28.77210652 45.02513452 40.21095304 44 52 C25.85 52 7.7 52 -11 52 C-7.5288061 33.48696587 -7.5288061 33.48696587 -6.2109375 27.0703125 C-6.0621817 26.34302948 -5.9134259 25.61574646 -5.76016235 24.86642456 C-5.45345634 23.36962404 -5.1460425 21.87296837 -4.83789062 20.37646484 C-4.36542265 18.07841647 -3.89752592 15.77946356 -3.4296875 13.48046875 C-3.12787848 12.01036032 -2.82580571 10.54030601 -2.5234375 9.0703125 C-2.38489349 8.38711945 -2.24634949 7.70392639 -2.10360718 7.00003052 C-1.11445136 2.22890272 -1.11445136 2.22890272 0 0 Z " fill="#FA4F29" transform="translate(170,87)"/>
<path d="M0 0 C15.18 0 30.36 0 46 0 C48.57900494 6.44751234 51.09962184 12.875103 53.453125 19.40234375 C53.91075226 20.66891563 53.91075226 20.66891563 54.37762451 21.96107483 C55.01379403 23.72443027 55.64897944 25.48814104 56.28320312 27.25219727 C57.25700883 29.95696719 58.2378217 32.65913446 59.21875 35.36132812 C59.83897241 37.08317824 60.45877932 38.80517808 61.078125 40.52734375 C61.51865204 41.73667824 61.51865204 41.73667824 61.96807861 42.97044373 C64 48.65710673 64 48.65710673 64 52 C46.18 52 28.36 52 10 52 C2.96142578 20.32641602 2.96142578 20.32641602 2.48931885 18.17459106 C2.15284617 16.67926653 1.80014009 15.18753166 1.434021 13.69918823 C1.250672 12.9372818 1.067323 12.17537537 0.87841797 11.39038086 C0.71034637 10.71526962 0.54227478 10.04015839 0.36911011 9.34458923 C-0.11567628 6.26522369 0 3.1172921 0 0 Z " fill="#FDFDFD" transform="translate(358,87)"/>
<path d="M0 0 C1.22244667 0.00333092 1.22244667 0.00333092 2.46958923 0.00672913 C3.85090782 0.00684242 3.85090782 0.00684242 5.26013184 0.00695801 C6.2611644 0.01211929 7.26219696 0.01728058 8.29356384 0.02259827 C9.31316696 0.02401321 10.33277008 0.02542816 11.38327026 0.02688599 C14.65417867 0.03250355 17.92501972 0.04505902 21.19590759 0.05775452 C23.40749515 0.06276725 25.61908377 0.06733055 27.83067322 0.07142639 C33.26494116 0.08247868 38.69916957 0.09923389 44.13340759 0.12025452 C44.42812706 6.24673546 43.32008213 11.69173096 41.94590759 17.64759827 C41.74932556 18.52516785 41.55274353 19.40273743 41.35020447 20.30690002 C40.61942106 23.55902672 39.87565948 26.80822616 39.13340759 30.05775452 C37.48340759 37.33837952 35.83340759 44.61900452 34.13340759 52.12025452 C16.31340759 52.12025452 -1.50659241 52.12025452 -19.86659241 52.12025452 C-17.61629508 41.99391656 -17.61629508 41.99391656 -16.27845764 38.25892639 C-15.98152512 37.42196228 -15.68459259 36.58499817 -15.37866211 35.72267151 C-14.90669151 34.41900635 -14.90669151 34.41900635 -14.42518616 33.08900452 C-14.09744705 32.17187683 -13.76970795 31.25474915 -13.43203735 30.30982971 C-12.74457419 28.38959806 -12.05451167 26.47029518 -11.36195374 24.55189514 C-10.2978582 21.60297772 -9.24275533 18.65095509 -8.18885803 15.69837952 C-7.51815563 13.8284007 -6.84694994 11.95860231 -6.17518616 10.08900452 C-5.85851486 9.20370056 -5.54184357 8.31839661 -5.21557617 7.40626526 C-4.92179581 6.59451843 -4.62801544 5.78277161 -4.32533264 4.94642639 C-4.06711227 4.22966736 -3.80889191 3.51290833 -3.54284668 2.77442932 C-2.62977554 0.54098055 -2.45102771 0.15790654 0 0 Z " fill="#FDFDFD" transform="translate(109.86659240722656,86.87974548339844)"/>
<path d="M0 0 C15.18 0 30.36 0 46 0 C51.95573206 11.31589092 57.88770596 22.60968836 63.59033203 34.05029297 C64.65742499 36.19001829 65.72897026 38.32747841 66.80078125 40.46484375 C67.48463263 41.83320461 68.16823702 43.20168894 68.8515625 44.5703125 C69.17017242 45.20550812 69.48878235 45.84070374 69.81704712 46.49514771 C72 50.88494132 72 50.88494132 72 52 C54.18 52 36.36 52 18 52 C15.03 43.79125 12.06 35.5825 9 27.125 C8.06027344 24.53285645 7.12054688 21.94071289 6.15234375 19.27001953 C5.41380977 17.22437508 4.67551212 15.17864528 3.9375 13.1328125 C3.54884766 12.06345459 3.16019531 10.99409668 2.75976562 9.89233398 C2.39431641 8.87743896 2.02886719 7.86254395 1.65234375 6.81689453 C1.33257568 5.93309113 1.01280762 5.04928772 0.68334961 4.13870239 C0 2 0 2 0 0 Z " fill="#FA4F29" transform="translate(420,87)"/>
<path d="M0 0 C1.22244667 0.00333092 1.22244667 0.00333092 2.46958923 0.00672913 C3.85090782 0.00684242 3.85090782 0.00684242 5.26013184 0.00695801 C6.2611644 0.01211929 7.26219696 0.01728058 8.29356384 0.02259827 C9.31316696 0.02401321 10.33277008 0.02542816 11.38327026 0.02688599 C14.65417867 0.03250355 17.92501972 0.04505902 21.19590759 0.05775452 C23.40749515 0.06276725 25.61908377 0.06733055 27.83067322 0.07142639 C33.26494116 0.08247868 38.69916957 0.09923389 44.13340759 0.12025452 C42.15988559 6.92749509 39.96291164 13.61766606 37.55918884 20.28431702 C37.26733704 21.09989075 36.97548523 21.91546448 36.67478943 22.75575256 C35.60129961 25.75325893 34.52335468 28.74916831 33.44590759 31.74525452 C31.03278259 38.46900452 28.61965759 45.19275452 26.13340759 52.12025452 C8.31340759 52.12025452 -9.50659241 52.12025452 -27.86659241 52.12025452 C-22.46445806 40.71574868 -17.06209127 29.34603708 -11.40663147 18.06996155 C-10.33553331 15.93329672 -9.26891048 13.79443341 -8.20252991 11.65541077 C-7.51789158 10.28679234 -6.83300622 8.91829745 -6.14784241 7.54994202 C-5.83125671 6.9147464 -5.51467102 6.27955078 -5.18849182 5.62510681 C-2.43964774 0.15717339 -2.43964774 0.15717339 0 0 Z " fill="#FA4F29" transform="translate(47.86659240722656,86.87974548339844)"/>
<path d="M0 0 C18.48 0 36.96 0 56 0 C56 31.91891892 56 31.91891892 48.6875 40.8125 C39.66691331 48.15483801 32.56861769 49.99490112 21 49 C13.66039913 46.93332291 8.09006305 42.38945173 4 36 C0 27 0 27 0 0 Z " fill="#EFEFEF" transform="translate(86,154)"/>
<path d="M0 0 C18.48 0 36.96 0 56 0 C56 32.70967742 56 32.70967742 46.125 43.0625 C38.12461158 49.22821288 30.01022793 50.22550845 20 49 C11.83690008 46.15811851 6.39878181 40.2807423 2 33 C-2.0927934 22.76801649 0 11.0201835 0 0 Z " fill="#EFEFEF" transform="translate(370,154)"/>
<path d="M0 0 C18.48 0 36.96 0 56 0 C56 32.70967742 56 32.70967742 46.125 43.0625 C38.31127517 49.0956962 30.76557442 49.92410807 21 49 C18.23484442 48.31614432 16.53060215 47.44605837 14 46 C12.989375 45.46375 11.97875 44.9275 10.9375 44.375 C5.49897957 39.97789838 2.56957379 34.42393447 0 28 C0 18.76 0 9.52 0 0 Z " fill="#E40C27" transform="translate(299,154)"/>
<path d="M0 0 C18.48 0 36.96 0 56 0 C56 31.91891892 56 31.91891892 48.6875 40.8125 C39.78181754 48.0613113 32.56491127 50.14583222 21 49 C13.67868952 46.83596624 8.1020515 42.40817996 4 36 C0 27 0 27 0 0 Z " fill="#E40C27" transform="translate(157,154)"/>
<path d="M0 0 C18.48 0 36.96 0 56 0 C56 32.75 56 32.75 47.46875 41.5859375 C40.15851069 48.3977514 33.22962715 49.58392286 23.34375 49.3515625 C18.78759667 48.87252769 15.70784785 47.61986432 12 45 C10.96875 44.34 9.9375 43.68 8.875 43 C-3.85636992 29.71509225 0 18.60550951 0 0 Z " fill="#E30C27" transform="translate(441,154)"/>
<path d="M0 0 C18.48 0 36.96 0 56 0 C56 28 56 28 50 40 C47.18027811 42.55117695 45.18448505 44.20990485 42 46 C40.453125 46.928125 40.453125 46.928125 38.875 47.875 C32.45501006 50.31371471 24.62013223 50.0595509 18.1171875 48.15625 C10.70223532 44.80024718 5.12947302 39.43149857 2.125 31.8125 C-1.22508222 20.4594436 0 13.87970262 0 0 Z " fill="#E30C27" transform="translate(15,154)"/>
<path d="M0 0 C18.48 0 36.96 0 56 0 C56 33.14190821 56 33.14190821 46.51171875 42.859375 C39.87192311 48.51817439 32.76477116 49.76047024 24.17578125 49.4375 C15.76045494 48.27819306 10.29913293 43.8923727 4.69140625 37.76953125 C-2.58387356 25.85689063 0 13.86831155 0 0 Z " fill="#F0F0F0" transform="translate(228,154)"/>
<path d="M0 0 C0.33 0 0.66 0 1 0 C1 9.57 1 19.14 1 29 C121.78 29 242.56 29 367 29 C367 19.43 367 9.86 367 0 C382.51 0 398.02 0 414 0 C414 9.9 414 19.8 414 30 C277.38 30 140.76 30 0 30 C0 20.1 0 10.2 0 0 Z " fill="#E39A2A" transform="translate(49,42)"/>
<path d="M0 0 C5.90898055 -0.09184944 11.8154836 -0.17148092 17.72460938 -0.21972656 C19.73446038 -0.23983805 21.74425291 -0.26713115 23.75390625 -0.30175781 C26.64337596 -0.35029634 29.53207191 -0.37297322 32.421875 -0.390625 C33.31992859 -0.41127014 34.21798218 -0.43191528 35.14324951 -0.45318604 C41.37121875 -0.45542454 41.37121875 -0.45542454 44.53613281 1.83691406 C50.09703449 10.05399026 47 18.07562861 47 29 C31.49 29 15.98 29 0 29 C0 19.43 0 9.86 0 0 Z " fill="#706F7F" transform="translate(450,441)"/>
<path d="M0 0 C3.48428765 1.26027426 4.74537261 2.06396633 6.9375 5.0625 C7.53309848 8.2386456 7.49583017 11.33975807 7.4375 14.5625 C7.45296875 15.41714844 7.4684375 16.27179688 7.484375 17.15234375 C7.44559087 23.36750044 7.44559087 23.36750044 5.08984375 26.58984375 C2.21870806 28.55430501 0.43085296 29.13379292 -3.0625 29.0625 C-5.87230325 27.03894508 -7.75363621 25.41877404 -8.54370117 21.94946289 C-8.73627232 19.46866311 -8.74463568 17.04980682 -8.6875 14.5625 C-8.70683594 13.72074219 -8.72617188 12.87898438 -8.74609375 12.01171875 C-8.71105918 7.56232808 -8.48022943 5.61229031 -5.71484375 1.97265625 C-3.0625 0.0625 -3.0625 0.0625 0 0 Z " fill="#000405" transform="translate(144.0625,325.9375)"/>
</svg>
