<?xml version="1.0" encoding="UTF-8"?>
<svg version="1.1" xmlns="http://www.w3.org/2000/svg" width="512" height="512">
<path d="M0 0 C22.12010253 16.91956313 37.15895096 39.98619975 41.9609375 67.60546875 C42.62291192 73.4668345 42.41942296 79.27308926 42.36328125 85.16796875 C47.64328125 85.16796875 52.92328125 85.16796875 58.36328125 85.16796875 C58.36328125 82.52796875 58.36328125 79.88796875 58.36328125 77.16796875 C77.09612295 77.02759405 95.82885741 76.92189779 114.56211662 76.85709572 C123.26099135 76.82620257 131.95953862 76.78410954 140.65820312 76.71533203 C148.24301033 76.65539019 155.8275803 76.6167866 163.4126178 76.60343778 C167.42623471 76.59563881 171.43917316 76.57740616 175.45257187 76.53358841 C179.2366302 76.4926125 183.019736 76.4803492 186.80399513 76.48932266 C188.18664682 76.48768306 189.56933309 76.47589602 190.95179176 76.4527359 C203.13913226 76.25871965 209.56250173 79.46886993 218.35548401 87.67242432 C220.13462641 89.43709583 221.90303101 91.21263832 223.66235352 92.99707031 C224.6465645 93.98077127 225.63165235 94.96359556 226.61753845 95.94561768 C229.26653145 98.5892382 231.90304398 101.24498291 234.53719831 103.90337849 C237.30309208 106.69070251 240.08006321 109.46694971 242.85569763 112.24456787 C247.5062562 116.9015509 252.14937588 121.56584025 256.78735352 126.23535156 C262.74394526 132.23238832 268.71208188 138.21779442 274.68412876 144.19943619 C279.82403827 149.34763564 284.95946957 154.50029512 290.09375644 159.65410137 C291.19511413 160.75950878 292.29662726 161.86476135 293.39829373 162.96986103 C296.53278495 166.11412368 299.66490367 169.26070724 302.79296303 172.41136932 C304.19495015 173.8224172 305.59935332 175.23106324 307.0038147 176.63964844 C307.83215317 177.47514221 308.66049164 178.31063599 309.51393127 179.17144775 C310.23745568 179.89924564 310.96098009 180.62704353 311.70642948 181.3768959 C315.25566456 185.21365348 314.52559028 189.40551342 314.5402832 194.35595703 C314.5468544 195.30900223 314.5534256 196.26204742 314.56019592 197.24397278 C314.57996015 200.40874302 314.59160024 203.57346568 314.6015625 206.73828125 C314.60563803 207.81868557 314.60971355 208.89908989 314.61391258 210.01223373 C314.63478948 215.73373983 314.64908258 221.45522184 314.65844727 227.17675781 C314.66949786 233.08152601 314.70387783 238.98591592 314.74361897 244.89055061 C314.7697956 249.43397715 314.7781402 253.97731386 314.78172874 258.52080917 C314.7865942 260.69685284 314.79820698 262.8728925 314.81676674 265.04886246 C314.84117338 268.1007481 314.84018977 271.15165945 314.83325195 274.20361328 C314.85246704 275.54434151 314.85246704 275.54434151 314.87207031 276.91215515 C314.81449377 283.88643262 313.02623694 289.12912866 308.3984375 294.41015625 C307.74746094 294.94898438 307.09648437 295.4878125 306.42578125 296.04296875 C305.77738281 296.59726562 305.12898438 297.1515625 304.4609375 297.72265625 C300.35797627 300.54965002 296.79234863 301.41857285 291.84375 301.36328125 C290.82216797 301.35683594 289.80058594 301.35039062 288.74804688 301.34375 C287.69294922 301.32699219 286.63785156 301.31023437 285.55078125 301.29296875 C284.47634766 301.28394531 283.40191406 301.27492188 282.29492188 301.265625 C279.65081271 301.24212181 277.00716253 301.2092645 274.36328125 301.16796875 C274.26313721 301.79413086 274.16299316 302.42029297 274.05981445 303.06542969 C272.99938354 309.05175147 271.36917449 314.0465677 268.55078125 319.41796875 C268.22013672 320.08570313 267.88949219 320.7534375 267.54882812 321.44140625 C260.40621812 335.42501893 247.7668155 343.45457029 233.10418218 348.22924793 C229.34600132 349.17230488 226.19862924 349.41651639 222.33308506 349.41406441 C221.32060829 349.41752594 221.32060829 349.41752594 220.28767744 349.4210574 C218.03360815 349.42633683 215.77982656 349.41739064 213.52577209 349.40847778 C211.89043388 349.40935027 210.25509595 349.41110205 208.6197595 349.41365612 C204.1319174 349.41812512 199.64417088 349.41013207 195.15634096 349.40009999 C190.31456468 349.39146139 185.47279378 349.39438595 180.63101196 349.39590454 C172.24425543 349.39695313 163.85753003 349.39067922 155.47078133 349.37942886 C143.34496104 349.36317333 131.21915579 349.3579658 119.09332579 349.35545288 C99.41987468 349.35107586 79.74644015 349.33776657 60.07299805 349.31884766 C40.96232181 349.30048904 21.85165007 349.28633244 2.7409668 349.27783203 C1.56294261 349.27730658 0.38491842 349.27678114 -0.82880347 349.27623977 C-6.73861715 349.27362969 -12.64843086 349.27110227 -18.55824459 349.26861596 C-67.58441421 349.24788325 -116.61056542 349.21250883 -165.63671875 349.16796875 C-165.63671875 343.88796875 -165.63671875 338.60796875 -165.63671875 333.16796875 C-106.73171875 332.67296875 -106.73171875 332.67296875 -46.63671875 332.16796875 C-48.94671875 329.52796875 -51.25671875 326.88796875 -53.63671875 324.16796875 C-55.5625 320.89453125 -55.5625 320.89453125 -56.94921875 317.79296875 C-57.41972656 316.77460938 -57.89023438 315.75625 -58.375 314.70703125 C-59.95885114 310.26440236 -60.82297217 305.80487629 -61.63671875 301.16796875 C-62.2915625 301.18891602 -62.94640625 301.20986328 -63.62109375 301.23144531 C-66.62614203 301.31527258 -69.63094339 301.3668377 -72.63671875 301.41796875 C-73.66667969 301.45148438 -74.69664063 301.485 -75.7578125 301.51953125 C-83.59809127 301.61940741 -88.92864602 300.41737743 -94.87890625 295.203125 C-95.41773437 294.55214844 -95.9565625 293.90117187 -96.51171875 293.23046875 C-97.06601563 292.58207031 -97.6203125 291.93367188 -98.19140625 291.265625 C-101.5060151 286.45496296 -101.92082911 282.06765274 -101.86376953 276.34838867 C-101.86406158 275.57712646 -101.86435364 274.80586426 -101.86465454 274.01123047 C-101.86326627 271.47351656 -101.8477289 268.93609984 -101.83203125 266.3984375 C-101.82829933 264.63438579 -101.8254532 262.870332 -101.82345581 261.10627747 C-101.81583345 256.4718754 -101.79619696 251.83759944 -101.77404785 247.20324707 C-101.75355932 242.47080186 -101.74444766 237.73833619 -101.734375 233.00585938 C-101.71294975 223.72650721 -101.67883067 214.44724848 -101.63671875 205.16796875 C-98.99671875 205.16796875 -96.35671875 205.16796875 -93.63671875 205.16796875 C-93.63671875 198.23796875 -93.63671875 191.30796875 -93.63671875 184.16796875 C-95.61671875 183.83796875 -97.59671875 183.50796875 -99.63671875 183.16796875 C-102.23399712 182.07202352 -104.69769991 180.94778023 -107.19921875 179.66796875 C-108.2519397 179.12958374 -108.2519397 179.12958374 -109.32592773 178.58032227 C-134.88062354 165.21080039 -153.1812257 143.73293405 -161.91796875 116.2578125 C-169.94497044 88.99467462 -166.84945666 60.09216923 -153.9765625 34.921875 C-140.55902803 10.92924503 -118.8896783 -7.22873849 -92.50390625 -15.11328125 C-60.50081736 -24.10645695 -27.23427618 -18.92277856 0 0 Z M50.36328125 301.16796875 C48.71328125 306.11796875 47.06328125 311.06796875 45.36328125 316.16796875 C42.00423602 322.95603931 39.25572312 327.29703851 34.36328125 333.16796875 C81.88328125 333.16796875 129.40328125 333.16796875 178.36328125 333.16796875 C176.38328125 330.52796875 174.40328125 327.88796875 172.36328125 325.16796875 C171.06520926 322.9146166 169.83014048 320.62321371 168.67578125 318.29296875 C168.11503906 317.18179687 167.55429687 316.070625 166.9765625 314.92578125 C165.0684295 310.48117122 163.75315211 305.8008716 162.36328125 301.16796875 C125.40328125 301.16796875 88.44328125 301.16796875 50.36328125 301.16796875 Z " fill="#3C99E1" transform="translate(181.63671875,90.83203125)"/>
<path d="M0 0 C18.73285716 -0.13909679 37.4655677 -0.24607093 56.19883537 -0.31087303 C64.8977101 -0.34176618 73.59625737 -0.38385921 82.29492188 -0.45263672 C89.87972908 -0.51257856 97.46429905 -0.55118215 105.04933655 -0.56453097 C109.06295346 -0.57232994 113.07589191 -0.59056259 117.08929062 -0.63438034 C120.87334895 -0.67535625 124.65645475 -0.68761955 128.44071388 -0.67864609 C129.82336557 -0.68028569 131.20605184 -0.69207273 132.58851051 -0.71523285 C144.77585101 -0.9092491 151.19922048 2.30090118 159.99220276 10.50445557 C161.77134516 12.26912708 163.53974976 14.04466957 165.29907227 15.82910156 C166.28328325 16.81280252 167.2683711 17.79562681 168.2542572 18.77764893 C170.9032502 21.42126945 173.53976273 24.07701416 176.17391706 26.73540974 C178.93981083 29.52273376 181.71678196 32.29898096 184.49241638 35.07659912 C189.14297495 39.73358215 193.78609463 44.3978715 198.42407227 49.06738281 C204.38066401 55.06441957 210.34880063 61.04982567 216.32084751 67.03146744 C221.46075702 72.17966689 226.59618832 77.33232637 231.73047519 82.48613262 C232.83183288 83.59154003 233.93334601 84.6967926 235.03501248 85.80189228 C238.1695037 88.94615493 241.30162242 92.09273849 244.42968178 95.24340057 C245.8316689 96.65444845 247.23607207 98.06309449 248.64053345 99.47167969 C249.46887192 100.30717346 250.29721039 101.14266724 251.15065002 102.003479 C251.87417443 102.73127689 252.59769884 103.45907478 253.34314823 104.20892715 C256.89238331 108.04568473 256.16230903 112.23754467 256.17700195 117.18798828 C256.18357315 118.14103348 256.19014435 119.09407867 256.19691467 120.07600403 C256.2166789 123.24077427 256.22831899 126.40549693 256.23828125 129.5703125 C256.24235678 130.65071682 256.2464323 131.73112114 256.25063133 132.84426498 C256.27150823 138.56577108 256.28580133 144.28725309 256.29516602 150.00878906 C256.30621661 155.91355726 256.34059658 161.81794717 256.38033772 167.72258186 C256.40651435 172.2660084 256.41485895 176.80934511 256.41844749 181.35284042 C256.42331295 183.52888409 256.43492573 185.70492375 256.45348549 187.88089371 C256.47789213 190.93277935 256.47690852 193.9836907 256.4699707 197.03564453 C256.48278076 197.92946335 256.49559082 198.82328217 256.50878906 199.7441864 C256.45121252 206.71846387 254.66295569 211.96115991 250.03515625 217.2421875 C249.38417969 217.78101563 248.73320312 218.31984375 248.0625 218.875 C247.41410156 219.42929687 246.76570313 219.98359375 246.09765625 220.5546875 C241.99469502 223.38168127 238.42906738 224.2506041 233.48046875 224.1953125 C231.9480957 224.18564453 231.9480957 224.18564453 230.38476562 224.17578125 C228.80211914 224.15064453 228.80211914 224.15064453 227.1875 224.125 C226.11306641 224.11597656 225.03863281 224.10695313 223.93164062 224.09765625 C221.28753146 224.07415306 218.64388128 224.04129575 216 224 C215.89985596 224.62616211 215.79971191 225.25232422 215.6965332 225.89746094 C214.63610229 231.88378272 213.00589324 236.87859895 210.1875 242.25 C209.85685547 242.91773438 209.52621094 243.58546875 209.18554688 244.2734375 C202.04293687 258.25705018 189.40353425 266.28660154 174.74090093 271.06127918 C170.98272007 272.00433613 167.83534799 272.24854764 163.96980381 272.24609566 C162.95732704 272.24955719 162.95732704 272.24955719 161.92439619 272.25308865 C159.6703269 272.25836808 157.41654531 272.24942189 155.16249084 272.24050903 C153.52715263 272.24138152 151.8918147 272.2431333 150.25647825 272.24568737 C145.76863615 272.25015637 141.28088963 272.24216332 136.79305971 272.23213124 C131.95128343 272.22349264 127.10951253 272.2264172 122.26773071 272.22793579 C113.88097418 272.22898438 105.49424878 272.22271047 97.10750008 272.21146011 C84.98167979 272.19520458 72.85587454 272.18999705 60.73004454 272.18748413 C41.05659343 272.18310711 21.3831589 272.16979782 1.7097168 272.15087891 C-17.40095944 272.13252029 -36.51163118 272.11836369 -55.62231445 272.10986328 C-56.80033864 272.10933783 -57.97836283 272.10881239 -59.19208472 272.10827102 C-65.1018984 272.10566094 -71.01171211 272.10313352 -76.92152584 272.10064721 C-125.94769546 272.0799145 -174.97384667 272.04454008 -224 272 C-224 266.72 -224 261.44 -224 256 C-165.095 255.505 -165.095 255.505 -105 255 C-107.31 252.36 -109.62 249.72 -112 247 C-113.92578125 243.7265625 -113.92578125 243.7265625 -115.3125 240.625 C-115.78300781 239.60664063 -116.25351563 238.58828125 -116.73828125 237.5390625 C-118.32213239 233.09643361 -119.18625342 228.63690754 -120 224 C-120.65484375 224.02094727 -121.3096875 224.04189453 -121.984375 224.06347656 C-124.98942328 224.14730383 -127.99422464 224.19886895 -131 224.25 C-132.02996094 224.28351563 -133.05992187 224.31703125 -134.12109375 224.3515625 C-141.96137252 224.45143866 -147.29192727 223.24940868 -153.2421875 218.03515625 C-153.78101563 217.38417969 -154.31984375 216.73320312 -154.875 216.0625 C-155.42929688 215.41410156 -155.98359375 214.76570312 -156.5546875 214.09765625 C-159.86929635 209.28699421 -160.28411036 204.89968399 -160.22705078 199.18041992 C-160.22734283 198.40915771 -160.22763489 197.63789551 -160.22793579 196.84326172 C-160.22654752 194.30554781 -160.21101015 191.76813109 -160.1953125 189.23046875 C-160.19158058 187.46641704 -160.18873445 185.70236325 -160.18673706 183.93830872 C-160.1791147 179.30390665 -160.15947821 174.66963069 -160.1373291 170.03527832 C-160.11684057 165.30283311 -160.10772891 160.57036744 -160.09765625 155.83789062 C-160.07623098 146.55852954 -160.04106023 137.279295 -160 128 C-154.72 128 -149.44 128 -144 128 C-143.970271 131.33109863 -143.970271 131.33109863 -143.93994141 134.72949219 C-143.87304281 142.06574933 -143.79540316 149.40186444 -143.71247292 156.737957 C-143.66252117 161.18595 -143.61619102 165.63391939 -143.578125 170.08203125 C-143.54125802 174.37448419 -143.49489422 178.66673899 -143.44193649 182.95902252 C-143.42340005 184.59684016 -143.4082893 186.23470026 -143.39665604 187.87258148 C-143.37978064 190.1662374 -143.35074298 192.45944029 -143.31884766 194.75292969 C-143.30552399 196.05864929 -143.29220032 197.3643689 -143.2784729 198.70965576 C-143.01976335 201.7664828 -142.71860299 203.49682254 -141 206 C-138.65061112 207.17469444 -137.04926795 207.20034889 -134.4296875 207.31640625 C-133.53378906 207.35830078 -132.63789063 207.40019531 -131.71484375 207.44335938 C-130.77769531 207.48267578 -129.84054688 207.52199219 -128.875 207.5625 C-127.45767578 207.62727539 -127.45767578 207.62727539 -126.01171875 207.69335938 C-123.67462908 207.79959072 -121.3374317 207.90163176 -119 208 C-118.96986816 207.4438501 -118.93973633 206.8877002 -118.90869141 206.31469727 C-118.45054791 200.50192486 -117.08639077 196.07394254 -114.375 190.9375 C-114.0138208 190.24140625 -113.6526416 189.5453125 -113.28051758 188.828125 C-105.85710149 174.93589493 -93.61885463 166.28099687 -78.80078125 161.25390625 C-64.69173718 157.47236948 -48.84041294 160.1880546 -36 166.8125 C-23.77901651 174.18157064 -14.7624679 185.50634096 -10 199 C-9.67 201.97 -9.34 204.94 -9 208 C28.62 208 66.24 208 105 208 C105.33 205.03 105.66 202.06 106 199 C107.11348473 196.15110858 108.21102336 193.61612893 109.625 190.9375 C109.9861792 190.24140625 110.3473584 189.5453125 110.71948242 188.828125 C118.14289851 174.93589493 130.38114537 166.28099687 145.19921875 161.25390625 C159.30826282 157.47236948 175.15958706 160.1880546 188 166.8125 C199.90956401 173.99378934 209.76379375 185.55852331 214 199 C214.24244242 200.58235815 214.44086747 202.17211863 214.59375 203.765625 C214.71266602 204.96106934 214.71266602 204.96106934 214.83398438 206.18066406 C214.88876953 206.78104492 214.94355469 207.38142578 215 208 C218.08404808 207.88979143 221.16691192 207.75924186 224.25 207.625 C225.55904297 207.57859375 225.55904297 207.57859375 226.89453125 207.53125 C227.73886719 207.49257813 228.58320313 207.45390625 229.453125 207.4140625 C230.22817383 207.3826416 231.00322266 207.3512207 231.80175781 207.31884766 C234.27286242 206.96042222 235.90987192 206.36529783 238 205 C239.11016344 201.66950968 239.15852609 199.11054334 239.20532227 195.60083008 C239.21522186 194.95665634 239.22512146 194.3124826 239.23532104 193.64878845 C239.26687467 191.5224066 239.29166905 189.39600242 239.31640625 187.26953125 C239.33698109 185.79407678 239.3579777 184.31862814 239.37937927 182.84318542 C239.43454526 178.96180949 239.48397862 175.08038085 239.53222656 171.19891357 C239.58248158 167.23737909 239.63814676 163.27592106 239.69335938 159.31445312 C239.80087399 151.54303351 239.90233377 143.77155028 240 136 C239.36131422 136.00368717 238.72262844 136.00737434 238.06458855 136.01117325 C222.51540769 136.09955646 206.96631435 136.16572513 191.4169445 136.20724869 C183.89733731 136.22786354 176.37789792 136.25596332 168.85839844 136.30175781 C162.30348126 136.34165883 155.74868562 136.36744065 149.19365036 136.37635398 C145.72357073 136.38156329 142.25383877 136.39378394 138.7838707 136.42292023 C134.90776868 136.45520193 131.03200507 136.4559573 127.15576172 136.45410156 C126.00849106 136.46848267 124.8612204 136.48286377 123.67918396 136.49768066 C117.46135565 136.46542675 113.70647802 136.20713181 109 132 C104.3833517 126.88425458 103.84738021 123.00377776 103.82299805 116.3190918 C103.81642685 115.53825226 103.80985565 114.75741272 103.80308533 113.95291138 C103.78337167 111.36834618 103.77169437 108.78383901 103.76171875 106.19921875 C103.75764322 105.31582132 103.7535677 104.4324239 103.74936867 103.52225685 C103.72851667 98.84695291 103.71421091 94.17167826 103.70483398 89.49633789 C103.69376831 84.67088978 103.65936421 79.84590263 103.61966228 75.02061749 C103.59350199 71.30679982 103.5851427 67.59309214 103.58155251 63.87919044 C103.57668542 62.10061338 103.56506792 60.32204126 103.54651451 58.54355431 C103.5221339 56.05169624 103.52308569 53.56103293 103.5300293 51.0690918 C103.51081421 49.97240425 103.51081421 49.97240425 103.49121094 48.8535614 C103.54275565 43.76532488 104.82347278 40.92877239 108 37 C113.40088852 32.2420744 116.89605751 31.81984951 123.9453125 31.68359375 C124.8303244 31.66281265 125.7153363 31.64203156 126.62716675 31.62062073 C129.45969741 31.55513402 132.29232225 31.49624438 135.125 31.4375 C137.04297857 31.39431394 138.96094754 31.35069963 140.87890625 31.30664062 C145.58584051 31.19945353 150.29286967 31.0981836 155 31 C152.87801168 28.85111324 150.75260401 26.70581417 148.625 24.5625 C148.02171875 23.95083984 147.4184375 23.33917969 146.796875 22.70898438 C146.21679688 22.12568359 145.63671875 21.54238281 145.0390625 20.94140625 C144.50490723 20.40201416 143.97075195 19.86262207 143.42041016 19.30688477 C140.0886272 16.24139247 136.3324745 16.82627988 132.06201172 16.79467773 C131.22914705 16.78464501 130.39628239 16.77461229 129.5381794 16.76427555 C126.8353773 16.73282943 124.13256057 16.70809425 121.4296875 16.68359375 C119.76374832 16.66519594 118.09781392 16.64635957 116.43188477 16.6270752 C110.24631317 16.55856098 104.06064976 16.49855085 97.875 16.4375 C84.05625 16.293125 70.2375 16.14875 56 16 C56 55.6 56 95.2 56 136 C50.72 136 45.44 136 40 136 C40 96.4 40 56.8 40 16 C26.8 16 13.6 16 0 16 C0 10.72 0 5.44 0 0 Z M-8 224 C-9.65 228.95 -11.3 233.9 -13 239 C-16.35904523 245.78807056 -19.10755813 250.12906976 -24 256 C23.52 256 71.04 256 120 256 C118.02 253.36 116.04 250.72 114 248 C112.70192801 245.74664785 111.46685923 243.45524496 110.3125 241.125 C109.75175781 240.01382813 109.19101562 238.90265625 108.61328125 237.7578125 C106.70514825 233.31320247 105.38987086 228.63290285 104 224 C67.04 224 30.08 224 -8 224 Z " fill="#000000" transform="translate(240,168)"/>
<path d="M0 0 C18.78233132 14.32786925 31.12226601 34.26087636 35.22314453 57.53613281 C37.97668822 81.80811049 32.79137486 105.724747 17.64501953 125.25488281 C4.38668488 141.43454543 -11.95329283 152.04961547 -32.35498047 157.25488281 C-33.02561523 157.43220947 -33.69625 157.60953613 -34.38720703 157.79223633 C-40.12776782 159.20971326 -45.57782272 159.6057441 -51.47998047 159.56738281 C-52.3979541 159.56174316 -53.31592773 159.55610352 -54.26171875 159.55029297 C-77.84188997 159.13443872 -98.85688361 149.51646932 -115.60498047 133.12988281 C-133.67603271 114.23741911 -141.11496025 90.58472697 -140.69091797 64.88378906 C-139.84753288 44.53451 -130.34755453 26.46307794 -117.35498047 11.25488281 C-116.78263672 10.58070312 -116.21029297 9.90652344 -115.62060547 9.21191406 C-85.99898422 -22.82929506 -34.35447798 -25.11098566 0 0 Z " fill="#FCD121" transform="translate(172.35498046875,104.7451171875)"/>
<path d="M0 0 C126.72 0 253.44 0 384 0 C384 58 384 58 381 63 C378.17588235 63.94137255 376.47081968 64.11725382 373.55078125 64.09765625 C372.70322266 64.09443359 371.85566406 64.09121094 370.98242188 64.08789062 C369.66081055 64.07532227 369.66081055 64.07532227 368.3125 64.0625 C367.41982422 64.05798828 366.52714844 64.05347656 365.60742188 64.04882812 C363.40488013 64.03704983 361.20247401 64.02060164 359 64 C358.85304688 63.34515625 358.70609375 62.6903125 358.5546875 62.015625 C354.92362817 47.24096981 347.68029261 33.97038967 334.703125 25.53125 C320.80086531 17.65598151 305.71430183 14.68622273 289.9375 18.0625 C275.13998437 22.27060525 263.8371781 30.90617804 256 44 C252.40583158 50.74144288 250.69358596 56.37886318 249 64 C211.38 64 173.76 64 135 64 C134.01 60.37 133.02 56.74 132 53 C126.10049858 38.08592119 116.6734835 27.65888246 102 21.1875 C88.43783534 15.94208262 73.82044295 14.92712665 60 20 C44.41696237 27.02053034 35.12166454 36.58024924 28.04296875 52.06640625 C26.6545287 55.9717189 25.822981 59.94304355 25 64 C21.75017 64.08728882 18.5006425 64.14048658 15.25 64.1875 C14.32960938 64.21263672 13.40921875 64.23777344 12.4609375 64.26367188 C11.57148437 64.27333984 10.68203125 64.28300781 9.765625 64.29296875 C8.94868164 64.3086792 8.13173828 64.32438965 7.29003906 64.34057617 C4.42365811 63.91428604 3.09159692 62.97845159 1 61 C-5.43082853 41.70751442 0 20.33606539 0 0 Z " fill="#77B8EA" transform="translate(96,312)"/>
<path d="M0 0 C11.7518884 8.59687692 20.79210964 20.72132937 23.88671875 35.2421875 C27.05483405 61.64314833 13.72288531 84.75677469 -2.01098633 104.85961914 C-25.14673496 133.8839763 -25.14673496 133.8839763 -31.45703125 135.0859375 C-39.36231446 133.91478443 -44.94668364 125.42820887 -49.83203125 119.5859375 C-50.57066406 118.73515625 -51.30929688 117.884375 -52.0703125 117.0078125 C-71.21627224 94.65559156 -89.98837036 68.29099162 -87.83203125 37.5859375 C-84.65343834 21.40235872 -76.26749475 8.83576 -62.74316406 -0.32495117 C-43.29570719 -13.03521336 -19.44170032 -12.8308709 0 0 Z " fill="#FC6042" transform="translate(151.83203125,113.4140625)"/>
<path d="M0 0 C22.12303261 16.92180433 36.94596527 39.82826125 41.9453125 67.375 C44.55068705 91.01816526 41.30558033 113.06948562 30.36328125 134.16796875 C29.49316406 135.86759766 29.49316406 135.86759766 28.60546875 137.6015625 C24.73537992 144.66672466 19.97578875 150.41674909 14.36328125 156.16796875 C13.53828125 157.03421875 12.71328125 157.90046875 11.86328125 158.79296875 C11.03828125 159.57671875 10.21328125 160.36046875 9.36328125 161.16796875 C8.75484375 161.75964844 8.14640625 162.35132813 7.51953125 162.9609375 C-13.33723924 182.49526783 -40.83887125 190.16514492 -68.83203125 189.54296875 C-94.24108535 188.34483215 -116.4461357 177.57680773 -134.63671875 160.16796875 C-135.38566406 159.49378906 -136.13460937 158.81960937 -136.90625 158.125 C-152.98376712 143.11744023 -164.53899732 119.13053867 -165.8137207 97.11035156 C-166.45191398 63.37509879 -159.971046 36.58655018 -136.20239258 11.34790039 C-100.50591212 -25.48333098 -41.56673966 -28.88118652 0 0 Z M-121.63671875 20.16796875 C-122.31089844 20.7403125 -122.98507813 21.31265625 -123.6796875 21.90234375 C-138.82015814 35.89948365 -148.86394897 58.03545537 -150.046875 78.5234375 C-150.8119387 104.39990396 -142.68212822 128.05028348 -124.92382812 146.97265625 C-108.09778886 164.14586276 -85.80745355 173.25236166 -61.88671875 173.54296875 C-37.80774383 173.66812596 -15.65831566 163.72883209 1.54296875 147.078125 C16.61713661 131.87620995 26.44883417 110.10522061 26.69287109 88.58447266 C26.68441162 87.29549072 26.68441162 87.29549072 26.67578125 85.98046875 C26.66732178 84.61027588 26.66732178 84.61027588 26.65869141 83.21240234 C26.24119001 59.6545761 16.60727811 38.64808791 0.23828125 21.91796875 C-18.65418245 3.84691651 -42.30687459 -3.59201104 -68.0078125 -3.16796875 C-88.35709157 -2.32458366 -106.42852362 7.17539469 -121.63671875 20.16796875 Z " fill="#010100" transform="translate(181.63671875,90.83203125)"/>
<path d="M0 0 C40.57606195 -7.61511527 40.57606195 -7.61511527 55.21966553 1.36051941 C68.10516472 10.29476102 79.05041793 21.87440973 89.8125 33.1875 C90.56830479 33.97850224 91.32410957 34.76950447 92.10281754 35.58447647 C97.20885121 40.94414549 102.2417287 46.3651991 107.20703125 51.85546875 C108.19637413 52.94887636 108.19637413 52.94887636 109.20570374 54.06437302 C111.05164888 56.12218287 112.87555958 58.19696754 114.69067383 60.28198242 C115.50569351 61.19473545 115.50569351 61.19473545 116.33717823 62.12592793 C119.53418063 65.87169179 120 66.81216908 120 72 C80.4 72 40.8 72 0 72 C0 48.24 0 24.48 0 0 Z " fill="#E5E6E7" transform="translate(360,216)"/>
<path d="M0 0 C11.7518884 8.59687692 20.79210964 20.72132937 23.88671875 35.2421875 C27.05483405 61.64314833 13.72288531 84.75677469 -2.01098633 104.85961914 C-25.14673496 133.8839763 -25.14673496 133.8839763 -31.45703125 135.0859375 C-39.36231446 133.91478443 -44.94668364 125.42820887 -49.83203125 119.5859375 C-50.57066406 118.73515625 -51.30929688 117.884375 -52.0703125 117.0078125 C-71.21627224 94.65559156 -89.98837036 68.29099162 -87.83203125 37.5859375 C-84.65343834 21.40235872 -76.26749475 8.83576 -62.74316406 -0.32495117 C-43.29570719 -13.03521336 -19.44170032 -12.8308709 0 0 Z M-62.20703125 19.9609375 C-67.9826535 26.93593292 -70.67684837 33.61951797 -71.83203125 42.5859375 C-71.9403125 43.34390625 -72.04859375 44.101875 -72.16015625 44.8828125 C-73.70925065 65.86600026 -54.74591575 88.6294092 -41.95703125 103.6484375 C-41.06510033 104.68211123 -40.17193421 105.71472085 -39.27734375 106.74609375 C-37.06573002 109.31453333 -34.93122359 111.92533325 -32.83203125 114.5859375 C-27.41420853 112.41151986 -24.56939108 107.64234269 -21.07617188 103.16992188 C-19.87013896 101.63445454 -18.64047859 100.11763712 -17.41015625 98.6015625 C-7.74681402 86.47622225 1.01997464 73.29449209 6.16796875 58.5859375 C6.53148437 57.58304688 6.895 56.58015625 7.26953125 55.546875 C10.03382414 46.43672714 7.78088696 36.38125609 3.94921875 27.8828125 C-1.79415711 17.48092067 -10.25054221 11.44687676 -21.14453125 7.3359375 C-36.38039208 4.23711835 -51.55067583 8.55745753 -62.20703125 19.9609375 Z " fill="#040200" transform="translate(151.83203125,113.4140625)"/>
<path d="M0 0 C10.25852706 6.32091061 16.22552373 15.25047309 19.5703125 26.6796875 C20.9025987 38.46887118 18.32917335 50.07250336 11.25 59.6875 C3.57011726 68.79619813 -6.44310513 73.83531063 -18.33984375 74.953125 C-30.04838627 75.3303519 -39.76971336 71.60181631 -48.4296875 63.6796875 C-56.56830244 55.65463463 -60.68254227 45.91133885 -60.8046875 34.4296875 C-60.59807911 22.10610475 -56.26844239 13.61127617 -47.703125 4.9296875 C-34.17075481 -7.42864144 -15.86383507 -8.6205406 0 0 Z " fill="#77757F" transform="translate(420.4296875,349.3203125)"/>
<path d="M0 0 C9.99045721 6.45415252 15.11603598 15.28560795 18.8125 26.375 C19.69057223 39.36033741 17.7163553 49.859436 9.8125 60.375 C1.63366988 69.15966939 -7.88594973 74.24471141 -19.9375 74.6875 C-32.24205817 74.36667563 -42.91181433 70.11108129 -51.5 61.25 C-59.87008018 51.25334553 -62.24045513 39.08461329 -61.1875 26.375 C-58.56669256 15.81689003 -51.94269099 6.69453635 -43.1875 0.375 C-29.4018062 -7.91714664 -14.05758923 -7.71453067 0 0 Z " fill="#77757F" transform="translate(197.1875,349.625)"/>
<path d="M0 0 C6.06343563 3.8805988 10.95667407 9.08758162 13.1875 16 C14.13757005 23.29123523 13.37764424 29.86043036 9.1875 36 C3.79463459 42.0383435 -1.01864162 45.40917892 -9.1875 46.2421875 C-15.26635125 46.55724991 -19.88255487 45.66166049 -24.8125 42 C-30.95363437 36.20415029 -34.90485316 30.73209923 -35.25 22.125 C-35.02618613 15.15233713 -33.53760694 10.85729496 -28.71875 5.8046875 C-20.54144386 -1.80020721 -10.69057161 -5.44614025 0 0 Z " fill="#030100" transform="translate(130.8125,138)"/>
<path d="M0 0 C13.2 0 26.4 0 40 0 C40 5.28 40 10.56 40 16 C26.8 16 13.6 16 0 16 C0 10.72 0 5.44 0 0 Z " fill="#000000" transform="translate(16,352)"/>
<path d="M0 0 C10.56 0 21.12 0 32 0 C32 5.28 32 10.56 32 16 C21.44 16 10.88 16 0 16 C0 10.72 0 5.44 0 0 Z " fill="#000000" transform="translate(320,320)"/>
<path d="M0 0 C7.92 0 15.84 0 24 0 C24 5.28 24 10.56 24 16 C16.08 16 8.16 16 0 16 C0 10.72 0 5.44 0 0 Z " fill="#000000" transform="translate(32,320)"/>
<path d="M0 0 C5.28 0 10.56 0 16 0 C16 5.28 16 10.56 16 16 C10.72 16 5.44 16 0 16 C0 10.72 0 5.44 0 0 Z " fill="#000000" transform="translate(392,376)"/>
<path d="M0 0 C5.28 0 10.56 0 16 0 C16 5.28 16 10.56 16 16 C10.72 16 5.44 16 0 16 C0 10.72 0 5.44 0 0 Z " fill="#000000" transform="translate(168,376)"/>
<path d="M0 0 C5.28 0 10.56 0 16 0 C16 5.28 16 10.56 16 16 C10.72 16 5.44 16 0 16 C0 10.72 0 5.44 0 0 Z " fill="#000000" transform="translate(40,288)"/>
<path d="M0 0 C2.66589042 0.54323805 3.75768995 0.96351964 5.875 2.75 C7.21538506 5.84964046 7.42167869 7.71409302 6.875 11.0625 C4.41905875 14.38524404 2.9493356 15.83868008 -1.125 16.6875 C-5.1993356 15.83868008 -6.66905875 14.38524404 -9.125 11.0625 C-9.75 8.0625 -9.75 8.0625 -9.125 5.0625 C-6.50620524 1.2161452 -4.62486834 -0.35838463 0 0 Z " fill="#F39F30" transform="translate(121.125,151.9375)"/>
</svg>
