<?xml version="1.0" encoding="UTF-8"?>
<svg version="1.1" xmlns="http://www.w3.org/2000/svg" width="512" height="512">
<path d="M0 0 C1.70716914 -0.00135005 3.4143379 -0.00329341 5.12150574 -0.00579834 C8.68952109 -0.00873599 12.25743586 -0.00449751 15.82543945 0.00488281 C20.36750503 0.01625041 24.90933346 0.00972629 29.45139027 -0.00226212 C32.97500853 -0.00953989 36.49857196 -0.00716539 40.022192 -0.00200653 C41.69529944 -0.00068498 43.36841208 -0.00226449 45.04151344 -0.00696564 C63.30435608 -0.04701564 78.43839288 1.61167614 92.2890625 14.83984375 C100.72330024 24.176139 103.74141354 35.64789622 106.66796875 47.578125 C107.07692383 49.20331055 107.07692383 49.20331055 107.49414062 50.86132812 C109.48046875 58.87135808 109.48046875 58.87135808 109.48046875 62.265625 C110.23435104 62.26448584 110.98823332 62.26334668 111.76496053 62.262173 C156.41505473 62.19508447 201.06514345 62.14358846 245.71527793 62.11242901 C251.07271792 62.10867675 256.43015781 62.1047938 261.78759766 62.10083008 C262.85419789 62.10004315 263.92079812 62.09925622 265.01971957 62.09844544 C282.30529164 62.08538035 299.59083387 62.06172045 316.87638822 62.03416661 C334.60404021 62.00614308 352.33167654 61.98945521 370.05934978 61.98335952 C381.00422836 61.97923673 391.94902263 61.96620065 402.89387527 61.9418756 C410.39228585 61.92605606 417.89065264 61.92121604 425.38907871 61.92512087 C429.71965197 61.92704833 434.05007756 61.92402884 438.38062477 61.90800858 C442.34205153 61.89346033 446.30323064 61.89263935 450.26466855 61.90292832 C451.70080517 61.90420084 453.13695695 61.90035226 454.57306352 61.89097545 C456.51963176 61.87900062 458.46629323 61.88719115 460.41287613 61.89648151 C461.49583851 61.89534235 462.57880089 61.89420319 463.69458032 61.89302951 C466.84355173 62.31418512 468.22383413 63.06251248 470.48046875 65.265625 C471.87708952 71.71224669 469.9876629 78.71175804 468.41113281 84.98193359 C468.18927779 85.9034597 467.96742277 86.82498581 467.73884487 87.77443695 C467.00195953 90.82368852 466.24901569 93.86873473 465.49609375 96.9140625 C464.96630221 99.09366821 464.43758498 101.27353528 463.90986633 103.4536438 C462.49024386 109.30683712 461.05711684 115.1566447 459.62132645 121.00588989 C458.1330223 127.07823047 456.65629941 133.15338237 455.17944336 139.22851562 C454.58195529 141.68609627 453.98446688 144.14367684 453.38697815 146.60125732 C453.09030306 147.8216848 452.79362797 149.04211227 452.48796272 150.2995224 C451.58292099 154.0202136 450.67629114 157.74051506 449.76939392 161.46075439 C445.91613878 177.27900391 442.13117034 193.11200449 438.40625 208.9609375 C437.93943144 210.9435739 437.472524 212.92618937 437.00552368 214.90878296 C434.37878317 226.06446745 434.37878317 226.06446745 431.77185059 237.22479248 C430.78400172 241.47105829 429.78753259 245.71520724 428.78450584 249.95791245 C428.42281663 251.49568756 428.06458096 253.03427978 427.7101078 254.57373428 C427.23036064 256.65616546 426.73886505 258.73547936 426.24438477 260.81445312 C425.97417007 261.97207153 425.70395538 263.12968994 425.42555237 264.3223877 C424.48381035 267.25521838 423.59341354 269.04276792 421.48046875 271.265625 C418.67407249 272.20109042 416.96881099 272.39447063 414.06642628 272.4042902 C413.15825368 272.40976464 412.25008108 272.41523909 411.3143881 272.42087942 C409.81586247 272.42234658 409.81586247 272.42234658 408.2870636 272.42384338 C407.22686026 272.42878136 406.16665693 272.43371934 405.07432622 272.43880695 C401.50438642 272.45422488 397.93446467 272.4625542 394.36450195 272.47094727 C391.81236613 272.48052241 389.2602319 272.49053227 386.70809937 272.50094604 C381.20458319 272.52242058 375.70107003 272.54085722 370.19753456 272.55655098 C362.24031187 272.57924684 354.28311582 272.60739006 346.32591572 272.63687026 C333.41642627 272.68454965 320.50692594 272.7278129 307.59741211 272.76831055 C295.05573682 272.80766371 282.51407122 272.8490895 269.97241211 272.89331055 C269.19956843 272.89603482 268.42672474 272.89875909 267.63046155 272.90156592 C263.75339888 272.91524537 259.87633635 272.92896564 255.9992739 272.94270623 C223.82635881 273.05667646 191.65342365 273.16348461 159.48046875 273.265625 C159.42785889 273.86745605 159.37524902 274.46928711 159.32104492 275.08935547 C159.24345947 275.88744629 159.16587402 276.68553711 159.0859375 277.5078125 C158.97608521 278.68899658 158.97608521 278.68899658 158.86401367 279.89404297 C157.64703937 287.41898785 152.50903967 294.22002539 146.52734375 298.7421875 C141.77276138 301.84536913 137.30142808 303.88847082 131.6171875 304.6484375 C125.0554942 305.49858173 125.0554942 305.49858173 119.23046875 308.453125 C116.98194303 312.06682706 116.79573441 314.08113737 117.48046875 318.265625 C119.3475538 320.63059939 120.80108306 321.92593215 123.48046875 323.265625 C125.57234187 323.36328371 127.66740064 323.39467951 129.7615509 323.39692688 C130.4131003 323.39904259 131.0646497 323.40115831 131.73594302 323.40333813 C133.9292033 323.40935151 136.12240627 323.40833703 138.31567383 323.4074707 C139.88419188 323.41050133 141.45270904 323.41402251 143.02122498 323.41799927 C146.40430106 323.42589631 149.78736655 323.43103622 153.17045021 323.43428993 C158.51940271 323.4401926 163.86828841 323.456726 169.21720886 323.47563171 C171.04736419 323.48196934 172.87751957 323.48829496 174.70767498 323.49460888 C176.08263498 323.4993576 176.08263498 323.4993576 177.48537195 323.50420225 C189.94148934 323.54630284 202.39757597 323.579256 214.85375977 323.59155273 C223.25128703 323.59992804 231.64864936 323.62239972 240.04609412 323.6609084 C244.49132981 323.68068843 248.93631881 323.69306726 253.38160133 323.68807411 C257.56368357 323.68343394 261.7452982 323.69719813 265.92728615 323.72508621 C267.46193914 323.73200889 268.99664037 323.73211295 270.53129196 323.72488594 C272.62756396 323.71601144 274.72228929 323.73166522 276.81843567 323.75337219 C278.5774683 323.75695472 278.5774683 323.75695472 280.37203693 323.76060963 C284.16474942 324.37679754 285.86233358 325.47866084 288.48046875 328.265625 C288.48046875 329.585625 288.48046875 330.905625 288.48046875 332.265625 C293.43046875 332.265625 298.38046875 332.265625 303.48046875 332.265625 C303.81046875 330.615625 304.14046875 328.965625 304.48046875 327.265625 C306.6209505 325.04462577 307.95249941 324.34512435 311.00621986 323.88530827 C311.9629579 323.88287837 312.91969593 323.88044847 313.90542603 323.87794495 C315.55799911 323.863088 315.55799911 323.863088 317.24395752 323.84793091 C318.44816345 323.85243256 319.65236938 323.8569342 320.89306641 323.86157227 C322.80105515 323.85127739 322.80105515 323.85127739 324.74758911 323.84077454 C328.23558877 323.82282534 331.72333706 323.82401587 335.21136904 323.82971692 C338.12842088 323.83280923 341.04542448 323.82671518 343.96246946 323.82067817 C350.85148531 323.80662599 357.74037722 323.80819722 364.62939453 323.81958008 C371.71852684 323.83103539 378.80727969 323.81703117 385.89636195 323.7901836 C391.99423996 323.76796086 398.09199946 323.76140474 404.18991506 323.76726002 C407.82655815 323.77061839 411.46295863 323.76829096 415.09956741 323.75100899 C419.16378649 323.73253943 423.22727885 323.74679412 427.29150391 323.76391602 C428.48356445 323.75424805 429.675625 323.74458008 430.90380859 323.73461914 C439.89759443 323.8136853 447.44450426 325.35260782 454.35546875 331.390625 C459.78470338 337.41027285 462.23562147 344.67866017 461.8671875 352.74609375 C460.78247766 359.81314268 458.13880626 365.76467471 452.48046875 370.265625 C446.49864249 374.38252896 442.2236065 376.35644612 434.84375 376.58203125 C433.54501953 376.62392578 432.24628906 376.66582031 430.90820312 376.70898438 C429.53646114 376.74879487 428.16471631 376.78850716 426.79296875 376.828125 C425.4094923 376.87133335 424.02602848 376.91494839 422.64257812 376.95898438 C419.25531156 377.06520528 415.86797076 377.16724858 412.48046875 377.265625 C413.00938721 377.77206543 413.53830566 378.27850586 414.08325195 378.80029297 C426.62114092 391.02713565 434.46667826 406.90438368 434.72167969 424.56323242 C434.7502626 433.55493977 434.50470162 441.69258227 431.48046875 450.265625 C431.22523438 451.08546875 430.97 451.9053125 430.70703125 452.75 C424.57180989 470.42394044 410.58731524 482.86712902 394.17578125 490.87890625 C376.62466311 498.15253589 357.87490706 497.80713435 340.31298828 491.02783203 C324.19624895 484.32433347 311.96449393 471.75903142 304.61328125 456.05859375 C297.59818992 438.76276513 296.66802597 419.05327996 303.9921875 401.6796875 C308.42278403 392.08240052 314.04336831 384.70272544 321.48046875 377.265625 C289.47046875 377.265625 257.46046875 377.265625 224.48046875 377.265625 C226.79046875 379.575625 229.10046875 381.885625 231.48046875 384.265625 C244.12220045 400.69588829 248.86674874 419.89290915 246.19628906 440.45361328 C243.07897572 457.59883667 233.12488766 472.52553264 219.53515625 483.16015625 C204.35347631 493.62425534 187.0390023 498.03682495 168.73046875 495.578125 C154.56913089 492.9239655 141.97175125 487.29062828 131.48046875 477.265625 C130.24516569 474.79501889 130.57220065 473.50141787 130.79296875 470.765625 C130.83813474 464.55078426 128.73596029 459.79942928 124.48046875 455.265625 C122.47020265 454.44286946 122.47020265 454.44286946 120.35546875 454.203125 C116.48046875 453.265625 116.48046875 453.265625 115.1171875 451.34375 C108.97565959 437.6760588 109.71560968 419.7166554 114.16796875 405.6484375 C118.61565608 394.1850529 124.91970659 385.85734832 133.48046875 377.265625 C132.4646875 377.22824219 131.44890625 377.19085938 130.40234375 377.15234375 C111.76053086 376.33084785 94.60036949 371.4981932 80.94921875 358.09375 C73.47965506 349.53684476 68.25533605 340.34857712 65.48046875 329.265625 C65.29097656 328.523125 65.10148437 327.780625 64.90625 327.015625 C62.30610454 310.22202495 64.82946011 293.46456471 74.48046875 279.265625 C82.13316396 269.6438969 90.30832576 262.49040829 101.48046875 257.265625 C102.14046875 257.265625 102.80046875 257.265625 103.48046875 257.265625 C103.34060547 256.7106131 103.20074219 256.1556012 103.05664062 255.58377075 C95.83926423 226.93146819 88.69247567 198.26148564 81.68505859 169.55706787 C80.96680793 166.61574496 80.24529973 163.67525068 79.52099609 160.7354126 C78.66246768 157.2498826 77.81075172 153.76275695 76.96419907 150.27429962 C76.50142625 148.37428223 76.03195318 146.4759007 75.56228638 144.57757568 C75.28665863 143.43548645 75.01103088 142.29339722 74.72705078 141.11669922 C74.48503937 140.12644745 74.24302795 139.13619568 73.99368286 138.11593628 C73.44265575 135.05561748 73.20969098 132.36650687 73.48046875 129.265625 C74.34671875 128.54375 75.21296875 127.821875 76.10546875 127.078125 C78.80244692 124.52715981 78.80244692 124.52715981 78.3671875 121.5078125 C77.8433302 118.72103422 77.23209323 115.99924015 76.48046875 113.265625 C75.73796875 113.348125 74.99546875 113.430625 74.23046875 113.515625 C71.48046875 113.265625 71.48046875 113.265625 69.42871094 111.65307617 C67.05255319 108.74124076 66.43344645 106.46746836 65.55859375 102.81640625 C65.39885071 102.16964432 65.23910767 101.52288239 65.07452393 100.85652161 C64.72294685 99.4306221 64.37716686 98.00328411 64.03637695 96.57476807 C63.24566909 93.29030927 62.40540475 90.01894759 61.57019043 86.74557495 C60.67240951 83.217506 59.78912526 79.68587646 58.90625 76.15405273 C58.22000373 73.41129895 57.52996667 70.66951497 56.83984375 67.92773438 C56.40211466 66.17974485 55.96460609 64.43170009 55.52734375 62.68359375 C55.32115417 61.86602097 55.1149646 61.04844818 54.90252686 60.20610046 C53.48046875 54.49450861 53.48046875 54.49450861 53.48046875 52.265625 C52.54387924 52.27228683 51.60728973 52.27894867 50.64231873 52.28581238 C41.80013419 52.34672368 32.95799243 52.39164566 24.11564541 52.42106152 C19.57009041 52.4366931 15.02470529 52.45788541 10.47924805 52.49194336 C6.08962912 52.52462646 1.70017322 52.54249687 -2.68955803 52.55025673 C-4.36124168 52.5557842 -6.03291678 52.56657801 -7.70453072 52.58281517 C-10.05264439 52.60470885 -12.4000911 52.60758701 -14.74829102 52.60620117 C-15.43378021 52.616987 -16.11926941 52.62777283 -16.82553101 52.6388855 C-24.60108787 52.58948414 -30.14250168 49.42116923 -35.71875 44.19140625 C-41.73897035 37.75329642 -42.15683346 31.52859124 -41.90625 22.8359375 C-41.11679581 15.54744123 -38.06113748 11.0155732 -32.51953125 6.265625 C-23.10898505 -1.22003675 -11.37362534 -0.03182396 0 0 Z " fill="#020202" transform="translate(41.51953125,7.734375)"/>
<path d="M0 0 C5.93027837 4.21769414 6.5146726 9.77492406 7.875 16.625 C8.37933152 18.98251819 8.88725697 21.33926989 9.3984375 23.6953125 C9.65850586 24.90606445 9.91857422 26.11681641 10.18652344 27.36425781 C11.47350951 33.11629758 12.98493215 38.80457489 14.5 44.5 C17.10316559 54.36814437 19.4781333 64.26766576 21.72827148 74.22167969 C23.52533801 82.10566128 25.50441948 89.930405 27.5625 97.75 C29.77943217 106.20827052 31.94791888 114.67252767 33.9375 123.1875 C34.14898682 124.06567383 34.36047363 124.94384766 34.57836914 125.84863281 C35.76249368 131.02030051 36.37587986 135.69069691 36 141 C33.36666031 144.14301833 30.61615463 145.19478801 26.8125 146.375 C15.46772249 149.93082579 6.26466024 157.44699941 0.625 168 C0.05078422 169.31964268 -0.4904494 170.65406585 -1 172 C-1.29648438 172.74636719 -1.59296875 173.49273437 -1.8984375 174.26171875 C-6.26570224 186.70241327 -4.30476951 199.20472549 1 211 C7.00062253 221.6450276 15.65086033 228.60678465 27 233 C34.4442762 235.02797176 41.38470278 235.28722647 49.07646179 235.26742554 C51.02337558 235.27422221 51.02337558 235.27422221 53.00962096 235.28115618 C56.59202794 235.29333056 60.17434114 235.29313236 63.75676405 235.29076743 C67.62793693 235.29035788 71.49908028 235.30141118 75.37023926 235.31088257 C82.94500043 235.32746019 90.51973046 235.33299054 98.09450825 235.33410732 C104.25033007 235.33505881 110.40614164 235.33917412 116.56196022 235.34550858 C134.02039461 235.36310786 151.47880445 235.37234886 168.93724778 235.37084763 C169.8774604 235.37076772 170.81767303 235.3706878 171.78637695 235.37060547 C173.19841921 235.37048283 173.19841921 235.37048283 174.63898758 235.37035771 C189.91157306 235.36954395 205.18406014 235.38870761 220.45661714 235.4168822 C236.14377021 235.44559325 251.83087524 235.45942365 267.51805526 235.45769465 C276.323279 235.4570304 285.1283994 235.46253874 293.93359947 235.48405075 C301.42592368 235.50223857 308.91809763 235.50662927 316.41043433 235.4930319 C320.23302341 235.48649163 324.05532399 235.48642321 327.87788582 235.5037384 C332.02030645 235.52230991 336.16205597 235.50994349 340.30448914 235.49447632 C341.51430362 235.50476344 342.7241181 235.51505057 343.97059363 235.52564943 C350.23763449 235.47374955 354.29564337 235.34166507 359 231 C360.57898053 227.84203893 360.81928171 224.39329364 360 221 C358.34747321 218.54687043 357.49901777 217.44600065 355 216 C350.83073444 215.24486895 346.69735034 215.34122582 342.47045898 215.38818359 C341.19843628 215.38251877 339.92641357 215.37685394 338.61584473 215.37101746 C335.8546659 215.35885659 333.09410535 215.36228311 330.33294487 215.37784958 C325.96682728 215.40218932 321.60124995 215.39066301 317.23512268 215.37417603 C309.54440779 215.34969819 301.85393931 215.35547752 294.16320801 215.36798096 C282.58088485 215.38657643 270.99860807 215.38172706 259.41631943 215.34794676 C255.07611444 215.33643111 250.73630301 215.34087317 246.39611995 215.35796714 C244.34718704 215.36396121 242.29838732 215.36324469 240.24945068 215.35957336 C237.7514835 215.35532539 235.25346573 215.36188486 232.75556946 215.38117981 C231.65504242 215.37586746 230.55451538 215.37055511 229.42063904 215.36508179 C227.98685236 215.36790948 227.98685236 215.36790948 226.5241003 215.3707943 C223.54124153 214.93260766 222.17873444 214.05066692 220 212 C219.21484375 209.87890625 219.21484375 209.87890625 218.9375 207.5625 C218.82277344 206.80066406 218.70804688 206.03882813 218.58984375 205.25390625 C219 203 219 203 220.74275208 200.89147949 C225.81790585 197.94434452 230.75801002 198.44352169 236.52612305 198.48242188 C237.79826157 198.4754126 239.07040009 198.46840332 240.38108826 198.46118164 C243.86497908 198.44296838 247.34839526 198.45000958 250.83229423 198.46269798 C254.48715194 198.47284711 258.14196985 198.463426 261.79682922 198.45715332 C267.9394151 198.44987783 274.08180859 198.45945706 280.22436523 198.47851562 C287.3061484 198.50023592 294.38747002 198.49326823 301.4692418 198.47121 C307.56290665 198.45299503 313.65643333 198.45052874 319.75011665 198.46096468 C323.38337583 198.46717255 327.01641898 198.46811157 330.64966393 198.45481873 C334.70901668 198.4410049 338.76758876 198.46020869 342.8269043 198.48242188 C344.0173938 198.47432495 345.2078833 198.46622803 346.43444824 198.45788574 C355.41977538 198.54860285 362.97060223 200.09226562 369.875 206.125 C375.30423463 212.14464785 377.75515272 219.41303517 377.38671875 227.48046875 C376.30200891 234.54751768 373.65833751 240.49904971 368 245 C362.01817374 249.11690396 357.74313775 251.09082112 350.36328125 251.31640625 C348.41518555 251.37924805 348.41518555 251.37924805 346.42773438 251.44335938 C345.05599239 251.48316987 343.68424756 251.52288216 342.3125 251.5625 C340.92902355 251.60570835 339.54555973 251.64932339 338.16210938 251.69335938 C334.77484281 251.79958028 331.38750201 251.90162358 328 252 C328.79337769 252.75966064 328.79337769 252.75966064 329.6027832 253.53466797 C342.14067217 265.76151065 349.98620951 281.63875868 350.24121094 299.29760742 C350.26979385 308.28931477 350.02423287 316.42695727 347 325 C346.74476563 325.81984375 346.48953125 326.6396875 346.2265625 327.484375 C340.09134114 345.15831544 326.10684649 357.60150402 309.6953125 365.61328125 C292.14419436 372.88691089 273.39443831 372.54150935 255.83251953 365.76220703 C239.7157802 359.05870847 227.48402518 346.49340642 220.1328125 330.79296875 C213.11772117 313.49714013 212.18755722 293.78765496 219.51171875 276.4140625 C223.94231528 266.81677552 229.56289956 259.43710044 237 252 C204.99 252 172.98 252 140 252 C142.31 254.31 144.62 256.62 147 259 C159.6417317 275.43026329 164.38627999 294.62728415 161.71582031 315.18798828 C158.59850697 332.33321167 148.64441891 347.25990764 135.0546875 357.89453125 C119.87300756 368.35863034 102.55853355 372.77119995 84.25 370.3125 C70.08866214 367.6583405 57.4912825 362.02500328 47 352 C45.76469694 349.52939389 46.0917319 348.23579287 46.3125 345.5 C46.35766599 339.28515926 44.25549154 334.53380428 40 330 C37.9897339 329.17724446 37.9897339 329.17724446 35.875 328.9375 C32 328 32 328 30.63671875 326.078125 C24.49519084 312.4104338 25.23514093 294.4510304 29.6875 280.3828125 C34.13518733 268.9194279 40.43923784 260.59172332 49 252 C47.47632813 251.94392578 47.47632813 251.94392578 45.921875 251.88671875 C27.28006211 251.06522285 10.11990074 246.2325682 -3.53125 232.828125 C-11.00081369 224.27121976 -16.2251327 215.08295212 -19 204 C-19.28423828 202.88625 -19.28423828 202.88625 -19.57421875 201.75 C-22.17436421 184.95639995 -19.65100864 168.19893971 -10 154 C-2.34730479 144.3782719 5.82785701 137.22478329 17 132 C17.66 132 18.32 132 19 132 C18.86013672 131.4449881 18.72027344 130.8899762 18.57617188 130.31814575 C11.35879548 101.66584319 4.21200692 72.99586064 -2.79541016 44.29144287 C-3.51366082 41.35011996 -4.23516902 38.40962568 -4.95947266 35.4697876 C-5.81800107 31.9842576 -6.66971703 28.49713195 -7.51626968 25.00867462 C-7.9790425 23.10865723 -8.44851557 21.2102757 -8.91818237 19.31195068 C-9.19381012 18.16986145 -9.46943787 17.02777222 -9.75341797 15.85107422 C-10.11643509 14.36569656 -10.11643509 14.36569656 -10.48678589 12.85031128 C-11.24478473 8.64050369 -11.84613769 5.28612929 -9.4375 1.625 C-6.02544071 -0.64970619 -4.02388226 -0.63534983 0 0 Z " fill="#010000" transform="translate(126,133)"/>
<path d="M0 0 C0.79216919 -0.0065712 1.58433838 -0.0131424 2.4005127 -0.01991272 C5.03141371 -0.03967542 7.66225734 -0.05131994 10.29321289 -0.0612793 C11.19335176 -0.06535482 12.09349064 -0.06943035 13.02090645 -0.07362938 C17.7927439 -0.0945109 22.56455249 -0.10879897 27.33642578 -0.11816406 C32.24548384 -0.12918361 37.15408298 -0.16352554 42.0629797 -0.20333576 C45.85249112 -0.22960884 49.64189548 -0.23786574 53.43148994 -0.24144554 C55.23942701 -0.24629038 57.04735998 -0.25784374 58.85520744 -0.27648354 C71.52270971 -0.39888638 82.9708645 -0.14707399 92.61743164 9.22387695 C97.35508381 14.63215568 99.43421519 20.10039966 101.10180664 27.0637207 C101.45054991 28.49858318 101.80021386 29.93322209 102.15063477 31.36767578 C102.4328186 32.52754501 102.4328186 32.52754501 102.72070312 33.71084595 C103.82315933 38.18506193 104.98138362 42.64493939 106.13305664 47.10668945 C115.68381444 84.2290211 115.68381444 84.2290211 119.38256836 100.7019043 C121.10786458 108.35349685 123.06438191 115.92896311 125.08203125 123.50805664 C126.95925113 130.61620194 128.64293031 137.75687539 130.26586914 144.92700195 C132.29539124 153.88894428 134.48656199 162.79158977 136.82836914 171.67700195 C139.14807218 180.47958788 141.32056584 189.2980645 143.32836914 198.17700195 C145.89416951 209.51844533 148.75495202 220.76858258 151.71508789 232.01293945 C152.82105027 236.22956726 153.92567209 240.44644226 155.00805664 244.66918945 C155.25152832 245.61391113 155.495 246.55863281 155.74584961 247.53198242 C157.18473093 254.0654444 157.03920506 259.52431264 153.62133789 265.3918457 C148.77887087 272.07766875 142.91494714 272.79002489 135.25 274.02075195 C128.06005146 275.24157587 123.38875745 277.70892266 118.51586914 283.05200195 C113.94196552 289.58614998 112.24395128 295.29689884 113.32836914 303.17700195 C115.23224217 309.54371713 118.51325616 315.84305048 124.32055664 319.39575195 C129.59198498 322.09904854 133.79760334 323.30222146 139.7743988 323.31071472 C140.43159175 323.31298028 141.08878469 323.31524583 141.76589257 323.31758004 C143.97220136 323.32391975 146.17844872 323.3230907 148.38476562 323.32226562 C149.9649056 323.32525711 151.54504483 323.32865962 153.12518311 323.33244324 C157.42059549 323.34128797 161.71598796 323.34362154 166.01140857 323.34425902 C169.59502755 323.34520781 173.17864187 323.34888572 176.76225907 323.35243112 C185.21536911 323.3605773 193.66846851 323.36301519 202.12158203 323.36230469 C210.84721076 323.36170368 219.57277771 323.37225974 228.29839081 323.38804835 C235.78550363 323.40111417 243.27259624 323.406489 250.75972039 323.40584928 C255.23336937 323.40559403 259.70696346 323.40846002 264.18060112 323.41902733 C268.38716408 323.42869234 272.59361946 323.42879851 276.80018616 323.4215107 C278.34495259 323.4204629 279.88972566 323.42283929 281.43448067 323.42887115 C283.54156641 323.43656656 285.64827838 323.43196283 287.75535583 323.42424011 C288.93504157 323.42478488 290.11472731 323.42532965 291.33016109 323.42589092 C294.32018888 323.17768102 295.94541847 322.98007308 298.32836914 321.17700195 C298.98836914 319.52700195 299.64836914 317.87700195 300.32836914 316.17700195 C305.27836914 316.17700195 310.22836914 316.17700195 315.32836914 316.17700195 C315.98836914 317.82700195 316.64836914 319.47700195 317.32836914 321.17700195 C320.67176675 323.40593369 321.72836325 323.42719072 325.62875366 323.42855835 C326.72790604 323.43394119 327.82705841 323.43932404 328.95951843 323.44487 C330.16582413 323.440746 331.37212982 323.43662201 332.61499023 323.43237305 C334.5646511 323.4379305 336.51431195 323.44349228 338.46397233 323.44921708 C340.56046251 323.45355892 342.65690536 323.45308678 344.7533989 323.45139694 C349.123722 323.4485651 353.49388327 323.46291112 357.86416626 323.4803772 C370.29166227 323.52741593 382.71914745 323.5513443 395.14672852 323.55786133 C402.01011297 323.56161244 408.8733145 323.5796461 415.73662055 323.61295569 C420.07990087 323.63317184 424.42270948 323.63553916 428.76601768 323.62467551 C432.10510375 323.62145479 435.4439254 323.64416217 438.78295898 323.6628418 C439.98521622 323.65466934 441.18747345 323.64649689 442.42616272 323.63807678 C450.55499964 323.71917805 450.55499964 323.71917805 454.54995728 326.08413696 C457.36361184 329.39529297 457.66895066 331.77908543 457.61352539 336.1418457 C457.16158218 339.36735817 455.6482494 340.98600393 453.32836914 343.17700195 C450.12081175 345.16469434 447.66169522 345.4280798 443.91619778 345.43147755 C442.81078087 345.43730974 441.70536397 345.44314193 440.56644958 345.44915086 C439.35217366 345.44537154 438.13789773 345.44159221 436.88682556 345.43769836 C435.59668299 345.44152391 434.30654041 345.44534946 432.97730261 345.44929093 C429.39324741 345.45959877 425.80929192 345.45738201 422.22522843 345.45311034 C418.36069218 345.45064801 414.49618024 345.45965136 410.63165283 345.46714783 C403.05786661 345.47991267 395.4841158 345.48168613 387.91032063 345.47934756 C381.75203899 345.47756548 375.5937681 345.47931169 369.43548775 345.48357201 C368.12138035 345.48446479 368.12138035 345.48446479 366.78072532 345.48537561 C365.0009855 345.48658736 363.22124568 345.48780149 361.44150586 345.48901799 C344.73987864 345.49990134 328.03827159 345.49772784 311.33664323 345.49163314 C296.06713448 345.48646875 280.79768963 345.49770537 265.52819353 345.51673136 C249.84682565 345.53612048 234.16548797 345.54436352 218.48410803 345.54060811 C209.68146608 345.53869699 200.87887843 345.54117448 192.07624626 345.55532265 C184.57847125 345.56725144 177.08078394 345.56862491 169.58300769 345.55653248 C165.75988209 345.550653 161.93691678 345.54951825 158.11380196 345.56153488 C153.96200769 345.57443235 149.81059311 345.5639064 145.65879822 345.55122375 C144.46013734 345.55859804 143.26147647 345.56597232 142.02649254 345.57357007 C128.32462092 345.4856946 115.35000365 341.73521757 105.20336914 332.16137695 C96.13407991 322.56304585 91.24196924 310.64671478 90.76586914 297.42700195 C91.34468125 284.77135331 97.07845927 272.41704953 106.35961914 263.7668457 C112.65485105 258.68319612 119.41507171 255.51824033 127.07836914 253.03637695 C129.48489719 252.29265089 129.48489719 252.29265089 131.32836914 250.17700195 C131.80374334 243.835581 130.65670587 238.27518916 129.13305664 232.1418457 C128.90507889 231.19412796 128.67710114 230.24641022 128.44221497 229.26997375 C127.70489951 226.21589421 126.9544496 223.16522257 126.20336914 220.11450195 C125.6921116 218.00950357 125.18145219 215.90435982 124.67138672 213.79907227 C121.99406437 202.78460252 119.25325889 191.79018333 116.32373047 180.83984375 C114.2380047 172.99857092 112.44882832 165.09693011 110.65625 157.18432617 C108.03425712 145.70591938 105.07619706 134.31712704 102.04125977 122.94165039 C101.40632518 120.47932186 100.85525845 118.01229766 100.31274414 115.52856445 C99.64343672 111.92337096 99.64343672 111.92337096 96.32836914 110.17700195 C95.31774414 109.97075195 94.30711914 109.76450195 93.26586914 109.55200195 C90.32836914 108.17700195 90.32836914 108.17700195 89.49633789 106.41137695 C88.5865304 102.87687302 88.32836914 99.85483858 88.32836914 96.17700195 C89.15336914 95.57887695 89.97836914 94.98075195 90.82836914 94.36450195 C93.69675551 92.36857138 93.69675551 92.36857138 93.58618164 88.90356445 C93.34405762 85.40377181 92.77472891 82.6874593 91.70336914 79.36450195 C89.62243023 72.46725567 87.97944983 65.51550649 86.39086914 58.48950195 C85.61873737 55.12097102 84.84381664 51.75309611 84.06762695 48.38549805 C83.59321627 46.32648049 83.12101592 44.2669517 82.65161133 42.20678711 C82.04294272 39.5666062 81.40888784 36.93399501 80.76586914 34.30200195 C80.5925708 33.53025635 80.41927246 32.75851074 80.24072266 31.96337891 C79.00373689 27.0416597 77.62831615 24.84120279 73.32836914 22.17700195 C70.55482324 21.80678379 68.18570658 21.66163809 65.42041016 21.71044922 C64.63927856 21.70814301 63.85814697 21.70583679 63.05334473 21.70346069 C61.3629678 21.70083709 59.67255775 21.70724664 57.98224068 21.72171211 C55.30404203 21.74363936 52.62697033 21.73986895 49.94871521 21.72923279 C43.29819491 21.70758625 36.64792635 21.72491944 29.99743652 21.75073242 C24.37460656 21.77215091 18.75250045 21.77405823 13.12968254 21.74781609 C10.49586241 21.74347185 7.86330684 21.76808331 5.22962952 21.79335022 C3.60832154 21.78807775 1.98701742 21.78135414 0.36572266 21.77294922 C-0.36226028 21.78785904 -1.09024323 21.80276886 -1.84028625 21.81813049 C-7.52344602 21.73897528 -9.83712505 20.0777244 -13.67163086 16.17700195 C-14.99136139 13.15371488 -15.1299703 10.43694123 -14.67163086 7.17700195 C-11.15645099 0.57230852 -6.87942649 0.02461036 0 0 Z " fill="#DB626D" transform="translate(29.671630859375,23.822998046875)"/>
<path d="M0 0 C9.36962121 7.83929787 17.0183128 19.3148228 18.47436523 31.66015625 C18.63338285 34.53000975 18.678773 37.37195378 18.66015625 40.24609375 C18.65516113 41.25881348 18.65016602 42.2715332 18.64501953 43.31494141 C18.36621448 55.31894104 14.44814343 64.45274481 7.16015625 73.99609375 C6.56589844 74.80949219 5.97164063 75.62289062 5.359375 76.4609375 C-2.39666085 85.40173194 -14.20256531 91.40718595 -25.83984375 92.99609375 C-41.62428248 94.0875709 -55.76734713 90.8832464 -67.96484375 80.55859375 C-71.07064069 78.07782234 -72.88786943 77.6840374 -76.83984375 78.12109375 C-78.18008202 78.37918017 -79.51718684 78.65930611 -80.83984375 78.99609375 C-82.0119742 77.20799678 -83.17739901 75.4155025 -84.33984375 73.62109375 C-84.98953125 72.62335938 -85.63921875 71.625625 -86.30859375 70.59765625 C-87.83984375 67.99609375 -87.83984375 67.99609375 -87.83984375 65.99609375 C-87.15921875 65.48046875 -86.47859375 64.96484375 -85.77734375 64.43359375 C-83.51180129 61.58339517 -83.63539539 61.02848955 -84.02734375 57.55859375 C-84.395771 55.23061938 -84.85089562 52.94725423 -85.37109375 50.6484375 C-88.13255813 35.02315154 -83.82016056 20.83831636 -74.83984375 7.99609375 C-56.06893993 -15.77762805 -23.47725211 -16.56647914 0 0 Z " fill="#897D87" transform="translate(253.83984375,395.00390625)"/>
<path d="M0 0 C9.24457519 7.84943351 14.65208755 17.40542112 18.125 28.92578125 C18.31964844 29.55097656 18.51429688 30.17617188 18.71484375 30.8203125 C20.23070995 38.601759 19.85178365 47.459248 17.125 54.92578125 C16.80660156 55.83714844 16.48820312 56.74851562 16.16015625 57.6875 C10.54838344 72.44438406 1.6355281 82.10783234 -12.515625 88.8828125 C-25.45900421 94.60447185 -39.46771117 94.21853213 -52.875 89.92578125 C-67.7259705 82.98247037 -76.96807018 73.0185157 -82.875 57.7265625 C-83.205 56.80230469 -83.535 55.87804687 -83.875 54.92578125 C-84.1225 54.23871094 -84.37 53.55164063 -84.625 52.84375 C-88.66827203 39.50656797 -85.02469261 25.84198884 -78.71875 13.91015625 C-71.5870211 2.36642557 -60.16365151 -7.28519665 -46.8046875 -10.6796875 C-29.55723294 -13.00234471 -14.24997965 -10.28089564 0 0 Z " fill="#897D87" transform="translate(441.875,395.07421875)"/>
<path d="M0 0 C0.83354004 0.0009668 1.66708008 0.00193359 2.52587891 0.00292969 C12.27843811 0.27828719 19.5192019 4.24244267 26.8125 10.5625 C33.7801947 18.98931195 37.66345943 28.21279644 37.25 39.1953125 C35.86238052 49.87502675 31.11143188 58.69014086 22.8125 65.5625 C12.02051565 72.13153395 1.32419982 74.44198141 -11.11328125 71.984375 C-20.90098198 68.55009404 -28.5147347 60.65492248 -33.1875 51.5625 C-33.54585937 50.88832031 -33.90421875 50.21414063 -34.2734375 49.51953125 C-37.40032394 42.82478722 -37.23677347 32.89865422 -35.5390625 25.8828125 C-31.33133077 14.33852287 -23.7133077 7.38498698 -12.98046875 1.93359375 C-8.69963197 0.15651267 -4.59304949 -0.0129512 0 0 Z " fill="#030201" transform="translate(220.1875,399.4375)"/>
<path d="M0 0 C0.83426514 0.00169189 1.66853027 0.00338379 2.52807617 0.00512695 C10.03372954 0.22197789 15.59484397 2.3083143 21.8125 6.5625 C22.905625 7.284375 23.99875 8.00625 25.125 8.75 C32.55710775 16.52778718 36.68576296 24.63058616 37.125 35.375 C36.83279032 47.26428146 32.22849805 56.89117251 23.703125 65.02734375 C14.40629745 72.57621405 3.30345995 73.47902721 -8.1875 72.5625 C-11.58788225 71.71601163 -14.25472515 70.46086929 -17.1875 68.5625 C-17.88230469 68.11519531 -18.57710938 67.66789062 -19.29296875 67.20703125 C-28.43895083 60.80655974 -33.31149236 53.43013737 -36.1875 42.5625 C-37.62996229 31.82556333 -35.30506119 22.53309687 -29 13.75 C-21.49065654 4.7612998 -11.60829524 -0.03389795 0 0 Z " fill="#020201" transform="translate(408.1875,399.4375)"/>
<path d="M0 0 C3.5211873 1.50109572 5.73361509 3.56891345 8.4375 6.25 C19.67681677 16.57487532 32.39563041 19.3084162 47.11515808 19.24723816 C48.45478529 19.24882767 49.7944117 19.25129269 51.13403589 19.25455457 C54.80464721 19.26095301 58.47514781 19.25491164 62.14575183 19.24679029 C66.10825438 19.24020149 70.07074478 19.24516429 74.0332489 19.24867249 C81.79077396 19.25371001 89.54825633 19.24807877 97.30577608 19.23882218 C106.33758093 19.2284327 115.36937657 19.22850851 124.40118627 19.22899476 C140.51282785 19.22949522 156.62444957 19.22033751 172.73608398 19.20581055 C188.3757361 19.19171642 204.01537074 19.18464009 219.6550293 19.18530273 C220.61871519 19.18534269 221.58240108 19.18538265 222.57528957 19.18542381 C223.53729883 19.18546417 224.4993081 19.18550452 225.49046916 19.1855461 C243.29097648 19.1862356 261.09147636 19.18034878 278.89198127 19.17139288 C285.19050695 19.16837459 291.48903127 19.1673131 297.7875576 19.16686058 C305.45891076 19.16617906 313.13025139 19.16172276 320.80159923 19.15252777 C324.71698799 19.14790536 328.6323607 19.14486593 332.54775238 19.14612198 C336.12949862 19.14721531 339.71120933 19.14370909 343.29294816 19.13647345 C345.20737043 19.13379452 347.1217976 19.13602278 349.03622025 19.1384055 C350.16848772 19.13518106 351.30075519 19.13195661 352.46733379 19.12863445 C353.93571635 19.12757782 353.93571635 19.12757782 355.43376321 19.12649983 C357.80246555 19.00973724 359.76976371 18.80151491 362 18 C362.33 17.34 362.66 16.68 363 16 C363.48801743 23.19825708 363.48801743 23.19825708 361.25 26.875 C357.49053966 30.42560143 354.7293181 31.24981146 349.58782864 31.25447559 C348.48241173 31.26030779 347.37699483 31.26613998 346.23808044 31.27214891 C345.02380452 31.26836958 343.80952859 31.26459026 342.55845642 31.26069641 C341.26831385 31.26452196 339.97817127 31.26834751 338.64893347 31.27228898 C335.06487826 31.28259681 331.48092278 31.28038006 327.89685929 31.27610838 C324.03232303 31.27364606 320.1678111 31.28264941 316.30328369 31.29014587 C308.72949747 31.30291071 301.15574666 31.30468418 293.58195149 31.30234561 C287.42366985 31.30056353 281.26539896 31.30230974 275.10711861 31.30657005 C273.7930112 31.30746284 273.7930112 31.30746284 272.45235618 31.30837366 C270.67261636 31.30958541 268.89287654 31.31079954 267.11313672 31.31201603 C250.4115095 31.32289938 233.70990245 31.32072589 217.00827409 31.31463119 C201.73876534 31.3094668 186.46932049 31.32070342 171.19982439 31.33972941 C155.51845651 31.35911853 139.83711883 31.36736157 124.15573889 31.36360615 C115.35309693 31.36169504 106.55050929 31.36417252 97.74787712 31.37832069 C90.25010211 31.39024949 82.7524148 31.39162295 75.25463855 31.37953053 C71.43151295 31.37365105 67.60854764 31.3725163 63.78543282 31.38453293 C59.63363855 31.3974304 55.48222397 31.38690445 51.33042908 31.3742218 C50.1317682 31.38159609 48.93310733 31.38897037 47.6981234 31.39656812 C33.95846529 31.30845031 21.11586373 27.52637543 10.88671875 18.0234375 C6.02242824 12.80666217 1.66636825 7.03577705 0 0 Z " fill="#D24751" transform="translate(124,338)"/>
<path d="M0 0 C23.76 0 47.52 0 72 0 C71.16504729 16.69905415 69.66369372 33.36306282 68 50 C46.88 50 25.76 50 4 50 C3.34 43.420625 2.68 36.84125 2 30.0625 C1.79117187 28.00394775 1.58234375 25.94539551 1.3671875 23.82446289 C1.20277553 22.16556194 1.03869174 20.50662842 0.875 18.84765625 C0.78863281 18.00843628 0.70226562 17.16921631 0.61328125 16.30456543 C0.53207031 15.47324097 0.45085937 14.6419165 0.3671875 13.78540039 C0.29612793 13.0770253 0.22506836 12.36865021 0.15185547 11.6388092 C-0.07105413 7.76528452 0 3.87993327 0 0 Z " fill="#E8E8E8" transform="translate(289,85)"/>
<path d="M0 0 C19.8 0 39.6 0 60 0 C60 6.57081498 59.88956037 12.94830808 59.37890625 19.47265625 C59.31468979 20.32178085 59.25047333 21.17090546 59.18431091 22.04576111 C59.04917071 23.81800675 58.91211604 25.59010739 58.77319336 27.36206055 C58.5606169 30.08663559 58.35713941 32.81179423 58.15429688 35.53710938 C58.02137552 37.26566678 57.88793142 38.99418408 57.75390625 40.72265625 C57.66321617 41.94747459 57.66321617 41.94747459 57.57069397 43.19703674 C57.11480391 48.88519609 57.11480391 48.88519609 56 50 C54.37872577 50.09861598 52.75317632 50.12798767 51.12890625 50.12939453 C49.57224243 50.13412277 49.57224243 50.13412277 47.98413086 50.13894653 C46.29042358 50.13591019 46.29042358 50.13591019 44.5625 50.1328125 C42.83688843 50.13424759 42.83688843 50.13424759 41.07641602 50.13571167 C38.63850856 50.13639369 36.2005993 50.1345379 33.76269531 50.13037109 C30.01623482 50.12502317 26.26989423 50.13031539 22.5234375 50.13671875 C20.16145807 50.13605797 17.79947871 50.13477682 15.4375 50.1328125 C14.30836182 50.13483673 13.17922363 50.13686096 12.01586914 50.13894653 C10.97809326 50.13579437 9.94031738 50.13264221 8.87109375 50.12939453 C7.95255615 50.12859894 7.03401855 50.12780334 6.08764648 50.12698364 C4 50 4 50 3 49 C2.6962505 46.49144483 2.45133534 44.00156298 2.24609375 41.484375 C2.18092056 40.71756409 2.11574738 39.95075317 2.04859924 39.16070557 C1.91106518 37.52659776 1.77587982 35.89229089 1.64282227 34.2578125 C1.44170873 31.80140559 1.23022014 29.34605722 1.01757812 26.890625 C0.88477675 25.29692819 0.75259777 23.70317938 0.62109375 22.109375 C0.55860947 21.39215271 0.49612518 20.67493042 0.43174744 19.93597412 C-0.09986986 13.23364922 0 6.79869802 0 0 Z " fill="#E7E7E7" transform="translate(295,150)"/>
<path d="M0 0 C16.83 0 33.66 0 51 0 C56.82757131 26.806828 56.82757131 26.806828 58.3125 35.125 C58.48072266 36.02863281 58.64894531 36.93226562 58.82226562 37.86328125 C58.98017578 38.73597656 59.13808594 39.60867187 59.30078125 40.5078125 C59.43653564 41.25691895 59.57229004 42.00602539 59.7121582 42.77783203 C60 45 60 45 60 50 C43.83 50 27.66 50 11 50 C3.85574248 21.69774906 3.85574248 21.69774906 1.5625 11.5 C1.39911133 10.78473145 1.23572266 10.06946289 1.06738281 9.33251953 C0.35452029 6.09923549 0 3.33764152 0 0 Z " fill="#E6E6E6" transform="translate(155,85)"/>
<path d="M0 0 C17.49 0 34.98 0 53 0 C53.66 6.765 54.32 13.53 55 20.5 C55.20882812 22.61986328 55.41765625 24.73972656 55.6328125 26.92382812 C55.79717776 28.62627288 55.96125889 30.3287451 56.125 32.03125 C56.21136719 32.89717773 56.29773438 33.76310547 56.38671875 34.65527344 C56.87706802 39.79810332 57.08366455 44.83371389 57 50 C50.3247966 50.02526945 43.64960543 50.04283268 36.97436523 50.05493164 C34.70157409 50.05997325 32.4287862 50.06680637 30.15600586 50.07543945 C26.89696449 50.08751261 23.63796583 50.09322987 20.37890625 50.09765625 C19.35599991 50.10281754 18.33309357 50.10797882 17.27919006 50.11329651 C16.33829025 50.11337204 15.39739044 50.11344757 14.42797852 50.11352539 C13.59524918 50.115746 12.76251984 50.11796661 11.90455627 50.12025452 C10 50 10 50 9 49 C8.52193859 46.92745427 8.09752993 44.8424966 7.6953125 42.75390625 C7.5706662 42.10993393 7.4460199 41.46596161 7.31759644 40.80247498 C7.0518383 39.42490642 6.78799434 38.04696747 6.52587891 36.66870117 C6.13768371 34.62913967 5.74326058 32.59086995 5.34765625 30.55273438 C3.39605628 20.38774255 1.70279569 10.21677414 0 0 Z " fill="#E6E6E6" transform="translate(221,85)"/>
<path d="M0 0 C17.49 0 34.98 0 53 0 C48.04282247 27.9529733 48.04282247 27.9529733 45.75 40.1875 C45.50588379 41.51237427 45.50588379 41.51237427 45.25683594 42.86401367 C44.11705673 48.88294327 44.11705673 48.88294327 43 50 C41.52645652 50.09304018 40.04849409 50.11746265 38.57202148 50.11352539 C37.63112167 50.11344986 36.69022186 50.11337433 35.72080994 50.11329651 C34.69790359 50.10813522 33.67499725 50.10297394 32.62109375 50.09765625 C31.57929459 50.0962413 30.53749542 50.09482635 29.46412659 50.09336853 C26.12188906 50.0877508 22.77971743 50.0751953 19.4375 50.0625 C17.17773534 50.05748728 14.91796963 50.05292398 12.65820312 50.04882812 C7.10544609 50.03777561 1.55272775 50.02102024 -4 50 C-3.47750936 37.86825021 -2.72447515 25.82549591 -1.4375 13.75 C-0.963125 9.2125 -0.48875 4.675 0 0 Z " fill="#E7E7E7" transform="translate(376,85)"/>
<path d="M0 0 C16.83 0 33.66 0 51 0 C47.62318841 16.88405797 47.62318841 16.88405797 45.9921875 23.359375 C45.82123566 24.0413092 45.65028381 24.72324341 45.47415161 25.42584229 C45.12132951 26.83054192 44.76684908 28.23482615 44.41064453 29.63867188 C43.86499896 31.78942069 43.32468327 33.94145891 42.78515625 36.09375 C40.16538204 46.50385388 40.16538204 46.50385388 39 50 C23.16 50 7.32 50 -9 50 C-9 42.125 -9 42.125 -8.17382812 38.25805664 C-7.99110352 37.38588501 -7.80837891 36.51371338 -7.62011719 35.6151123 C-7.42579102 34.72247681 -7.23146484 33.82984131 -7.03125 32.91015625 C-6.85432617 32.07190308 -6.67740234 31.2336499 -6.49511719 30.36999512 C-5.83779893 27.26585179 -5.16818696 24.16432193 -4.5 21.0625 C-3.015 14.111875 -1.53 7.16125 0 0 Z " fill="#E6E6E6" transform="translate(444,85)"/>
<path d="M0 0 C15.84 0 31.68 0 48 0 C49.485 7.321875 50.97 14.64375 52.5 22.1875 C52.96986328 24.49129639 53.43972656 26.79509277 53.92382812 29.16870117 C54.29335197 31.00171315 54.66251687 32.83479754 55.03125 34.66796875 C55.22557617 35.61401978 55.41990234 36.5600708 55.62011719 37.53479004 C55.8028418 38.44780884 55.98556641 39.36082764 56.17382812 40.30151367 C56.33371216 41.08983078 56.49359619 41.87814789 56.6583252 42.69035339 C57 45 57 45 57 50 C41.82 50 26.64 50 11 50 C9.185 42.86375 7.37 35.7275 5.5 28.375 C4.92572266 26.13251465 4.35144531 23.8900293 3.75976562 21.57958984 C3.30803037 19.79018119 2.85682304 18.00063915 2.40625 16.2109375 C2.16874023 15.29159424 1.93123047 14.37225098 1.68652344 13.42504883 C1.46319336 12.53245361 1.23986328 11.6398584 1.00976562 10.72021484 C0.81435181 9.95188324 0.61893799 9.18355164 0.41760254 8.39193726 C0 6 0 6 0 0 Z " fill="#E6E6E6" transform="translate(171,150)"/>
<path d="M0 0 C15.84 0 31.68 0 48 0 C46.70740914 7.10924974 45.345829 14.0648251 43.625 21.0625 C41.27279928 30.68021546 39.14907633 40.3291565 37 50 C21.82 50 6.64 50 -9 50 C-8.32863185 43.95768667 -7.55375021 38.11338439 -6.40625 32.16796875 C-6.25466431 31.36893631 -6.10307861 30.56990387 -5.94689941 29.74665833 C-5.6291217 28.07502281 -5.30972861 26.40369362 -4.98876953 24.73266602 C-4.4980348 22.17726665 -4.01227029 19.62096042 -3.52734375 17.06445312 C-3.21643212 15.43223711 -2.90524403 13.80007372 -2.59375 12.16796875 C-2.44893188 11.40751755 -2.30411377 10.64706635 -2.15490723 9.86357117 C-1.51688436 6.54660825 -0.81960404 3.27841616 0 0 Z " fill="#E6E6E6" transform="translate(431,150)"/>
<path d="M0 0 C16.5 0 33 0 50 0 C48.84323319 16.69049248 47.57553755 33.34431729 46 50 C32.14 50 18.28 50 4 50 C3.42780581 43.84380362 2.85728525 37.68749928 2.29101562 31.53076172 C2.09798745 29.43757195 1.90398704 27.34447159 1.70898438 25.25146484 C1.42841317 22.23818736 1.15137203 19.22460267 0.875 16.2109375 C0.78750488 15.27945892 0.70000977 14.34798035 0.60986328 13.38827515 C0.48973877 12.0675853 0.48973877 12.0675853 0.3671875 10.72021484 C0.29612793 9.95188324 0.22506836 9.18355164 0.15185547 8.39193726 C-0.02540801 5.59978814 0 2.79777036 0 0 Z " fill="#E9E9E9" transform="translate(300,215)"/>
<path d="M0 0 C14.52 0 29.04 0 44 0 C48.50274863 18.0109945 48.50274863 18.0109945 49.703125 24.4921875 C49.89439972 25.5165239 49.89439972 25.5165239 50.08953857 26.56155396 C50.35041385 27.96362245 50.60902181 29.36611493 50.86523438 30.76904297 C51.25893112 32.92388316 51.66018668 35.07722208 52.0625 37.23046875 C54 47.68095583 54 47.68095583 54 50 C39.81 50 25.62 50 11 50 C9.42680848 43.84514357 7.85803992 37.68949781 6.30029297 31.53076172 C5.76932351 29.43701209 5.23581884 27.34390366 4.69970703 25.25146484 C3.92850226 22.23961691 3.16651523 19.22556286 2.40625 16.2109375 C2.16563843 15.27945892 1.92502686 14.34798035 1.67712402 13.38827515 C1.45689575 12.50781525 1.23666748 11.62735535 1.00976562 10.72021484 C0.81435181 9.95188324 0.61893799 9.18355164 0.41760254 8.39193726 C0 6 0 6 0 0 Z " fill="#E7E7E7" transform="translate(187,215)"/>
<path d="M0 0 C14.85 0 29.7 0 45 0 C44.34089539 6.59104611 43.60607465 12.43845007 41.96875 18.74609375 C41.67478333 19.91278343 41.67478333 19.91278343 41.37487793 21.1030426 C40.75658506 23.54961075 40.12835376 25.99349896 39.5 28.4375 C39.07879634 30.10075186 38.65821841 31.7641623 38.23828125 33.42773438 C35.21607609 45.35177173 35.21607609 45.35177173 34 49 C20.14 49 6.28 49 -8 49 C-8 43.39344315 -7.90024054 39.54695279 -6.7578125 34.296875 C-6.49613281 33.06839844 -6.23445313 31.83992188 -5.96484375 30.57421875 C-5.54912109 28.68123047 -5.54912109 28.68123047 -5.125 26.75 C-4.58365001 24.24528497 -4.04456224 21.74007987 -3.5078125 19.234375 C-3.14647217 17.58260254 -3.14647217 17.58260254 -2.77783203 15.89746094 C-1.72499732 10.62205188 -0.8843749 5.3062494 0 0 Z " fill="#E8E8E8" transform="translate(418,215)"/>
<path d="M0 0 C15.18 0 30.36 0 46 0 C44.11142435 11.96097913 42.15975386 23.82159931 39.8125 35.6875 C38.4203125 42.7721875 38.4203125 42.7721875 37 50 C23.47 50 9.94 50 -4 50 C-2.85051306 31.60820896 -2.85051306 31.60820896 -2.24609375 25 C-2.18812622 24.34773438 -2.13015869 23.69546875 -2.07043457 23.0234375 C-1.86175719 20.68208546 -1.64945002 18.34105805 -1.4375 16 C-0.963125 10.72 -0.48875 5.44 0 0 Z " fill="#E6E6E6" transform="translate(370,150)"/>
<path d="M0 0 C15.18 0 30.36 0 46 0 C46.66 7.5075 47.32 15.015 48 22.75 C48.20882812 25.11510742 48.41765625 27.48021484 48.6328125 29.91699219 C48.79701242 31.79360777 48.96108368 33.67023462 49.125 35.546875 C49.21136719 36.51963379 49.29773438 37.49239258 49.38671875 38.49462891 C49.46792969 39.42807129 49.54914063 40.36151367 49.6328125 41.32324219 C49.73940186 42.53569611 49.73940186 42.53569611 49.84814453 43.77264404 C49.98938051 45.84423747 50 47.9235976 50 50 C36.47 50 22.94 50 9 50 C7.700625 43.420625 6.40125 36.84125 5.0625 30.0625 C4.65394775 28.00394775 4.24539551 25.94539551 3.82446289 23.82446289 C3.49856808 22.1655848 3.17294803 20.5066527 2.84765625 18.84765625 C2.59622864 17.58882629 2.59622864 17.58882629 2.33972168 16.30456543 C2.09627014 15.05757874 2.09627014 15.05757874 1.84790039 13.78540039 C1.70800186 13.0770253 1.56810333 12.36865021 1.42396545 11.6388092 C0.80395088 7.77976795 0.43162508 3.88462576 0 0 Z " fill="#E6E6E6" transform="translate(234,150)"/>
<path d="M0 0 C12.54 0 25.08 0 38 0 C39.2087626 9.6701008 40.37557954 19.2380335 41.125 28.9375 C41.21136719 29.98228516 41.29773438 31.02707031 41.38671875 32.10351562 C41.86338098 38.12988807 42 43.91454808 42 50 C31.11 50 20.22 50 9 50 C7.88625 44.72 6.7725 39.44 5.625 34 C5.27775879 32.370625 4.93051758 30.74125 4.57275391 29.0625 C4.29018246 27.70843917 4.00809044 26.35427817 3.7265625 25 C3.58565186 24.34773438 3.44474121 23.69546875 3.29956055 23.0234375 C1.72070224 15.36315051 0.98071615 7.84572921 0 0 Z " fill="#E7E7E7" transform="translate(247,215)"/>
<path d="M0 0 C12.54 0 25.08 0 38 0 C36.875 10.125 36.875 10.125 36.15209961 13.78540039 C35.99200912 14.60557144 35.83191864 15.42574249 35.66697693 16.27076721 C35.49714798 17.12114059 35.32731903 17.97151398 35.15234375 18.84765625 C34.97619034 19.74495956 34.80003693 20.64226288 34.61854553 21.5667572 C34.06164929 24.3993647 33.49966509 27.23093399 32.9375 30.0625 C32.55630215 31.99667811 32.17543959 33.93092234 31.79492188 35.86523438 C30.86777409 40.57773065 29.93373506 45.28878552 29 50 C18.11 50 7.22 50 -4 50 C-4 43.81968958 -3.94607783 37.90819565 -3.37890625 31.796875 C-3.31468979 31.07058899 -3.25047333 30.34430298 -3.18431091 29.5960083 C-3.04936284 28.08009397 -2.91231241 26.56436537 -2.77319336 25.04882812 C-2.56170447 22.7413202 -2.35749148 20.43325164 -2.15429688 18.125 C-2.02125759 16.64058692 -1.88780847 15.15621049 -1.75390625 13.671875 C-1.6934462 12.99050476 -1.63298615 12.30913452 -1.57069397 11.6071167 C-1.20732494 7.68201131 -0.65030433 3.90182599 0 0 Z " fill="#E8E8E8" transform="translate(365,215)"/>
<path d="M0 0 C1.21171875 -0.02578125 2.4234375 -0.0515625 3.671875 -0.078125 C9.50085632 0.4564104 13.25341211 2.70815097 17 7.125 C21.2103235 12.24616611 22.74632027 16.21097174 22.55859375 22.84765625 C21.65925501 29.84883755 18.47314724 34.7174439 13.03125 39.05859375 C7.03766719 43.06745945 1.34142892 43.07280934 -5.75 42.25 C-12.33325436 39.80748684 -17.12350747 34.73534113 -20.0625 28.4375 C-21.49262468 21.80692192 -21.52416441 16.2070433 -18.1640625 10.17578125 C-13.21623159 3.43743694 -8.27471807 0.10474327 0 0 Z " fill="#F7ED61" transform="translate(407.75,414.75)"/>
<path d="M0 0 C6.51350236 2.33559899 10.95833458 7.40277997 14.3125 13.3125 C16.1639703 20.55006572 15.21058245 26.14421244 11.62890625 32.6953125 C8.27349898 37.44277122 3.78719414 40.96851136 -2 42 C-8.67090935 42.72509884 -13.75653775 42.50728299 -19.28125 38.48828125 C-24.44213601 34.01942314 -27.42854697 29.58706888 -28.2890625 22.6796875 C-28.66905177 16.13987222 -27.2702171 11.96067509 -23 7 C-15.74473161 -0.14628367 -10.24886524 -0.99001113 0 0 Z " fill="#F7ED61" transform="translate(227,415)"/>
<path d="M0 0 C0.66 0.66 1.32 1.32 2 2 C2.69416016 2.68449219 2.69416016 2.68449219 3.40234375 3.3828125 C4.52483717 4.51902834 5.61912509 5.68346835 6.69140625 6.8671875 C17.08012781 18.01500145 31.24991941 24.16117891 46.375 25.15625 C62.69837882 25.72567019 77.75779074 20.33989881 89.6875 9.25 C91.48907832 7.52669999 93.24647887 5.77328707 95 4 C95.90685547 3.09507812 95.90685547 3.09507812 96.83203125 2.171875 C97.21746094 1.78515625 97.60289062 1.3984375 98 1 C97.42054674 4.86991997 96.29055 7.60845838 94.25 10.9375 C93.76015625 11.75089844 93.2703125 12.56429688 92.765625 13.40234375 C85.20083203 24.53196173 73.41792369 32.93039905 60.08984375 35.578125 C45.49348095 37.57105443 31.33441015 35.20984625 19 27 C17.61675993 25.86412768 16.24114206 24.71888009 14.875 23.5625 C11.76920306 21.08172859 9.95197432 20.68794365 6 21.125 C4.65976173 21.38308642 3.32265691 21.66321236 2 22 C0.82786955 20.21190303 -0.33755526 18.41940875 -1.5 16.625 C-2.1496875 15.62726563 -2.799375 14.62953125 -3.46875 13.6015625 C-5 11 -5 11 -5 9 C-4.0409375 8.1028125 -4.0409375 8.1028125 -3.0625 7.1875 C-0.74825544 4.73299819 -0.36608527 3.29476739 0 0 Z " fill="#796F77" transform="translate(171,452)"/>
<path d="M0 0 C1.00557449 0.48611755 1.00557449 0.48611755 2.03146362 0.98205566 C5.57287118 2.19644394 8.80005081 2.29238526 12.49658203 2.28710938 C13.60235596 2.29735893 13.60235596 2.29735893 14.73046875 2.30781555 C16.32422991 2.32136135 17.91803402 2.33044167 19.51184464 2.33552551 C22.03359272 2.34383495 24.55498223 2.36435631 27.07662964 2.38806152 C33.33592158 2.4443878 39.59530035 2.47971709 45.85473633 2.51568604 C51.15133949 2.54691097 56.44776689 2.58607614 61.74422836 2.63594055 C64.22982874 2.65602389 66.71529362 2.66432982 69.20095825 2.67224121 C70.72137957 2.68521057 72.24179633 2.69873043 73.76220703 2.71289062 C74.45422211 2.71190872 75.14623718 2.71092682 75.85922241 2.70991516 C79.46792496 2.75683001 80.9046729 2.9364486 84 5 C84.51171875 7.1640625 84.51171875 7.1640625 84.6875 9.625 C84.75324219 10.44226562 84.81898437 11.25953125 84.88671875 12.1015625 C84.94279297 13.04128906 84.94279297 13.04128906 85 14 C74.93381153 14.11595537 64.86778247 14.20474653 54.80106163 14.25906086 C50.12641144 14.28513194 45.45221886 14.32048415 40.77783203 14.37719727 C36.26499574 14.4316064 31.75259902 14.46143927 27.23945999 14.47438622 C25.51945706 14.48361018 23.79947763 14.5016229 22.07966232 14.52865028 C19.66635294 14.56506071 17.25484936 14.56994061 14.84130859 14.56762695 C14.13352264 14.58560333 13.42573669 14.60357971 12.69650269 14.62210083 C8.88015177 14.58262912 6.49440037 13.9604883 3.56021118 11.61808777 C0.88215577 8.87949176 0.23643949 7.92072307 0.125 4.1875 C0.08632812 3.39730469 0.04765625 2.60710938 0.0078125 1.79296875 C0.00523438 1.20128906 0.00265625 0.60960938 0 0 Z " fill="#D64953" transform="translate(15,31)"/>
<path d="M0 0 C1 3 1 3 -0.375 6.5 C-7.90057536 20.49447746 -19.15692071 28.9393781 -34 34 C-37.5 34.8125 -37.5 34.8125 -41 35 C-41.85722656 35.05027344 -42.71445312 35.10054688 -43.59765625 35.15234375 C-59.09252549 35.66271494 -72.86280393 31.28575509 -84.41015625 20.7265625 C-89.50030994 15.19868061 -93.39985792 9.03567856 -96 2 C-92.98966488 3.33286976 -91.12361666 4.74419314 -88.9375 7.1875 C-77.98865809 18.41708144 -63.14492118 23.79120867 -47.6875 24.3125 C-31.72971119 23.90448835 -17.67375289 18.16597116 -6.0859375 7.2109375 C-3.91149371 4.90618997 -1.9410424 2.50315423 0 0 Z " fill="#796F77" transform="translate(456,453)"/>
<path d="M0 0 C1 4 1 4 0 13 C-13.86 13 -27.72 13 -42 13 C-42 9.37 -42 5.74 -42 2 C-28.14 2 -14.28 2 0 2 C0 1.34 0 0.68 0 0 Z " fill="#C4C4C4" transform="translate(346,252)"/>
<path d="M0 0 C0.33 0 0.66 0 1 0 C1.66 4.62 2.32 9.24 3 14 C-11.19 14 -25.38 14 -40 14 C-40.66 10.7 -41.32 7.4 -42 4 C-28.14 4 -14.28 4 0 4 C0 2.68 0 1.36 0 0 Z " fill="#C8C8C8" transform="translate(238,251)"/>
<path d="M0 0 C0.33 0.99 0.66 1.98 1 3 C14.86 3 28.72 3 43 3 C42.34 6.3 41.68 9.6 41 13 C27.14 13 13.28 13 -1 13 C-1 4 -1 4 0 0 Z " fill="#C9C9C9" transform="translate(411,251)"/>
<path d="M0 0 C0.33 0 0.66 0 1 0 C1 1.216875 1 2.43375 1 3.6875 C1.33565971 6.43601791 1.62029582 7.63479527 3.63671875 9.57421875 C5.70655106 10.88708381 7.77327602 11.97769364 10 13 C11.3921875 13.6496875 11.3921875 13.6496875 12.8125 14.3125 C22.56696312 16.41640381 30.77059012 14.8267928 39.23828125 9.625 C41.37665156 7.65257861 41.56261593 6.67010706 41.75 3.8125 C41.8325 2.554375 41.915 1.29625 42 0 C42.33 0 42.66 0 43 0 C43.43937213 6.92011101 42.81217698 12.0872357 39 18 C35.09612074 22.23901506 30.87159968 25.63915083 25.046875 26.37109375 C16.52262753 26.54279068 11.63744033 25.4352955 5.4765625 19.54296875 C0.03591516 13.58341574 -0.30609592 7.65239807 0 0 Z " fill="#E9CD32" transform="translate(387,431)"/>
<path d="M0 0 C0.33 0 0.66 0 1 0 C1.60546452 7.50776006 0.39173333 12.78627658 -4 19 C-10.18675984 25.05199873 -15.67075348 26.43451196 -24.1796875 26.34375 C-29.93613579 25.64213303 -33.98831191 22.31145684 -37.875 18.1875 C-40.41461371 14.37807943 -41.15237333 11.46930428 -42 7 C-40.77023438 7.74056641 -40.77023438 7.74056641 -39.515625 8.49609375 C-38.43796875 9.13675781 -37.3603125 9.77742188 -36.25 10.4375 C-35.18265625 11.07558594 -34.1153125 11.71367187 -33.015625 12.37109375 C-26.60213682 15.83537428 -19.21350708 16.18706894 -12.19921875 14.2109375 C-8.09351315 12.61731548 -4.26940402 11.01568087 -1 8 C-0.31149171 5.9683434 -0.31149171 5.9683434 -0.25 3.8125 C-0.1675 2.554375 -0.085 1.29625 0 0 Z " fill="#EBCE32" transform="translate(241,431)"/>
<path d="M0 0 C1.43352212 0.00015908 2.86704998 0.00585132 4.30053711 0.01586914 C5.43041298 0.01799156 5.43041298 0.01799156 6.58311462 0.02015686 C8.99807646 0.02577163 11.41294687 0.03832656 13.82788086 0.05102539 C15.46134307 0.05603849 17.09480672 0.06060173 18.72827148 0.06469727 C22.74067671 0.07574585 26.75301326 0.09302033 30.76538086 0.11352539 C30.10538086 3.74352539 29.44538086 7.37352539 28.76538086 11.11352539 C17.87538086 11.11352539 6.98538086 11.11352539 -4.23461914 11.11352539 C-4.23461914 0.14862238 -4.23461914 0.14862238 0 0 Z " fill="#C1C1C1" transform="translate(365.234619140625,253.886474609375)"/>
<path d="M0 0 C11.22 0 22.44 0 34 0 C35 2 35 2 35 11 C24.11 11 13.22 11 2 11 C1.34 7.37 0.68 3.74 0 0 Z " fill="#C7C7C7" transform="translate(254,254)"/>
</svg>
