<?xml version="1.0" encoding="UTF-8"?>
<svg version="1.1" xmlns="http://www.w3.org/2000/svg" width="512" height="512">
<path d="M0 0 C5.64223761 5.25202678 11.07987277 11.88488203 14.47976565 18.82559717 C15.95823586 21.39739544 15.95823586 21.39739544 18.57183003 21.81145251 C19.5237916 21.81096545 20.47575316 21.81047839 21.45656204 21.80997658 C22.5554879 21.82156512 23.65441376 21.83315366 24.78664041 21.84509337 C25.99877576 21.83237375 27.21091111 21.81965413 28.45977783 21.80654907 C30.38569279 21.81590754 30.38569279 21.81590754 32.35051513 21.82545507 C35.92196193 21.84218763 39.49271656 21.8277406 43.0641253 21.80839396 C46.91294282 21.79299526 50.76166893 21.80640657 54.61048889 21.81648254 C61.28288012 21.83011576 67.95506621 21.82577675 74.62744904 21.80965042 C84.28225155 21.7866046 93.93684808 21.7938817 103.59165737 21.80918162 C119.26506124 21.83347139 134.93839933 21.8376522 150.61181641 21.82714844 C151.55032738 21.82652461 152.48883836 21.82590079 153.45578906 21.82525806 C155.35520178 21.82398677 157.25461449 21.82271253 159.15402721 21.82143535 C160.09567565 21.82080297 161.03732408 21.82017059 162.00750732 21.81951904 C162.94995226 21.8188809 163.8923972 21.81824275 164.86340107 21.81758527 C175.32283342 21.8107841 185.78226483 21.80878839 196.24169922 21.80859375 C197.17785683 21.80857092 198.11401445 21.80854809 199.07854047 21.80852456 C214.68754288 21.8085938 230.2965203 21.82062529 245.90551066 21.83955324 C255.53545589 21.85051918 265.16527024 21.84968315 274.79520908 21.8336135 C281.39516048 21.82314708 287.99505925 21.82291804 294.59501418 21.83073165 C298.40346591 21.83481951 302.21175021 21.83388516 306.02018166 21.81979942 C310.14933212 21.80459407 314.27812139 21.81243602 318.4072876 21.82241821 C319.61050006 21.81416004 320.81371253 21.80590186 322.05338597 21.79739344 C328.88335972 21.83663036 334.53657067 22.04409896 339.9296875 26.6875 C343.29633203 31.14540172 344.31184605 34.03806234 344.31892776 39.55305958 C344.32276891 40.67350251 344.32661005 41.79394544 344.3305676 42.94834119 C344.32970112 44.18450435 344.32883463 45.42066751 344.32794189 46.69429016 C344.33239858 48.65801544 344.33239858 48.65801544 344.3369453 50.66141194 C344.34502431 54.30295932 344.34680537 57.944487 344.34754276 61.58604228 C344.34939174 65.51048175 344.35693828 69.43491094 344.36367798 73.35934448 C344.37726804 81.94400525 344.38328702 90.52866135 344.38768864 99.11333108 C344.39044982 104.47186333 344.39468694 109.83039376 344.39919281 115.18892479 C344.41138616 130.02015857 344.42168547 144.8513909 344.4250679 159.68262959 C344.42528747 160.63211806 344.42550703 161.58160654 344.42573325 162.55986739 C344.42595153 163.51164864 344.42616981 164.46342989 344.4263947 165.44405299 C344.42683817 167.37277687 344.42728473 169.30150074 344.42773438 171.23022461 C344.4279558 172.18694158 344.42817723 173.14365856 344.42840537 174.12936696 C344.43235424 189.63510825 344.44981065 205.14080257 344.4730939 220.64652572 C344.49679613 236.55948617 344.50926923 252.47242304 344.51043582 268.38540143 C344.5113532 277.3226017 344.51712125 286.25974077 344.53525543 295.19692421 C344.55064118 302.80648342 344.55578591 310.41596251 344.54751733 318.02553431 C344.54360544 321.90879482 344.54456654 325.79189392 344.55857468 329.67513466 C344.57361683 333.88345988 344.56546312 338.09141996 344.55499268 342.29975891 C344.56707728 344.1439654 344.56707728 344.1439654 344.57940602 346.02542859 C344.51871321 356.41681918 344.51871321 356.41681918 341.1875 361.1875 C336.96150355 365.09654672 333.88252169 366.31359971 328.19514465 366.30775452 C327.16449387 366.30912918 326.13384308 366.31050385 325.07196045 366.31192017 C323.37695404 366.30652725 323.37695404 366.30652725 321.64770508 366.30102539 C319.86214455 366.30124443 319.86214455 366.30124443 318.04051208 366.3014679 C314.77631393 366.30089022 311.51215853 366.29587168 308.24796891 366.28889394 C304.83667578 366.28264664 301.42538183 366.28205551 298.01408386 366.28086853 C291.55430322 366.27775928 285.09453948 366.26955136 278.63476628 366.25951904 C271.28054636 366.24834531 263.92632563 366.24284427 256.57209933 366.23782361 C241.44388858 366.22736842 226.3156998 366.20902797 211.1875 366.1875 C211.1875 383.3475 211.1875 400.5075 211.1875 418.1875 C216.32699219 418.12949219 221.46648437 418.07148438 226.76171875 418.01171875 C230.02021391 417.98616701 233.27858532 417.96209739 236.53710938 417.94335938 C241.70786227 417.91348416 246.87817194 417.87816554 252.04858398 417.81030273 C256.2177751 417.75592443 260.38649088 417.72606741 264.55600929 417.71311378 C266.1456634 417.70388421 267.73529186 417.68586043 269.32474327 417.65884972 C271.55389725 417.62247905 273.78109448 417.61755755 276.01049805 417.61987305 C277.91245186 417.60321846 277.91245186 417.60321846 279.85282898 417.58622742 C284.08540756 418.34940119 285.5530368 419.8586753 288.1875 423.1875 C288.78686523 425.98657227 288.78686523 425.98657227 288.74609375 429.00390625 C288.73545898 430.64456055 288.73545898 430.64456055 288.72460938 432.31835938 C288.69173828 433.45080078 288.65886719 434.58324219 288.625 435.75 C288.61629883 437.45446289 288.61629883 437.45446289 288.60742188 439.19335938 C288.46788455 448.65399033 288.46788455 448.65399033 286.1875 452.1875 C283.60462591 453.47893704 281.75222058 453.31648223 278.85852146 453.32172108 C277.7208025 453.32617892 276.58308354 453.33063676 275.41088825 453.33522969 C274.15031115 453.33504533 272.88973405 453.33486097 271.59095764 453.33467102 C270.24668361 453.33796882 268.90241056 453.34169421 267.55813879 453.3458125 C263.85153477 453.35584982 260.14494694 453.35955205 256.43833125 453.36220181 C252.44576299 453.36609963 248.45320763 453.37567818 244.46064758 453.38441467 C234.81363121 453.40419179 225.16661376 453.41424595 215.51958218 453.42314246 C210.98079637 453.4275225 206.44201173 453.43288997 201.90322685 453.43813133 C186.82325641 453.45514332 171.74328671 453.46963936 156.66330814 453.47688007 C152.7486019 453.47879008 148.83389567 453.48071039 144.91918945 453.48266602 C143.94616697 453.48314976 142.97314449 453.4836335 141.97063648 453.4841319 C126.19442953 453.49243921 110.41829824 453.51778806 94.64212436 453.55024669 C78.45913743 453.58327201 62.27618902 453.60132464 46.0931682 453.60452431 C37.00120792 453.6066934 27.90935802 453.61550029 18.8174305 453.64098549 C11.07745881 453.66263059 3.33762432 453.67077352 -4.4023742 453.66101871 C-8.35416199 453.65645619 -12.30566637 453.65847258 -16.25741577 453.67778015 C-19.87153169 453.69528632 -23.48515482 453.6945177 -27.09927506 453.67888286 C-29.03358693 453.6753484 -30.96790324 453.69162618 -32.90214485 453.70848733 C-34.04247155 453.69990644 -35.18279826 453.69132555 -36.35768032 453.68248463 C-37.34576764 453.68346144 -38.33385495 453.68443824 -39.35188431 453.68544465 C-41.8125 453.1875 -41.8125 453.1875 -43.63015658 451.33687657 C-45.21932245 448.44793938 -45.18476251 446.28347897 -45.17578125 442.99609375 C-45.17481445 441.20848633 -45.17481445 441.20848633 -45.17382812 439.38476562 C-45.15771484 438.14404297 -45.14160156 436.90332031 -45.125 435.625 C-45.12822266 434.38041016 -45.13144531 433.13582031 -45.13476562 431.85351562 C-45.07958464 422.58812696 -45.07958464 422.58812696 -42.8125 419.1875 C-39.33143486 418.02714495 -36.6277767 418.06747296 -32.9543457 418.07397461 C-32.26140411 418.07382858 -31.56846252 418.07368256 -30.85452271 418.0735321 C-28.56574363 418.07422837 -26.2770461 418.0820074 -23.98828125 418.08984375 C-22.40073186 418.09170894 -20.81318189 418.09313237 -19.22563171 418.09413147 C-15.0482728 418.09794866 -10.87094869 418.10777214 -6.69360352 418.11883545 C-1.6809028 418.13086574 3.33180955 418.13545561 8.34452057 418.14128876 C15.95887124 418.15098431 23.57314557 418.17014644 31.1875 418.1875 C31.1875 401.0275 31.1875 383.8675 31.1875 366.1875 C27.52317871 366.20844727 23.85885742 366.22939453 20.08349609 366.25097656 C7.98166939 366.31723164 -4.1201446 366.36163326 -16.22210121 366.39474869 C-23.56010822 366.41536245 -30.89794324 366.44346012 -38.23583984 366.48925781 C-44.63254392 366.52916221 -51.02912342 366.55494144 -57.4259485 366.56385398 C-60.81219492 366.56906273 -64.19808501 366.5812797 -67.58421707 366.61042023 C-71.36707001 366.6394224 -75.14918282 366.64345714 -78.93212891 366.64160156 C-80.61095657 366.66317322 -80.61095657 366.66317322 -82.32369995 366.68518066 C-88.29829995 366.65343242 -92.24658516 366.460505 -96.8125 362.1875 C-101.12597783 357.00832375 -101.3786937 353.13917072 -101.29351807 346.69631958 C-101.29693577 345.74789244 -101.30035347 344.79946529 -101.30387473 343.82229793 C-101.31045669 340.6483131 -101.2884718 337.47517629 -101.26660156 334.30126953 C-101.26547316 332.02455159 -101.26610681 329.7478322 -101.26837158 327.47111511 C-101.26951991 321.29178799 -101.24599091 315.11277103 -101.21807575 308.93351603 C-101.19308218 302.47529577 -101.1907217 296.01706853 -101.18597412 289.55880737 C-101.17495155 278.7194823 -101.14996143 267.8802845 -101.11425781 257.04101562 C-101.07752589 245.87793546 -101.04921993 234.71488623 -101.03222656 223.55175781 C-101.03117567 222.86333817 -101.03012477 222.17491854 -101.02904204 221.4656377 C-101.02382178 218.01194124 -101.01876697 214.55824456 -101.01379442 211.10454774 C-100.97234658 182.46545495 -100.90161266 153.82648193 -100.8125 125.1875 C-101.43415039 124.88658447 -102.05580078 124.58566895 -102.69628906 124.27563477 C-117.96445561 116.42489431 -127.67073242 98.25644956 -132.84765625 82.62109375 C-138.69097916 61.82643449 -136.51853678 39.33719822 -126.25 20.2890625 C-122.17503925 13.55405792 -117.22982349 7.86884467 -111.8125 2.1875 C-111.01972656 1.26517578 -111.01972656 1.26517578 -110.2109375 0.32421875 C-81.67212819 -31.50753009 -29.95811006 -25.00850927 0 0 Z " fill="#92CBF9" transform="translate(151.8125,39.8125)"/>
<path d="M0 0 C5.64223761 5.25202678 11.07987277 11.88488203 14.47976565 18.82559717 C15.95823586 21.39739544 15.95823586 21.39739544 18.57183003 21.81145251 C19.5237916 21.81096545 20.47575316 21.81047839 21.45656204 21.80997658 C22.5554879 21.82156512 23.65441376 21.83315366 24.78664041 21.84509337 C25.99877576 21.83237375 27.21091111 21.81965413 28.45977783 21.80654907 C30.38569279 21.81590754 30.38569279 21.81590754 32.35051513 21.82545507 C35.92196193 21.84218763 39.49271656 21.8277406 43.0641253 21.80839396 C46.91294282 21.79299526 50.76166893 21.80640657 54.61048889 21.81648254 C61.28288012 21.83011576 67.95506621 21.82577675 74.62744904 21.80965042 C84.28225155 21.7866046 93.93684808 21.7938817 103.59165737 21.80918162 C119.26506124 21.83347139 134.93839933 21.8376522 150.61181641 21.82714844 C151.55032738 21.82652461 152.48883836 21.82590079 153.45578906 21.82525806 C155.35520178 21.82398677 157.25461449 21.82271253 159.15402721 21.82143535 C160.09567565 21.82080297 161.03732408 21.82017059 162.00750732 21.81951904 C162.94995226 21.8188809 163.8923972 21.81824275 164.86340107 21.81758527 C175.32283342 21.8107841 185.78226483 21.80878839 196.24169922 21.80859375 C197.17785683 21.80857092 198.11401445 21.80854809 199.07854047 21.80852456 C214.68754288 21.8085938 230.2965203 21.82062529 245.90551066 21.83955324 C255.53545589 21.85051918 265.16527024 21.84968315 274.79520908 21.8336135 C281.39516048 21.82314708 287.99505925 21.82291804 294.59501418 21.83073165 C298.40346591 21.83481951 302.21175021 21.83388516 306.02018166 21.81979942 C310.14933212 21.80459407 314.27812139 21.81243602 318.4072876 21.82241821 C319.61050006 21.81416004 320.81371253 21.80590186 322.05338597 21.79739344 C328.88335972 21.83663036 334.53657067 22.04409896 339.9296875 26.6875 C343.29633203 31.14540172 344.31184605 34.03806234 344.31892776 39.55305958 C344.32276891 40.67350251 344.32661005 41.79394544 344.3305676 42.94834119 C344.32970112 44.18450435 344.32883463 45.42066751 344.32794189 46.69429016 C344.33239858 48.65801544 344.33239858 48.65801544 344.3369453 50.66141194 C344.34502431 54.30295932 344.34680537 57.944487 344.34754276 61.58604228 C344.34939174 65.51048175 344.35693828 69.43491094 344.36367798 73.35934448 C344.37726804 81.94400525 344.38328702 90.52866135 344.38768864 99.11333108 C344.39044982 104.47186333 344.39468694 109.83039376 344.39919281 115.18892479 C344.41138616 130.02015857 344.42168547 144.8513909 344.4250679 159.68262959 C344.42528747 160.63211806 344.42550703 161.58160654 344.42573325 162.55986739 C344.42595153 163.51164864 344.42616981 164.46342989 344.4263947 165.44405299 C344.42683817 167.37277687 344.42728473 169.30150074 344.42773438 171.23022461 C344.4279558 172.18694158 344.42817723 173.14365856 344.42840537 174.12936696 C344.43235424 189.63510825 344.44981065 205.14080257 344.4730939 220.64652572 C344.49679613 236.55948617 344.50926923 252.47242304 344.51043582 268.38540143 C344.5113532 277.3226017 344.51712125 286.25974077 344.53525543 295.19692421 C344.55064118 302.80648342 344.55578591 310.41596251 344.54751733 318.02553431 C344.54360544 321.90879482 344.54456654 325.79189392 344.55857468 329.67513466 C344.57361683 333.88345988 344.56546312 338.09141996 344.55499268 342.29975891 C344.56707728 344.1439654 344.56707728 344.1439654 344.57940602 346.02542859 C344.51871321 356.41681918 344.51871321 356.41681918 341.1875 361.1875 C336.96150355 365.09654672 333.88252169 366.31359971 328.19514465 366.30775452 C327.16449387 366.30912918 326.13384308 366.31050385 325.07196045 366.31192017 C323.37695404 366.30652725 323.37695404 366.30652725 321.64770508 366.30102539 C319.86214455 366.30124443 319.86214455 366.30124443 318.04051208 366.3014679 C314.77631393 366.30089022 311.51215853 366.29587168 308.24796891 366.28889394 C304.83667578 366.28264664 301.42538183 366.28205551 298.01408386 366.28086853 C291.55430322 366.27775928 285.09453948 366.26955136 278.63476628 366.25951904 C271.28054636 366.24834531 263.92632563 366.24284427 256.57209933 366.23782361 C241.44388858 366.22736842 226.3156998 366.20902797 211.1875 366.1875 C211.1875 383.3475 211.1875 400.5075 211.1875 418.1875 C216.32699219 418.12949219 221.46648437 418.07148438 226.76171875 418.01171875 C230.02021391 417.98616701 233.27858532 417.96209739 236.53710938 417.94335938 C241.70786227 417.91348416 246.87817194 417.87816554 252.04858398 417.81030273 C256.2177751 417.75592443 260.38649088 417.72606741 264.55600929 417.71311378 C266.1456634 417.70388421 267.73529186 417.68586043 269.32474327 417.65884972 C271.55389725 417.62247905 273.78109448 417.61755755 276.01049805 417.61987305 C277.91245186 417.60321846 277.91245186 417.60321846 279.85282898 417.58622742 C284.08540756 418.34940119 285.5530368 419.8586753 288.1875 423.1875 C288.78686523 425.98657227 288.78686523 425.98657227 288.74609375 429.00390625 C288.73545898 430.64456055 288.73545898 430.64456055 288.72460938 432.31835938 C288.69173828 433.45080078 288.65886719 434.58324219 288.625 435.75 C288.61629883 437.45446289 288.61629883 437.45446289 288.60742188 439.19335938 C288.46788455 448.65399033 288.46788455 448.65399033 286.1875 452.1875 C283.60462591 453.47893704 281.75222058 453.31648223 278.85852146 453.32172108 C277.7208025 453.32617892 276.58308354 453.33063676 275.41088825 453.33522969 C274.15031115 453.33504533 272.88973405 453.33486097 271.59095764 453.33467102 C270.24668361 453.33796882 268.90241056 453.34169421 267.55813879 453.3458125 C263.85153477 453.35584982 260.14494694 453.35955205 256.43833125 453.36220181 C252.44576299 453.36609963 248.45320763 453.37567818 244.46064758 453.38441467 C234.81363121 453.40419179 225.16661376 453.41424595 215.51958218 453.42314246 C210.98079637 453.4275225 206.44201173 453.43288997 201.90322685 453.43813133 C186.82325641 453.45514332 171.74328671 453.46963936 156.66330814 453.47688007 C152.7486019 453.47879008 148.83389567 453.48071039 144.91918945 453.48266602 C143.94616697 453.48314976 142.97314449 453.4836335 141.97063648 453.4841319 C126.19442953 453.49243921 110.41829824 453.51778806 94.64212436 453.55024669 C78.45913743 453.58327201 62.27618902 453.60132464 46.0931682 453.60452431 C37.00120792 453.6066934 27.90935802 453.61550029 18.8174305 453.64098549 C11.07745881 453.66263059 3.33762432 453.67077352 -4.4023742 453.66101871 C-8.35416199 453.65645619 -12.30566637 453.65847258 -16.25741577 453.67778015 C-19.87153169 453.69528632 -23.48515482 453.6945177 -27.09927506 453.67888286 C-29.03358693 453.6753484 -30.96790324 453.69162618 -32.90214485 453.70848733 C-34.04247155 453.69990644 -35.18279826 453.69132555 -36.35768032 453.68248463 C-37.34576764 453.68346144 -38.33385495 453.68443824 -39.35188431 453.68544465 C-41.8125 453.1875 -41.8125 453.1875 -43.63015658 451.33687657 C-45.21932245 448.44793938 -45.18476251 446.28347897 -45.17578125 442.99609375 C-45.17481445 441.20848633 -45.17481445 441.20848633 -45.17382812 439.38476562 C-45.15771484 438.14404297 -45.14160156 436.90332031 -45.125 435.625 C-45.12822266 434.38041016 -45.13144531 433.13582031 -45.13476562 431.85351562 C-45.07958464 422.58812696 -45.07958464 422.58812696 -42.8125 419.1875 C-39.33143486 418.02714495 -36.6277767 418.06747296 -32.9543457 418.07397461 C-32.26140411 418.07382858 -31.56846252 418.07368256 -30.85452271 418.0735321 C-28.56574363 418.07422837 -26.2770461 418.0820074 -23.98828125 418.08984375 C-22.40073186 418.09170894 -20.81318189 418.09313237 -19.22563171 418.09413147 C-15.0482728 418.09794866 -10.87094869 418.10777214 -6.69360352 418.11883545 C-1.6809028 418.13086574 3.33180955 418.13545561 8.34452057 418.14128876 C15.95887124 418.15098431 23.57314557 418.17014644 31.1875 418.1875 C31.1875 401.0275 31.1875 383.8675 31.1875 366.1875 C27.52317871 366.20844727 23.85885742 366.22939453 20.08349609 366.25097656 C7.98166939 366.31723164 -4.1201446 366.36163326 -16.22210121 366.39474869 C-23.56010822 366.41536245 -30.89794324 366.44346012 -38.23583984 366.48925781 C-44.63254392 366.52916221 -51.02912342 366.55494144 -57.4259485 366.56385398 C-60.81219492 366.56906273 -64.19808501 366.5812797 -67.58421707 366.61042023 C-71.36707001 366.6394224 -75.14918282 366.64345714 -78.93212891 366.64160156 C-80.61095657 366.66317322 -80.61095657 366.66317322 -82.32369995 366.68518066 C-88.29829995 366.65343242 -92.24658516 366.460505 -96.8125 362.1875 C-101.12597783 357.00832375 -101.3786937 353.13917072 -101.29351807 346.69631958 C-101.29693577 345.74789244 -101.30035347 344.79946529 -101.30387473 343.82229793 C-101.31045669 340.6483131 -101.2884718 337.47517629 -101.26660156 334.30126953 C-101.26547316 332.02455159 -101.26610681 329.7478322 -101.26837158 327.47111511 C-101.26951991 321.29178799 -101.24599091 315.11277103 -101.21807575 308.93351603 C-101.19308218 302.47529577 -101.1907217 296.01706853 -101.18597412 289.55880737 C-101.17495155 278.7194823 -101.14996143 267.8802845 -101.11425781 257.04101562 C-101.07752589 245.87793546 -101.04921993 234.71488623 -101.03222656 223.55175781 C-101.03117567 222.86333817 -101.03012477 222.17491854 -101.02904204 221.4656377 C-101.02382178 218.01194124 -101.01876697 214.55824456 -101.01379442 211.10454774 C-100.97234658 182.46545495 -100.90161266 153.82648193 -100.8125 125.1875 C-101.43415039 124.88658447 -102.05580078 124.58566895 -102.69628906 124.27563477 C-117.96445561 116.42489431 -127.67073242 98.25644956 -132.84765625 82.62109375 C-138.69097916 61.82643449 -136.51853678 39.33719822 -126.25 20.2890625 C-122.17503925 13.55405792 -117.22982349 7.86884467 -111.8125 2.1875 C-111.01972656 1.26517578 -111.01972656 1.26517578 -110.2109375 0.32421875 C-81.67212819 -31.50753009 -29.95811006 -25.00850927 0 0 Z M21.1875 34.1875 C21.86954263 39.08780248 21.86954263 39.08780248 22.73828125 43.95703125 C25.66838147 65.02827367 22.22235727 86.93769769 10.08984375 104.671875 C-3.13888061 122.16530105 -20.87891925 134.22728062 -42.68652344 137.91064453 C-55.85889886 139.62601818 -71.31942101 139.04068452 -83.578125 133.58203125 C-86.68460771 131.98953695 -86.68460771 131.98953695 -89.8125 132.1875 C-89.8125 192.5775 -89.8125 252.9675 -89.8125 315.1875 C49.4475 315.1875 188.7075 315.1875 332.1875 315.1875 C332.208125 269.008125 332.22875 222.82875 332.25 175.25 C332.26365601 153.33670288 332.26365601 153.33670288 332.27758789 130.98071289 C332.28093126 117.94384015 332.28093126 117.94384015 332.28294373 104.90696716 C332.28387954 99.07700705 332.28756151 93.24705642 332.29307556 87.417099 C332.2994175 80.70196786 332.30234146 73.98684589 332.30094495 67.27171173 C332.30033958 63.83280231 332.30133403 60.39391338 332.30671513 56.95500767 C332.31163864 53.28253377 332.31050859 49.61011226 332.30775452 45.93763733 C332.31066718 44.85139289 332.31357985 43.76514845 332.31658077 42.64598751 C332.3145899 41.66833746 332.31259903 40.69068741 332.31054783 39.6834116 C332.31092755 38.83321778 332.31130727 37.98302396 332.3116985 37.10706669 C332.3989777 35.17898568 332.3989777 35.17898568 331.1875 34.1875 C329.53503584 34.09032168 327.87838628 34.06378443 326.22306728 34.06445217 C325.14122361 34.06246112 324.05937993 34.06047007 322.94475311 34.05841869 C321.74147198 34.06133153 320.53819085 34.06424437 319.29844666 34.06724548 C318.031691 34.06639106 316.76493534 34.06553663 315.45979315 34.06465632 C311.92755333 34.06240898 308.39534355 34.06643589 304.86310756 34.07143438 C301.06009028 34.07573528 297.25707482 34.07429271 293.45405579 34.0735321 C286.85971103 34.07300664 280.26537613 34.07615578 273.67103386 34.08176994 C264.13661143 34.08988191 254.60219379 34.09249985 245.06776828 34.09375793 C229.60043331 34.09594893 214.1331036 34.10261031 198.66577148 34.11206055 C183.6368004 34.12123343 168.60783074 34.12831487 153.57885742 34.13256836 C152.65315152 34.13283108 151.72744561 34.13309381 150.77368801 34.13336449 C146.12989657 34.13466949 141.48610511 34.13593321 136.84231365 34.13717639 C98.29070541 34.1475505 59.73910305 34.16517011 21.1875 34.1875 Z " fill="#010202" transform="translate(151.8125,39.8125)"/>
<path d="M0 0 C1.50438931 -0.01654423 3.0087005 -0.04381485 4.51269531 -0.08203125 C6.68685471 -0.13696442 8.85917452 -0.15869604 11.03393555 -0.17333984 C12.33564697 -0.19315918 13.6373584 -0.21297852 14.97851562 -0.23339844 C18.37761668 0.33761805 20.07579008 0.93293698 22.42273045 3.45772934 C24.84666279 7.91467582 24.09019247 13.47398402 24.01953125 18.40209961 C24.01812008 19.74272102 24.01891411 21.08334629 24.02174377 22.42396545 C24.0231767 26.05612494 23.99380839 29.6874566 23.95887399 33.31942391 C23.92758911 37.11770684 23.92467809 40.91600936 23.91874695 44.71440125 C23.90321467 51.90385887 23.86219488 59.09293573 23.8119995 66.28222579 C23.7560866 74.46834735 23.7286147 82.65448723 23.70352232 90.84075224 C23.65127819 107.67742351 23.56334831 124.51371197 23.4519043 141.35009766 C24.33712769 141.32653198 24.33712769 141.32653198 25.24023438 141.30249023 C27.91486015 141.24011827 30.58933294 141.20110108 33.2644043 141.16259766 C34.19317383 141.13746094 35.12194336 141.11232422 36.07885742 141.08642578 C37.41787109 141.07192383 37.41787109 141.07192383 38.78393555 141.05712891 C40.01720581 141.03356323 40.01720581 141.03356323 41.27539062 141.00952148 C43.4519043 141.35009766 43.4519043 141.35009766 45.25146484 142.67700195 C46.4519043 144.35009766 46.4519043 144.35009766 46.3269043 147.41259766 C45.4519043 150.35009766 45.4519043 150.35009766 42.4519043 152.35009766 C40.25533247 152.60194665 40.25533247 152.60194665 37.64019012 152.60457325 C36.14485394 152.61332154 36.14485394 152.61332154 34.61930895 152.62224656 C33.52117357 152.61846724 32.42303819 152.61468792 31.29162598 152.61079407 C29.54523748 152.61653239 29.54523748 152.61653239 27.7635684 152.62238663 C24.52664304 152.63093908 21.28986186 152.63047571 18.0529325 152.62620604 C14.56413043 152.62374537 11.07535538 152.6327447 7.58656311 152.64024353 C0.74992764 152.65301053 -6.08666859 152.65478177 -12.92331398 152.65244327 C-18.47814171 152.65066234 -24.03295751 152.65240489 -29.58778381 152.65666771 C-30.37748913 152.6572629 -31.16719444 152.65785809 -31.98083022 152.65847131 C-33.58495343 152.65968302 -35.18907663 152.66089716 -36.79319984 152.66211369 C-51.84548492 152.67299674 -66.89774761 152.670823 -81.95003396 152.66472884 C-95.73124589 152.65955781 -109.51238717 152.67081866 -123.29358512 152.68982706 C-137.43354646 152.7091813 -151.57347433 152.71746579 -165.713449 152.71370381 C-173.65624408 152.71178824 -181.598979 152.71431391 -189.54176331 152.72841835 C-196.30271473 152.74030235 -203.06356897 152.74177065 -209.82452166 152.72962818 C-213.27603153 152.72371867 -216.72736337 152.72269677 -220.17886162 152.73463058 C-223.91534793 152.7450022 -227.65134919 152.73707456 -231.38781738 152.72431946 C-232.48595276 152.73169374 -233.58408814 152.73906803 -234.71550035 152.74666578 C-235.71239114 152.73945923 -236.70928193 152.73225269 -237.73638153 152.72482777 C-238.5993785 152.72488278 -239.46237548 152.7249378 -240.35152388 152.72499448 C-243.05321005 152.26388797 -243.9440485 151.54531394 -245.5480957 149.35009766 C-245.8605957 146.28759766 -245.8605957 146.28759766 -245.5480957 143.35009766 C-243.5480957 141.35009766 -243.5480957 141.35009766 -241.30151367 141.12304688 C-239.93470459 141.13875732 -239.93470459 141.13875732 -238.5402832 141.15478516 C-237.55415039 141.16123047 -236.56801758 141.16767578 -235.55200195 141.17431641 C-234.00319336 141.19945312 -234.00319336 141.19945312 -232.4230957 141.22509766 C-231.38282227 141.23412109 -230.34254883 141.24314453 -229.27075195 141.25244141 C-226.69630478 141.27606019 -224.12231358 141.30899617 -221.5480957 141.35009766 C-221.56141937 140.48423538 -221.57474304 139.61837311 -221.58847046 138.72627258 C-221.70876559 130.56049614 -221.80007932 122.39501785 -221.85896873 114.22855854 C-221.89026292 110.03016124 -221.93269856 105.83249692 -222.00073242 101.63452148 C-222.06599663 97.58201603 -222.10181615 93.53021483 -222.11735916 89.47722435 C-222.12843316 87.93219096 -222.15005934 86.38719551 -222.18247604 84.84246254 C-222.22613975 82.67530137 -222.23202663 80.51103716 -222.22924805 78.34350586 C-222.24257172 77.11106644 -222.25589539 75.87862701 -222.2696228 74.60884094 C-221.24401973 69.97675278 -219.4602322 68.94900683 -215.5480957 66.35009766 C-212.20825195 65.703125 -212.20825195 65.703125 -208.6105957 65.68603516 C-207.30348633 65.67958984 -205.99637695 65.67314453 -204.6496582 65.66650391 C-203.97580078 65.67697754 -203.30194336 65.68745117 -202.60766602 65.69824219 C-200.5520803 65.7250457 -198.50195137 65.69845086 -196.4465332 65.66650391 C-195.13942383 65.67294922 -193.83231445 65.67939453 -192.4855957 65.68603516 C-190.70475586 65.69449463 -190.70475586 65.69449463 -188.88793945 65.703125 C-184.80156549 66.4947106 -182.18007345 68.18425533 -179.5480957 71.35009766 C-178.8265686 74.60884094 -178.8265686 74.60884094 -178.86694336 78.34350586 C-178.86562912 79.36872597 -178.86562912 79.36872597 -178.86428833 80.41465759 C-178.86845015 82.66125048 -178.91502378 84.90481162 -178.9621582 87.15087891 C-178.97335564 88.71313343 -178.98189324 90.2754091 -178.98788452 91.83769226 C-179.01074061 95.93997872 -179.0696335 100.04098064 -179.1361084 104.14276123 C-179.19760199 108.33213932 -179.22491448 112.52172599 -179.25512695 116.71142578 C-179.31938265 124.92497021 -179.42487893 133.13722591 -179.5480957 141.35009766 C-170.6380957 141.35009766 -161.7280957 141.35009766 -152.5480957 141.35009766 C-152.5795166 136.61037598 -152.5795166 136.61037598 -152.61157227 131.77490234 C-152.67779334 121.34547156 -152.7220116 110.91603158 -152.75534439 100.48644638 C-152.7762364 94.16174975 -152.80458405 87.83726817 -152.84985352 81.51269531 C-152.89325287 75.41134777 -152.91722065 69.31020731 -152.92760468 63.20871735 C-152.93500661 60.87864165 -152.9494605 58.54857753 -152.97101593 56.21858978 C-152.99997057 52.95976595 -153.00405493 49.70180245 -153.00219727 46.44287109 C-153.01657837 45.47542465 -153.03095947 44.50797821 -153.04577637 43.51121521 C-153.0052984 36.96701708 -153.0052984 36.96701708 -150.64471436 33.78179932 C-145.53795281 30.29458481 -139.89105556 31.05166209 -133.90942383 31 C-132.50886369 30.9834809 -131.10838646 30.95624345 -129.70825195 30.91796875 C-127.68046726 30.8628659 -125.65465577 30.84127731 -123.6262207 30.82666016 C-121.80719238 30.79693115 -121.80719238 30.79693115 -119.95141602 30.76660156 C-115.75429497 31.48619405 -113.05672887 32.93320183 -110.5480957 36.35009766 C-109.68753417 39.75376991 -109.78873404 43.06189671 -109.86694336 46.55639648 C-109.86562912 48.09367905 -109.86562912 48.09367905 -109.86428833 49.66201782 C-109.86846355 53.04450085 -109.91511564 56.42499298 -109.9621582 59.80712891 C-109.97335049 62.15409766 -109.98189052 64.50108045 -109.98788452 66.84806824 C-110.01077978 73.02158394 -110.06971082 79.19425097 -110.1361084 85.36743164 C-110.19751483 91.66817748 -110.22489615 97.96906063 -110.25512695 104.27001953 C-110.31945223 116.6304782 -110.42498486 128.99008455 -110.5480957 141.35009766 C-102.2980957 141.35009766 -94.0480957 141.35009766 -85.5480957 141.35009766 C-85.56904297 139.61405273 -85.58999023 137.87800781 -85.61157227 136.08935547 C-85.6761042 130.34983848 -85.7220488 124.61033403 -85.75534439 118.87056351 C-85.77620878 115.39087896 -85.80450391 111.91158732 -85.84985352 108.43212891 C-85.90167798 104.43078872 -85.92105024 100.42986047 -85.9387207 96.42822266 C-85.95936584 95.1801886 -85.98001099 93.93215454 -86.00128174 92.64630127 C-86.00158386 91.48539978 -86.00188599 90.32449829 -86.00219727 89.12841797 C-86.01107971 88.10693665 -86.01996216 87.08545532 -86.02911377 86.03302002 C-85.41550669 82.61057028 -84.28056961 81.44063918 -81.5480957 79.35009766 C-78.92655774 78.95149904 -76.73201541 78.78793055 -74.11450195 78.81884766 C-73.04207497 78.8131073 -73.04207497 78.8131073 -71.94798279 78.80725098 C-70.43926583 78.80453507 -68.93050154 78.81187401 -67.421875 78.82861328 C-65.12107475 78.85000025 -62.82340757 78.82882157 -60.52270508 78.80322266 C-59.05329718 78.80586661 -57.58389123 78.810993 -56.11450195 78.81884766 C-55.43102188 78.81075073 -54.74754181 78.80265381 -54.04335022 78.79431152 C-49.23152618 78.88802624 -46.91653184 79.96105458 -43.5480957 83.35009766 C-42.94682312 86.03302002 -42.94682312 86.03302002 -42.98046875 89.12841797 C-42.98084641 90.28931946 -42.98122406 91.45022095 -42.98161316 92.64630127 C-43.00741959 93.89433533 -43.03322601 95.14236938 -43.05981445 96.42822266 C-43.07042656 98.35078888 -43.07042656 98.35078888 -43.08125305 100.31219482 C-43.10030336 103.71241381 -43.14938381 107.11155723 -43.20477295 110.51135254 C-43.25600992 113.98349457 -43.27877637 117.45581119 -43.30395508 120.92822266 C-43.35750731 127.73599953 -43.44542521 134.54288616 -43.5480957 141.35009766 C-35.2980957 141.35009766 -27.0480957 141.35009766 -18.5480957 141.35009766 C-18.57166138 135.25504761 -18.57166138 135.25504761 -18.59570312 129.03686523 C-18.64536669 115.62583729 -18.67868451 102.2148108 -18.70353222 88.80371571 C-18.71900092 80.67093532 -18.74009047 72.53824205 -18.77441406 64.40551758 C-18.80431636 57.31700749 -18.82367068 50.22856049 -18.83036119 43.13998908 C-18.83427206 39.38664578 -18.84346308 35.63348298 -18.86528587 31.88019753 C-18.88945051 27.69015115 -18.89006516 23.50041856 -18.88867188 19.31030273 C-18.8994577 18.06592941 -18.91024353 16.82155609 -18.9213562 15.53947449 C-18.91723221 14.39669037 -18.91310822 13.25390625 -18.90885925 12.07649231 C-18.91162463 11.08556485 -18.91439001 10.09463739 -18.91723919 9.07368183 C-18.4805084 5.8514306 -17.44956971 3.9660821 -15.5480957 1.35009766 C-11.06005096 -0.89392472 -4.98914948 0.04021316 0 0 Z " fill="#010202" transform="translate(366.548095703125,183.64990234375)"/>
<path d="M0 0 C1.08023438 -0.00322266 2.16046875 -0.00644531 3.2734375 -0.00976562 C21.41868839 0.11194033 36.73241395 7.57283237 49.88671875 19.765625 C57.18090515 27.23157403 62.80845833 35.49402058 66.375 45.3125 C66.69339844 46.17617187 67.01179687 47.03984375 67.33984375 47.9296875 C72.41009779 64.42553705 70.69630277 84.70935311 62.8125 99.9375 C52.77293459 118.09276991 38.07424914 129.2365409 18.54296875 135.734375 C0.97990937 140.4178575 -18.17134421 137.17031097 -33.890625 128.546875 C-50.18271852 119.08320725 -61.50906097 103.38563039 -66.625 85.3125 C-70.30456849 65.60052594 -67.88780558 47.10043979 -56.79296875 30.28125 C-42.95927097 11.33780799 -23.67768688 -0.35573448 0 0 Z " fill="#5DA36F" transform="translate(95.625,30.6875)"/>
<path d="M0 0 C139.26 0 278.52 0 422 0 C422 9.24 422 18.48 422 28 C420.11452945 29.88547055 416.84402711 29.12724641 414.33886051 29.12863445 C413.63087729 29.13038749 412.92289406 29.13214053 412.1934568 29.13394669 C409.79106671 29.13864537 407.38873613 29.13613134 404.98634338 29.13371277 C403.25861385 29.1355788 401.53088475 29.13787866 399.80315632 29.14057809 C395.03201268 29.14672822 390.26088648 29.14655875 385.48973978 29.14538372 C380.35333569 29.14518052 375.21693734 29.1506907 370.08053589 29.15544128 C360.00877114 29.1637659 349.93701224 29.16649694 339.86524434 29.16705366 C331.68307502 29.16752795 323.50090764 29.16957834 315.31873894 29.17275429 C292.14835303 29.18156569 268.97797177 29.18617289 245.80758417 29.18542381 C244.55712388 29.18538386 243.30666358 29.1853439 242.01831055 29.18530273 C240.76633308 29.18526185 239.51435561 29.18522097 238.22443943 29.18517885 C217.92418637 29.18477221 197.62395183 29.19434504 177.32370413 29.2084411 C156.50657305 29.22278265 135.68945102 29.22971252 114.87231487 29.22884732 C103.17419747 29.22851459 91.4760995 29.23129495 79.77798653 29.24202538 C69.8194314 29.25110121 59.8609045 29.25332978 49.90234704 29.24651595 C44.81662836 29.24323595 39.73096394 29.24324698 34.64525032 29.2518692 C29.99627298 29.25967027 25.3473935 29.25836906 20.69841873 29.24958507 C19.00999848 29.24803585 17.32157115 29.24991897 15.63315923 29.25544515 C13.35097845 29.26242428 11.06914877 29.25727628 8.78698063 29.24888897 C7.5154596 29.24910634 6.24393856 29.24932371 4.93388659 29.24954766 C2 29 2 29 0 27 C0 18.09 0 9.18 0 0 Z " fill="#5392BF" transform="translate(62,366)"/>
<path d="M0 0 C51.81 0 103.62 0 157 0 C157 17.49 157 34.98 157 53 C105.19 53 53.38 53 0 53 C0 35.51 0 18.02 0 0 Z " fill="#2A75AA" transform="translate(195,406)"/>
<path d="M0 0 C5.04318528 2.95279435 8.83995708 6.38315248 10.7265625 12.04296875 C11.26041392 18.00773169 11.27926399 23.0004247 7.7265625 28.04296875 C4.62977805 31.15439521 1.92495257 33.64350539 -2.2734375 35.04296875 C-3.77777344 34.89988281 -3.77777344 34.89988281 -5.3125 34.75390625 C-12.47655699 33.99730717 -12.47655699 33.99730717 -18.73828125 36.9609375 C-20.62929577 39.34495395 -22.36597509 41.78282676 -24.05273438 44.31445312 C-26.32225023 47.52808757 -28.97985507 50.41390467 -31.5859375 53.35546875 C-32.7016685 54.63571947 -33.81624636 55.91697603 -34.9296875 57.19921875 C-35.76113281 58.15441406 -35.76113281 58.15441406 -36.609375 59.12890625 C-40.74255862 63.88303764 -44.84723572 68.65968132 -48.91748047 73.46777344 C-50.20819196 74.96717396 -51.53877061 76.43198104 -52.87109375 77.89453125 C-54.9137294 80.21395629 -56.75173476 82.35333493 -58.2734375 85.04296875 C-57.93702831 88.72042764 -57.93702831 88.72042764 -56.2734375 92.04296875 C-55.66700462 98.41051395 -56.63552275 102.72783356 -60.2734375 108.04296875 C-64.59060598 112.2494406 -68.6653487 114.1137439 -74.6484375 114.41796875 C-79.59264948 114.29456912 -82.27984336 112.94028214 -86.2734375 110.04296875 C-90.34857783 105.74755056 -92.20381721 102.16638759 -92.3984375 96.23046875 C-92.3571875 95.17859375 -92.3159375 94.12671875 -92.2734375 93.04296875 C-92.95970215 92.79369629 -93.6459668 92.54442383 -94.35302734 92.28759766 C-97.74831522 90.84058398 -100.84784766 89.03102786 -104 87.12890625 C-105.29157172 86.36051747 -106.58324128 85.59229313 -107.875 84.82421875 C-109.8953498 83.61733336 -111.91440567 82.40837404 -113.93164062 81.19628906 C-115.88859606 80.02230561 -117.85019001 78.85641071 -119.8125 77.69140625 C-120.71725571 77.14303604 -120.71725571 77.14303604 -121.64028931 76.58358765 C-124.42195267 74.93748757 -125.97883676 74.04296875 -129.2734375 74.04296875 C-130.2840625 74.70296875 -131.2946875 75.36296875 -132.3359375 76.04296875 C-136.83398512 78.70566079 -141.17088837 78.91534005 -146.2734375 78.04296875 C-148.2578125 77.06640625 -148.2578125 77.06640625 -150.0234375 75.91796875 C-153.08753402 73.65235765 -153.08753402 73.65235765 -156.11352539 74.73095703 C-159.24667525 76.03185693 -162.13138224 77.48770578 -165.08203125 79.16015625 C-166.15904297 79.76730469 -167.23605469 80.37445313 -168.34570312 81 C-169.45623047 81.63292969 -170.56675781 82.26585937 -171.7109375 82.91796875 C-173.37092773 83.85576172 -173.37092773 83.85576172 -175.06445312 84.8125 C-177.19761223 86.01869756 -179.32742262 87.23084211 -181.45336914 88.44970703 C-183.14434237 89.40506079 -184.84844941 90.33843134 -186.57592773 91.22607422 C-190.10640899 93.00516153 -190.10640899 93.00516153 -192.25390625 96.19140625 C-192.35638672 97.29355469 -192.35638672 97.29355469 -192.4609375 98.41796875 C-193.39161907 104.32197997 -195.51993724 107.62524513 -200.2109375 111.41796875 C-205.52089616 114.13602534 -211.50131441 113.86547809 -217.2734375 113.04296875 C-221.76102322 111.3552632 -224.31592836 108.42698428 -226.7109375 104.35546875 C-228.76104904 99.62238514 -229.19897078 95.11328153 -228.2734375 90.04296875 C-225.992707 84.39452129 -222.64666008 80.96319842 -217.2734375 78.04296875 C-210.83768851 75.89771909 -206.24221305 77.16856666 -200.38671875 80.0703125 C-198.22368883 81.06586601 -196.63927956 81.74083456 -194.2734375 82.04296875 C-191.67114191 81.080672 -191.67114191 81.080672 -188.984375 79.5078125 C-187.95957031 78.94513672 -186.93476563 78.38246094 -185.87890625 77.80273438 C-184.27982422 76.90071289 -184.27982422 76.90071289 -182.6484375 75.98046875 C-181.08416016 75.11905273 -181.08416016 75.11905273 -179.48828125 74.24023438 C-176.40256193 72.53172437 -173.33847512 70.78823372 -170.2734375 69.04296875 C-169.29262207 68.51010254 -168.31180664 67.97723633 -167.30126953 67.42822266 C-166.39489746 66.92081543 -165.48852539 66.4134082 -164.5546875 65.890625 C-163.74837891 65.44855713 -162.94207031 65.00648926 -162.11132812 64.55102539 C-160.08250798 63.16905231 -160.08250798 63.16905231 -159.5690918 60.76049805 C-159.37053008 58.52676326 -159.37053008 58.52676326 -159.38671875 56.21484375 C-159.17018558 52.06338024 -156.66357023 49.35488429 -153.74609375 46.6015625 C-147.93934925 41.61826832 -143.74888666 41.48098463 -136.2734375 42.04296875 C-130.74793333 43.81530028 -127.63935512 47.49294982 -124.2734375 52.04296875 C-123.07070931 54.44842513 -123.17272278 55.99293828 -123.2109375 58.66796875 C-123.21996094 59.48523438 -123.22898437 60.3025 -123.23828125 61.14453125 C-123.24988281 61.77101562 -123.26148438 62.3975 -123.2734375 63.04296875 C-122.24295288 63.41578979 -122.24295288 63.41578979 -121.19165039 63.79614258 C-117.79893751 65.24570207 -114.72050849 67.07182943 -111.58203125 68.9921875 C-110.29523571 69.76549642 -109.00811658 70.5382671 -107.72070312 71.31054688 C-105.70721396 72.52317448 -103.69626482 73.73943549 -101.69067383 74.96508789 C-99.74434747 76.15206916 -97.7891962 77.32318935 -95.83203125 78.4921875 C-95.23402206 78.86292892 -94.63601288 79.23367035 -94.0198822 79.61564636 C-90.75729914 81.5736719 -90.75729914 81.5736719 -87.05493164 81.85864258 C-85.42770357 81.11360092 -83.81818331 80.33019119 -82.2109375 79.54296875 C-78.98155091 78.05620619 -76.4333084 77.97552487 -72.8984375 77.98046875 C-67.96017648 77.63640958 -65.94906579 76.33212778 -62.6484375 72.66796875 C-61.16391428 70.81363547 -59.70604007 68.93770118 -58.2734375 67.04296875 C-56.77911534 65.20500456 -55.27910449 63.3716508 -53.7734375 61.54296875 C-53.0309375 60.62515625 -52.2884375 59.70734375 -51.5234375 58.76171875 C-49.33842181 56.12149146 -47.08172359 53.57567155 -44.7734375 51.04296875 C-40.8233965 46.7075579 -37.09941688 42.22658389 -33.4296875 37.65234375 C-30.89609528 34.58632998 -28.18993042 31.71871939 -25.390625 28.89453125 C-24.01922933 27.05196783 -24.01922933 27.05196783 -24.5703125 24.6171875 C-24.91835938 23.34294922 -24.91835938 23.34294922 -25.2734375 22.04296875 C-25.98957807 15.77162347 -25.64901879 11.01103339 -21.87890625 5.8046875 C-16.00308224 -0.64299287 -8.38660667 -3.53044439 0 0 Z " fill="#030304" transform="translate(376.2734375,120.95703125)"/>
<path d="M0 0 C102.3 0 204.6 0 310 0 C310 3.96 310 7.92 310 12 C207.7 12 105.4 12 0 12 C0 8.04 0 4.08 0 0 Z " fill="#316293" transform="translate(118,470)"/>
<path d="M0 0 C6.6 0 13.2 0 20 0 C20 43.23 20 86.46 20 131 C13.4 131 6.8 131 0 131 C0 87.77 0 44.54 0 0 Z " fill="#BECDF7" transform="translate(359,194)"/>
<path d="M0 0 C1.670625 0.4021875 1.670625 0.4021875 3.375 0.8125 C4.63737731 3.33725462 4.47356404 5.12450466 4.4375 7.9375 C4.42847656 8.84757812 4.41945313 9.75765625 4.41015625 10.6953125 C4.39855469 11.39398438 4.38695313 12.09265625 4.375 12.8125 C5.11621094 12.91304687 5.85742188 13.01359375 6.62109375 13.1171875 C12.25746561 14.54027146 16.73848264 19.41017107 19.875 24.1875 C21.63413249 28.43873685 22.35352652 32.26367401 21.375 36.8125 C19.53860158 39.14592933 18.85734019 39.74014897 15.875 40.1875 C12.88327039 39.73874056 12.22849252 39.14364325 10.375 36.8125 C9.85546875 34.69140625 9.85546875 34.69140625 9.5625 32.375 C8.83797142 28.75824755 8.51964649 27.95370253 5.75 25.25 C1.38087886 23.38907803 -0.89899881 23.21237286 -5.625 23.8125 C-8.4350346 25.60613911 -10.13440468 26.83130935 -11.625 29.8125 C-11.97532356 35.15493433 -12.0811069 38.46036539 -8.625 42.8125 C-5.22680181 45.07796546 -2.81033574 45.46371717 1.1875 46.1875 C9.84546494 47.99383801 14.02653967 50.86880491 19.17578125 57.91015625 C22.54179465 63.24972799 21.9858065 69.99999348 21.01953125 76.03125 C19.20646328 82.16404367 14.59498969 86.33539723 9.375 89.8125 C6.5859375 90.53515625 6.5859375 90.53515625 4.375 90.8125 C4.39820312 91.58335937 4.42140625 92.35421875 4.4453125 93.1484375 C4.46335937 94.15132813 4.48140625 95.15421875 4.5 96.1875 C4.52320312 97.18523437 4.54640625 98.18296875 4.5703125 99.2109375 C4.375 101.8125 4.375 101.8125 2.375 103.8125 C-1.125 104.125 -1.125 104.125 -4.625 103.8125 C-6.83414 100.49879 -6.84981553 99.4678979 -6.75 95.625 C-6.73195313 94.72394531 -6.71390625 93.82289063 -6.6953125 92.89453125 C-6.67210938 92.20746094 -6.64890625 91.52039063 -6.625 90.8125 C-7.71941406 90.67521484 -7.71941406 90.67521484 -8.8359375 90.53515625 C-14.33349202 89.11071986 -18.93040387 84.56953884 -21.87109375 79.78515625 C-23.79876158 75.12739426 -24.05539359 70.80506564 -23.625 65.8125 C-21.625 63.8125 -21.625 63.8125 -18.6875 63.5 C-15.625 63.8125 -15.625 63.8125 -13.875 64.8125 C-12.57904 66.88603601 -12.20364368 68.38103286 -11.6875 70.75 C-10.86810021 74.4958276 -9.716399 76.39734453 -6.625 78.8125 C-3.14232621 80.55383689 0.67386039 79.68180681 4.375 78.8125 C6.82743461 76.91186318 8.00427427 75.55395145 9.375 72.8125 C9.8924655 67.06039672 9.8924655 67.06039672 7.625 61.9375 C3.8330209 58.35618641 0.75242538 57.62040639 -4.375 57.0625 C-11.50843385 55.92427852 -15.7387321 53.43974132 -20.22265625 47.8046875 C-24.39776213 41.31524717 -24.65802845 35.0324933 -23.18359375 27.58203125 C-21.31324523 21.50045777 -17.04378453 16.82046174 -11.58984375 13.6171875 C-9.625 12.8125 -9.625 12.8125 -6.625 12.8125 C-6.65980469 12.12542969 -6.69460937 11.43835937 -6.73046875 10.73046875 C-6.75753906 9.82941406 -6.78460938 8.92835937 -6.8125 8 C-6.86470703 6.66001953 -6.86470703 6.66001953 -6.91796875 5.29296875 C-6.625 2.8125 -6.625 2.8125 -5.33984375 0.9765625 C-3.625 -0.1875 -3.625 -0.1875 0 0 Z " fill="#010302" transform="translate(97.625,47.1875)"/>
<path d="M0 0 C6.6 0 13.2 0 20 0 C20 32.67 20 65.34 20 99 C13.4 99 6.8 99 0 99 C0 66.33 0 33.66 0 0 Z " fill="#7486C7" transform="translate(225,226)"/>
<path d="M0 0 C6.6 0 13.2 0 20 0 C20 21.12 20 42.24 20 64 C13.4 64 6.8 64 0 64 C0 42.88 0 21.76 0 0 Z " fill="#4865BD" transform="translate(156,261)"/>
<path d="M0 0 C6.6 0 13.2 0 20 0 C20 16.83 20 33.66 20 51 C13.4 51 6.8 51 0 51 C0 34.17 0 17.34 0 0 Z " fill="#92A3D8" transform="translate(292,274)"/>
<path d="M0 0 C4.91511194 1.34048507 4.91511194 1.34048507 6.4375 3.9375 C6.9375 6.8125 6.9375 6.8125 6.4375 9.9375 C4.3125 12.875 4.3125 12.875 1.4375 14.9375 C-1.79671175 14.9375 -3.67627619 14.46923428 -6.4375 12.8125 C-8.26349685 9.76917192 -7.98710581 7.39500445 -7.5625 3.9375 C-5.29401339 0.30792142 -4.30870043 -0.07559124 0 0 Z " fill="#DC4839" transform="translate(166.5625,209.0625)"/>
<path d="M0 0 C2.375 1.625 2.375 1.625 4 4 C4.61195145 7.6717087 4.48706506 9.28813568 2.375 12.375 C-0.71186432 14.48706506 -2.3282913 14.61195145 -6 14 C-8.375 12.375 -8.375 12.375 -10 10 C-10.61195145 6.3282913 -10.48706506 4.71186432 -8.375 1.625 C-5.28813568 -0.48706506 -3.6717087 -0.61195145 0 0 Z " fill="#DE493A" transform="translate(305,210)"/>
<path d="M0 0 C2.4375 1.625 2.4375 1.625 4 4 C4.5625 7 4.5625 7 4 10 C1.9375 12.4375 1.9375 12.4375 -1 14 C-4.6875 13.9375 -4.6875 13.9375 -8 13 C-10.46324069 9.30513897 -10.38991688 7.36706908 -10 3 C-7.7773391 -1.05308751 -4.20075589 -0.5158823 0 0 Z " fill="#DE493A" transform="translate(238,174)"/>
<path d="M0 0 C2.375 1.625 2.375 1.625 4 4 C4.61195145 7.6717087 4.48706506 9.28813568 2.375 12.375 C-0.71186432 14.48706506 -2.3282913 14.61195145 -6 14 C-8.375 12.375 -8.375 12.375 -10 10 C-10.61195145 6.3282913 -10.48706506 4.71186432 -8.375 1.625 C-5.28813568 -0.48706506 -3.6717087 -0.61195145 0 0 Z " fill="#DF493A" transform="translate(372,131)"/>
</svg>
