<?xml version="1.0" encoding="UTF-8"?>
<svg version="1.1" xmlns="http://www.w3.org/2000/svg" width="512" height="512">
<path d="M0 0 C6.66514831 5.5639499 12.88974106 12.86934908 16.7258594 20.70059717 C18.20432961 23.27239544 18.20432961 23.27239544 20.81792378 23.68645251 C21.76988535 23.68596545 22.72184691 23.68547839 23.70265579 23.68497658 C24.80158165 23.69656512 25.90050751 23.70815366 27.03273416 23.72009337 C28.24486951 23.70737375 29.45700486 23.69465413 30.70587158 23.68154907 C32.63178654 23.69090754 32.63178654 23.69090754 34.59660888 23.70045507 C38.16805568 23.71718763 41.73881031 23.7027406 45.31021905 23.68339396 C49.15903657 23.66799526 53.00776268 23.68140657 56.85658264 23.69148254 C63.52897387 23.70511576 70.20115996 23.70077675 76.87354279 23.68465042 C86.5283453 23.6616046 96.18294183 23.6688817 105.83775112 23.68418162 C121.51115499 23.70847139 137.18449308 23.7126522 152.85791016 23.70214844 C153.79642113 23.70152461 154.73493211 23.70090079 155.70188281 23.70025806 C157.60129553 23.69898677 159.50070824 23.69771253 161.40012096 23.69643535 C162.3417694 23.69580297 163.28341783 23.69517059 164.25360107 23.69451904 C165.19604601 23.6938809 166.13849095 23.69324275 167.10949482 23.69258527 C177.56892717 23.6857841 188.02835858 23.68378839 198.48779297 23.68359375 C199.42395058 23.68357092 200.3601082 23.68354809 201.32463422 23.68352456 C216.93363663 23.6835938 232.54261405 23.69562529 248.15160441 23.71455324 C257.78154964 23.72551918 267.41136399 23.72468315 277.04130283 23.7086135 C283.64125423 23.69814708 290.241153 23.69791804 296.84110793 23.70573165 C300.64955966 23.70981951 304.45784396 23.70888516 308.26627541 23.69479942 C312.39542587 23.67959407 316.52421514 23.68743602 320.65338135 23.69741821 C321.85659381 23.68916004 323.05980628 23.68090186 324.29947972 23.67239344 C331.12945347 23.71163036 336.78266442 23.91909896 342.17578125 28.5625 C345.54242578 33.02040172 346.5579398 35.91306234 346.56502151 41.42805958 C346.56886266 42.54850251 346.5727038 43.66894544 346.57666135 44.82334119 C346.57579487 46.05950435 346.57492838 47.29566751 346.57403564 48.56929016 C346.57849233 50.53301544 346.57849233 50.53301544 346.58303905 52.53641194 C346.59111806 56.17795932 346.59289912 59.819487 346.59363651 63.46104228 C346.59548549 67.38548175 346.60303203 71.30991094 346.60977173 75.23434448 C346.62336179 83.81900525 346.62938077 92.40366135 346.63378239 100.98833108 C346.63654357 106.34686333 346.64078069 111.70539376 346.64528656 117.06392479 C346.65747991 131.89515857 346.66777922 146.7263909 346.67116165 161.55762959 C346.67138122 162.50711806 346.67160078 163.45660654 346.671827 164.43486739 C346.67204528 165.38664864 346.67226356 166.33842989 346.67248845 167.31905299 C346.67293192 169.24777687 346.67337848 171.17650074 346.67382812 173.10522461 C346.67404955 174.06194158 346.67427098 175.01865856 346.67449912 176.00436696 C346.67844799 191.51010825 346.6959044 207.01580257 346.71918765 222.52152572 C346.74288988 238.43448617 346.75536298 254.34742304 346.75652957 270.26040143 C346.75744695 279.1976017 346.763215 288.13474077 346.78134918 297.07192421 C346.79673493 304.68148342 346.80187966 312.29096251 346.79361108 319.90053431 C346.78969919 323.78379482 346.79066029 327.66689392 346.80466843 331.55013466 C346.81971058 335.75845988 346.81155687 339.96641996 346.80108643 344.17475891 C346.81317103 346.0189654 346.81317103 346.0189654 346.82549977 347.90042859 C346.76480696 358.29181918 346.76480696 358.29181918 343.43359375 363.0625 C339.2075973 366.97154672 336.12861544 368.18859971 330.4412384 368.18275452 C329.41058762 368.18412918 328.37993683 368.18550385 327.3180542 368.18692017 C325.62304779 368.18152725 325.62304779 368.18152725 323.89379883 368.17602539 C322.1082383 368.17624443 322.1082383 368.17624443 320.28660583 368.1764679 C317.02240768 368.17589022 313.75825228 368.17087168 310.49406266 368.16389394 C307.08276953 368.15764664 303.67147558 368.15705551 300.26017761 368.15586853 C293.80039697 368.15275928 287.34063323 368.14455136 280.88086003 368.13451904 C273.52664011 368.12334531 266.17241938 368.11784427 258.81819308 368.11282361 C243.68998233 368.10236842 228.56179355 368.08402797 213.43359375 368.0625 C213.43359375 385.2225 213.43359375 402.3825 213.43359375 420.0625 C218.57308594 420.00449219 223.71257812 419.94648438 229.0078125 419.88671875 C232.26630766 419.86116701 235.52467907 419.83709739 238.78320312 419.81835938 C243.95395602 419.78848416 249.12426569 419.75316554 254.29467773 419.68530273 C258.46386885 419.63092443 262.63258463 419.60106741 266.80210304 419.58811378 C268.39175715 419.57888421 269.98138561 419.56086043 271.57083702 419.53384972 C273.799991 419.49747905 276.02718823 419.49255755 278.2565918 419.49487305 C280.15854561 419.47821846 280.15854561 419.47821846 282.09892273 419.46122742 C286.33150131 420.22440119 287.79913055 421.7336753 290.43359375 425.0625 C291.03295898 427.86157227 291.03295898 427.86157227 290.9921875 430.87890625 C290.98155273 432.51956055 290.98155273 432.51956055 290.97070312 434.19335938 C290.93783203 435.32580078 290.90496094 436.45824219 290.87109375 437.625 C290.86239258 439.32946289 290.86239258 439.32946289 290.85351562 441.06835938 C290.7139783 450.52899033 290.7139783 450.52899033 288.43359375 454.0625 C285.85071966 455.35393704 283.99831433 455.19148223 281.10461521 455.19672108 C279.96689625 455.20117892 278.82917729 455.20563676 277.656982 455.21022969 C276.3964049 455.21004533 275.1358278 455.20986097 273.83705139 455.20967102 C272.49277736 455.21296882 271.14850431 455.21669421 269.80423254 455.2208125 C266.09762852 455.23084982 262.39104069 455.23455205 258.684425 455.23720181 C254.69185674 455.24109963 250.69930138 455.25067818 246.70674133 455.25941467 C237.05972496 455.27919179 227.41270751 455.28924595 217.76567593 455.29814246 C213.22689012 455.3025225 208.68810548 455.30788997 204.1493206 455.31313133 C189.06935016 455.33014332 173.98938046 455.34463936 158.90940189 455.35188007 C154.99469565 455.35379008 151.07998942 455.35571039 147.1652832 455.35766602 C146.19226072 455.35814976 145.21923824 455.3586335 144.21673023 455.3591319 C128.44052328 455.36743921 112.66439199 455.39278806 96.88821811 455.42524669 C80.70523118 455.45827201 64.52228277 455.47632464 48.33926195 455.47952431 C39.24730167 455.4816934 30.15545177 455.49050029 21.06352425 455.51598549 C13.32355256 455.53763059 5.58371807 455.54577352 -2.15628045 455.53601871 C-6.10806824 455.53145619 -10.05957262 455.53347258 -14.01132202 455.55278015 C-17.62543794 455.57028632 -21.23906107 455.5695177 -24.85318131 455.55388286 C-26.78749318 455.5503484 -28.72180949 455.56662618 -30.6560511 455.58348733 C-31.7963778 455.57490644 -32.93670451 455.56632555 -34.11158657 455.55748463 C-35.09967389 455.55846144 -36.0877612 455.55943824 -37.10579056 455.56044465 C-39.56640625 455.0625 -39.56640625 455.0625 -41.38406283 453.21187657 C-42.9732287 450.32293938 -42.93866876 448.15847897 -42.9296875 444.87109375 C-42.9287207 443.08348633 -42.9287207 443.08348633 -42.92773438 441.25976562 C-42.91162109 440.01904297 -42.89550781 438.77832031 -42.87890625 437.5 C-42.88212891 436.25541016 -42.88535156 435.01082031 -42.88867188 433.72851562 C-42.83349089 424.46312696 -42.83349089 424.46312696 -40.56640625 421.0625 C-37.08534111 419.90214495 -34.38168295 419.94247296 -30.70825195 419.94897461 C-30.01531036 419.94882858 -29.32236877 419.94868256 -28.60842896 419.9485321 C-26.31964988 419.94922837 -24.03095235 419.9570074 -21.7421875 419.96484375 C-20.15463811 419.96670894 -18.56708814 419.96813237 -16.97953796 419.96913147 C-12.80217905 419.97294866 -8.62485494 419.98277214 -4.44750977 419.99383545 C0.56519095 420.00586574 5.5779033 420.01045561 10.59061432 420.01628876 C18.20496499 420.02598431 25.81923932 420.04514644 33.43359375 420.0625 C33.43359375 402.9025 33.43359375 385.7425 33.43359375 368.0625 C29.76927246 368.08344727 26.10495117 368.10439453 22.32958984 368.12597656 C10.22776314 368.19223164 -1.87405085 368.23663326 -13.97600746 368.26974869 C-21.31401447 368.29036245 -28.65184949 368.31846012 -35.98974609 368.36425781 C-42.38645017 368.40416221 -48.78302967 368.42994144 -55.17985475 368.43885398 C-58.56610117 368.44406273 -61.95199126 368.4562797 -65.33812332 368.48542023 C-69.12097626 368.5144224 -72.90308907 368.51845714 -76.68603516 368.51660156 C-78.36486282 368.53817322 -78.36486282 368.53817322 -80.0776062 368.56018066 C-86.0522062 368.52843242 -90.00049141 368.335505 -94.56640625 364.0625 C-98.87988408 358.88332375 -99.13259995 355.01417072 -99.04742432 348.57131958 C-99.05084202 347.62289244 -99.05425972 346.67446529 -99.05778098 345.69729793 C-99.06436294 342.5233131 -99.04237805 339.35017629 -99.02050781 336.17626953 C-99.01937941 333.89955159 -99.02001306 331.6228322 -99.02227783 329.34611511 C-99.02342616 323.16678799 -98.99989716 316.98777103 -98.971982 310.80851603 C-98.94698843 304.35029577 -98.94462795 297.89206853 -98.93988037 291.43380737 C-98.9288578 280.5944823 -98.90386768 269.7552845 -98.86816406 258.91601562 C-98.83143214 247.75293546 -98.80312618 236.58988623 -98.78613281 225.42675781 C-98.78508192 224.73833817 -98.78403102 224.04991854 -98.78294829 223.3406377 C-98.77772803 219.88694124 -98.77267322 216.43324456 -98.76770067 212.97954774 C-98.72625283 184.34045495 -98.65551891 155.70148193 -98.56640625 127.0625 C-99.18805664 126.76158447 -99.80970703 126.46066895 -100.45019531 126.15063477 C-115.71836186 118.29989431 -125.42463867 100.13144956 -130.6015625 84.49609375 C-136.324491 64.12988261 -134.39661557 41.87055885 -124.56640625 23.0625 C-121.88548028 18.49155835 -118.79464351 14.26330964 -115.56640625 10.0625 C-115.05207031 9.37542969 -114.53773437 8.68835938 -114.0078125 7.98046875 C-85.67058855 -27.58154318 -33.55361296 -25.3311903 0 0 Z M-106.91015625 18.82421875 C-117.94937529 33.26170484 -122.6647694 50.0094039 -121.56640625 68.0625 C-119.65505848 81.66768413 -115.02892205 93.25539108 -106.56640625 104.0625 C-105.76589844 105.11050781 -105.76589844 105.11050781 -104.94921875 106.1796875 C-93.20346692 120.62302827 -75.69688641 128.00706589 -57.56640625 130.0625 C-37.33550901 130.16265296 -19.44001855 124.19802327 -4.56640625 110.0625 C9.16248218 95.82838848 15.93099213 77.71849608 15.703125 58.0390625 C14.40768465 38.92662374 6.38876151 23.02631704 -7.56640625 10.0625 C-22.50598446 -2.45669962 -39.9973557 -8.58826924 -59.46386719 -7.15625 C-78.68049259 -5.15693551 -94.52373427 4.22888485 -106.91015625 18.82421875 Z M23.43359375 36.0625 C23.64580566 37.1954248 23.85801758 38.32834961 24.07666016 39.49560547 C24.35477238 41.01524823 24.63258858 42.53494518 24.91015625 44.0546875 C25.0501001 44.7974292 25.19004395 45.5401709 25.33422852 46.30541992 C29.12326292 67.23044775 24.54016172 87.99881612 13.50390625 106.08203125 C0.94605302 124.16060108 -17.89817087 136.08746978 -39.56640625 140.0625 C-53.82966797 142.04882109 -67.61824708 140.9420022 -81.17578125 135.8671875 C-83.6198777 134.90299305 -83.6198777 134.90299305 -86.56640625 135.0625 C-86.56640625 195.1225 -86.56640625 255.1825 -86.56640625 317.0625 C52.36359375 317.0625 191.29359375 317.0625 334.43359375 317.0625 C334.49546875 271.06875 334.55734375 225.075 334.62109375 177.6875 C334.64840576 163.13994629 334.67571777 148.59239258 334.70385742 133.60400391 C334.71388783 120.61637985 334.71388783 120.61637985 334.71992493 107.62875366 C334.72273121 101.82297147 334.73377213 96.01727513 334.75032043 90.21151733 C334.76935691 83.52298485 334.77811563 76.83453518 334.7739286 70.14597537 C334.77211381 66.72121309 334.77507931 63.29663613 334.79123914 59.87190747 C334.80602879 56.21276005 334.80261283 52.55408488 334.7943573 48.89492798 C334.80309529 47.81548605 334.81183329 46.73604412 334.82083607 45.62389183 C334.81486345 44.6477354 334.80889084 43.67157898 334.80273724 42.66584206 C334.8038764 41.81906572 334.80501556 40.97228938 334.80618924 40.09985316 C334.62175447 39.09136334 334.62175447 39.09136334 334.43359375 38.0625 C331.11441499 35.84971416 330.11566454 35.8132663 326.25430012 35.81640434 C325.17544113 35.81242225 324.09658215 35.80844015 322.98503047 35.80433738 C321.79535692 35.81016307 320.60568337 35.81598875 319.37995911 35.82199097 C318.1196617 35.82028212 316.8593643 35.81857327 315.56087607 35.81681263 C312.05592367 35.81232947 308.55109294 35.820356 305.04615605 35.83036876 C301.26907736 35.83898706 297.4920058 35.83608425 293.71492004 35.83456421 C287.16861654 35.83351433 280.62235283 35.83980167 274.07605934 35.85103989 C264.61116537 35.86727799 255.14629068 35.87250116 245.68138429 35.87501587 C230.32607145 35.87939563 214.97077983 35.89271235 199.61547852 35.91162109 C184.69718533 35.92997263 169.7788979 35.94413269 154.8605957 35.95263672 C153.94138924 35.95316217 153.02218277 35.95368761 152.07512156 35.95422898 C147.46383955 35.95683901 142.8525575 35.95936644 138.24127543 35.96185279 C99.97203334 35.98259404 61.70281495 36.01782721 23.43359375 36.0625 Z M-86.56640625 329.0625 C-86.56640625 337.6425 -86.56640625 346.2225 -86.56640625 355.0625 C-85.47029502 356.38367925 -85.47029502 356.38367925 -82.75556749 356.1866985 C-81.48312466 356.18631878 -80.21068184 356.18593906 -78.89968014 356.18554783 C-78.19109772 356.18670167 -77.4825153 356.18785552 -76.75246069 356.18904433 C-74.34804805 356.19171779 -71.9437007 356.18718289 -69.53929138 356.18275452 C-67.81013681 356.18319007 -66.08098231 356.18406468 -64.35182816 356.18534368 C-59.57681974 356.18759177 -54.80183352 356.1835631 -50.02682793 356.17856562 C-44.88637485 356.17426577 -39.74592312 356.17570721 -34.60546875 356.1764679 C-25.6915043 356.17699343 -16.77754714 356.17384358 -7.86358452 356.16823006 C5.02466856 356.160119 17.91291809 356.15750024 30.80117344 356.15624207 C51.70916646 356.15405092 72.61715558 356.14738916 93.52514648 356.13793945 C113.84090149 356.12876694 134.15665545 356.12168532 154.47241211 356.11743164 C155.72370053 356.11716892 156.97498896 356.11690619 158.26419521 356.11663551 C164.54125043 356.11533052 170.81830565 356.1140668 177.09536088 356.11282361 C229.20810786 356.10244906 281.32085061 356.08482906 333.43359375 356.0625 C337.46127574 348.00713602 334.43359375 338.06867072 334.43359375 329.0625 C195.50359375 329.0625 56.57359375 329.0625 -86.56640625 329.0625 Z M45.43359375 368.0625 C45.43359375 385.2225 45.43359375 402.3825 45.43359375 420.0625 C96.91359375 420.0625 148.39359375 420.0625 201.43359375 420.0625 C201.43359375 402.9025 201.43359375 385.7425 201.43359375 368.0625 C149.95359375 368.0625 98.47359375 368.0625 45.43359375 368.0625 Z M-30.56640625 432.0625 C-30.56640625 435.6925 -30.56640625 439.3225 -30.56640625 443.0625 C71.40359375 443.0625 173.37359375 443.0625 278.43359375 443.0625 C278.43359375 439.4325 278.43359375 435.8025 278.43359375 432.0625 C176.46359375 432.0625 74.49359375 432.0625 -30.56640625 432.0625 Z " fill="#000000" transform="translate(149.56640625,37.9375)"/>
<path d="M0 0 C1.45589197 -0.01654238 2.91170329 -0.0438107 4.3671875 -0.08203125 C6.47186162 -0.13698358 8.57463546 -0.1586985 10.67993164 -0.17333984 C11.93974854 -0.19315918 13.19956543 -0.21297852 14.49755859 -0.23339844 C18.78025893 0.50558458 20.20910497 1.99472103 22.87915039 5.35009766 C23.90721752 8.43429906 24.00245013 10.52907502 23.99940491 13.76005554 C24.0014669 15.44486526 24.0014669 15.44486526 24.00357056 17.16371155 C23.99997528 18.39657394 23.99638 19.62943634 23.99267578 20.8996582 C23.99282181 22.19732117 23.99296783 23.49498413 23.99311829 24.83197021 C23.99340553 28.39161021 23.98752058 31.95121659 23.98054433 35.51084876 C23.97429865 39.23044143 23.97370603 42.95003485 23.97251892 46.66963196 C23.96940919 53.71377539 23.96120062 60.75790332 23.95116943 67.80203992 C23.93999718 75.82130181 23.93449504 83.84056443 23.929474 91.85983217 C23.91901773 108.35659641 23.9014252 124.85334505 23.87915039 141.35009766 C25.13211914 141.31529297 26.38508789 141.28048828 27.67602539 141.24462891 C29.32705364 141.21648638 30.9780964 141.18918672 32.62915039 141.16259766 C33.45415039 141.13746094 34.27915039 141.11232422 35.12915039 141.08642578 C41.22814069 141.01264767 41.22814069 141.01264767 44.43383789 142.67431641 C45.87915039 144.35009766 45.87915039 144.35009766 46.25415039 147.35009766 C45.87915039 150.35009766 45.87915039 150.35009766 43.87915039 153.35009766 C41.78754097 153.72614515 41.78754097 153.72614515 39.14363194 153.72762108 C37.63560705 153.73935594 37.63560705 153.73935594 36.09711701 153.75132787 C34.42803541 153.74128962 34.42803541 153.74128962 32.72523499 153.73104858 C31.54957975 153.73572856 30.37392452 153.74040853 29.16264337 153.74523032 C25.88918767 153.75515943 22.61606295 153.75154074 19.34261525 153.74227166 C15.81629766 153.73550786 12.29002619 153.74594912 8.76371765 153.75421143 C1.85139113 153.76758004 -5.0608379 153.76465704 -11.97316831 153.7559735 C-17.58952254 153.74920908 -23.20584937 153.74827485 -28.8222065 153.75154495 C-29.62037339 153.75200465 -30.41854027 153.75246435 -31.24089404 153.75293798 C-32.86216979 153.75389712 -34.48344552 153.75486976 -36.10472126 153.75585575 C-51.32249776 153.76441895 -66.54022012 153.75456125 -81.75798775 153.73845465 C-94.82452547 153.72505319 -107.89098325 153.72737634 -120.95751953 153.74121094 C-136.11783766 153.7572548 -151.27810828 153.76359218 -166.43843371 153.75437415 C-168.05418145 153.75341846 -169.6699292 153.75247535 -171.28567696 153.75154495 C-172.0807286 153.75108213 -172.87578025 153.7506193 -173.69492437 153.75014245 C-179.30608254 153.74754878 -184.91721066 153.75193171 -190.52836418 153.75898361 C-197.36437179 153.76738569 -204.20027602 153.76514593 -211.03627174 153.74914138 C-214.52624941 153.74124073 -218.01605453 153.7381973 -221.50603104 153.74808884 C-225.28417875 153.75623331 -229.06183457 153.74606833 -232.83995056 153.73104858 C-234.50568608 153.74108683 -234.50568608 153.74108683 -236.20507282 153.75132787 C-237.71700933 153.73959301 -237.71700933 153.73959301 -239.25949001 153.72762108 C-240.13214235 153.72713402 -241.00479468 153.72664696 -241.90389103 153.72614515 C-244.12084961 153.35009766 -244.12084961 153.35009766 -245.92859083 152.04915869 C-247.12084961 150.35009766 -247.12084961 150.35009766 -247.05834961 146.78759766 C-246.12084961 143.35009766 -246.12084961 143.35009766 -244.34643555 142.14746094 C-241.9262575 141.28038091 -240.13777036 141.12013927 -237.57397461 141.15478516 C-236.3074707 141.16445313 -236.3074707 141.16445313 -235.01538086 141.17431641 C-233.70633789 141.19945312 -233.70633789 141.19945312 -232.37084961 141.22509766 C-231.48268555 141.23412109 -230.59452148 141.24314453 -229.67944336 141.25244141 C-227.49296903 141.27595188 -225.30704867 141.30881267 -223.12084961 141.35009766 C-223.12529083 140.52181961 -223.12973206 139.69354156 -223.13430786 138.84016418 C-223.17441231 131.02746196 -223.20484813 123.2147944 -223.22447395 115.40201283 C-223.23490303 111.38555821 -223.24904619 107.36918879 -223.27172852 103.3527832 C-223.2934882 99.47540641 -223.30542483 95.59811148 -223.3106041 91.72067833 C-223.31429424 90.24273071 -223.3215002 88.76478747 -223.33230972 87.28687477 C-223.34686636 85.21385709 -223.34882584 83.14117595 -223.34790039 81.06811523 C-223.35234161 79.88897049 -223.35678284 78.70982574 -223.36135864 77.49494934 C-223.12011712 74.34051975 -222.54020653 72.16273345 -221.12084961 69.35009766 C-216.38741924 65.69837728 -209.13949206 66.97823266 -203.421875 66.97949219 C-201.19380288 66.97511818 -198.96771228 66.93877454 -196.73999023 66.90087891 C-195.31616885 66.89501012 -193.8923381 66.89104114 -192.46850586 66.88916016 C-191.17952393 66.88094238 -189.89054199 66.87272461 -188.5625 66.86425781 C-184.43214873 67.44731797 -183.00360201 68.36888262 -180.12084961 71.35009766 C-179.51957703 74.48858643 -179.51957703 74.48858643 -179.55322266 78.22998047 C-179.55249252 78.91331451 -179.55176239 79.59664856 -179.55101013 80.3006897 C-179.55448506 82.55235044 -179.59333542 84.80192485 -179.63256836 87.05322266 C-179.64189698 88.61691152 -179.64901286 90.18061502 -179.65400696 91.74432373 C-179.67307337 95.85466042 -179.7221698 99.9641099 -179.77752686 104.07409668 C-179.82872781 108.27014158 -179.85152273 112.46633023 -179.87670898 116.66259766 C-179.93029033 124.89221632 -180.01822203 133.12094432 -180.12084961 141.35009766 C-171.54084961 141.35009766 -162.96084961 141.35009766 -154.12084961 141.35009766 C-154.13132324 138.28639893 -154.14179688 135.2227002 -154.15258789 132.06616211 C-154.18571524 121.94802643 -154.20781437 111.82988837 -154.22447395 101.71171284 C-154.23491479 95.57657822 -154.2490796 89.44149914 -154.27172852 83.30639648 C-154.293446 77.38660829 -154.30541598 71.46687353 -154.3106041 65.54704857 C-154.3143018 63.28760118 -154.3215224 61.02815674 -154.33230972 58.76873207 C-154.34680993 55.60609217 -154.34882815 52.44367361 -154.34790039 49.28100586 C-154.35509094 48.34520691 -154.36228149 47.40940796 -154.36968994 46.44525146 C-154.35559228 42.00921296 -154.33556446 38.33099359 -152.12084961 34.35009766 C-147.38741924 30.69837728 -140.13949206 31.97823266 -134.421875 31.97949219 C-132.19380288 31.97511818 -129.96771228 31.93877454 -127.73999023 31.90087891 C-126.31616885 31.89501012 -124.8923381 31.89104114 -123.46850586 31.88916016 C-121.53503296 31.8768335 -121.53503296 31.8768335 -119.5625 31.86425781 C-115.32838134 32.46196627 -113.97002694 33.15703601 -111.12084961 36.35009766 C-110.38507014 39.70976332 -110.48955255 43.01629561 -110.55322266 46.44287109 C-110.55212746 47.97993462 -110.55212746 47.97993462 -110.55101013 49.54804993 C-110.55449411 52.93572893 -110.59339557 56.32203379 -110.63256836 59.70947266 C-110.64189355 62.05787403 -110.64901105 64.40628513 -110.65400696 66.75469971 C-110.67309962 72.93632859 -110.72222104 79.11737026 -110.77752686 85.29876709 C-110.8286698 91.60616105 -110.85151048 97.91364988 -110.87670898 104.22119141 C-110.93033687 116.59779303 -111.01829236 128.97380465 -111.12084961 141.35009766 C-102.87084961 141.35009766 -94.62084961 141.35009766 -86.12084961 141.35009766 C-86.14703369 139.61405273 -86.17321777 137.87800781 -86.20019531 136.08935547 C-86.2808596 130.34988367 -86.33829027 124.61043145 -86.37991047 118.87056351 C-86.40599183 115.39076291 -86.44136005 111.91157618 -86.49804688 108.43212891 C-86.5628278 104.43076732 -86.58704173 100.43004926 -86.60913086 96.42822266 C-86.63493729 95.1801886 -86.66074371 93.93215454 -86.68733215 92.64630127 C-86.68789864 90.90494904 -86.68789864 90.90494904 -86.68847656 89.12841797 C-86.69957962 88.10693665 -86.71068268 87.08545532 -86.72212219 86.03302002 C-86.12084961 83.35009766 -86.12084961 83.35009766 -83.79948425 81.02130127 C-80.3045991 78.84083791 -77.91127104 78.83328004 -73.80834961 78.81884766 C-73.11700928 78.81502075 -72.42566895 78.81119385 -71.71337891 78.80725098 C-70.25771623 78.80453979 -68.80200417 78.81184554 -67.34643555 78.82861328 C-65.12689916 78.85003926 -62.91059865 78.82878994 -60.69116211 78.80322266 C-59.27188418 78.80586608 -57.85260826 78.81099137 -56.43334961 78.81884766 C-54.50942383 78.82561523 -54.50942383 78.82561523 -52.54663086 78.83251953 C-48.47349651 79.44790186 -47.00715691 80.45455086 -44.12084961 83.35009766 C-43.51957703 86.03302002 -43.51957703 86.03302002 -43.55322266 89.12841797 C-43.55360031 90.28931946 -43.55397797 91.45022095 -43.55436707 92.64630127 C-43.58017349 93.89433533 -43.60597992 95.14236938 -43.63256836 96.42822266 C-43.64318047 98.35078888 -43.64318047 98.35078888 -43.65400696 100.31219482 C-43.67305727 103.71241381 -43.72213772 107.11155723 -43.77752686 110.51135254 C-43.82876383 113.98349457 -43.85153028 117.45581119 -43.87670898 120.92822266 C-43.93026121 127.73599953 -44.01817912 134.54288616 -44.12084961 141.35009766 C-35.87084961 141.35009766 -27.62084961 141.35009766 -19.12084961 141.35009766 C-19.14179688 137.25120117 -19.16274414 133.15230469 -19.18432617 128.92919922 C-19.25052096 115.40642208 -19.29495853 101.88364751 -19.3280983 88.36075211 C-19.34873042 80.15952553 -19.3768633 71.95845234 -19.42260742 63.75732422 C-19.46245546 56.60985963 -19.4882777 49.46250612 -19.49720359 42.31493354 C-19.50242185 38.52970363 -19.51469968 34.74479152 -19.54376984 30.95966339 C-19.57090714 27.39736537 -19.57929823 23.83551626 -19.57328033 20.27312469 C-19.57490659 18.34153013 -19.59643831 16.40998453 -19.61853027 14.47851562 C-19.61303162 13.32869202 -19.60753296 12.17886841 -19.60186768 10.99420166 C-19.60555485 9.99497807 -19.60924202 8.99575447 -19.61304092 7.96625137 C-18.98500913 4.62806224 -17.71561737 3.46776928 -15.12084961 1.35009766 C-10.73262548 -0.84401441 -4.87385083 0.04058343 0 0 Z M-7.12084961 12.35009766 C-7.12084961 54.92009766 -7.12084961 97.49009766 -7.12084961 141.35009766 C-0.85084961 141.35009766 5.41915039 141.35009766 11.87915039 141.35009766 C11.87915039 98.78009766 11.87915039 56.21009766 11.87915039 12.35009766 C5.60915039 12.35009766 -0.66084961 12.35009766 -7.12084961 12.35009766 Z M-142.12084961 44.35009766 C-142.12084961 76.36009766 -142.12084961 108.37009766 -142.12084961 141.35009766 C-135.85084961 141.35009766 -129.58084961 141.35009766 -123.12084961 141.35009766 C-123.12084961 109.34009766 -123.12084961 77.33009766 -123.12084961 44.35009766 C-129.39084961 44.35009766 -135.66084961 44.35009766 -142.12084961 44.35009766 Z M-211.12084961 79.35009766 C-211.12084961 99.81009766 -211.12084961 120.27009766 -211.12084961 141.35009766 C-204.85084961 141.35009766 -198.58084961 141.35009766 -192.12084961 141.35009766 C-192.12084961 120.89009766 -192.12084961 100.43009766 -192.12084961 79.35009766 C-198.39084961 79.35009766 -204.66084961 79.35009766 -211.12084961 79.35009766 Z M-75.12084961 91.35009766 C-75.12084961 107.85009766 -75.12084961 124.35009766 -75.12084961 141.35009766 C-68.52084961 141.35009766 -61.92084961 141.35009766 -55.12084961 141.35009766 C-55.12084961 124.85009766 -55.12084961 108.35009766 -55.12084961 91.35009766 C-61.72084961 91.35009766 -68.32084961 91.35009766 -75.12084961 91.35009766 Z " fill="#000000" transform="translate(367.120849609375,182.64990234375)"/>
<path d="M0 0 C4.98065485 3.64438159 8.38613666 7.75791064 9.5625 13.875 C9.64588286 20.25378914 8.82398386 24.90326883 4.5625 29.875 C1.13515307 33.12196025 -1.79828903 34.92997554 -6.4375 35.875 C-7.2315625 35.67777344 -8.025625 35.48054688 -8.84375 35.27734375 C-12.0747575 34.50208764 -14.15521136 34.22538037 -17.4375 34.875 C-21.75012339 38.09568039 -24.87937234 42.71630908 -28.05029297 47.0078125 C-29.98969842 49.61826179 -32.05406182 52.1182644 -34.125 54.625 C-34.84042969 55.50671875 -35.55585938 56.3884375 -36.29296875 57.296875 C-39.14936108 60.73078928 -42.15474399 64.0167149 -45.1640625 67.31640625 C-48.3968237 70.95465124 -51.44563104 74.73279763 -54.4921875 78.52734375 C-56.4375 80.875 -56.4375 80.875 -58.25 82.4375 C-59.67025678 83.81213335 -59.67025678 83.81213335 -59.2578125 85.78515625 C-59.02835938 86.49542969 -58.79890625 87.20570313 -58.5625 87.9375 C-56.86379555 94.45627833 -57.06243905 100.22309675 -60.1875 106.25 C-64.04440226 110.7497193 -67.55461716 113.65402432 -73.4375 114.875 C-81.22263027 114.98930044 -85.91036212 113.20058715 -91.625 107.8125 C-93.4375 104.875 -93.4375 104.875 -93.78515625 102.49829102 C-94.49861593 97.63178597 -95.45218633 94.74389358 -99.20629883 91.43334961 C-102.7469412 89.00260607 -106.48846232 86.93940185 -110.25 84.875 C-111.53631033 84.13463784 -112.82083693 83.39116755 -114.10351562 82.64453125 C-117.52143151 80.67050825 -120.96264543 78.74760318 -124.4375 76.875 C-125.49928467 76.26785156 -126.56106934 75.66070312 -127.6550293 75.03515625 C-128.57324463 74.65230469 -129.49145996 74.26945312 -130.4375 73.875 C-132.08779654 74.832172 -133.7333829 75.80243683 -135.31640625 76.8671875 C-139.71209198 78.95574536 -144.706952 78.45398223 -149.4375 77.875 C-152.9375 76.3125 -152.9375 76.3125 -155.4375 74.875 C-158.91780388 75.32791945 -161.7131482 76.97184453 -164.76171875 78.640625 C-165.79103516 79.20136719 -166.82035156 79.76210937 -167.88085938 80.33984375 C-168.95142578 80.92894531 -170.02199219 81.51804687 -171.125 82.125 C-172.17623047 82.69863281 -173.22746094 83.27226562 -174.31054688 83.86328125 C-176.38243362 84.99527662 -178.45088425 86.1335868 -180.515625 87.27856445 C-182.37959287 88.29698741 -184.25883897 89.28825092 -186.15625 90.24291992 C-186.96449219 90.65646729 -187.77273437 91.07001465 -188.60546875 91.49609375 C-189.31082764 91.84341553 -190.01618652 92.1907373 -190.74291992 92.54858398 C-193.61550606 94.79707275 -193.88258245 97.87422405 -194.640625 101.30078125 C-196.26506546 106.54836097 -200.21232665 110.43164432 -204.75 113.375 C-211.48170613 114.62741044 -217.58901613 114.81932633 -223.4375 110.875 C-227.9156967 107.22995617 -230.29833843 103.49015923 -231.4375 97.875 C-231.69540322 91.88132906 -230.36232262 86.48638051 -226.4375 81.875 C-221.40368215 77.08377579 -216.44375195 76.30424693 -209.66015625 76.2109375 C-206.4375 76.875 -206.4375 76.875 -204.57275391 78.29589844 C-202.13487756 80.1449295 -200.43623149 81.18296429 -197.4375 81.875 C-192.0430593 80.20147196 -187.47167246 77.32553832 -182.6875 74.375 C-181.37573514 73.60329738 -180.06194328 72.83502943 -178.74609375 72.0703125 C-175.28373268 70.04639222 -171.85848583 67.96806757 -168.4375 65.875 C-167.49430908 65.34495361 -166.55111816 64.81490723 -165.5793457 64.26879883 C-163.24127244 63.05918924 -163.24127244 63.05918924 -162.65234375 60.60546875 C-162.51505859 59.34669922 -162.51505859 59.34669922 -162.375 58.0625 C-161.45119283 52.18605996 -159.40029018 48.68680632 -155 44.625 C-150.01745383 41.22228554 -145.48343039 39.98261175 -139.4375 40.875 C-133.99314333 42.64290918 -129.11873843 45.65681414 -126.4375 50.875 C-126.16574583 52.59029715 -125.9094306 54.30807381 -125.6640625 56.02734375 C-124.06185854 62.14241377 -120.55881651 64.57161791 -115.40013123 67.65733337 C-113.48733407 68.75337291 -111.55760272 69.81435168 -109.625 70.875 C-108.33868967 71.61536216 -107.05416307 72.35883245 -105.77148438 73.10546875 C-100.41078044 76.20155222 -94.99258345 79.14070583 -89.4375 81.875 C-88.65375 81.235625 -87.87 80.59625 -87.0625 79.9375 C-83.46129847 77.50240182 -80.06943154 77.28328287 -75.8046875 77.05078125 C-70.59510696 76.66393121 -68.72751464 75.51592766 -65.25 71.5 C-64.45722656 70.58863281 -63.66445313 69.67726563 -62.84765625 68.73828125 C-59.83908148 65.16407492 -56.88494588 61.54897932 -53.9453125 57.91796875 C-51.57959637 55.04741912 -49.17056751 52.22468025 -46.72998047 49.41796875 C-45.61806834 48.13902561 -44.51031122 46.85645826 -43.40673828 45.5703125 C-40.72060336 42.44796763 -38.00203364 39.39732197 -35.125 36.44921875 C-29.56359718 30.89867734 -29.56359718 30.89867734 -27.0859375 23.6796875 C-27.39429883 20.57624529 -27.39429883 20.57624529 -28.01171875 17.6015625 C-28.84436595 12.26956481 -26.48016541 8.49292908 -23.625 4.0625 C-17.18096734 -2.38153266 -8.40838397 -2.75183475 0 0 Z M-14.4375 11.875 C-16.02902808 14.64943477 -16.02902808 14.64943477 -16.4375 17.875 C-15.60770292 20.78578244 -15.60770292 20.78578244 -13.4375 22.875 C-10.59122409 24.21050847 -10.59122409 24.21050847 -7.4375 23.875 C-4.35416667 21.95833333 -4.35416667 21.95833333 -2.4375 18.875 C-2.10199153 15.72127591 -2.10199153 15.72127591 -3.4375 12.875 C-7.49520426 9.75368903 -10.10603694 8.89711914 -14.4375 11.875 Z M-148.25 55.0625 C-150.70609902 57.62650023 -150.70609902 57.62650023 -150.4375 60.5 C-149.35296902 63.07576108 -148.77858221 64.34118752 -146.4375 65.875 C-143.48029372 66.54180368 -143.48029372 66.54180368 -140.4375 65.875 C-137.77865399 63.88479883 -137.77865399 63.88479883 -136.4375 60.875 C-136.84597192 57.64943477 -136.84597192 57.64943477 -138.4375 54.875 C-142.53375985 52.1441601 -144.33363682 52.01643975 -148.25 55.0625 Z M-217.875 91.0625 C-219.66279278 93.72147339 -219.66279278 93.72147339 -219.375 96.5 C-218.34487836 99.10964149 -217.78805139 100.33498357 -215.4375 101.875 C-212.48029372 102.54180368 -212.48029372 102.54180368 -209.4375 101.875 C-206.8660061 99.8065113 -206.8660061 99.8065113 -205.4375 96.875 C-205.50642419 93.98018392 -206.04888683 92.46814642 -207.625 90.0625 C-211.50931098 87.5176066 -214.52824686 88.0590036 -217.875 91.0625 Z M-82.4375 91.875 C-83.60727494 94.22372531 -83.60727494 94.22372531 -83.4375 96.875 C-82.11713999 100.1025467 -81.30660604 101.50906062 -78.0625 102.875 C-74.60914129 102.875 -73.08003676 102.07711397 -70.4375 99.875 C-69.26772506 97.52627469 -69.26772506 97.52627469 -69.4375 94.875 C-70.75786001 91.6474533 -71.56839396 90.24093938 -74.8125 88.875 C-78.26585871 88.875 -79.79496324 89.67288603 -82.4375 91.875 Z " fill="#000000" transform="translate(378.4375,121.125)"/>
<path d="M0 0 C3.33311058 1.36742998 4.01026865 2.7173679 5.4375 6 C5.499375 7.155 5.56125 8.31 5.625 9.5 C6.05035879 12.96284672 6.05035879 12.96284672 8.0625 14.3125 C9.46705899 15.12118548 10.88029715 15.91493883 12.30078125 16.6953125 C17.0335083 19.58513121 19.83806051 23.44690677 21.8125 28.5625 C23.29464286 36.71428571 23.29464286 36.71428571 20.4375 41 C17.4393124 42.13444936 15.88037964 42.13708179 12.8125 41.1875 C9.65259792 38.27706387 9.19863727 35.49989133 8.30859375 31.375 C7.23769253 28.45523344 6.08076777 27.5711386 3.4375 26 C-0.24013571 24.88071957 -2.08213522 24.83987841 -5.75 26.0625 C-9.16230465 28.41319876 -10.25646141 30.08188422 -11.5625 34 C-11.46224486 38.91250186 -9.9681409 41.5268092 -6.5625 45 C-3.36078583 46.06367567 -3.36078583 46.06367567 0.1875 46.5 C8.75263128 48.11706835 13.79665631 50.30667553 18.875 57.5 C22.25913833 62.73757649 22.94402472 67.82039843 22.4375 74 C20.54931108 81.46856891 17.10066918 86.94253944 10.4375 91 C7.68359375 91.68359375 7.68359375 91.68359375 5.4375 92 C5.47230469 92.59167969 5.50710937 93.18335938 5.54296875 93.79296875 C5.67166333 97.54962493 5.61691823 100.48285334 4.375 104.0625 C2.4375 106 2.4375 106 -1.125 106.4375 C-4.5625 106 -4.5625 106 -6.5625 104 C-6.65907872 102.2104531 -6.69230468 100.41714466 -6.6875 98.625 C-6.81147503 95.6557861 -6.81147503 95.6557861 -7.5625 93 C-9.4312089 91.43153929 -11.15148686 90.78672174 -13.4296875 89.9375 C-18.47390538 87.72026137 -21.40482368 82.88210332 -23.4375 77.9375 C-24.54215966 74.51768536 -25.13572407 71.60312275 -24.5625 68 C-22.9375 65.5625 -22.9375 65.5625 -20.5625 64 C-16.8639996 64.14794002 -15.20444427 64.35805573 -12.5625 67 C-11.77932942 69.50872773 -11.16311494 72.0372437 -10.5390625 74.58984375 C-9.35520744 77.51159805 -8.29802115 78.47262643 -5.5625 80 C-2.48080915 80.66154365 0.34304669 80.57917575 3.4375 80 C7.11601615 77.47102015 8.20256073 75.86144398 9.375 71.5625 C9.44172113 67.75939535 9.17086578 65.3879422 7.4375 62 C3.89081673 60.21421386 0.60402035 59.68516893 -3.3125 59.25 C-10.93570469 58.04831256 -16.08536306 54.9852676 -21 49.0625 C-24.49734815 42.20769762 -25.85606094 35.50881605 -23.5 28.0625 C-21.00380463 22.01040368 -16.81868647 17.36222579 -11.25 14 C-8.5625 13 -8.5625 13 -6.5625 13 C-6.60890625 12.31292969 -6.6553125 11.62585937 -6.703125 10.91796875 C-6.75726563 9.56638672 -6.75726563 9.56638672 -6.8125 8.1875 C-6.85890625 7.29417969 -6.9053125 6.40085937 -6.953125 5.48046875 C-6.5625 3 -6.5625 3 -4.70703125 1.17578125 C-2.5625 0 -2.5625 0 0 0 Z " fill="#000000" transform="translate(97.5625,46)"/>
</svg>
